<svg width="41" height="41" viewBox="0 0 41 41" fill="none" xmlns="http://www.w3.org/2000/svg">
<g id="03">
<g id="Group">
<path id="Vector" d="M20.3231 33.5735C18.8242 33.5735 17.3318 33.5735 15.8329 33.5735C14.9284 33.5735 14.489 33.1277 14.4826 32.2232C14.4696 30.5369 13.9011 29.1026 12.7188 27.8557C10.5221 25.5491 9.57233 22.7581 9.86953 19.5793C10.2055 15.9613 11.9887 13.2348 15.1157 11.4258C17.3059 10.153 19.7029 9.80412 22.1968 10.2305C24.555 10.6376 26.5643 11.7294 28.1537 13.5191C30.4795 16.1357 31.3001 19.1982 30.6863 22.6289C30.3503 24.496 29.5233 26.1629 28.2441 27.5714C27.5076 28.3854 26.7775 29.193 26.5061 30.2849C26.3511 30.9181 26.2606 31.5706 26.2154 32.2232C26.1573 33.1148 25.7438 33.5606 24.8393 33.567C23.3339 33.5735 21.8285 33.5735 20.3231 33.5735ZM20.1422 14.7531C19.8967 14.779 19.6512 14.8048 19.4057 14.8306C17.2219 15.0891 15.1545 16.9627 14.6828 19.0948C14.4955 19.9282 15.2708 20.6777 16.1042 20.458C16.5952 20.3288 16.8537 19.9799 16.9894 19.5212C17.1444 18.985 17.4222 18.5133 17.8163 18.1192C18.4818 17.4537 19.2894 17.1307 20.2198 17.0919C20.588 17.079 20.924 16.995 21.1889 16.7172C21.5249 16.3619 21.6153 15.8708 21.4021 15.4315C21.1372 14.9146 20.6979 14.7273 20.1422 14.7531Z" fill="#D6E1FA"/>
<path id="Vector_2" d="M24.9827 35.9248C25.1959 37.7791 24.7824 39.3232 23.0509 40.2277C22.5469 40.4926 21.9913 40.5895 21.4292 40.596C20.7056 40.6024 19.9885 40.6089 19.2648 40.596C17.5204 40.5701 16.2024 39.5946 15.7695 37.9018C15.6145 37.2816 15.6532 36.6032 15.6016 35.9248C18.7803 35.9248 21.8815 35.9248 24.9827 35.9248Z" fill="#D6E1FA"/>
<path id="Vector_3" d="M11.5903 10.4952C11.558 11.1283 11.3512 11.4966 10.9184 11.7163C10.4919 11.9295 10.0785 11.8842 9.70373 11.6C9.48406 11.432 9.29669 11.2188 9.09641 11.025C8.16605 10.1011 7.23569 9.17716 6.3118 8.24034C5.66571 7.58134 5.84016 6.59283 6.64776 6.26979C7.17108 6.06304 7.61688 6.2181 7.99807 6.59929C8.84444 7.44566 9.68434 8.28557 10.5307 9.13193C10.7504 9.3516 10.9959 9.55189 11.1833 9.7974C11.3706 10.0429 11.4998 10.3336 11.5903 10.4952Z" fill="#D6E1FA"/>
<path id="Vector_4" d="M19.1673 4.1441C19.1673 3.40111 19.1673 2.65811 19.1673 1.91512C19.1673 1.13982 19.6454 0.610034 20.3302 0.603573C21.0215 0.597113 21.5061 1.13336 21.5061 1.89574C21.5061 3.43341 21.5126 4.97755 21.5061 6.51522C21.5061 7.07086 21.1831 7.49727 20.6791 7.65879C20.2075 7.80739 19.6712 7.65233 19.3999 7.21945C19.2642 7.00625 19.1867 6.72197 19.1802 6.46354C19.1544 5.70116 19.1673 4.9194 19.1673 4.1441Z" fill="#D6E1FA"/>
<path id="Vector_5" d="M3.91467 21.7759C3.10707 21.7759 2.29947 21.7888 1.49186 21.7694C0.936233 21.7565 0.522741 21.4076 0.374142 20.8585C0.251386 20.4062 0.464594 19.857 0.91039 19.6115C1.09775 19.5082 1.3368 19.4371 1.55001 19.4306C3.11999 19.4177 4.69643 19.4177 6.26641 19.4242C6.95126 19.4306 7.46812 19.954 7.46166 20.6065C7.4552 21.2526 6.95126 21.7501 6.27287 21.763C5.48465 21.7824 4.69643 21.7759 3.91467 21.7759Z" fill="#D6E1FA"/>
<path id="Vector_6" d="M36.7858 21.7756C35.9782 21.7756 35.1706 21.7885 34.363 21.7691C33.8138 21.7562 33.4068 21.4138 33.2582 20.8904C33.129 20.4253 33.3228 19.8825 33.7557 19.6306C33.9495 19.5143 34.195 19.4367 34.4212 19.4367C35.9911 19.4174 37.5611 19.4238 39.1376 19.4303C39.8289 19.4367 40.3264 19.9472 40.3199 20.6191C40.3134 21.2716 39.8289 21.7626 39.1376 21.7756C38.3558 21.782 37.574 21.7756 36.7858 21.7756Z" fill="#D6E1FA"/>
<path id="Vector_7" d="M34.7783 7.49772C34.6943 7.65924 34.5974 7.98228 34.3906 8.20195C33.3246 9.30675 32.2327 10.3922 31.1344 11.4711C30.624 11.9751 29.9327 11.9686 29.461 11.5034C28.9765 11.0253 28.9765 10.3211 29.4933 9.80423C30.5658 8.71881 31.6448 7.63986 32.7302 6.56736C33.1049 6.19263 33.5572 6.06988 34.0611 6.28955C34.5134 6.47691 34.7331 6.85164 34.7783 7.49772Z" fill="#D6E1FA"/>
</g>
</g>
</svg>
