<svg width="26" height="41" viewBox="0 0 26 41" fill="none" xmlns="http://www.w3.org/2000/svg">
<g id="07">
<path id="Vector" d="M6.90152 13.8157C6.74374 13.8157 6.62843 13.8157 6.50706 13.8157C4.86854 13.8157 3.23001 13.8157 1.59148 13.8157C0.972482 13.8157 0.590159 13.494 0.535541 12.9539C0.499129 12.5837 0.699394 12.3228 0.948207 12.0861C2.68383 10.393 4.41946 8.69375 6.14901 6.99453C8.182 5.01009 10.215 3.01959 12.2419 1.02908C12.8184 0.464699 13.1765 0.45863 13.7591 1.02908C16.939 4.14228 20.1129 7.25548 23.2929 10.3687C23.8937 10.9573 24.4944 11.5399 25.0892 12.1286C25.5322 12.5716 25.5929 13.0692 25.247 13.4758C25.0224 13.7428 24.7069 13.8157 24.3731 13.8157C22.5343 13.8157 20.6894 13.8217 18.8506 13.8096C18.5411 13.8096 18.4622 13.8885 18.4622 14.198C18.4744 18.8769 18.4683 23.5619 18.4683 28.2408C18.4683 28.5199 18.4501 28.8051 18.3955 29.0843C18.3045 29.5334 18.1345 29.6548 17.6794 29.6548C15.9923 29.6548 14.2992 29.6548 12.6121 29.6548C11.2042 29.6548 9.80232 29.6548 8.3944 29.6548C7.48411 29.6548 6.88938 29.06 6.88938 28.1619C6.88938 23.5315 6.88938 18.9012 6.88938 14.2708C6.90152 14.1312 6.90152 13.9916 6.90152 13.8157Z" fill="#D6E1FA"/>
<path id="Vector_2" d="M13.0116 31.4629C14.5773 31.4629 16.143 31.4629 17.7087 31.4629C18.261 31.4629 18.5947 31.6814 18.7282 32.1001C18.9042 32.6523 18.5765 33.1803 18.0061 33.2653C17.8786 33.2835 17.7451 33.2956 17.6116 33.2956C14.5288 33.2956 11.4459 33.2956 8.36911 33.2956C7.71977 33.2956 7.36779 33.065 7.25248 32.5856C7.13718 32.1062 7.41634 31.6267 7.89576 31.5114C8.05354 31.475 8.21739 31.4629 8.37518 31.4629C9.91661 31.4629 11.4641 31.4629 13.0116 31.4629Z" fill="#D6E1FA"/>
<path id="Vector_3" d="M12.9805 40.6023C11.3845 40.6023 9.78842 40.6023 8.19238 40.6023C7.80399 40.6023 7.50055 40.4445 7.32456 40.0986C7.15464 39.7648 7.19105 39.431 7.42166 39.1276C7.63406 38.8424 7.94963 38.7695 8.28341 38.7695C8.96916 38.7695 9.65491 38.7695 10.3467 38.7695C12.7499 38.7695 15.1531 38.7695 17.5623 38.7695C17.714 38.7695 17.8658 38.7756 18.0175 38.7999C18.4787 38.8727 18.8003 39.255 18.7943 39.7041C18.7882 40.1532 18.4483 40.5294 17.9932 40.5901C17.8354 40.6083 17.6716 40.6023 17.5077 40.6023C15.9906 40.6023 14.4855 40.6023 12.9805 40.6023Z" fill="#D6E1FA"/>
<path id="Vector_4" d="M12.9958 35.1289C14.5736 35.1289 16.1515 35.1289 17.7293 35.1289C18.2937 35.1289 18.6214 35.3595 18.7428 35.8086C18.8702 36.2941 18.585 36.7856 18.0995 36.9131C18.0146 36.9374 17.9175 36.9495 17.8325 36.9556C14.6161 36.9556 11.3998 36.9616 8.18339 36.9556C7.71004 36.9556 7.40054 36.7189 7.27916 36.3305C7.09711 35.7722 7.44302 35.2199 8.0256 35.1471C8.15305 35.1289 8.28655 35.135 8.42006 35.135C9.94329 35.1289 11.4726 35.1289 12.9958 35.1289Z" fill="#D6E1FA"/>
</g>
</svg>
