<svg width="40" height="40" viewBox="0 0 40 40" fill="none" xmlns="http://www.w3.org/2000/svg">
<g id="04">
<g id="Group">
<path id="Vector" d="M7.12704 19.4211C7.4765 19.4211 7.80445 19.3996 8.1324 19.4265C8.83669 19.4856 9.30442 19.8942 9.48184 20.5716C9.7184 21.4802 9.93882 22.3942 10.1808 23.3028C10.2345 23.4963 10.342 23.6791 10.4549 23.8458C11.041 24.6898 11.6592 25.5178 12.0571 26.4748C12.4925 27.5231 12.7183 28.6091 12.5463 29.7489C12.5302 29.8672 12.5248 29.9908 12.3528 29.9801C11.6592 29.9317 11.0087 30.1682 10.3528 30.3242C8.36896 30.7973 6.3905 31.2865 4.40666 31.765C3.78301 31.9155 3.15937 32.0768 2.53035 32.2166C2.45508 32.2327 2.30992 32.1843 2.28842 32.1306C1.89057 31.136 1.51424 30.1306 1.11639 29.136C0.611026 27.878 0.207807 26.593 0.051896 25.2382C-0.130897 23.6791 0.164797 22.2436 1.00887 20.8781C2.37981 18.6684 3.68087 16.4104 4.97654 14.1524C5.57331 13.1094 6.89049 12.6847 7.94423 12.9427C8.2238 13.0126 8.50874 13.1309 8.74529 13.2922C9.17002 13.5825 9.33131 14.0395 9.15389 14.5234C8.86357 15.3029 8.52487 16.061 8.20229 16.8298C7.86359 17.6362 7.51413 18.4426 7.17543 19.2491C7.14855 19.2975 7.14317 19.3458 7.12704 19.4211Z" fill="#D6E1FA"/>
<path id="Vector_2" d="M33.0097 19.4261C32.8485 19.0336 32.7033 18.668 32.5474 18.3132C32.0743 17.2057 31.628 16.0766 31.1065 14.9906C30.5904 13.9208 31.3216 13.0552 32.2786 12.953C33.2409 12.8509 34.0904 13.0767 34.7893 13.7702C34.9291 13.9046 35.0366 14.0767 35.1334 14.2487C36.4936 16.6035 37.8215 18.9798 39.2247 21.3077C39.9666 22.5335 40.058 23.8346 39.9774 25.1894C39.8806 26.7808 39.3483 28.2431 38.7139 29.6893C38.3645 30.4904 38.0795 31.3183 37.757 32.1301C37.7355 32.1839 37.5903 32.2377 37.5204 32.2215C36.6226 32.0119 35.7301 31.7807 34.8377 31.5656C32.7356 31.0549 30.6334 30.5388 28.5259 30.0334C28.327 29.985 28.1174 29.9743 27.9131 29.9904C27.6496 30.0119 27.5744 29.899 27.5528 29.6624C27.4937 28.9581 27.5582 28.2646 27.7195 27.5818C28.0152 26.3292 28.6066 25.2163 29.4345 24.2486C29.8324 23.7862 29.9614 23.2486 30.0904 22.6894C30.2356 22.0443 30.3861 21.3991 30.5367 20.754C30.7248 19.9637 31.3377 19.4798 32.2141 19.4314C32.4614 19.4153 32.714 19.4261 33.0097 19.4261Z" fill="#D6E1FA"/>
<path id="Vector_3" d="M14.7123 34.6352C14.707 35.8019 14.0618 36.6244 13.1693 36.8449C10.5619 37.4846 7.95976 38.119 5.35227 38.7588C4.94368 38.861 4.53508 38.9524 4.12111 39.0438C2.94371 39.2964 1.91147 38.6513 1.61578 37.4685C1.49213 36.9847 1.37385 36.4954 1.26095 36.0116C0.986759 34.818 1.71255 33.7266 2.91146 33.4471C4.61035 33.0546 6.29849 32.6191 7.99201 32.2052C9.25006 31.8933 10.5081 31.5815 11.7715 31.2751C12.8414 31.017 13.9166 31.6084 14.2285 32.6621C14.4381 33.3879 14.5887 34.1352 14.7123 34.6352Z" fill="#D6E1FA"/>
<path id="Vector_4" d="M36.1469 39.0224C35.7759 38.9363 35.1899 38.8073 34.6093 38.6729C32.1255 38.0869 29.6524 37.4686 27.1632 36.931C25.7654 36.6299 25.0611 35.345 25.4643 34.0708C25.6095 33.6085 25.6793 33.13 25.8245 32.6676C26.1525 31.6085 27.2008 31.0118 28.2761 31.2698C29.8997 31.6623 31.5233 32.0655 33.147 32.4633C34.5125 32.7967 35.8727 33.1246 37.2383 33.4526C38.3565 33.7214 39.0447 34.8128 38.792 35.931C38.6684 36.474 38.5393 37.0117 38.4049 37.5493C38.1684 38.4364 37.3351 39.0385 36.1469 39.0224Z" fill="#D6E1FA"/>
<path id="Vector_5" d="M29.6976 9.07207C29.5901 9.07745 29.504 9.0882 29.418 9.0882C28.1385 9.0882 26.8589 9.08283 25.5794 9.09358C25.3482 9.09358 25.2729 9.03444 25.2622 8.79788C25.203 7.60973 25.1063 6.42696 24.7891 5.22805C24.902 5.2173 24.9934 5.20117 25.0848 5.20117C26.1654 5.20117 27.2514 5.20117 28.332 5.20117C28.4933 5.20117 28.617 5.2173 28.703 5.38934C29.246 6.46459 29.547 7.60436 29.6976 8.79788C29.7083 8.87315 29.6976 8.96455 29.6976 9.07207Z" fill="#D6E1FA"/>
<path id="Vector_6" d="M24.8633 14.1736C24.9224 13.7543 24.9923 13.3618 25.0353 12.964C25.1213 12.1737 25.1966 11.378 25.2557 10.5877C25.2719 10.3834 25.331 10.3135 25.5407 10.3135C26.8632 10.3189 28.1912 10.3242 29.5137 10.3135C29.7395 10.3135 29.7879 10.3887 29.761 10.5984C29.6105 11.7866 29.3041 12.9317 28.7557 14.0016C28.7073 14.093 28.5783 14.2005 28.4869 14.2005C27.3256 14.2113 26.159 14.2059 24.9977 14.2059C24.9601 14.2005 24.9278 14.1844 24.8633 14.1736Z" fill="#D6E1FA"/>
<path id="Vector_7" d="M15.1903 5.15762C15.1311 5.52321 15.0666 5.86191 15.0236 6.20599C14.9215 7.05007 14.8193 7.89414 14.7333 8.73821C14.7118 8.95326 14.6365 9.01777 14.4161 9.01777C13.1258 9.00702 11.8355 9.0124 10.5506 9.0124C10.4699 9.0124 10.3893 9.00164 10.2656 8.99627C10.2979 8.73283 10.314 8.48015 10.357 8.22746C10.5291 7.20598 10.8194 6.22212 11.3032 5.30816C11.3463 5.22752 11.4699 5.13612 11.5559 5.13074C12.7172 5.11999 13.8838 5.12537 15.0505 5.12537C15.0827 5.13074 15.1204 5.14687 15.1903 5.15762Z" fill="#D6E1FA"/>
<path id="Vector_8" d="M14.7009 10.4102C14.8461 11.6951 14.9912 12.9585 15.1418 14.2542C15.0987 14.2596 15.0235 14.2703 14.9482 14.2703C13.8568 14.2703 12.7655 14.2757 11.6741 14.2649C11.5719 14.2649 11.4214 14.2004 11.3784 14.1198C10.7924 13.0176 10.4752 11.8295 10.3461 10.5929C10.3408 10.5392 10.3461 10.4854 10.3461 10.4155C11.8192 10.4102 13.2816 10.4102 14.7009 10.4102Z" fill="#D6E1FA"/>
<path id="Vector_9" d="M19.3939 7.09827C19.3939 7.66815 19.3886 8.24341 19.3993 8.8133C19.4047 9.02297 19.3402 9.09286 19.1251 9.08748C18.195 9.07673 17.2649 9.07673 16.3348 9.08748C16.1305 9.08748 16.0607 9.01222 16.0875 8.81867C16.2219 7.71116 16.3563 6.60366 16.4854 5.49615C16.5176 5.22734 16.6252 5.10906 16.9316 5.11981C17.6305 5.14669 18.3294 5.13056 19.023 5.13056C19.3939 5.13056 19.3939 5.13056 19.3939 5.51765C19.3939 6.03915 19.3939 6.5714 19.3939 7.09827Z" fill="#D6E1FA"/>
<path id="Vector_10" d="M20.6523 7.06129C20.6523 6.50754 20.663 5.95378 20.6469 5.40003C20.6415 5.1796 20.7222 5.12584 20.9265 5.13122C21.7114 5.14197 22.5017 5.13659 23.2866 5.13122C23.4748 5.13122 23.5554 5.18498 23.5769 5.3839C23.7006 6.49141 23.835 7.59892 23.9694 8.70642C24.0017 8.95373 23.9103 9.029 23.6576 9.02362C22.7544 9.01287 21.8512 9.01287 20.948 9.02362C20.7168 9.029 20.6308 8.96986 20.6415 8.72793C20.663 8.1688 20.6523 7.61504 20.6523 7.06129Z" fill="#D6E1FA"/>
<path id="Vector_11" d="M20.6541 12.2546C20.6541 11.6901 20.6595 11.1256 20.6487 10.5611C20.6434 10.3783 20.7079 10.3084 20.8961 10.3138C21.8423 10.3191 22.7939 10.3191 23.7401 10.3138C23.9121 10.3138 23.982 10.3729 23.9766 10.5449C23.939 11.7116 23.8207 12.8621 23.525 13.9965C23.4874 14.1417 23.4283 14.2062 23.2724 14.2062C22.4767 14.2008 21.681 14.2008 20.8853 14.2062C20.7133 14.2062 20.6487 14.147 20.6541 13.9696C20.6595 13.3997 20.6541 12.8245 20.6541 12.2546Z" fill="#D6E1FA"/>
<path id="Vector_12" d="M19.3678 14.2708C18.6044 14.2708 17.8624 14.2708 17.1205 14.2708C16.4807 14.2708 16.4646 14.2708 16.3893 13.6472C16.2711 12.6633 16.1797 11.6741 16.0829 10.6848C16.0722 10.5988 16.0829 10.5128 16.0829 10.4053C17.185 10.4053 18.2603 10.4053 19.3678 10.4053C19.3678 11.6794 19.3678 12.9536 19.3678 14.2708Z" fill="#D6E1FA"/>
<path id="Vector_13" d="M27.7014 15.5393C27.282 16.6576 24.2606 18.8081 22.9219 18.9586C22.9326 18.921 22.9326 18.8834 22.9488 18.8619C23.6208 17.9264 24.0294 16.8726 24.3681 15.7866C24.4272 15.5931 24.5132 15.5125 24.7229 15.5178C25.6261 15.5286 26.5293 15.5232 27.4325 15.5232C27.5239 15.5178 27.61 15.5286 27.7014 15.5393Z" fill="#D6E1FA"/>
<path id="Vector_14" d="M12.3359 15.545C12.422 15.5342 12.4972 15.5181 12.5725 15.5181C13.4972 15.5181 14.4165 15.5181 15.3413 15.5127C15.5133 15.5127 15.6047 15.5611 15.6531 15.7331C15.9542 16.8675 16.4165 17.9266 17.1047 18.8836C17.1154 18.8944 17.11 18.9159 17.11 18.9374C16.1154 18.9911 12.8736 16.7008 12.3359 15.545Z" fill="#D6E1FA"/>
<path id="Vector_15" d="M27.7028 3.86168C27.6114 3.86705 27.5254 3.88318 27.4394 3.88318C26.5254 3.88318 25.6115 3.87781 24.6975 3.88856C24.5255 3.88856 24.4341 3.8348 24.3911 3.66813C24.09 2.5445 23.6438 1.49075 22.9502 0.544532C22.9341 0.51765 22.9287 0.480017 22.918 0.442383C24.2244 0.598294 27.2674 2.7703 27.7028 3.86168Z" fill="#D6E1FA"/>
<path id="Vector_16" d="M17.0768 0.453125C16.7596 1.05527 16.4263 1.64665 16.1467 2.25955C15.9478 2.69502 15.8187 3.16276 15.6682 3.61974C15.6198 3.75952 15.5876 3.88317 15.394 3.8778C14.4263 3.86704 13.4586 3.87242 12.4962 3.87242C12.4532 3.87242 12.4102 3.86167 12.3672 3.85092C12.6199 2.89394 15.8833 0.549898 17.0768 0.453125Z" fill="#D6E1FA"/>
<path id="Vector_17" d="M23.1591 15.5174C22.643 17.0066 22.0839 18.3829 20.6861 19.2808C20.6699 19.1463 20.6538 19.0711 20.6538 18.9958C20.6538 17.9313 20.6592 16.8668 20.6484 15.8023C20.6484 15.5765 20.7183 15.5066 20.9388 15.512C21.6484 15.5228 22.3635 15.5174 23.1591 15.5174Z" fill="#D6E1FA"/>
<path id="Vector_18" d="M19.3485 19.2702C17.9615 18.3831 17.4077 17.0068 16.9023 15.5606C17.0045 15.5391 17.0636 15.5176 17.1228 15.5176C17.8002 15.5176 18.483 15.5176 19.1604 15.5176C19.3055 15.5176 19.3969 15.5391 19.3969 15.7219C19.3915 16.8563 19.3915 17.996 19.3915 19.1304C19.3915 19.1519 19.3808 19.1788 19.3485 19.2702Z" fill="#D6E1FA"/>
<path id="Vector_19" d="M20.6968 0.125977C22.0785 1.01843 22.6323 2.38938 23.143 3.84097C23.0409 3.85709 22.9764 3.8786 22.9065 3.8786C22.2344 3.8786 21.5624 3.8786 20.8957 3.8786C20.7613 3.8786 20.6484 3.8786 20.6484 3.69043C20.6538 2.55604 20.6538 1.41628 20.6538 0.281888C20.6538 0.24963 20.6699 0.217373 20.6968 0.125977Z" fill="#D6E1FA"/>
<path id="Vector_20" d="M16.8906 3.86737C17.4067 2.38891 17.9659 1.01796 19.3745 0.109375C19.3852 0.276039 19.396 0.356683 19.396 0.442703C19.396 1.49107 19.3906 2.53406 19.4013 3.58243C19.4067 3.81899 19.3314 3.88888 19.0949 3.8835C18.4712 3.86737 17.8422 3.87813 17.2186 3.87813C17.1326 3.87813 17.0412 3.87275 16.8906 3.86737Z" fill="#D6E1FA"/>
</g>
</g>
</svg>
