<svg width="40" height="40" viewBox="0 0 40 40" fill="none" xmlns="http://www.w3.org/2000/svg">
<g id="01">
<path id="Vector" d="M29.4001 20.0233C27.4275 21.0096 25.6114 21.8864 23.811 22.8414C23.404 23.0605 23.0282 23.4363 22.8247 23.8433C21.8697 25.6281 20.993 27.4598 20.0067 29.4168C19.6622 28.7436 19.3804 28.2113 19.0986 27.6633C18.3315 26.1604 17.8462 24.36 16.719 23.2171C15.6074 22.0899 13.8226 21.6359 12.3354 20.8844C11.8031 20.6182 11.2708 20.3364 10.6445 20.0233C10.8794 19.8668 11.0203 19.7572 11.1925 19.6632C12.8207 18.8491 14.4645 18.0507 16.0614 17.1896C16.4998 16.9548 16.9381 16.5321 17.173 16.0937C18.1123 14.3246 18.989 12.5242 19.944 10.6299C20.1006 10.8647 20.2258 11.0056 20.3041 11.1778C21.1652 12.8687 21.9793 14.5908 22.8717 16.2659C23.0439 16.6104 23.3726 16.9235 23.7171 17.1114C25.3296 17.9568 26.9735 18.7552 28.6017 19.5693C28.8365 19.6946 29.04 19.8198 29.4001 20.0233Z" fill="#D6E1FA"/>
<path id="Vector_2" d="M8.46875 30.0114C10.0813 28.3989 11.6938 26.802 13.3064 25.1895C13.776 25.6748 14.2927 26.2071 14.7624 26.6924C13.1655 28.2736 11.5529 29.8862 9.90908 31.5144C9.47072 31.076 8.96973 30.5281 8.46875 30.0114Z" fill="#D6E1FA"/>
<path id="Vector_3" d="M29.9665 31.5317C28.354 29.9191 26.7727 28.3379 25.1445 26.6941C25.6768 26.24 26.2561 25.7704 26.7571 25.3477C28.2444 26.8506 29.8569 28.4631 31.5008 30.107C31.0467 30.5141 30.4988 31.0307 29.9665 31.5317Z" fill="#D6E1FA"/>
<path id="Vector_4" d="M26.6159 14.7632C26.1932 14.3249 25.6922 13.7926 25.2695 13.3385C26.8508 11.773 28.4633 10.1604 30.0915 8.53223C30.4829 8.95493 30.9839 9.48723 31.4222 9.97255C29.9036 11.5068 28.2911 13.1194 26.6159 14.7632Z" fill="#D6E1FA"/>
<path id="Vector_5" d="M8.57812 9.90987C8.96952 9.51848 9.4705 9.00184 9.90886 8.56348C11.4744 10.1447 13.1026 11.7729 14.6839 13.3698C14.2925 13.7455 13.7758 14.2622 13.3062 14.7162C11.7719 13.1506 10.1594 11.5224 8.57812 9.90987Z" fill="#D6E1FA"/>
<path id="Vector_6" d="M27.8837 35.8828C27.1322 36.1959 26.459 36.4777 25.7076 36.7908C24.9561 34.9747 24.2203 33.2056 23.4531 31.3583C24.1576 31.0608 24.8465 30.7633 25.6293 30.4346C26.3651 32.2506 27.1166 34.0354 27.8837 35.8828Z" fill="#D6E1FA"/>
<path id="Vector_7" d="M14.3246 3.20898C15.0917 5.07202 15.8275 6.84112 16.579 8.65718C15.8432 8.9703 15.1543 9.2521 14.4029 9.56521C13.6514 7.74915 12.9156 5.98005 12.1484 4.11702C12.8686 3.81956 13.5575 3.53775 14.3246 3.20898Z" fill="#D6E1FA"/>
<path id="Vector_8" d="M8.65913 16.5947C6.78045 15.8119 5.027 15.0917 3.21094 14.3246C3.52405 13.5888 3.80586 12.8999 4.11897 12.1484C5.95069 12.8999 7.73545 13.6514 9.58282 14.4029C9.25405 15.17 8.97225 15.8588 8.65913 16.5947Z" fill="#D6E1FA"/>
<path id="Vector_9" d="M14.3402 36.8065C13.5731 36.4933 12.8843 36.1959 12.1484 35.8828C12.8999 34.051 13.6357 32.2819 14.4029 30.4346C15.1387 30.7477 15.8275 31.0295 16.579 31.3426C15.8432 33.1587 15.1074 34.9278 14.3402 36.8065Z" fill="#D6E1FA"/>
<path id="Vector_10" d="M25.6137 9.56521C24.8622 9.2521 24.189 8.9703 23.4219 8.65718C24.1734 6.84112 24.9092 5.05636 25.6763 3.20898C26.4121 3.5221 27.101 3.8039 27.8681 4.11702C27.1166 5.93308 26.3965 7.70218 25.6137 9.56521Z" fill="#D6E1FA"/>
<path id="Vector_11" d="M30.4492 25.597C30.7623 24.8456 31.0441 24.1724 31.3573 23.4209C33.1733 24.1724 34.9581 24.9082 36.8055 25.6753C36.4923 26.4268 36.2105 27.1157 35.8974 27.8671C34.0657 27.1 32.2653 26.3642 30.4492 25.597Z" fill="#D6E1FA"/>
<path id="Vector_12" d="M36.8055 14.3246C34.9738 15.0917 33.2047 15.8276 31.3573 16.579C31.0442 15.8589 30.7624 15.17 30.4336 14.4029C32.2497 13.6514 34.0501 12.8999 35.8818 12.1328C36.2106 12.8843 36.4924 13.5731 36.8055 14.3246Z" fill="#D6E1FA"/>
<path id="Vector_13" d="M8.67476 23.4209C8.98787 24.1567 9.26968 24.8299 9.58279 25.597C7.76673 26.3485 5.98197 27.1 4.1346 27.8671C3.82148 27.1313 3.53968 26.4425 3.22656 25.691C5.02697 24.9395 6.79607 24.2037 8.67476 23.4209Z" fill="#D6E1FA"/>
<path id="Vector_14" d="M18.8828 31.8125C19.6343 31.8125 20.3545 31.8125 21.1372 31.8125C21.1372 32.9554 21.1372 34.1139 21.1372 35.3037C20.3858 35.3037 19.6656 35.3037 18.8828 35.3037C18.8828 34.1452 18.8828 33.0023 18.8828 31.8125Z" fill="#D6E1FA"/>
<path id="Vector_15" d="M18.8633 4.69629C19.6304 4.69629 20.3662 4.69629 21.1334 4.69629C21.1334 5.85481 21.1334 6.98203 21.1334 8.17186C20.3819 8.17186 19.6461 8.17186 18.8633 8.17186C18.8633 7.04465 18.8633 5.91744 18.8633 4.69629Z" fill="#D6E1FA"/>
<path id="Vector_16" d="M8.20214 18.8652C8.20214 19.648 8.20214 20.3682 8.20214 21.151C7.04361 21.151 5.9164 21.151 4.72656 21.151C4.72656 20.3995 4.72656 19.6637 4.72656 18.8652C5.85378 18.8652 6.98099 18.8652 8.20214 18.8652Z" fill="#D6E1FA"/>
<path id="Vector_17" d="M31.8125 18.8496C33.0023 18.8496 34.1139 18.8496 35.2881 18.8496C35.2881 19.6167 35.2881 20.3526 35.2881 21.151C34.1452 21.151 33.0023 21.151 31.8125 21.151C31.8125 20.3682 31.8125 19.6481 31.8125 18.8496Z" fill="#D6E1FA"/>
<path id="Vector_18" d="M18.8828 37.7148C19.6499 37.7148 20.3858 37.7148 21.1529 37.7148C21.1529 38.482 21.1529 39.2178 21.1529 40.0006C20.4014 40.0006 19.6656 40.0006 18.8828 40.0006C18.8828 39.2648 18.8828 38.5289 18.8828 37.7148Z" fill="#D6E1FA"/>
<path id="Vector_19" d="M40.0005 21.151C39.249 21.151 38.5289 21.151 37.7461 21.151C37.7461 20.3995 37.7461 19.6481 37.7461 18.8496C38.4819 18.8496 39.2177 18.8496 40.0005 18.8496C40.0005 19.6324 40.0005 20.3682 40.0005 21.151Z" fill="#D6E1FA"/>
<path id="Vector_20" d="M0 18.8496C0.767131 18.8496 1.4873 18.8496 2.27008 18.8496C2.27008 19.6167 2.27008 20.3526 2.27008 21.151C1.51861 21.151 0.782787 21.151 0 21.151C0 20.3839 0 19.6637 0 18.8496Z" fill="#D6E1FA"/>
<path id="Vector_21" d="M18.8477 2.27008C18.8477 1.4873 18.8477 0.767131 18.8477 0C19.6148 0 20.335 0 21.1334 0C21.1334 0.73582 21.1334 1.47164 21.1334 2.27008C20.3976 2.27008 19.6461 2.27008 18.8477 2.27008Z" fill="#D6E1FA"/>
<path id="Vector_22" d="M31.7969 6.65343C32.3135 6.10548 32.7988 5.58884 33.2529 5.10352C33.7852 5.65147 34.3018 6.18376 34.8654 6.76302C34.4114 7.17007 33.8478 7.67106 33.2998 8.15638C32.8458 7.70237 32.3135 7.15442 31.7969 6.65343Z" fill="#D6E1FA"/>
<path id="Vector_23" d="M5.07031 33.3154C5.60261 32.8301 6.15056 32.3448 6.69851 31.8281C7.12121 32.2978 7.60654 32.8614 8.13884 33.4563C7.71613 33.8477 7.15253 34.3644 6.57326 34.8966C6.11925 34.4113 5.61826 33.8947 5.07031 33.3154Z" fill="#D6E1FA"/>
<path id="Vector_24" d="M8.14268 6.79449C7.73563 7.20154 7.21899 7.71818 6.6867 8.25047C6.17006 7.70252 5.65342 7.13892 5.10547 6.57531C5.57514 6.10564 6.09178 5.589 6.67104 5.02539C7.15637 5.60465 7.62604 6.18392 8.14268 6.79449Z" fill="#D6E1FA"/>
<path id="Vector_25" d="M33.4877 31.8438C33.8947 32.2508 34.3957 32.7674 34.928 33.2997C34.3644 33.8007 33.8164 34.3017 33.2372 34.8497C32.8458 34.4113 32.3605 33.8477 31.8125 33.2371C32.2822 32.8614 32.8458 32.376 33.4877 31.8438Z" fill="#D6E1FA"/>
</g>
</svg>
