<svg width="41" height="41" viewBox="0 0 41 41" fill="none" xmlns="http://www.w3.org/2000/svg">
<g id="06">
<g id="Group">
<path id="Vector" d="M4.06016 32.2931C3.63505 31.6016 3.19293 30.9328 2.80183 30.2299C0.959677 26.8857 0.154797 23.2977 0.364519 19.4944C0.562905 15.8951 1.6682 12.5792 3.65772 9.56377C3.89012 9.20668 4.1962 9.0593 4.53629 9.13299C4.8367 9.19534 5.12578 9.45041 5.13712 9.76783C5.14278 9.98888 5.0691 10.2326 4.96707 10.431C4.49094 11.3322 3.99215 12.2165 3.50468 13.112C3.45934 13.1914 3.43667 13.2821 3.38565 13.4011C3.51602 13.4068 3.61238 13.4181 3.70874 13.4181C6.04969 13.4181 8.39631 13.4125 10.7373 13.4238C10.9753 13.4238 11.066 13.3444 11.151 13.1234C11.5818 11.9671 12.4037 11.2302 13.6224 10.9978C13.9398 10.9355 14.0361 10.7938 14.0928 10.499C14.4499 8.69087 14.9317 6.91674 15.6459 5.21629C16.0257 4.32072 16.4621 3.45349 17.0403 2.66561C17.0743 2.62027 17.0913 2.56925 17.1536 2.45589C16.7569 2.53524 16.4168 2.59759 16.0823 2.67695C13.8378 3.21542 11.7632 4.13367 9.86437 5.44868C9.63197 5.60739 9.39391 5.73776 9.09916 5.66974C8.77608 5.59039 8.56636 5.38633 8.49834 5.05758C8.43032 4.71749 8.54935 4.42274 8.83843 4.24703C9.84169 3.6462 10.8223 3.00003 11.8766 2.50124C15.0224 0.987835 18.3496 0.41535 21.8185 0.664749C25.4348 0.925485 28.728 2.0988 31.7038 4.15634C31.9022 4.29804 32.0496 4.32072 32.2763 4.18468C33.5913 3.40814 35.2181 3.6292 36.278 4.71749C37.321 5.78877 37.508 7.41554 36.7201 8.71355C36.6181 8.88359 36.6181 9.00262 36.7315 9.16133C38.3582 11.4796 39.4465 14.0303 39.9737 16.819C40.3534 18.8369 40.4385 20.8661 40.1947 22.9066C39.5486 28.2347 37.1339 32.6105 33.0302 36.0454C30.5702 38.103 27.7474 39.4577 24.6129 40.1379C22.1359 40.6763 19.6476 40.7387 17.1536 40.3419C14.2005 39.8771 11.4855 38.7888 9.03115 37.0827C8.81576 36.9353 8.65705 36.8617 8.38498 37.0204C7.04162 37.8026 5.40919 37.5475 4.34924 36.4252C3.3233 35.3313 3.1816 33.6875 4.00915 32.3951C4.02049 32.3555 4.04883 32.3158 4.06016 32.2931ZM27.2826 14.9939C27.2826 15.1186 27.277 15.2206 27.2826 15.3226C27.3337 16.0482 27.43 16.7737 27.4357 17.4992C27.4584 19.5284 27.447 21.5576 27.4414 23.5868C27.4414 23.7625 27.4357 23.8986 27.6511 23.9893C28.5693 24.3804 29.1871 25.0605 29.4989 26.0128C29.5499 26.1715 29.6293 26.2282 29.7993 26.2282C32.4123 26.2225 35.031 26.2225 37.6441 26.2282C37.8368 26.2282 37.9105 26.1545 37.9558 25.9901C38.4263 24.4087 38.704 22.7933 38.7493 21.1438C38.8117 19.1373 38.5396 17.1705 37.9728 15.2433C37.9161 15.0506 37.8368 14.9769 37.6214 14.9769C34.2715 14.9825 30.9159 14.9825 27.5661 14.9825C27.481 14.9825 27.3847 14.9882 27.2826 14.9939ZM13.3843 26.2112C13.3843 26.0921 13.39 25.9958 13.3843 25.9051C13.3333 25.1512 13.2369 24.3974 13.2313 23.6435C13.2086 21.6313 13.2199 19.6248 13.2313 17.6126C13.2313 17.4028 13.1802 17.3008 12.9762 17.2158C12.0579 16.8247 11.4344 16.1502 11.1227 15.1979C11.066 15.0336 10.9923 14.9769 10.8223 14.9769C8.21493 14.9825 5.60757 14.9825 3.00588 14.9769C2.85284 14.9769 2.77349 15.0109 2.72248 15.1696C2.34271 16.4109 2.09898 17.6749 1.98561 18.9673C1.83257 20.6507 1.91193 22.3285 2.22935 23.9836C2.37105 24.7318 2.5751 25.4686 2.74515 26.2055C6.31609 26.2112 9.83603 26.2112 13.3843 26.2112ZM21.5521 14.9825C20.2655 14.9825 18.9844 14.9882 17.6978 14.9769C17.5051 14.9769 17.42 15.0279 17.3577 15.2206C17.0233 16.2239 16.3488 16.904 15.3625 17.2838C15.1811 17.3518 14.9204 17.3688 14.8353 17.4935C14.739 17.6466 14.7957 17.896 14.7843 18.1C14.6426 20.6904 14.7333 23.2751 14.96 25.8541C14.9771 26.0525 14.9657 26.2282 15.2775 26.2282C17.8281 26.2168 20.3788 26.2168 22.9295 26.2282C23.1222 26.2282 23.2016 26.1715 23.2639 25.9845C23.6664 24.8281 24.4712 24.097 25.6672 23.8079C25.8316 23.7682 25.8826 23.6888 25.8826 23.5358C25.8883 23.2411 25.8939 22.952 25.9109 22.6572C26.0356 20.1973 25.9109 17.7486 25.7182 15.3C25.6956 15.0506 25.6049 14.9712 25.3498 14.9769C24.0801 14.9882 22.8161 14.9825 21.5521 14.9825ZM25.4745 13.4125C25.4575 13.2878 25.4575 13.2027 25.4405 13.1234C25.2194 11.9444 25.0324 10.7598 24.766 9.59211C24.3919 7.91433 23.8647 6.27623 23.0655 4.74583C22.6347 3.92395 22.1473 3.13607 21.3821 2.56925C20.7019 2.05912 20.0104 2.04211 19.3189 2.54658C19.0921 2.71096 18.8824 2.90368 18.6897 3.1134C18.0152 3.85593 17.5504 4.73449 17.1593 5.64707C16.4168 7.35885 15.9633 9.16133 15.5835 10.9865C15.5439 11.1679 15.6346 11.2359 15.7706 11.3039C16.5415 11.712 17.0686 12.3298 17.3407 13.1574C17.4087 13.3728 17.5107 13.4238 17.7204 13.4238C20.2031 13.4181 22.6914 13.4181 25.1741 13.4181C25.2704 13.4125 25.3611 13.4125 25.4745 13.4125ZM15.1244 27.7926C15.4135 29.221 15.6629 30.5813 15.9747 31.9304C16.3431 33.5061 16.8475 35.0365 17.6071 36.4706C18.0379 37.2868 18.5253 38.0576 19.2735 38.6301C19.9367 39.1346 20.6396 39.1573 21.3141 38.6755C21.5521 38.5054 21.7675 38.307 21.9659 38.0917C22.6631 37.3265 23.1279 36.4252 23.536 35.4843C24.2558 33.8008 24.7036 32.038 25.0777 30.2526C25.1174 30.0712 25.0494 30.0032 24.902 29.9295C24.1198 29.5271 23.5643 28.9149 23.2866 28.0817C23.2072 27.8493 23.1052 27.7813 22.8671 27.7869C20.4185 27.7926 17.9755 27.7926 15.5269 27.7926C15.4248 27.7926 15.3228 27.7926 15.1244 27.7926ZM23.4963 38.7548C26.2794 38.256 28.745 37.2244 30.9783 35.6317C33.801 33.6195 35.8926 31.0235 37.2926 27.8153C37.1793 27.8039 37.1112 27.7926 37.0489 27.7926C34.6343 27.7926 32.2139 27.7926 29.7993 27.7869C29.6009 27.7869 29.5442 27.8776 29.4876 28.0307C29.0568 29.2266 28.2236 29.9748 26.9709 30.2186C26.7385 30.2639 26.6478 30.3716 26.5968 30.5927C26.3417 31.6753 26.098 32.7636 25.7919 33.8292C25.3725 35.3029 24.7943 36.72 23.9838 38.0236C23.8421 38.2504 23.689 38.4601 23.4963 38.7548ZM37.2529 13.4011C37.2586 13.3558 37.27 13.3331 37.2643 13.3161C36.7825 12.1825 36.1873 11.1168 35.4731 10.1079C35.4335 10.0456 35.2861 10.0229 35.1954 10.0399C34.8666 10.1079 34.5436 10.2496 34.2091 10.278C31.7888 10.4934 29.9864 8.09572 30.8649 5.83412C30.9499 5.61306 30.9159 5.51103 30.7289 5.38066C28.728 4.0203 26.5571 3.07939 24.1935 2.57492C23.9894 2.52958 23.7797 2.50124 23.5133 2.45589C23.5757 2.55792 23.5927 2.60326 23.621 2.63727C24.4599 3.79925 25.021 5.09159 25.4915 6.42927C26.251 8.60018 26.7102 10.8448 27.0276 13.1177C27.0616 13.3671 27.1579 13.4125 27.3847 13.4125C30.5872 13.4068 33.7897 13.4068 36.9865 13.4068C37.0772 13.4125 37.1679 13.4011 37.2529 13.4011ZM17.1423 38.7435C14.9034 35.3993 14.1948 31.6243 13.5884 27.8096C10.1931 27.8096 6.80356 27.8096 3.40266 27.8096C3.41399 27.8663 3.41399 27.9003 3.42533 27.9343C3.90712 29.0453 4.49661 30.0995 5.18813 31.0915C5.27882 31.2218 5.35817 31.2105 5.49421 31.1595C6.82056 30.6607 8.02221 30.8817 9.05382 31.8567C10.0004 32.7579 10.2895 34.1579 9.79635 35.3766C9.71133 35.5863 9.751 35.6827 9.93238 35.8074C11.9276 37.1677 14.1098 38.103 16.4678 38.6188C16.6718 38.6698 16.8816 38.6981 17.1423 38.7435ZM14.2402 15.9121C15.1754 15.9121 15.9576 15.1356 15.9576 14.2003C15.9576 13.2651 15.1811 12.4885 14.2459 12.4885C13.3106 12.4885 12.5284 13.2651 12.5284 14.2003C12.5284 15.1299 13.3049 15.9121 14.2402 15.9121ZM28.0762 27.0104C28.0762 26.0638 27.3167 25.2929 26.3757 25.2929C25.4405 25.2929 24.6639 26.0695 24.6639 27.0047C24.6639 27.94 25.4348 28.7222 26.3757 28.7222C27.3167 28.7222 28.0762 27.957 28.0762 27.0104ZM35.6432 7.01876C35.6489 6.08352 34.8723 5.30131 33.9314 5.29564C32.9962 5.28997 32.2139 6.06651 32.2083 7.00176C32.2083 7.93701 32.9848 8.72488 33.9144 8.72488C34.8496 8.73055 35.6375 7.94834 35.6432 7.01876ZM8.45866 34.1806C8.45299 33.2454 7.67079 32.4745 6.73554 32.4802C5.80029 32.4858 5.02942 33.268 5.03509 34.2033C5.04076 35.1385 5.8173 35.9094 6.75821 35.9037C7.69346 35.8981 8.46433 35.1215 8.45866 34.1806Z" fill="#D6E1FA"/>
<path id="Vector_2" d="M7.37151 7.18912C7.36584 7.61423 7.02008 7.95432 6.59497 7.95432C6.15852 7.95432 5.80143 7.59156 5.81276 7.16078C5.81843 6.74133 6.17553 6.39558 6.59497 6.39558C7.03709 6.38991 7.37718 6.74133 7.37151 7.18912Z" fill="#D6E1FA"/>
</g>
</g>
</svg>
