<svg width="40" height="41" viewBox="0 0 40 41" fill="none" xmlns="http://www.w3.org/2000/svg">
<g id="02">
<path id="Vector" d="M19.933 40.6031C19.8155 40.5248 19.7111 40.4334 19.5936 40.3681C13.262 36.7258 6.93037 33.0705 0.585723 29.4282C0.455175 29.3498 0.324627 29.2715 0.167969 29.1801C1.7476 27.0783 3.30113 24.9895 4.88076 22.8877C5.02437 22.953 5.14186 23.0052 5.27241 23.0705C10.0635 25.4856 14.8677 27.9007 19.6458 30.3289C19.9069 30.4595 20.1027 30.4595 20.3638 30.3289C25.1549 27.9007 29.946 25.4856 34.7372 23.0705C34.8547 23.0182 34.9721 22.953 35.1158 22.8877C36.6823 24.9765 38.2489 27.0652 39.8285 29.1801C39.6849 29.2715 39.5544 29.3498 39.4108 29.4282C33.0792 33.0705 26.7476 36.7258 20.403 40.3681C20.2855 40.4334 20.168 40.5248 20.0635 40.6031C20.0374 40.6031 19.9852 40.6031 19.933 40.6031Z" fill="#D6E1FA"/>
<path id="Vector_2" d="M33.7173 19.9504C33.5606 20.0287 33.4431 20.094 33.3256 20.1592C29.0045 22.3394 24.6703 24.5195 20.3491 26.7128C20.1533 26.8172 19.9836 26.8825 19.7355 26.765C15.3491 24.5457 10.9627 22.3394 6.57627 20.1201C6.48488 20.0678 6.40656 20.0156 6.28906 19.9504C8.11674 17.5091 9.93136 15.0809 11.7721 12.6396C12.2029 12.8355 12.6337 13.0313 13.0515 13.2271C15.2447 14.2454 17.4379 15.2506 19.6311 16.2689C19.8922 16.3864 20.1011 16.3994 20.3622 16.2689C22.8426 15.107 25.3361 13.9582 27.8295 12.8094C27.9601 12.7441 28.0906 12.6919 28.2342 12.6396C30.0619 15.0678 31.8765 17.496 33.7173 19.9504Z" fill="#D6E1FA"/>
<path id="Vector_3" d="M13.1328 9.78106C15.4305 6.71318 17.702 3.68446 20.0127 0.603516C22.3104 3.6714 24.595 6.71318 26.8926 9.78106C25.2999 10.5121 23.7464 11.2301 22.1929 11.9482C21.5401 12.2484 20.9004 12.5617 20.2477 12.8489C20.1302 12.9012 19.9605 12.9142 19.8561 12.8751C17.6237 11.8568 15.4044 10.8385 13.1328 9.78106Z" fill="#D6E1FA"/>
</g>
</svg>
