<svg width="35" height="41" viewBox="0 0 35 41" fill="none" xmlns="http://www.w3.org/2000/svg">
<g id="05">
<path id="Vector" d="M31.3315 32.6433C31.3315 33.5621 31.3666 34.4459 31.3175 35.3296C31.2894 35.7925 30.9387 36.0871 30.5039 36.2484C28.7644 36.8937 27.025 37.553 25.2926 38.2053C23.2726 38.9628 21.2456 39.7203 19.2256 40.4778C19.1204 40.5199 19.0082 40.5479 18.8679 40.597C18.8609 40.4497 18.8469 40.3375 18.8469 40.2253C18.8469 34.5581 18.8469 28.8909 18.8398 23.2237C18.8398 22.9852 18.8819 22.845 19.1344 22.7538C22.6694 21.4422 26.1974 20.1095 29.7324 18.798C30.5109 18.5104 31.2684 18.9803 31.3526 19.7799C31.3596 19.85 31.3596 19.9202 31.3596 19.9903C31.3596 20.8039 31.3596 21.6245 31.3596 22.4311C30.9037 22.4943 30.4688 22.5223 30.062 22.6275C28.5119 23.0343 27.4809 24.367 27.4599 25.9661C27.4458 27.0182 27.4458 28.0703 27.4599 29.1223C27.4809 31.1003 28.9959 32.6082 30.9808 32.6503C31.086 32.6433 31.1983 32.6433 31.3315 32.6433Z" fill="#D6E1FA"/>
<path id="Vector_2" d="M16.4831 40.6038C15.8939 40.3863 15.3398 40.19 14.7857 39.9795C11.5593 38.7661 8.33999 37.5598 5.11361 36.3464C4.15973 35.9887 3.9914 35.7432 3.9914 34.7121C3.9914 34.0669 3.9914 33.4286 3.99841 32.7833C3.99841 32.7483 4.01244 32.7202 4.02647 32.6711C4.32806 32.643 4.62966 32.636 4.92424 32.5869C6.64965 32.3064 7.86304 30.9106 7.8911 29.1572C7.90513 28.1261 7.89811 27.1021 7.8911 26.0711C7.87707 24.023 6.38312 22.5221 4.32806 22.487C4.23688 22.487 4.1457 22.487 4.02647 22.487C4.01244 22.3818 3.9914 22.2906 3.9914 22.2064C3.9914 21.456 3.98438 20.7125 3.9914 19.962C3.99841 19.0151 4.75591 18.4821 5.64667 18.8117C9.16762 20.1233 12.6886 21.4489 16.2095 22.7605C16.427 22.8447 16.5111 22.9499 16.5111 23.1884C16.5041 28.8766 16.5041 34.5648 16.5041 40.2601C16.5041 40.3583 16.4971 40.4565 16.4831 40.6038Z" fill="#D6E1FA"/>
<path id="Vector_3" d="M11.0313 7.24563C11.0313 3.57739 14.0051 0.603516 17.6734 0.603516C21.3416 0.603516 24.3085 3.5844 24.3085 7.25966C24.3085 10.9349 21.3346 13.9018 17.6664 13.9018C13.9981 13.9018 11.0242 10.9209 11.0313 7.24563Z" fill="#D6E1FA"/>
<path id="Vector_4" d="M26.7666 17.4014C26.1774 17.6259 25.6163 17.8433 25.0552 18.0537C22.7266 18.9305 20.398 19.8072 18.0694 20.6629C17.859 20.74 17.5784 20.7611 17.375 20.6909C14.5134 19.6388 11.6657 18.5657 8.81109 17.4926C8.74797 17.4716 8.68484 17.4365 8.55859 17.3734C8.88123 17.1068 9.1688 16.8614 9.47039 16.6299C10.4313 15.9145 11.4553 15.3113 12.5775 14.8975C12.7038 14.8484 12.9002 14.8624 13.0264 14.9326C16.1265 16.686 19.2197 16.693 22.3268 14.9396C22.446 14.8764 22.6284 14.8273 22.7406 14.8764C24.1925 15.4376 25.497 16.2441 26.6684 17.2682C26.6964 17.2962 26.7175 17.3383 26.7666 17.4014Z" fill="#D6E1FA"/>
<path id="Vector_5" d="M29.7726 27.5718C29.7726 27.0598 29.7656 26.5478 29.7726 26.0287C29.7867 25.3344 30.2706 24.8294 30.965 24.8224C31.4419 24.8224 31.9329 24.8154 32.3888 24.9206C33.7214 25.2222 34.5631 26.4426 34.4579 27.8173C34.3527 29.1289 33.2655 30.195 31.9259 30.2932C31.5892 30.3142 31.2456 30.3142 30.9089 30.3002C30.2566 30.2651 29.7867 29.7741 29.7726 29.1148C29.7726 29.0938 29.7726 29.0657 29.7726 29.0447C29.7726 28.5537 29.7726 28.0628 29.7726 27.5718Z" fill="#D6E1FA"/>
<path id="Vector_6" d="M5.56243 27.5717C5.56243 28.0767 5.56945 28.5747 5.56243 29.0797C5.55542 29.7951 5.07146 30.2931 4.35605 30.3071C3.70376 30.3211 3.05147 30.3422 2.43425 30.0406C1.33308 29.5005 0.687804 28.2941 0.905233 27.1228C1.13669 25.8743 2.11863 24.9485 3.36008 24.8433C3.71779 24.8152 4.08251 24.8152 4.44723 24.8363C5.08549 24.8714 5.55542 25.3623 5.56243 26.0076C5.56945 26.5266 5.56243 27.0527 5.56243 27.5717Z" fill="#D6E1FA"/>
</g>
</svg>
