<svg width="41" height="41" viewBox="0 0 41 41" fill="none" xmlns="http://www.w3.org/2000/svg">
<g id="08">
<path id="Vector" d="M12.5594 12.1684C13.6056 13.0586 14.6346 13.9256 15.6519 14.81C15.8311 14.9661 15.9409 14.8621 16.0681 14.7638C17.4843 13.6597 19.0855 13.1337 20.8774 13.1742C22.2878 13.2089 23.5884 13.6193 24.7619 14.4054C24.9699 14.5441 25.0856 14.5441 25.2647 14.3592C27.2648 12.3418 29.2764 10.336 31.2937 8.3302C31.4382 8.18569 31.4671 8.08164 31.3689 7.8851C29.7388 4.76946 31.6984 1.05265 35.1782 0.636459C37.71 0.330097 40.184 2.19717 40.5886 4.71165C41.1262 8.08164 38.3632 10.9256 34.9874 10.4401C34.4383 10.3591 33.9065 10.1106 33.3805 9.90247C33.207 9.83311 33.1088 9.83889 32.9816 9.97184C30.9585 12.0065 28.9295 14.0355 26.8948 16.0586C26.7445 16.2031 26.7445 16.3072 26.8601 16.4748C27.9411 18.1049 28.3284 19.8853 28.022 21.8159C27.9815 22.0645 28.0278 22.1801 28.2879 22.2783C30.1319 22.972 31.97 23.683 33.8082 24.4055C34.0452 24.498 34.1897 24.4865 34.3805 24.2899C35.4209 23.209 36.9643 22.9026 38.369 23.4807C39.7852 24.0645 40.658 25.342 40.6638 26.8507C40.6696 28.7755 39.2302 30.3825 37.3516 30.5501C35.4094 30.7235 33.6984 29.4345 33.3516 27.5212C33.3169 27.342 33.3111 27.157 33.3111 26.972C33.3169 26.8044 33.2533 26.7062 33.0972 26.6483C31.1319 25.8969 29.1607 25.1397 27.1954 24.3824C27.1781 24.3766 27.1549 24.3824 27.1203 24.3824C26.9353 24.6483 26.7503 24.9258 26.548 25.1917C26.0682 25.8102 25.5017 26.3478 24.8428 26.7813C24.6867 26.8853 24.6462 26.972 24.7272 27.157C25.5422 29.0703 26.3515 30.9837 27.1549 32.9028C27.2532 33.1398 27.3688 33.2496 27.6578 33.2496C29.5365 33.2727 31.0914 34.7294 31.2475 36.5791C31.4036 38.504 30.1319 40.1861 28.2474 40.5387C26.6752 40.8335 25.1202 40.1052 24.3688 38.7121C23.5711 37.2439 23.7792 35.556 24.9121 34.3883C25.0913 34.2034 25.1029 34.0704 25.0046 33.845C24.2069 31.9779 23.415 30.1108 22.6347 28.238C22.519 27.9547 22.4034 27.868 22.074 27.9258C20.0797 28.29 18.23 27.92 16.5363 26.7929C16.3802 26.6888 16.282 26.683 16.1432 26.8218C14.8311 28.1397 13.5189 29.4518 12.201 30.764C12.0681 30.897 12.0565 30.9952 12.1548 31.1571C13.9698 34.0473 13.0045 37.7641 10.2935 39.5965C7.90615 41.2092 4.47258 40.8508 2.45521 38.7525C-0.186439 36.0011 0.131484 31.7756 3.16042 29.4576C5.14311 27.9374 7.96395 27.7929 10.0796 29.1166C10.2646 29.2322 10.3744 29.2438 10.542 29.0761C11.8311 27.7755 13.1259 26.4807 14.4207 25.1917C14.5768 25.0356 14.5999 24.9316 14.4727 24.735C12.8831 22.2032 12.7848 19.602 14.1837 16.9604C14.2646 16.8043 14.2588 16.7176 14.1201 16.5962C13.1548 15.7812 12.1952 14.9661 11.2415 14.1395C11.0796 13.995 10.964 13.995 10.7732 14.1106C8.25875 15.6771 4.99282 14.7638 3.69222 12.1453C2.24712 9.2435 4.00436 5.70011 7.18938 5.09316C10.0333 4.5498 12.7039 6.53249 13.0334 9.4227C13.1374 10.3071 12.9987 11.1453 12.6345 11.9545C12.6114 12.0181 12.5883 12.0817 12.5594 12.1684Z" fill="#D6E1FA"/>
</g>
</svg>
