<svg width="41" height="40" viewBox="0 0 41 40" fill="none" xmlns="http://www.w3.org/2000/svg">
<path id="Vector" d="M20.7089 0.329102C9.60236 0.329102 0.667969 9.34546 0.667969 20.493C0.667969 29.4274 6.40565 36.9683 14.3564 39.6322C15.34 39.8372 15.7089 39.1814 15.7089 38.6486C15.7089 38.1978 15.6679 36.5585 15.6679 34.9191C10.0942 36.1077 8.94663 32.5011 8.94663 32.5011C8.04499 30.1651 6.73352 29.5503 6.73352 29.5503C4.93025 28.3208 6.85647 28.3208 6.85647 28.3208C8.86466 28.4438 9.93023 30.411 9.93023 30.411C11.7335 33.4847 14.6023 32.6241 15.7499 32.0913C15.9138 30.7798 16.4466 29.8782 17.0204 29.3864C12.5942 28.9356 7.92204 27.1733 7.92204 19.4274C7.92204 17.2143 8.70073 15.411 9.97122 14.0176C9.7663 13.5258 9.06958 11.4356 10.1761 8.68973C10.1761 8.68973 11.8565 8.15694 15.6679 10.7799C17.3073 10.3291 18.9876 10.1241 20.6679 10.1241C22.3482 10.1241 24.0695 10.37 25.6679 10.7799C29.4793 8.15694 31.1597 8.68973 31.1597 8.68973C32.2662 11.4766 31.5695 13.5258 31.3646 14.0176C32.6761 15.411 33.4138 17.2143 33.4138 19.4274C33.4138 27.1733 28.7416 28.8946 24.2744 29.3864C25.0121 30.0011 25.6269 31.2306 25.6269 33.1159C25.6269 35.8208 25.5859 37.9929 25.5859 38.6486C25.5859 39.1814 25.9548 39.8372 26.9384 39.6322C34.9301 36.9683 40.6678 29.4274 40.6678 20.493C40.7088 9.34546 31.7334 0.329102 20.7089 0.329102Z" fill="#D6E1FA"/>
</svg>
