<svg width="41" height="40" viewBox="0 0 41 40" fill="none" xmlns="http://www.w3.org/2000/svg">
<g id="Group">
<path id="Vector" d="M20.265 39.9996C20.1475 39.9213 20.0431 39.8299 19.9256 39.7646C13.594 36.1223 7.2624 32.4669 0.917755 28.8247C0.787206 28.7463 0.656658 28.668 0.5 28.5766C2.07963 26.4748 3.63316 24.386 5.21279 22.2842C5.3564 22.3495 5.47389 22.4017 5.60444 22.4669C10.3956 24.8821 15.1997 27.2972 19.9778 29.7254C20.2389 29.856 20.4347 29.856 20.6958 29.7254C25.4869 27.2972 30.2781 24.8821 35.0692 22.4669C35.1867 22.4147 35.3042 22.3495 35.4478 22.2842C37.0144 24.373 38.5809 26.4617 40.1606 28.5766C40.017 28.668 39.8864 28.7463 39.7428 28.8247C33.4112 32.4669 27.0796 36.1223 20.735 39.7646C20.6175 39.8299 20.5 39.9213 20.3956 39.9996C20.3695 39.9996 20.3172 39.9996 20.265 39.9996Z" fill="#D6E1FA"/>
<path id="Vector_2" d="M34.0493 19.3468C33.8926 19.4252 33.7751 19.4904 33.6576 19.5557C29.3365 21.7359 25.0023 23.916 20.6811 26.1092C20.4853 26.2137 20.3156 26.279 20.0676 26.1615C15.6811 23.9421 11.2947 21.7359 6.9083 19.5166C6.81692 19.4643 6.73859 19.4121 6.62109 19.3468C8.44877 16.9056 10.2634 14.4774 12.1041 12.0361C12.5349 12.232 12.9657 12.4278 13.3835 12.6236C15.5767 13.6419 17.7699 14.6471 19.9631 15.6654C20.2242 15.7829 20.4331 15.7959 20.6942 15.6654C23.1746 14.5035 25.6681 13.3547 28.1616 12.2058C28.2921 12.1406 28.4227 12.0884 28.5663 12.0361C30.3939 14.4643 32.2086 16.8925 34.0493 19.3468Z" fill="#D6E1FA"/>
<path id="Vector_3" d="M13.4648 9.17755C15.7625 6.10966 18.034 3.08094 20.3447 0C22.6424 3.06789 24.927 6.10966 27.2246 9.17755C25.6319 9.90862 24.0784 10.6266 22.5249 11.3446C21.8722 11.6449 21.2325 11.9582 20.5797 12.2454C20.4622 12.2977 20.2925 12.3107 20.1881 12.2715C17.9557 11.2533 15.7364 10.235 13.4648 9.17755Z" fill="#D6E1FA"/>
</g>
</svg>
