<svg width="150" height="156" viewBox="0 0 150 156" fill="none" xmlns="http://www.w3.org/2000/svg">
<g id="2">
<g id="Group">
<path id="Vector" d="M75.0073 136.776L10.9844 99.8117L74.9964 62.8477L139.019 99.8117L75.0073 136.776Z" fill="#BCBEFF"/>
<path id="Vector_2" d="M139.019 99.8125V118.295L75.0073 155.259L10.9844 118.295V99.8125H139.019Z" fill="#5351AF"/>
</g>
<g id="Group_2">
<path id="Vector_3" d="M150 80.7197V100.138L75.0054 143.437L0 100.138V80.7197H150Z" fill="url(#paint0_linear_5464_9369)"/>
<path id="Vector_4" d="M75.0054 124.02L0 80.7209L74.9946 37.4111L150 80.7209L75.0054 124.02Z" fill="#BCBEFF"/>
</g>
<g id="Group_3">
<path id="Vector_5" d="M75.0073 100.112L10.9844 63.1476L74.9964 26.1836L139.019 63.1476L75.0073 100.112Z" fill="#BCBEFF"/>
<path id="Vector_6" d="M139.019 63.1445V81.6265L75.0073 118.58L10.9844 81.6265V63.1445H139.019Z" fill="#5351AF"/>
</g>
<g id="Group_4">
<g id="Group_5">
<path id="Vector_7" d="M150 44.0391V63.468L75.0054 106.767L0 63.468V44.0391H150Z" fill="url(#paint1_linear_5464_9369)"/>
<path id="Vector_8" d="M75.0054 87.3488L0 44.0391L74.9946 0.740234L150 44.0391L75.0054 87.3488Z" fill="#BCBEFF"/>
<path id="Vector_9" d="M75.0054 86.3362L0.870763 43.5381L0 44.0388L75.0054 87.3485L150 44.0388L149.129 43.5381L75.0054 86.3362Z" fill="white"/>
</g>
<g id="Group_6">
<path id="Vector_10" d="M75.0084 77.3558L17.3203 44.049L74.9976 10.7422L132.686 44.049L75.0084 77.3558Z" fill="#0F054C"/>
<g id="Group_7">
<path id="Vector_11" opacity="0.5" d="M74.9959 77.3568L17.2969 44.05L74.985 10.7432L132.673 44.05L74.9959 77.3568Z" fill="url(#paint2_linear_5464_9369)"/>
<g id="Group_8">
<path id="Vector_12" opacity="0.5" d="M74.9844 2.35059L132.672 35.6574V44.0494L74.9844 10.7426V2.35059Z" fill="url(#paint3_linear_5464_9369)"/>
<path id="Vector_13" opacity="0.5" d="M74.9959 10.7426L17.2969 44.0494V35.6574L74.985 2.35059L74.9959 10.7426Z" fill="url(#paint4_linear_5464_9369)"/>
<path id="Vector_14" opacity="0.5" d="M74.9959 68.9642L17.2969 35.6574L74.985 2.35059L132.673 35.6574L74.9959 68.9642Z" fill="url(#paint5_linear_5464_9369)"/>
<path id="Vector_15" opacity="0.5" d="M74.9879 48.9585L51.9453 35.6575L74.9879 22.3457L98.0414 35.6575L74.9879 48.9585Z" fill="#42E8E0"/>
<path id="Vector_16" opacity="0.5" d="M74.9879 23.5648L96.9856 36.2671L98.0414 35.6575L74.9879 22.3457L51.9453 35.6575L53.0011 36.2671L74.9879 23.5648Z" fill="#42E8E0"/>
<path id="Vector_17" opacity="0.5" d="M74.9922 68.964V77.3561L132.669 44.0492V35.6572L74.9922 68.964Z" fill="url(#paint6_linear_5464_9369)"/>
</g>
<path id="Vector_18" opacity="0.5" d="M17.2969 35.6592V44.0512L74.9959 77.358V68.966L17.2969 35.6592Z" fill="url(#paint7_linear_5464_9369)"/>
</g>
<path id="Vector_19" opacity="0.8" d="M75.0037 68.038L18.0993 35.1992L17.3047 35.6564L75.0037 68.9632L132.681 35.6564L131.886 35.1992L75.0037 68.038Z" fill="#42E8E0"/>
</g>
</g>
<path id="Vector_20" d="M71.7964 104.918L65.0588 112.842L10.9844 81.6253V69.8047L71.7964 104.918Z" fill="#453C9E"/>
<path id="Vector_21" d="M71.7964 141.588L65.0588 149.512L10.9844 118.295V106.475L71.7964 141.588Z" fill="#453C9E"/>
<path id="Vector_22" d="M10.9844 114.846V118.296L75.0073 155.26L139.019 118.296V114.857L75.0073 151.81L10.9844 114.846Z" fill="#24126A"/>
<path id="Vector_23" d="M75.0054 123.008L0.870763 80.21L0 80.7215L75.0054 124.02L150 80.7215L149.129 80.21L75.0054 123.008Z" fill="white"/>
</g>
<defs>
<linearGradient id="paint0_linear_5464_9369" x1="-11.3526" y1="112.078" x2="-10.2641" y2="112.078" gradientUnits="userSpaceOnUse">
<stop stop-color="#5761D7"/>
<stop offset="0.16" stop-color="#5E67D9"/>
<stop offset="0.41" stop-color="#7179E1"/>
<stop offset="0.69" stop-color="#9197EE"/>
<stop offset="1" stop-color="#BCBEFF"/>
</linearGradient>
<linearGradient id="paint1_linear_5464_9369" x1="-11.3526" y1="75.4084" x2="-10.2641" y2="75.4084" gradientUnits="userSpaceOnUse">
<stop stop-color="#5761D7"/>
<stop offset="0.16" stop-color="#5E67D9"/>
<stop offset="0.41" stop-color="#7179E1"/>
<stop offset="0.69" stop-color="#9197EE"/>
<stop offset="1" stop-color="#BCBEFF"/>
</linearGradient>
<linearGradient id="paint2_linear_5464_9369" x1="17.2969" y1="44.05" x2="132.673" y2="44.05" gradientUnits="userSpaceOnUse">
<stop stop-color="#42E8E0"/>
<stop offset="0.15" stop-color="#42E3DF"/>
<stop offset="0.33" stop-color="#44D4DE"/>
<stop offset="0.52" stop-color="#48BDDD"/>
<stop offset="0.72" stop-color="#4D9BDA"/>
<stop offset="0.93" stop-color="#5471D8"/>
<stop offset="1" stop-color="#5761D7"/>
</linearGradient>
<linearGradient id="paint3_linear_5464_9369" x1="74.9844" y1="23.2054" x2="-10.2743" y2="23.2054" gradientUnits="userSpaceOnUse">
<stop stop-color="#42E8E0"/>
<stop offset="0.15" stop-color="#42E3DF"/>
<stop offset="0.33" stop-color="#44D4DE"/>
<stop offset="0.52" stop-color="#48BDDD"/>
<stop offset="0.72" stop-color="#4D9BDA"/>
<stop offset="0.93" stop-color="#5471D8"/>
<stop offset="1" stop-color="#5761D7"/>
</linearGradient>
<linearGradient id="paint4_linear_5464_9369" x1="-11.3621" y1="23.1946" x2="74.9959" y2="23.1946" gradientUnits="userSpaceOnUse">
<stop stop-color="#42E8E0"/>
<stop offset="0.15" stop-color="#42E3DF"/>
<stop offset="0.33" stop-color="#44D4DE"/>
<stop offset="0.52" stop-color="#48BDDD"/>
<stop offset="0.72" stop-color="#4D9BDA"/>
<stop offset="0.93" stop-color="#5471D8"/>
<stop offset="1" stop-color="#5761D7"/>
</linearGradient>
<linearGradient id="paint5_linear_5464_9369" x1="-11.3621" y1="35.6574" x2="-10.2737" y2="35.6574" gradientUnits="userSpaceOnUse">
<stop stop-color="#42E8E0"/>
<stop offset="0.15" stop-color="#42E3DF"/>
<stop offset="0.33" stop-color="#44D4DE"/>
<stop offset="0.52" stop-color="#48BDDD"/>
<stop offset="0.72" stop-color="#4D9BDA"/>
<stop offset="0.93" stop-color="#5471D8"/>
<stop offset="1" stop-color="#5761D7"/>
</linearGradient>
<linearGradient id="paint6_linear_5464_9369" x1="74.9922" y1="56.5012" x2="-10.2774" y2="56.5012" gradientUnits="userSpaceOnUse">
<stop stop-color="#42E8E0"/>
<stop offset="0.15" stop-color="#42E3DF"/>
<stop offset="0.33" stop-color="#44D4DE"/>
<stop offset="0.52" stop-color="#48BDDD"/>
<stop offset="0.72" stop-color="#4D9BDA"/>
<stop offset="0.93" stop-color="#5471D8"/>
<stop offset="1" stop-color="#5761D7"/>
</linearGradient>
<linearGradient id="paint7_linear_5464_9369" x1="-11.3621" y1="56.5032" x2="74.9959" y2="56.5032" gradientUnits="userSpaceOnUse">
<stop stop-color="#42E8E0"/>
<stop offset="0.15" stop-color="#42E3DF"/>
<stop offset="0.33" stop-color="#44D4DE"/>
<stop offset="0.52" stop-color="#48BDDD"/>
<stop offset="0.72" stop-color="#4D9BDA"/>
<stop offset="0.93" stop-color="#5471D8"/>
<stop offset="1" stop-color="#5761D7"/>
</linearGradient>
</defs>
</svg>
