<svg width="150" height="192" viewBox="0 0 150 192" fill="none" xmlns="http://www.w3.org/2000/svg">
<g id="3">
<g id="Group">
<path id="Vector" d="M75.0073 173.114L10.9844 136.15L74.9964 99.1855L139.019 136.15L75.0073 173.114Z" fill="#BCBEFF"/>
<path id="Vector_2" d="M139.019 136.149V154.631L75.0073 191.595L10.9844 154.631V136.149H139.019Z" fill="#5351AF"/>
</g>
<g id="Group_2">
<path id="Vector_3" d="M150 117.056V136.474L75.0054 179.773L0 136.474V117.056H150Z" fill="url(#paint0_linear_5464_3726)"/>
<path id="Vector_4" d="M75.0054 160.355L0 117.056L74.9946 73.7461L150 117.056L75.0054 160.355Z" fill="#BCBEFF"/>
</g>
<g id="Group_3">
<path id="Vector_5" d="M75.0073 136.441L10.9844 99.4767L74.9964 62.5127L139.019 99.4767L75.0073 136.441Z" fill="#BCBEFF"/>
<path id="Vector_6" d="M139.019 99.4775V117.96L75.0073 154.924L10.9844 117.96V99.4775H139.019Z" fill="#5351AF"/>
</g>
<g id="Group_4">
<path id="Vector_7" d="M150 80.3848V99.8028L75.0054 143.102L0 99.8028V80.3848H150Z" fill="url(#paint1_linear_5464_3726)"/>
<path id="Vector_8" d="M75.0054 123.685L0 80.3859L74.9946 37.0762L150 80.3859L75.0054 123.685Z" fill="#BCBEFF"/>
</g>
<g id="Group_5">
<path id="Vector_9" d="M75.0073 99.7767L10.9844 62.8127L74.9964 25.8486L139.019 62.8127L75.0073 99.7767Z" fill="#BCBEFF"/>
<path id="Vector_10" d="M139.019 62.8096V81.2916L75.0073 118.245L10.9844 81.2916V62.8096H139.019Z" fill="#5351AF"/>
</g>
<g id="Group_6">
<g id="Group_7">
<path id="Vector_11" d="M150 43.7041V63.1331L75.0054 106.432L0 63.1331V43.7041H150Z" fill="url(#paint2_linear_5464_3726)"/>
<path id="Vector_12" d="M75.0054 87.0139L0 43.7041L74.9946 0.405273L150 43.7041L75.0054 87.0139Z" fill="#BCBEFF"/>
<path id="Vector_13" d="M75.0054 86.0013L0.870763 43.2031L0 43.7038L75.0054 87.0135L150 43.7038L149.129 43.2031L75.0054 86.0013Z" fill="white"/>
</g>
<g id="Group_8">
<path id="Vector_14" d="M75.0084 77.0209L17.3203 43.7141L74.9976 10.4072L132.686 43.7141L75.0084 77.0209Z" fill="#0F054C"/>
<g id="Group_9">
<path id="Vector_15" opacity="0.5" d="M74.9959 77.0219L17.2969 43.715L74.985 10.4082L132.673 43.715L74.9959 77.0219Z" fill="url(#paint3_linear_5464_3726)"/>
<g id="Group_10">
<path id="Vector_16" opacity="0.5" d="M74.9844 2.01562L132.672 35.3224V43.7145L74.9844 10.4076V2.01562Z" fill="url(#paint4_linear_5464_3726)"/>
<path id="Vector_17" opacity="0.5" d="M74.9959 10.4076L17.2969 43.7145V35.3224L74.985 2.01562L74.9959 10.4076Z" fill="url(#paint5_linear_5464_3726)"/>
<path id="Vector_18" opacity="0.5" d="M74.9959 68.6293L17.2969 35.3225L74.985 2.01562L132.673 35.3225L74.9959 68.6293Z" fill="url(#paint6_linear_5464_3726)"/>
<path id="Vector_19" opacity="0.5" d="M74.9879 48.6235L51.9453 35.3226L74.9879 22.0107L98.0414 35.3226L74.9879 48.6235Z" fill="#42E8E0"/>
<path id="Vector_20" opacity="0.5" d="M74.9879 23.2298L96.9856 35.9321L98.0414 35.3226L74.9879 22.0107L51.9453 35.3226L53.0011 35.9321L74.9879 23.2298Z" fill="#42E8E0"/>
<path id="Vector_21" opacity="0.5" d="M74.9922 68.6291V77.0211L132.669 43.7143V35.3223L74.9922 68.6291Z" fill="url(#paint7_linear_5464_3726)"/>
</g>
<path id="Vector_22" opacity="0.5" d="M17.2969 35.3242V43.7162L74.9959 77.023V68.631L17.2969 35.3242Z" fill="url(#paint8_linear_5464_3726)"/>
</g>
<path id="Vector_23" opacity="0.8" d="M75.0037 67.703L18.0993 34.8643L17.3047 35.3214L75.0037 68.6282L132.681 35.3214L131.886 34.8643L75.0037 67.703Z" fill="#42E8E0"/>
</g>
</g>
<path id="Vector_24" d="M71.7964 104.583L65.0588 112.507L10.9844 81.2904V69.4697L71.7964 104.583Z" fill="#453C9E"/>
<path id="Vector_25" d="M71.7964 141.253L65.0588 149.177L10.9844 117.96V106.14L71.7964 141.253Z" fill="#453C9E"/>
<path id="Vector_26" d="M71.7964 177.924L65.0588 185.848L10.9844 154.631V142.811L71.7964 177.924Z" fill="#453C9E"/>
<path id="Vector_27" d="M10.9844 77.8418V81.2922L75.0073 118.245L139.019 81.2922V77.8418L75.0073 114.806L10.9844 77.8418Z" fill="#24126A"/>
<path id="Vector_28" d="M10.9844 114.511V117.961L75.0073 154.925L139.019 117.961V114.522L75.0073 151.475L10.9844 114.511Z" fill="#24126A"/>
<path id="Vector_29" d="M10.9844 151.191V154.631L75.0073 191.595L139.019 154.631V151.191L75.0073 188.155L10.9844 151.191Z" fill="#24126A"/>
<path id="Vector_30" d="M75.0054 122.673L0.870763 79.875L0 80.3866L75.0054 123.685L150 80.3866L149.129 79.875L75.0054 122.673Z" fill="white"/>
<path id="Vector_31" d="M75.0054 159.345L0.870763 116.547L0 117.058L75.0054 160.357L150 117.058L149.129 116.547L75.0054 159.345Z" fill="white"/>
</g>
<defs>
<linearGradient id="paint0_linear_5464_3726" x1="-11.3526" y1="148.414" x2="-10.2641" y2="148.414" gradientUnits="userSpaceOnUse">
<stop stop-color="#5761D7"/>
<stop offset="0.16" stop-color="#5E67D9"/>
<stop offset="0.41" stop-color="#7179E1"/>
<stop offset="0.69" stop-color="#9197EE"/>
<stop offset="1" stop-color="#BCBEFF"/>
</linearGradient>
<linearGradient id="paint1_linear_5464_3726" x1="-11.3526" y1="111.743" x2="-10.2641" y2="111.743" gradientUnits="userSpaceOnUse">
<stop stop-color="#5761D7"/>
<stop offset="0.16" stop-color="#5E67D9"/>
<stop offset="0.41" stop-color="#7179E1"/>
<stop offset="0.69" stop-color="#9197EE"/>
<stop offset="1" stop-color="#BCBEFF"/>
</linearGradient>
<linearGradient id="paint2_linear_5464_3726" x1="-11.3526" y1="75.0735" x2="-10.2641" y2="75.0735" gradientUnits="userSpaceOnUse">
<stop stop-color="#5761D7"/>
<stop offset="0.16" stop-color="#5E67D9"/>
<stop offset="0.41" stop-color="#7179E1"/>
<stop offset="0.69" stop-color="#9197EE"/>
<stop offset="1" stop-color="#BCBEFF"/>
</linearGradient>
<linearGradient id="paint3_linear_5464_3726" x1="17.2969" y1="43.715" x2="132.673" y2="43.715" gradientUnits="userSpaceOnUse">
<stop stop-color="#42E8E0"/>
<stop offset="0.15" stop-color="#42E3DF"/>
<stop offset="0.33" stop-color="#44D4DE"/>
<stop offset="0.52" stop-color="#48BDDD"/>
<stop offset="0.72" stop-color="#4D9BDA"/>
<stop offset="0.93" stop-color="#5471D8"/>
<stop offset="1" stop-color="#5761D7"/>
</linearGradient>
<linearGradient id="paint4_linear_5464_3726" x1="74.9844" y1="22.8705" x2="-10.2743" y2="22.8705" gradientUnits="userSpaceOnUse">
<stop stop-color="#42E8E0"/>
<stop offset="0.15" stop-color="#42E3DF"/>
<stop offset="0.33" stop-color="#44D4DE"/>
<stop offset="0.52" stop-color="#48BDDD"/>
<stop offset="0.72" stop-color="#4D9BDA"/>
<stop offset="0.93" stop-color="#5471D8"/>
<stop offset="1" stop-color="#5761D7"/>
</linearGradient>
<linearGradient id="paint5_linear_5464_3726" x1="-11.3621" y1="22.8596" x2="74.9959" y2="22.8596" gradientUnits="userSpaceOnUse">
<stop stop-color="#42E8E0"/>
<stop offset="0.15" stop-color="#42E3DF"/>
<stop offset="0.33" stop-color="#44D4DE"/>
<stop offset="0.52" stop-color="#48BDDD"/>
<stop offset="0.72" stop-color="#4D9BDA"/>
<stop offset="0.93" stop-color="#5471D8"/>
<stop offset="1" stop-color="#5761D7"/>
</linearGradient>
<linearGradient id="paint6_linear_5464_3726" x1="-11.3621" y1="35.3224" x2="-10.2737" y2="35.3224" gradientUnits="userSpaceOnUse">
<stop stop-color="#42E8E0"/>
<stop offset="0.15" stop-color="#42E3DF"/>
<stop offset="0.33" stop-color="#44D4DE"/>
<stop offset="0.52" stop-color="#48BDDD"/>
<stop offset="0.72" stop-color="#4D9BDA"/>
<stop offset="0.93" stop-color="#5471D8"/>
<stop offset="1" stop-color="#5761D7"/>
</linearGradient>
<linearGradient id="paint7_linear_5464_3726" x1="74.9922" y1="56.1662" x2="-10.2774" y2="56.1662" gradientUnits="userSpaceOnUse">
<stop stop-color="#42E8E0"/>
<stop offset="0.15" stop-color="#42E3DF"/>
<stop offset="0.33" stop-color="#44D4DE"/>
<stop offset="0.52" stop-color="#48BDDD"/>
<stop offset="0.72" stop-color="#4D9BDA"/>
<stop offset="0.93" stop-color="#5471D8"/>
<stop offset="1" stop-color="#5761D7"/>
</linearGradient>
<linearGradient id="paint8_linear_5464_3726" x1="-11.3621" y1="56.1682" x2="74.9959" y2="56.1682" gradientUnits="userSpaceOnUse">
<stop stop-color="#42E8E0"/>
<stop offset="0.15" stop-color="#42E3DF"/>
<stop offset="0.33" stop-color="#44D4DE"/>
<stop offset="0.52" stop-color="#48BDDD"/>
<stop offset="0.72" stop-color="#4D9BDA"/>
<stop offset="0.93" stop-color="#5471D8"/>
<stop offset="1" stop-color="#5761D7"/>
</linearGradient>
</defs>
</svg>
