<svg width="100" height="114" viewBox="0 0 100 114" fill="none" xmlns="http://www.w3.org/2000/svg">
<path opacity="0.7" d="M49.9955 110.523L2.57031 83.1393L49.9955 55.7559L97.4207 83.1393L49.9955 110.523Z" fill="url(#paint0_linear_5431_3324)"/>
<path opacity="0.5" d="M49.9955 83.139L2.57031 55.7555L49.9955 28.3721L97.4207 55.7555L49.9955 83.139Z" fill="url(#paint1_linear_5431_3324)"/>
<path opacity="0.3" d="M49.9955 55.7552L2.57031 28.3717L49.9955 0.988281L97.4207 28.3717L49.9955 55.7552Z" fill="url(#paint2_linear_5431_3324)"/>
<path d="M50 113.096C49.5477 113.096 49.1301 112.992 48.7126 112.748L1.2874 85.3649C0.487126 84.9126 0 84.0427 0 83.138C0 82.2334 0.487126 81.3635 1.2874 80.9112L48.7126 53.5277C49.5129 53.0754 50.4871 53.0754 51.2874 53.5277L98.7126 80.9112C99.5129 81.3635 100 82.2334 100 83.138C100 84.0427 99.5129 84.9126 98.7126 85.3649L51.2874 112.748C50.9047 112.992 50.4523 113.096 50 113.096ZM7.68963 83.138L50 107.564L92.3104 83.138L50 58.7121L7.68963 83.138Z" fill="url(#paint3_linear_5431_3324)"/>
<defs>
<linearGradient id="paint0_linear_5431_3324" x1="49.9955" y1="55.7559" x2="49.9955" y2="110.523" gradientUnits="userSpaceOnUse">
<stop stop-color="#11F4D1"/>
<stop offset="1" stop-color="#7C1DCE"/>
</linearGradient>
<linearGradient id="paint1_linear_5431_3324" x1="49.9955" y1="28.3721" x2="49.9955" y2="83.139" gradientUnits="userSpaceOnUse">
<stop stop-color="#11F4D1"/>
<stop offset="1" stop-color="#7C1DCE"/>
</linearGradient>
<linearGradient id="paint2_linear_5431_3324" x1="49.9955" y1="0.988281" x2="49.9955" y2="55.7552" gradientUnits="userSpaceOnUse">
<stop stop-color="#11F4D1"/>
<stop offset="1" stop-color="#7C1DCE"/>
</linearGradient>
<linearGradient id="paint3_linear_5431_3324" x1="50" y1="53.1885" x2="50" y2="113.096" gradientUnits="userSpaceOnUse">
<stop stop-color="#11F4D1"/>
<stop offset="1" stop-color="#7C1DCE"/>
</linearGradient>
</defs>
</svg>
