<svg width="200" height="337" viewBox="0 0 200 337" fill="none" xmlns="http://www.w3.org/2000/svg">
<path d="M100.005 328.092L14.6406 278.821L99.99 229.536L185.354 278.821L100.005 328.092Z" fill="#BCBEFF"/>
<path d="M200 253.352V279.257L100.007 336.988L0 279.242V253.352H200Z" fill="url(#paint0_linear_5430_2604)"/>
<path d="M100.007 311.098L0 253.352L99.9928 195.62L200 253.352L100.007 311.098Z" fill="#BCBEFF"/>
<path d="M100.005 279.198L14.6406 229.912L99.99 180.642L185.354 229.912L100.005 279.198Z" fill="#BCBEFF"/>
<path d="M185.354 229.911V254.554L100.005 303.839L14.6406 254.554V229.911H185.354Z" fill="#5351AF"/>
<path d="M200 204.459V230.35L100.007 288.096L0 230.35V204.459H200Z" fill="url(#paint1_linear_5430_2604)"/>
<path d="M100.007 262.191L0 204.459L99.9928 146.728L200 204.459L100.007 262.191Z" fill="#BCBEFF"/>
<path d="M100.005 230.308L14.6406 181.023L99.99 131.737L185.354 181.023L100.005 230.308Z" fill="#BCBEFF"/>
<path d="M185.354 181.022V205.665L100.005 254.95L14.6406 205.665V181.022H185.354Z" fill="#5351AF"/>
<path d="M200 155.563V181.454L100.007 239.186L0 181.454V155.563H200Z" fill="url(#paint2_linear_5430_2604)"/>
<path d="M100.007 213.295L0 155.564L99.9928 97.8174L200 155.564L100.007 213.295Z" fill="#BCBEFF"/>
<path d="M100.005 181.411L14.6406 132.126L99.99 82.8408L185.354 132.126L100.005 181.411Z" fill="#BCBEFF"/>
<path d="M185.354 132.126V156.769L100.005 206.054L14.6406 156.769V132.126H185.354Z" fill="#5351AF"/>
<path d="M200 106.671V132.562L100.007 190.293L0 132.562V106.671H200Z" fill="url(#paint3_linear_5430_2604)"/>
<path d="M100.007 164.403L0 106.671L99.9928 48.9248L200 106.671L100.007 164.403Z" fill="#BCBEFF"/>
<path d="M100.005 132.521L14.6406 83.2354L99.99 33.9502L185.354 83.2354L100.005 132.521Z" fill="#BCBEFF"/>
<path d="M185.354 83.2354V107.878L100.005 157.149L14.6406 107.878V83.2354H185.354Z" fill="#5351AF"/>
<path d="M200 57.7637V83.6689L100.007 141.401L0 83.6689V57.7637H200Z" fill="url(#paint4_linear_5430_2604)"/>
<path d="M100.007 115.51L0 57.7639L99.9928 0.0322266L200 57.7639L100.007 115.51Z" fill="#BCBEFF"/>
<path d="M100.007 114.162L1.16102 57.0977L0 57.7652L100.007 115.511L200 57.7652L198.839 57.0977L100.007 114.162Z" fill="white"/>
<path d="M100.011 102.186L23.0938 57.7771L99.9967 13.3682L176.914 57.7771L100.011 102.186Z" fill="#0F054C"/>
<path opacity="0.5" d="M99.9945 102.189L23.0625 57.7801L99.98 13.3711L176.897 57.7801L99.9945 102.189Z" fill="url(#paint5_linear_5430_2604)"/>
<path opacity="0.5" d="M99.9805 2.18066L176.898 46.5896V57.7789L99.9805 13.37V2.18066Z" fill="url(#paint6_linear_5430_2604)"/>
<path opacity="0.5" d="M99.9945 13.37L23.0625 57.7789V46.5896L99.98 2.18066L99.9945 13.37Z" fill="url(#paint7_linear_5430_2604)"/>
<path opacity="0.5" d="M99.9945 90.9986L23.0625 46.5896L99.98 2.18066L176.897 46.5896L99.9945 90.9986Z" fill="url(#paint8_linear_5430_2604)"/>
<path opacity="0.5" d="M99.9852 64.3245L69.2617 46.5899L99.9852 28.8408L130.723 46.5899L99.9852 64.3245Z" fill="#42E8E0"/>
<path opacity="0.5" d="M99.9852 30.4662L129.315 47.4026L130.723 46.5899L99.9852 28.8408L69.2617 46.5899L70.6695 47.4026L99.9852 30.4662Z" fill="#42E8E0"/>
<path opacity="0.5" d="M99.9883 90.9988V102.188L176.891 57.7792V46.5898L99.9883 90.9988Z" fill="url(#paint9_linear_5430_2604)"/>
<path opacity="0.5" d="M23.0625 46.5898V57.7792L99.9945 102.188V90.9988L23.0625 46.5898Z" fill="url(#paint10_linear_5430_2604)"/>
<path opacity="0.8" d="M100.006 89.7654L24.1336 45.9805L23.0742 46.59L100.006 90.999L176.909 46.59L175.85 45.9805L100.006 89.7654Z" fill="#42E8E0"/>
<path d="M95.7233 138.933L86.7399 149.499L14.6406 107.876V92.1152L95.7233 138.933Z" fill="#453C9E"/>
<path d="M95.7233 187.827L86.7399 198.392L14.6406 156.77V141.009L95.7233 187.827Z" fill="#453C9E"/>
<path d="M95.7233 236.72L86.7399 247.286L14.6406 205.663V189.902L95.7233 236.72Z" fill="#453C9E"/>
<path d="M95.7233 285.629L86.7399 296.194L14.6406 254.557V238.811L95.7233 285.629Z" fill="#453C9E"/>
<path d="M14.6406 103.277V107.878L100.005 157.149L185.354 107.878V103.277L100.005 152.563L14.6406 103.277Z" fill="#24126A"/>
<path d="M14.6406 152.169V156.769L100.005 206.055L185.354 156.769V152.183L100.005 201.454L14.6406 152.169Z" fill="#24126A"/>
<path d="M14.6406 201.076V205.662L100.005 254.947L185.354 205.662V201.076L100.005 250.361L14.6406 201.076Z" fill="#24126A"/>
<path d="M14.6406 249.97V254.556L100.005 303.841L185.354 254.556V249.97L100.005 299.255L14.6406 249.97Z" fill="#24126A"/>
<path d="M100.007 163.053L1.16102 105.989L0 106.671L100.007 164.403L200 106.671L198.839 105.989L100.007 163.053Z" fill="white"/>
<path d="M100.007 211.948L1.16102 154.884L0 155.566L100.007 213.298L200 155.566L198.839 154.884L100.007 211.948Z" fill="white"/>
<path d="M100.007 260.841L1.16102 203.777L0 204.459L100.007 262.191L200 204.459L198.839 203.792L100.007 260.841Z" fill="white"/>
<path d="M100.007 309.749L1.16102 252.685L0 253.352L100.007 311.098L200 253.352L198.839 252.685L100.007 309.749Z" fill="white"/>
<defs>
<linearGradient id="paint0_linear_5430_2604" x1="-49.4449" y1="295.177" x2="206.85" y2="295.177" gradientUnits="userSpaceOnUse">
<stop stop-color="#5761D7"/>
<stop offset="0.16" stop-color="#5E67D9"/>
<stop offset="0.41" stop-color="#7179E1"/>
<stop offset="0.69" stop-color="#9197EE"/>
<stop offset="1" stop-color="#BCBEFF"/>
</linearGradient>
<linearGradient id="paint1_linear_5430_2604" x1="-15.1368" y1="246.27" x2="-13.6855" y2="246.27" gradientUnits="userSpaceOnUse">
<stop stop-color="#5761D7"/>
<stop offset="0.16" stop-color="#5E67D9"/>
<stop offset="0.41" stop-color="#7179E1"/>
<stop offset="0.69" stop-color="#9197EE"/>
<stop offset="1" stop-color="#BCBEFF"/>
</linearGradient>
<linearGradient id="paint2_linear_5430_2604" x1="-15.1368" y1="197.375" x2="-13.6855" y2="197.375" gradientUnits="userSpaceOnUse">
<stop stop-color="#5761D7"/>
<stop offset="0.16" stop-color="#5E67D9"/>
<stop offset="0.41" stop-color="#7179E1"/>
<stop offset="0.69" stop-color="#9197EE"/>
<stop offset="1" stop-color="#BCBEFF"/>
</linearGradient>
<linearGradient id="paint3_linear_5430_2604" x1="-15.1368" y1="148.482" x2="-13.6855" y2="148.482" gradientUnits="userSpaceOnUse">
<stop stop-color="#5761D7"/>
<stop offset="0.16" stop-color="#5E67D9"/>
<stop offset="0.41" stop-color="#7179E1"/>
<stop offset="0.69" stop-color="#9197EE"/>
<stop offset="1" stop-color="#BCBEFF"/>
</linearGradient>
<linearGradient id="paint4_linear_5430_2604" x1="-15.1368" y1="99.5894" x2="-13.6855" y2="99.5894" gradientUnits="userSpaceOnUse">
<stop stop-color="#5761D7"/>
<stop offset="0.16" stop-color="#5E67D9"/>
<stop offset="0.41" stop-color="#7179E1"/>
<stop offset="0.69" stop-color="#9197EE"/>
<stop offset="1" stop-color="#BCBEFF"/>
</linearGradient>
<linearGradient id="paint5_linear_5430_2604" x1="23.0625" y1="57.7801" x2="176.897" y2="57.7801" gradientUnits="userSpaceOnUse">
<stop stop-color="#42E8E0"/>
<stop offset="0.15" stop-color="#42E3DF"/>
<stop offset="0.33" stop-color="#44D4DE"/>
<stop offset="0.52" stop-color="#48BDDD"/>
<stop offset="0.72" stop-color="#4D9BDA"/>
<stop offset="0.93" stop-color="#5471D8"/>
<stop offset="1" stop-color="#5761D7"/>
</linearGradient>
<linearGradient id="paint6_linear_5430_2604" x1="99.9805" y1="29.9871" x2="-13.6978" y2="29.9871" gradientUnits="userSpaceOnUse">
<stop stop-color="#42E8E0"/>
<stop offset="0.15" stop-color="#42E3DF"/>
<stop offset="0.33" stop-color="#44D4DE"/>
<stop offset="0.52" stop-color="#48BDDD"/>
<stop offset="0.72" stop-color="#4D9BDA"/>
<stop offset="0.93" stop-color="#5471D8"/>
<stop offset="1" stop-color="#5761D7"/>
</linearGradient>
<linearGradient id="paint7_linear_5430_2604" x1="-15.1495" y1="29.9726" x2="99.9945" y2="29.9726" gradientUnits="userSpaceOnUse">
<stop stop-color="#42E8E0"/>
<stop offset="0.15" stop-color="#42E3DF"/>
<stop offset="0.33" stop-color="#44D4DE"/>
<stop offset="0.52" stop-color="#48BDDD"/>
<stop offset="0.72" stop-color="#4D9BDA"/>
<stop offset="0.93" stop-color="#5471D8"/>
<stop offset="1" stop-color="#5761D7"/>
</linearGradient>
<linearGradient id="paint8_linear_5430_2604" x1="-15.1495" y1="46.5896" x2="-13.6983" y2="46.5896" gradientUnits="userSpaceOnUse">
<stop stop-color="#42E8E0"/>
<stop offset="0.15" stop-color="#42E3DF"/>
<stop offset="0.33" stop-color="#44D4DE"/>
<stop offset="0.52" stop-color="#48BDDD"/>
<stop offset="0.72" stop-color="#4D9BDA"/>
<stop offset="0.93" stop-color="#5471D8"/>
<stop offset="1" stop-color="#5761D7"/>
</linearGradient>
<linearGradient id="paint9_linear_5430_2604" x1="99.9883" y1="74.3817" x2="-13.7045" y2="74.3817" gradientUnits="userSpaceOnUse">
<stop stop-color="#42E8E0"/>
<stop offset="0.15" stop-color="#42E3DF"/>
<stop offset="0.33" stop-color="#44D4DE"/>
<stop offset="0.52" stop-color="#48BDDD"/>
<stop offset="0.72" stop-color="#4D9BDA"/>
<stop offset="0.93" stop-color="#5471D8"/>
<stop offset="1" stop-color="#5761D7"/>
</linearGradient>
<linearGradient id="paint10_linear_5430_2604" x1="-15.1495" y1="74.3817" x2="99.9945" y2="74.3817" gradientUnits="userSpaceOnUse">
<stop stop-color="#42E8E0"/>
<stop offset="0.15" stop-color="#42E3DF"/>
<stop offset="0.33" stop-color="#44D4DE"/>
<stop offset="0.52" stop-color="#48BDDD"/>
<stop offset="0.72" stop-color="#4D9BDA"/>
<stop offset="0.93" stop-color="#5471D8"/>
<stop offset="1" stop-color="#5761D7"/>
</linearGradient>
</defs>
</svg>
