<svg width="503" height="510" viewBox="0 0 503 510" fill="none" xmlns="http://www.w3.org/2000/svg">
<g filter="url(#filter0_d_5418_621)">
<path d="M272.988 420C275.642 420 278.297 419.32 280.668 417.95L380.487 360.313C381.441 359.765 382.008 358.773 382.008 357.677C382.008 356.572 381.441 355.589 380.487 355.041L200.358 251.047L200.009 251.255L92.8592 313.115C91.905 313.663 91.3382 314.655 91.3382 315.751C91.3382 316.847 91.905 317.839 92.8592 318.387L265.307 417.95C267.679 419.32 270.333 420 272.988 420ZM200.368 252.682L379.788 356.27C380.298 356.562 380.6 357.092 380.6 357.677C380.6 358.263 380.298 358.792 379.788 359.085L279.969 416.722C275.671 419.206 270.324 419.206 266.016 416.722L93.5677 317.158C93.0576 316.866 92.7553 316.337 92.7553 315.751C92.7553 315.165 93.0576 314.636 93.5677 314.343L200.368 252.682Z" fill="url(#paint0_linear_5418_621)"/>
<path d="M201.361 214.686L225.291 72.7017L223.369 71.896L226.266 70.2422C226.832 69.8888 227.623 69.903 228.5 70.4118L419.772 180.847C421.341 181.752 422.528 184.084 422.26 185.71L398.132 328.825C398.004 329.574 397.637 330.068 397.128 330.28L394.301 331.92L393.82 329.277L393.976 329.319L203.834 219.548C202.265 218.644 201.078 216.311 201.347 214.686H201.361Z" fill="url(#paint1_linear_5418_621)"/>
<path d="M418.686 184.706L421.824 183.321C422.177 184.126 422.347 184.975 422.234 185.681L398.106 328.796C397.978 329.545 397.611 330.04 397.102 330.252L394.275 331.892L393.795 329.249L393.95 329.291L384.324 323.736L418.672 184.692L418.686 184.706Z" fill="url(#paint2_linear_5418_621)"/>
<path d="M200.842 221.273L392.114 331.708C393.584 332.556 394.856 332.061 395.111 330.535L419.239 187.42C419.521 185.794 418.32 183.462 416.751 182.557L225.479 72.1221C224.009 71.274 222.736 71.7687 222.482 73.2952L198.354 216.41C198.071 218.036 199.273 220.368 200.842 221.273Z" fill="#24126A"/>
<g opacity="0.51">
<path d="M224.834 74.7798L417.011 185.682L392.741 329.164L200.691 218.333L224.834 74.7798Z" fill="#453C9E"/>
</g>
<path d="M80.604 289.021L91.0355 294.477L195.704 234.051C197.456 233.033 200.51 233.16 202.531 234.333L383.061 338.563C384.785 337.602 392.658 333.814 392.658 333.814L388.842 340.019C388.842 340.019 388.842 340.019 388.828 340.019C388.672 340.458 388.333 340.882 387.753 341.207L277.516 404.856C275.763 405.873 272.71 405.746 270.689 404.573L85.9611 297.898C85.1271 297.417 84.6183 296.838 84.4062 296.244H84.3921L80.5898 289.021H80.604Z" fill="url(#paint3_linear_5418_621)"/>
<path d="M82.2198 290.745L271.556 400.05C273.633 401.251 276.757 401.378 278.552 400.347L391.532 335.114C393.327 334.083 393.101 332.273 391.023 331.072L201.701 221.767C199.624 220.566 196.5 220.439 194.705 221.471L81.711 286.703C79.9159 287.735 80.142 289.544 82.2198 290.745Z" fill="url(#paint4_linear_5418_621)"/>
<path d="M82.2195 289.898L271.555 399.202C273.633 400.404 276.757 400.531 278.552 399.499L391.532 334.267C392.168 333.899 392.535 333.433 392.677 332.938C392.874 333.744 392.521 334.535 391.532 335.115L278.552 400.347C276.757 401.379 273.619 401.252 271.555 400.05L82.2195 290.746C80.8767 289.968 80.3254 288.936 80.5798 288.032C80.7495 288.696 81.2866 289.36 82.2195 289.898Z" fill="white"/>
<g opacity="0.15">
<mask id="mask0_5418_621" style="mask-type:luminance" maskUnits="userSpaceOnUse" x="200" y="74" width="218" height="256">
<path d="M417.011 185.681L224.834 74.7788L200.691 218.332L392.741 329.163L417.011 185.681Z" fill="white"/>
</mask>
<g mask="url(#mask0_5418_621)">
<path d="M200.604 220.337L211.035 225.793L315.704 165.367C317.456 164.349 320.51 164.477 322.531 165.65L503.061 269.88C504.785 268.919 512.658 265.131 512.658 265.131L508.842 271.336C508.842 271.336 508.842 271.336 508.828 271.336C508.672 271.774 508.333 272.198 507.753 272.523L397.516 336.172C395.763 337.19 392.71 337.063 390.689 335.889L205.961 229.214C205.127 228.733 204.618 228.154 204.406 227.56H204.392L200.59 220.337H200.604Z" fill="url(#paint5_linear_5418_621)"/>
<path d="M202.21 222.062L391.545 331.366C393.623 332.568 396.747 332.695 398.542 331.663L511.522 266.431C513.317 265.399 513.091 263.59 511.013 262.388L321.691 153.084C319.613 151.882 316.49 151.755 314.694 152.787L201.715 218.019C199.92 219.051 200.146 220.86 202.224 222.062H202.21Z" fill="url(#paint6_linear_5418_621)"/>
<path d="M511.008 262.389L321.686 153.084C320.358 152.321 318.577 151.996 317.008 152.137C318.167 152.222 319.34 152.547 320.287 153.084L509.623 262.389C511.701 263.59 511.927 265.399 510.132 266.431L397.152 331.664C396.516 332.031 395.696 332.243 394.834 332.328C396.205 332.441 397.576 332.229 398.552 331.664L511.531 266.431C513.326 265.399 513.1 263.59 511.022 262.389H511.008Z" fill="white"/>
<g opacity="0.5">
<path d="M301.382 203.235L295.318 199.729C294.838 199.446 294.004 199.475 293.481 199.786L286.738 203.729C286.215 204.04 286.173 204.521 286.668 204.804L292.732 208.309C293.212 208.592 294.046 208.563 294.569 208.252L301.311 204.309C301.834 203.998 301.877 203.517 301.382 203.235Z" fill="#24126A"/>
<path d="M310.753 208.648L304.689 205.143C304.209 204.86 303.375 204.888 302.852 205.199L296.11 209.143C295.587 209.454 295.544 209.934 296.039 210.217L302.103 213.723C302.583 214.005 303.417 213.977 303.94 213.666L310.683 209.722C311.206 209.411 311.248 208.931 310.753 208.648Z" fill="#24126A"/>
<path d="M320.128 214.062L314.064 210.557C313.584 210.274 312.75 210.302 312.227 210.613L305.485 214.557C304.962 214.868 304.919 215.349 305.414 215.631L311.478 219.137C311.958 219.419 312.792 219.391 313.315 219.08L320.058 215.137C320.581 214.826 320.623 214.345 320.128 214.062Z" fill="#24126A"/>
<path d="M312.988 221.27L306.924 217.765C306.443 217.482 305.609 217.51 305.086 217.821L299.418 221.129C298.895 221.44 298.853 221.92 299.347 222.203L305.411 225.709C305.892 225.991 306.726 225.963 307.249 225.652L312.917 222.345C313.44 222.034 313.482 221.553 312.988 221.27Z" fill="#24126A"/>
<path d="M322.363 226.67L316.299 223.165C315.818 222.882 314.984 222.91 314.461 223.221L308.793 226.529C308.27 226.84 308.228 227.32 308.722 227.603L314.786 231.108C315.267 231.391 316.101 231.363 316.624 231.052L322.292 227.744C322.815 227.433 322.857 226.953 322.363 226.67Z" fill="#24126A"/>
<path d="M331.734 232.084L325.67 228.579C325.189 228.296 324.355 228.324 323.832 228.635L318.164 231.943C317.641 232.254 317.599 232.734 318.094 233.017L324.157 236.523C324.638 236.805 325.472 236.777 325.995 236.466L331.663 233.158C332.186 232.848 332.228 232.367 331.734 232.084Z" fill="#24126A"/>
<path d="M341.105 237.498L335.041 233.992C334.56 233.71 333.726 233.738 333.203 234.049L327.535 237.356C327.012 237.667 326.97 238.148 327.465 238.431L333.529 241.936C334.009 242.219 334.843 242.191 335.366 241.88L341.034 238.572C341.557 238.261 341.599 237.78 341.105 237.498Z" fill="#24126A"/>
<path d="M350.472 242.911L344.408 239.406C343.928 239.123 343.094 239.152 342.571 239.462L336.903 242.77C336.38 243.081 336.337 243.562 336.832 243.844L342.896 247.35C343.376 247.632 344.21 247.604 344.733 247.293L350.401 243.986C350.924 243.675 350.967 243.194 350.472 242.911Z" fill="#24126A"/>
<path d="M359.843 248.324L353.779 244.819C353.299 244.536 352.465 244.565 351.942 244.876L346.274 248.183C345.751 248.494 345.708 248.975 346.203 249.257L352.267 252.763C352.747 253.045 353.581 253.017 354.104 252.706L359.772 249.399C360.295 249.088 360.338 248.607 359.843 248.324Z" fill="#24126A"/>
<path d="M369.214 253.738L363.15 250.233C362.67 249.95 361.836 249.978 361.313 250.289L355.645 253.597C355.122 253.908 355.079 254.388 355.574 254.671L361.638 258.176C362.118 258.459 362.952 258.431 363.475 258.12L369.143 254.812C369.666 254.501 369.709 254.021 369.214 253.738Z" fill="#24126A"/>
<path d="M378.605 259.138L372.541 255.632C372.06 255.35 371.226 255.378 370.703 255.689L365.035 258.997C364.512 259.308 364.47 259.788 364.965 260.071L371.028 263.576C371.509 263.859 372.343 263.831 372.866 263.52L378.534 260.212C379.057 259.901 379.099 259.421 378.605 259.138Z" fill="#24126A"/>
<path d="M387.976 264.551L381.912 261.046C381.431 260.763 380.597 260.792 380.075 261.103L374.406 264.41C373.883 264.721 373.841 265.202 374.336 265.484L380.4 268.99C380.88 269.273 381.714 269.244 382.237 268.933L387.905 265.626C388.428 265.315 388.471 264.834 387.976 264.551Z" fill="#24126A"/>
<path d="M397.347 269.965L391.283 266.46C390.803 266.177 389.969 266.205 389.446 266.516L383.778 269.824C383.255 270.135 383.212 270.615 383.707 270.898L389.771 274.403C390.251 274.686 391.085 274.658 391.608 274.347L397.276 271.039C397.799 270.728 397.842 270.248 397.347 269.965Z" fill="#24126A"/>
<path d="M309.085 228.989L303.021 225.483C302.541 225.2 301.707 225.229 301.184 225.54L295.516 228.847C294.993 229.158 294.95 229.639 295.445 229.921L301.509 233.427C301.99 233.71 302.824 233.681 303.347 233.37L309.015 230.063C309.538 229.752 309.58 229.271 309.085 228.989Z" fill="#24126A"/>
<path d="M299.574 223.503L293.51 219.998C293.029 219.715 292.195 219.743 291.672 220.054L286.004 223.362C285.481 223.673 285.439 224.153 285.933 224.436L291.997 227.942C292.478 228.224 293.312 228.196 293.835 227.885L299.503 224.577C300.026 224.266 300.068 223.786 299.574 223.503Z" fill="#24126A"/>
<path d="M290.049 217.992L276.975 210.444C276.494 210.161 275.66 210.189 275.137 210.5L269.469 213.808C268.946 214.119 268.904 214.599 269.398 214.882L282.473 222.43C282.954 222.713 283.788 222.684 284.31 222.373L289.979 219.066C290.502 218.755 290.544 218.274 290.049 217.992Z" fill="#24126A"/>
<path d="M278.998 221.596L268.396 215.476C267.916 215.193 267.082 215.221 266.559 215.532L260.891 218.84C260.368 219.151 260.325 219.631 260.82 219.914L271.421 226.034C271.902 226.317 272.736 226.289 273.259 225.978L278.927 222.67C279.45 222.359 279.492 221.879 278.998 221.596Z" fill="#24126A"/>
<path d="M318.456 234.401L312.392 230.896C311.912 230.613 311.078 230.641 310.555 230.952L304.887 234.26C304.364 234.571 304.322 235.051 304.816 235.334L310.88 238.839C311.361 239.122 312.195 239.094 312.718 238.783L318.386 235.475C318.909 235.164 318.951 234.684 318.456 234.401Z" fill="#24126A"/>
<path d="M327.824 239.816L321.76 236.31C321.279 236.028 320.445 236.056 319.922 236.367L314.254 239.674C313.731 239.985 313.689 240.466 314.183 240.749L320.247 244.254C320.728 244.537 321.562 244.508 322.085 244.197L327.753 240.89C328.276 240.579 328.318 240.098 327.824 239.816Z" fill="#24126A"/>
<path d="M337.206 245.229L331.142 241.723C330.662 241.441 329.828 241.469 329.305 241.78L323.637 245.087C323.114 245.398 323.072 245.879 323.566 246.162L329.63 249.667C330.111 249.95 330.945 249.922 331.468 249.611L337.136 246.303C337.659 245.992 337.701 245.511 337.206 245.229Z" fill="#24126A"/>
<path d="M346.577 250.628L340.514 247.123C340.033 246.84 339.199 246.868 338.676 247.179L333.008 250.487C332.485 250.798 332.443 251.278 332.937 251.561L339.001 255.067C339.482 255.349 340.316 255.321 340.839 255.01L346.507 251.702C347.03 251.391 347.072 250.911 346.577 250.628Z" fill="#24126A"/>
<path d="M355.945 256.042L349.881 252.537C349.4 252.254 348.566 252.282 348.043 252.593L342.375 255.901C341.852 256.212 341.81 256.692 342.305 256.975L348.368 260.481C348.849 260.763 349.683 260.735 350.206 260.424L355.874 257.116C356.397 256.806 356.439 256.325 355.945 256.042Z" fill="#24126A"/>
<path d="M365.316 261.456L359.252 257.95C358.771 257.668 357.937 257.696 357.414 258.007L351.746 261.314C351.223 261.625 351.181 262.106 351.676 262.389L357.739 265.894C358.22 266.177 359.054 266.149 359.577 265.838L365.245 262.53C365.768 262.219 365.81 261.739 365.316 261.456Z" fill="#24126A"/>
<path d="M374.691 266.869L368.627 263.364C368.146 263.081 367.312 263.11 366.789 263.42L361.121 266.728C360.598 267.039 360.556 267.52 361.051 267.802L367.114 271.308C367.595 271.59 368.429 271.562 368.952 271.251L374.62 267.944C375.143 267.633 375.185 267.152 374.691 266.869Z" fill="#24126A"/>
<path d="M384.062 272.283L377.998 268.778C377.517 268.495 376.683 268.524 376.16 268.835L370.492 272.142C369.969 272.453 369.927 272.934 370.422 273.216L376.486 276.722C376.966 277.004 377.8 276.976 378.323 276.665L383.991 273.358C384.514 273.047 384.557 272.566 384.062 272.283Z" fill="#24126A"/>
<path d="M393.429 277.683L387.365 274.177C386.885 273.895 386.051 273.923 385.528 274.234L379.86 277.541C379.337 277.852 379.294 278.333 379.789 278.616L385.853 282.121C386.333 282.404 387.167 282.376 387.69 282.065L393.358 278.757C393.881 278.446 393.924 277.966 393.429 277.683Z" fill="#24126A"/>
<path d="M410.09 287.308L396.846 279.661C396.365 279.379 395.531 279.407 395.008 279.718L389.34 283.025C388.817 283.336 388.775 283.817 389.269 284.1L402.514 291.747C402.994 292.029 403.828 292.001 404.351 291.69L410.019 288.382C410.542 288.072 410.585 287.591 410.09 287.308Z" fill="#24126A"/>
<path d="M392.921 297.345L381.74 290.885C381.26 290.603 380.426 290.631 379.903 290.942L374.235 294.25C373.712 294.56 373.669 295.041 374.164 295.324L385.345 301.783C385.825 302.066 386.659 302.038 387.182 301.727L392.85 298.419C393.373 298.108 393.416 297.628 392.921 297.345Z" fill="#24126A"/>
<path d="M317.163 243.632L311.1 240.127C310.619 239.844 309.785 239.872 309.262 240.183L303.594 243.491C303.071 243.802 303.029 244.282 303.523 244.565L309.587 248.07C310.068 248.353 310.902 248.325 311.425 248.014L317.093 244.706C317.616 244.395 317.658 243.915 317.163 243.632Z" fill="#24126A"/>
<path d="M307.55 238.077L301.486 234.572C301.006 234.289 300.172 234.318 299.649 234.628L293.981 237.936C293.458 238.247 293.415 238.728 293.91 239.01L299.974 242.516C300.454 242.798 301.288 242.77 301.811 242.459L307.479 239.152C308.002 238.841 308.045 238.36 307.55 238.077Z" fill="#24126A"/>
<path d="M297.952 232.536L291.889 229.03C291.408 228.748 290.574 228.776 290.051 229.087L284.383 232.395C283.86 232.706 283.818 233.186 284.312 233.469L290.376 236.974C290.857 237.257 291.691 237.229 292.214 236.918L297.882 233.61C298.405 233.299 298.447 232.819 297.952 232.536Z" fill="#24126A"/>
<path d="M288.339 226.995L282.275 223.489C281.795 223.207 280.961 223.235 280.438 223.546L274.77 226.854C274.247 227.164 274.204 227.645 274.699 227.928L280.763 231.433C281.243 231.716 282.077 231.688 282.6 231.377L288.268 228.069C288.791 227.758 288.834 227.278 288.339 226.995Z" fill="#24126A"/>
<path d="M326.534 249.046L320.471 245.54C319.99 245.258 319.156 245.286 318.633 245.597L312.965 248.904C312.442 249.215 312.4 249.696 312.894 249.979L318.958 253.484C319.439 253.767 320.273 253.738 320.796 253.427L326.464 250.12C326.987 249.809 327.029 249.328 326.534 249.046Z" fill="#24126A"/>
<path d="M335.902 254.445L329.838 250.94C329.357 250.657 328.523 250.685 328 250.996L322.332 254.304C321.809 254.615 321.767 255.095 322.262 255.378L328.325 258.883C328.806 259.166 329.64 259.138 330.163 258.827L335.831 255.519C336.354 255.208 336.396 254.728 335.902 254.445Z" fill="#24126A"/>
<path d="M345.273 259.859L339.209 256.354C338.728 256.071 337.894 256.099 337.371 256.41L331.703 259.718C331.18 260.029 331.138 260.509 331.633 260.792L337.696 264.297C338.177 264.58 339.011 264.552 339.534 264.241L345.202 260.933C345.725 260.622 345.767 260.142 345.273 259.859Z" fill="#24126A"/>
<path d="M354.648 265.273L348.584 261.767C348.103 261.485 347.269 261.513 346.746 261.824L341.078 265.131C340.555 265.442 340.513 265.923 341.008 266.206L347.071 269.711C347.552 269.994 348.386 269.965 348.909 269.654L354.577 266.347C355.1 266.036 355.142 265.555 354.648 265.273Z" fill="#24126A"/>
<path d="M364.019 270.686L357.955 267.18C357.474 266.898 356.64 266.926 356.117 267.237L350.449 270.544C349.926 270.855 349.884 271.336 350.379 271.619L356.443 275.124C356.923 275.407 357.757 275.379 358.28 275.068L363.948 271.76C364.471 271.449 364.514 270.968 364.019 270.686Z" fill="#24126A"/>
<path d="M373.386 276.099L367.322 272.594C366.842 272.311 366.008 272.34 365.485 272.65L359.817 275.958C359.294 276.269 359.251 276.75 359.746 277.032L365.81 280.538C366.29 280.82 367.124 280.792 367.647 280.481L373.315 277.174C373.838 276.863 373.881 276.382 373.386 276.099Z" fill="#24126A"/>
<path d="M382.761 281.499L376.697 277.994C376.217 277.711 375.383 277.739 374.86 278.05L369.192 281.358C368.669 281.669 368.626 282.149 369.121 282.432L375.185 285.938C375.665 286.22 376.499 286.192 377.022 285.881L382.69 282.573C383.213 282.263 383.256 281.782 382.761 281.499Z" fill="#24126A"/>
<path d="M392.128 286.913L386.064 283.407C385.584 283.125 384.75 283.153 384.227 283.464L378.559 286.771C378.036 287.082 377.993 287.563 378.488 287.846L384.552 291.351C385.033 291.634 385.866 291.606 386.389 291.295L392.058 287.987C392.581 287.676 392.623 287.196 392.128 286.913Z" fill="#24126A"/>
<path d="M401.499 292.326L395.435 288.821C394.955 288.538 394.121 288.567 393.598 288.878L387.93 292.185C387.407 292.496 387.364 292.977 387.859 293.259L393.923 296.765C394.404 297.047 395.238 297.019 395.761 296.708L401.429 293.401C401.952 293.09 401.994 292.609 401.499 292.326Z" fill="#24126A"/>
<path d="M294.515 240.537L288.451 237.032C287.97 236.749 287.137 236.777 286.614 237.088L280.945 240.396C280.423 240.707 280.38 241.188 280.875 241.47L286.939 244.976C287.419 245.258 288.253 245.23 288.776 244.919L294.444 241.612C294.967 241.301 295.01 240.82 294.515 240.537Z" fill="#24126A"/>
<path d="M285.187 235.151L279.123 231.646C278.642 231.363 277.808 231.391 277.285 231.702L271.617 235.01C271.094 235.321 271.052 235.801 271.547 236.084L277.611 239.589C278.091 239.872 278.925 239.844 279.448 239.533L285.116 236.225C285.639 235.914 285.682 235.434 285.187 235.151Z" fill="#24126A"/>
<path d="M275.855 229.766L269.791 226.26C269.31 225.978 268.476 226.006 267.953 226.317L262.285 229.625C261.762 229.935 261.72 230.416 262.215 230.699L268.278 234.204C268.759 234.487 269.593 234.459 270.116 234.148L275.784 230.84C276.307 230.529 276.349 230.049 275.855 229.766Z" fill="#24126A"/>
<path d="M266.527 224.38L260.463 220.874C259.982 220.592 259.148 220.62 258.625 220.931L252.957 224.238C252.434 224.549 252.392 225.03 252.887 225.313L258.95 228.818C259.431 229.101 260.265 229.072 260.788 228.761L266.456 225.454C266.979 225.143 267.021 224.662 266.527 224.38Z" fill="#24126A"/>
<path d="M257.51 229.653L251.446 226.147C250.965 225.864 250.131 225.893 249.608 226.204L247.742 227.292C247.219 227.603 247.177 228.084 247.672 228.366L253.736 231.872C254.216 232.154 255.05 232.126 255.573 231.815L257.439 230.727C257.962 230.416 258.004 229.935 257.51 229.653Z" fill="#24126A"/>
<path d="M269.677 236.678L263.614 233.173C263.133 232.89 262.299 232.918 261.776 233.229L259.91 234.317C259.387 234.628 259.345 235.109 259.84 235.392L265.904 238.897C266.384 239.18 267.218 239.152 267.741 238.841L269.607 237.752C270.13 237.441 270.172 236.961 269.677 236.678Z" fill="#24126A"/>
<path d="M278.967 242.035L272.903 238.53C272.422 238.247 271.588 238.276 271.065 238.587L269.199 239.675C268.676 239.986 268.634 240.466 269.129 240.749L275.193 244.255C275.673 244.537 276.507 244.509 277.03 244.198L278.896 243.11C279.419 242.799 279.461 242.318 278.967 242.035Z" fill="#24126A"/>
<path d="M288.252 247.406L282.188 243.901C281.707 243.618 280.873 243.646 280.35 243.957L278.485 245.045C277.962 245.356 277.919 245.837 278.414 246.12L284.478 249.625C284.958 249.908 285.792 249.88 286.315 249.569L288.181 248.48C288.704 248.169 288.746 247.689 288.252 247.406Z" fill="#24126A"/>
<path d="M297.541 252.763L291.477 249.257C290.996 248.975 290.162 249.003 289.639 249.314L287.774 250.402C287.251 250.713 287.208 251.194 287.703 251.477L293.767 254.982C294.247 255.265 295.081 255.237 295.604 254.926L297.47 253.837C297.993 253.526 298.036 253.046 297.541 252.763Z" fill="#24126A"/>
<path d="M349.388 282.701L343.325 279.195C342.844 278.913 342.01 278.941 341.487 279.252L339.621 280.34C339.098 280.651 339.056 281.132 339.551 281.415L345.614 284.92C346.095 285.203 346.929 285.175 347.452 284.864L349.318 283.775C349.841 283.464 349.883 282.984 349.388 282.701Z" fill="#24126A"/>
<path d="M358.674 288.057L352.61 284.552C352.129 284.269 351.295 284.298 350.772 284.608L348.906 285.697C348.383 286.008 348.341 286.488 348.836 286.771L354.9 290.277C355.38 290.559 356.214 290.531 356.737 290.22L358.603 289.132C359.126 288.821 359.168 288.34 358.674 288.057Z" fill="#24126A"/>
<path d="M367.959 293.415L361.895 289.909C361.414 289.627 360.58 289.655 360.057 289.966L358.192 291.054C357.669 291.365 357.626 291.846 358.121 292.129L364.185 295.634C364.665 295.917 365.499 295.888 366.022 295.577L367.888 294.489C368.411 294.178 368.453 293.697 367.959 293.415Z" fill="#24126A"/>
<path d="M377.248 298.786L371.184 295.28C370.703 294.998 369.869 295.026 369.346 295.337L367.481 296.425C366.958 296.736 366.915 297.217 367.41 297.5L373.474 301.005C373.954 301.288 374.788 301.259 375.311 300.949L377.177 299.86C377.7 299.549 377.743 299.069 377.248 298.786Z" fill="#24126A"/>
<path d="M303.886 245.936L297.822 242.43C297.342 242.148 296.508 242.176 295.985 242.487L290.317 245.794C289.794 246.105 289.751 246.586 290.246 246.869L296.31 250.374C296.79 250.657 297.624 250.629 298.147 250.318L303.815 247.01C304.338 246.699 304.381 246.218 303.886 245.936Z" fill="#24126A"/>
<path d="M313.257 251.349L307.193 247.844C306.713 247.561 305.879 247.589 305.356 247.9L299.688 251.208C299.165 251.519 299.122 252 299.617 252.282L305.681 255.788C306.161 256.07 306.995 256.042 307.518 255.731L313.186 252.424C313.709 252.113 313.752 251.632 313.257 251.349Z" fill="#24126A"/>
<path d="M322.624 256.763L316.56 253.258C316.08 252.975 315.246 253.004 314.723 253.315L309.055 256.622C308.532 256.933 308.489 257.414 308.984 257.696L315.048 261.202C315.529 261.484 316.363 261.456 316.886 261.145L322.554 257.838C323.077 257.527 323.119 257.046 322.624 256.763Z" fill="#24126A"/>
<path d="M331.999 262.177L325.935 258.672C325.455 258.389 324.621 258.417 324.098 258.728L318.43 262.036C317.907 262.347 317.864 262.827 318.359 263.11L324.423 266.615C324.904 266.898 325.738 266.87 326.261 266.559L331.929 263.251C332.452 262.94 332.494 262.46 331.999 262.177Z" fill="#24126A"/>
<path d="M341.37 267.59L335.307 264.084C334.826 263.801 333.992 263.83 333.469 264.141L327.801 267.448C327.278 267.759 327.236 268.24 327.73 268.522L333.794 272.028C334.275 272.311 335.109 272.282 335.632 271.971L341.3 268.664C341.823 268.353 341.865 267.872 341.37 267.59Z" fill="#24126A"/>
<path d="M350.741 272.99L344.678 269.485C344.197 269.202 343.363 269.231 342.84 269.542L337.172 272.849C336.649 273.16 336.607 273.641 337.101 273.923L343.165 277.429C343.646 277.711 344.48 277.683 345.003 277.372L350.671 274.065C351.194 273.754 351.236 273.273 350.741 272.99Z" fill="#24126A"/>
<path d="M360.113 278.404L354.049 274.898C353.568 274.615 352.734 274.644 352.211 274.955L346.543 278.262C346.02 278.573 345.978 279.054 346.472 279.336L352.536 282.842C353.017 283.125 353.851 283.096 354.374 282.785L360.042 279.478C360.565 279.167 360.607 278.686 360.113 278.404Z" fill="#24126A"/>
<path d="M369.488 283.817L363.424 280.311C362.943 280.029 362.109 280.057 361.586 280.368L355.918 283.675C355.395 283.986 355.353 284.467 355.847 284.75L361.911 288.255C362.392 288.538 363.226 288.509 363.749 288.198L369.417 284.891C369.94 284.58 369.982 284.099 369.488 283.817Z" fill="#24126A"/>
<path d="M378.859 289.231L372.795 285.725C372.314 285.443 371.48 285.471 370.957 285.782L365.289 289.089C364.766 289.4 364.724 289.881 365.219 290.164L371.282 293.669C371.763 293.952 372.597 293.923 373.12 293.613L378.788 290.305C379.311 289.994 379.353 289.513 378.859 289.231Z" fill="#24126A"/>
<path d="M303.435 215.758L285.568 205.44C285.088 205.157 284.254 205.185 283.731 205.496L278.063 208.804C277.54 209.115 277.497 209.595 277.992 209.878L295.858 220.196C296.339 220.479 297.173 220.451 297.696 220.14L303.364 216.832C303.887 216.521 303.929 216.041 303.435 215.758Z" fill="#24126A"/>
<path d="M418.579 282.22L400.713 271.902C400.232 271.619 399.398 271.648 398.875 271.959L393.207 275.266C392.684 275.577 392.642 276.058 393.137 276.34L411.003 286.659C411.484 286.941 412.317 286.913 412.84 286.602L418.509 283.295C419.032 282.984 419.074 282.503 418.579 282.22Z" fill="#24126A"/>
<path d="M401.187 260.876L395.123 257.371C394.642 257.088 393.808 257.116 393.285 257.427L386.543 261.371C386.02 261.682 385.978 262.162 386.472 262.445L392.536 265.951C393.017 266.233 393.851 266.205 394.374 265.894L401.116 261.95C401.639 261.639 401.682 261.159 401.187 260.876Z" fill="#24126A"/>
<path d="M333.13 221.568L323.42 215.971C322.939 215.688 322.105 215.716 321.582 216.027L314.84 219.971C314.317 220.282 314.275 220.763 314.769 221.045L324.48 226.643C324.961 226.925 325.795 226.897 326.318 226.586L333.06 222.643C333.583 222.332 333.625 221.851 333.13 221.568Z" fill="#24126A"/>
<path d="M392.166 255.661L382.455 250.063C381.974 249.78 381.14 249.809 380.617 250.12L373.875 254.063C373.352 254.374 373.31 254.855 373.805 255.138L383.515 260.735C383.996 261.018 384.83 260.989 385.353 260.678L392.095 256.735C392.618 256.424 392.66 255.943 392.166 255.661Z" fill="#24126A"/>
<path d="M346.662 229.385L336.951 223.787C336.471 223.505 335.637 223.533 335.114 223.844L328.371 227.787C327.848 228.098 327.806 228.579 328.301 228.862L338.011 234.459C338.492 234.742 339.326 234.713 339.849 234.403L346.591 230.459C347.114 230.148 347.156 229.667 346.662 229.385Z" fill="#24126A"/>
<path d="M328.355 228.875L370.548 253.244C371.071 253.54 371.891 253.555 372.385 253.272L379.269 249.258C379.764 248.975 379.736 248.494 379.213 248.183L337.02 223.815L328.355 228.875Z" fill="#24126A"/>
<path d="M409.005 270.417L415.762 274.319C416.158 274.545 416.836 274.531 417.274 274.276L420.031 272.665C420.469 272.41 420.497 272.015 420.087 271.788L413.331 267.887C412.935 267.661 412.256 267.675 411.818 267.93L409.062 269.541C408.624 269.795 408.595 270.191 409.005 270.417Z" fill="#24126A"/>
<path d="M399.634 265.004L406.391 268.905C406.787 269.131 407.465 269.117 407.903 268.863L410.659 267.251C411.098 266.997 411.126 266.601 410.716 266.375L403.96 262.474C403.564 262.247 402.885 262.262 402.447 262.516L399.691 264.127C399.253 264.382 399.224 264.778 399.634 265.004Z" fill="#24126A"/>
<path d="M404.13 273.259L410.887 277.16C411.283 277.386 411.961 277.372 412.399 277.118L415.156 275.507C415.594 275.252 415.622 274.856 415.212 274.63L408.456 270.729C408.06 270.503 407.381 270.517 406.943 270.771L404.187 272.383C403.749 272.637 403.72 273.033 404.13 273.259Z" fill="#24126A"/>
</g>
</g>
</g>
<g opacity="0.8">
<path d="M169.305 278.632L163.298 275.155C162.817 274.872 162.874 274.391 163.439 274.066L170.535 269.967C171.086 269.642 171.934 269.614 172.415 269.882L178.422 273.345C178.903 273.628 178.846 274.109 178.281 274.434L171.185 278.533C170.634 278.858 169.786 278.886 169.305 278.618V278.632Z" fill="#24126A"/>
<path d="M178.59 283.988L172.583 280.525C172.102 280.242 172.159 279.762 172.724 279.436L179.82 275.337C180.371 275.012 181.219 274.984 181.7 275.253L187.707 278.716C188.188 278.998 188.131 279.479 187.566 279.804L180.47 283.903C179.919 284.228 179.071 284.256 178.59 283.988Z" fill="#24126A"/>
<path d="M187.879 289.36L181.872 285.897C181.391 285.614 181.448 285.134 182.013 284.809L189.109 280.709C189.66 280.384 190.508 280.356 190.989 280.625L196.996 284.088C197.477 284.37 197.42 284.851 196.855 285.176L189.759 289.275C189.208 289.6 188.36 289.628 187.879 289.36Z" fill="#24126A"/>
<path d="M200.711 284.921L194.704 281.458C194.223 281.175 194.28 280.695 194.845 280.37L200.796 276.935C201.347 276.61 202.195 276.582 202.676 276.85L208.683 280.313C209.164 280.596 209.107 281.077 208.542 281.402L202.591 284.836C202.04 285.161 201.192 285.19 200.711 284.921Z" fill="#24126A"/>
<path d="M209.996 290.293L203.989 286.816C203.509 286.533 203.565 286.052 204.13 285.727L210.081 282.292C210.633 281.967 211.481 281.939 211.961 282.208L217.968 285.671C218.449 285.953 218.393 286.434 217.827 286.759L211.876 290.194C211.325 290.519 210.477 290.547 209.996 290.279V290.293Z" fill="#24126A"/>
<path d="M219.278 295.65L213.27 292.173C212.79 291.89 212.846 291.409 213.412 291.084L219.362 287.649C219.914 287.324 220.762 287.296 221.242 287.565L227.25 291.028C227.73 291.31 227.674 291.791 227.108 292.116L221.158 295.551C220.606 295.876 219.758 295.904 219.278 295.636V295.65Z" fill="#24126A"/>
<path d="M228.559 301.008L222.552 297.545C222.071 297.262 222.128 296.781 222.693 296.456L228.644 293.021C229.195 292.696 230.043 292.668 230.524 292.937L236.531 296.4C237.012 296.682 236.955 297.163 236.39 297.488L230.439 300.923C229.888 301.248 229.04 301.276 228.559 301.008Z" fill="#24126A"/>
<path d="M237.844 306.364L231.837 302.887C231.356 302.604 231.413 302.124 231.978 301.798L237.929 298.364C238.48 298.039 239.328 298.01 239.809 298.279L245.816 301.742C246.297 302.025 246.24 302.505 245.675 302.83L239.724 306.265C239.173 306.59 238.325 306.618 237.844 306.35V306.364Z" fill="#24126A"/>
<path d="M247.118 311.72L241.11 308.243C240.63 307.961 240.686 307.48 241.252 307.155L247.202 303.72C247.754 303.395 248.602 303.367 249.082 303.635L255.09 307.098C255.57 307.381 255.514 307.862 254.948 308.187L248.997 311.622C248.446 311.947 247.598 311.975 247.118 311.706V311.72Z" fill="#24126A"/>
<path d="M256.403 317.078L250.395 313.615C249.915 313.333 249.971 312.852 250.537 312.527L256.487 309.092C257.039 308.767 257.887 308.739 258.367 309.007L264.375 312.47C264.855 312.753 264.799 313.234 264.233 313.559L258.283 316.994C257.731 317.319 256.883 317.347 256.403 317.078Z" fill="#24126A"/>
<path d="M265.692 322.435L259.684 318.958C259.204 318.675 259.26 318.195 259.826 317.87L265.777 314.435C266.328 314.11 267.176 314.082 267.656 314.35L273.664 317.813C274.144 318.096 274.088 318.577 273.522 318.902L267.572 322.336C267.02 322.661 266.172 322.69 265.692 322.421V322.435Z" fill="#24126A"/>
<path d="M274.961 327.792L268.954 324.329C268.473 324.046 268.53 323.565 269.095 323.24L275.046 319.806C275.597 319.481 276.445 319.452 276.926 319.721L282.933 323.184C283.414 323.467 283.357 323.947 282.792 324.272L276.841 327.707C276.29 328.032 275.442 328.06 274.961 327.792Z" fill="#24126A"/>
<path d="M284.246 333.164L278.239 329.701C277.759 329.418 277.815 328.938 278.38 328.612L284.331 325.178C284.883 324.853 285.731 324.824 286.211 325.093L292.218 328.556C292.699 328.839 292.643 329.319 292.077 329.644L286.126 333.079C285.575 333.404 284.727 333.432 284.246 333.164Z" fill="#24126A"/>
<path d="M214.383 282.392L208.376 278.929C207.895 278.646 207.952 278.166 208.517 277.84L214.468 274.406C215.019 274.081 215.867 274.052 216.348 274.321L222.355 277.784C222.836 278.067 222.779 278.547 222.214 278.872L216.263 282.307C215.712 282.632 214.864 282.66 214.383 282.392Z" fill="#24126A"/>
<path d="M204.969 276.949L198.962 273.486C198.481 273.204 198.538 272.723 199.103 272.398L205.054 268.963C205.605 268.638 206.453 268.61 206.934 268.879L212.941 272.342C213.422 272.624 213.365 273.105 212.8 273.43L206.849 276.865C206.298 277.19 205.45 277.218 204.969 276.949Z" fill="#24126A"/>
<path d="M195.526 271.508L182.579 264.03C182.098 263.748 182.155 263.267 182.72 262.942L188.671 259.507C189.222 259.182 190.07 259.154 190.551 259.422L203.499 266.9C203.979 267.182 203.923 267.663 203.357 267.988L197.406 271.423C196.855 271.748 196.007 271.776 195.526 271.508Z" fill="#24126A"/>
<path d="M202.124 264.878L191.622 258.815C191.141 258.532 191.198 258.051 191.763 257.726L197.714 254.291C198.265 253.966 199.113 253.938 199.594 254.207L210.096 260.27C210.577 260.553 210.52 261.034 209.955 261.359L204.004 264.794C203.453 265.119 202.605 265.147 202.124 264.878Z" fill="#24126A"/>
<path d="M223.672 287.749L217.665 284.286C217.184 284.003 217.241 283.523 217.806 283.197L223.757 279.763C224.308 279.438 225.156 279.409 225.637 279.678L231.644 283.141C232.125 283.424 232.068 283.904 231.503 284.229L225.552 287.664C225.001 287.989 224.153 288.017 223.672 287.749Z" fill="#24126A"/>
<path d="M232.957 293.105L226.95 289.642C226.469 289.36 226.526 288.879 227.091 288.554L233.042 285.119C233.593 284.794 234.442 284.766 234.922 285.034L240.929 288.497C241.41 288.78 241.353 289.261 240.788 289.586L234.837 293.02C234.286 293.346 233.438 293.374 232.957 293.105Z" fill="#24126A"/>
<path d="M242.231 298.462L236.224 294.999C235.743 294.716 235.799 294.235 236.365 293.91L242.316 290.476C242.867 290.15 243.715 290.122 244.196 290.391L250.203 293.854C250.683 294.136 250.627 294.617 250.061 294.942L244.111 298.377C243.559 298.702 242.711 298.73 242.231 298.462Z" fill="#24126A"/>
<path d="M251.512 303.82L245.505 300.357C245.024 300.074 245.081 299.593 245.646 299.268L251.597 295.833C252.148 295.508 252.996 295.48 253.477 295.749L259.484 299.212C259.965 299.494 259.908 299.975 259.343 300.3L253.392 303.735C252.841 304.06 251.993 304.088 251.512 303.82Z" fill="#24126A"/>
<path d="M260.797 309.191L254.79 305.728C254.309 305.445 254.366 304.964 254.931 304.639L260.882 301.205C261.433 300.879 262.281 300.851 262.762 301.12L268.769 304.583C269.25 304.865 269.193 305.346 268.628 305.671L262.677 309.106C262.126 309.431 261.278 309.459 260.797 309.191Z" fill="#24126A"/>
<path d="M270.071 314.548L264.063 311.07C263.583 310.788 263.639 310.307 264.205 309.982L270.155 306.547C270.707 306.222 271.555 306.194 272.035 306.463L278.043 309.926C278.523 310.208 278.467 310.689 277.901 311.014L271.951 314.449C271.399 314.774 270.551 314.802 270.071 314.533V314.548Z" fill="#24126A"/>
<path d="M279.356 319.905L273.349 316.427C272.868 316.145 272.924 315.664 273.49 315.339L279.441 311.904C279.992 311.579 280.84 311.551 281.321 311.819L287.328 315.282C287.808 315.565 287.752 316.046 287.187 316.371L281.236 319.806C280.684 320.131 279.836 320.159 279.356 319.89V319.905Z" fill="#24126A"/>
<path d="M288.641 325.263L282.634 321.799C282.153 321.517 282.21 321.036 282.775 320.711L288.726 317.276C289.277 316.951 290.125 316.923 290.606 317.192L296.613 320.655C297.094 320.937 297.037 321.418 296.472 321.743L290.521 325.178C289.97 325.503 289.122 325.531 288.641 325.263Z" fill="#24126A"/>
<path d="M297.914 330.62L291.907 327.143C291.427 326.86 291.483 326.379 292.048 326.054L297.999 322.62C298.55 322.294 299.399 322.266 299.879 322.535L305.886 325.998C306.367 326.28 306.31 326.761 305.745 327.086L299.794 330.521C299.243 330.846 298.395 330.874 297.914 330.606V330.62Z" fill="#24126A"/>
<path d="M314.427 340.146L301.309 332.57C300.829 332.287 300.885 331.807 301.451 331.482L307.402 328.047C307.953 327.722 308.801 327.693 309.281 327.962L322.399 335.538C322.879 335.821 322.823 336.302 322.257 336.627L316.306 340.061C315.755 340.387 314.907 340.415 314.427 340.146Z" fill="#24126A"/>
<path d="M332.49 329.714L321.423 323.325C320.942 323.043 320.999 322.562 321.564 322.237L327.515 318.802C328.066 318.477 328.914 318.449 329.395 318.717L340.462 325.106C340.943 325.389 340.886 325.87 340.321 326.195L334.37 329.629C333.819 329.955 332.971 329.983 332.49 329.714Z" fill="#24126A"/>
<path d="M239.926 286.702L233.919 283.239C233.438 282.957 233.495 282.476 234.06 282.151L240.011 278.716C240.562 278.391 241.41 278.363 241.891 278.631L247.898 282.094C248.379 282.377 248.322 282.858 247.757 283.183L241.806 286.618C241.255 286.943 240.407 286.971 239.926 286.702Z" fill="#24126A"/>
<path d="M230.41 281.204L224.403 277.741C223.923 277.458 223.979 276.978 224.545 276.652L230.495 273.218C231.047 272.893 231.895 272.864 232.375 273.133L238.383 276.61C238.863 276.893 238.807 277.373 238.241 277.698L232.29 281.133C231.739 281.458 230.891 281.487 230.41 281.218V281.204Z" fill="#24126A"/>
<path d="M220.895 275.72L214.888 272.257C214.407 271.974 214.464 271.494 215.029 271.169L220.98 267.734C221.531 267.409 222.379 267.38 222.86 267.649L228.867 271.112C229.347 271.395 229.291 271.875 228.726 272.2L222.775 275.635C222.224 275.96 221.375 275.989 220.895 275.72Z" fill="#24126A"/>
<path d="M211.383 270.221L205.376 266.757C204.895 266.475 204.952 265.994 205.517 265.669L211.468 262.234C212.019 261.909 212.867 261.881 213.348 262.15L219.355 265.613C219.836 265.895 219.779 266.376 219.214 266.701L213.263 270.136C212.712 270.461 211.864 270.489 211.383 270.221Z" fill="#24126A"/>
<path d="M249.207 292.059L243.2 288.596C242.719 288.314 242.776 287.833 243.341 287.508L249.292 284.073C249.843 283.748 250.692 283.72 251.172 283.988L257.179 287.451C257.66 287.734 257.603 288.215 257.038 288.54L251.087 291.975C250.536 292.3 249.688 292.328 249.207 292.059Z" fill="#24126A"/>
<path d="M258.481 297.417L252.474 293.954C251.993 293.671 252.049 293.19 252.615 292.865L258.566 289.431C259.117 289.106 259.965 289.077 260.446 289.346L266.453 292.809C266.933 293.092 266.877 293.572 266.311 293.897L260.361 297.332C259.809 297.657 258.961 297.685 258.481 297.417Z" fill="#24126A"/>
<path d="M267.766 302.774L261.759 299.311C261.278 299.028 261.335 298.547 261.9 298.222L267.851 294.788C268.402 294.462 269.25 294.434 269.731 294.703L275.738 298.166C276.219 298.448 276.162 298.929 275.597 299.254L269.646 302.689C269.095 303.014 268.247 303.042 267.766 302.774Z" fill="#24126A"/>
<path d="M277.055 308.131L271.048 304.668C270.567 304.385 270.624 303.904 271.189 303.579L277.14 300.144C277.691 299.819 278.539 299.791 279.02 300.06L285.027 303.523C285.508 303.805 285.451 304.286 284.886 304.611L278.935 308.046C278.384 308.371 277.536 308.399 277.055 308.131Z" fill="#24126A"/>
<path d="M286.325 313.502L280.317 310.025C279.837 309.742 279.893 309.262 280.459 308.937L286.409 305.502C286.961 305.177 287.809 305.149 288.289 305.417L294.297 308.88C294.777 309.163 294.721 309.643 294.155 309.969L288.204 313.403C287.653 313.728 286.805 313.757 286.325 313.488V313.502Z" fill="#24126A"/>
<path d="M295.614 318.859L289.606 315.382C289.126 315.099 289.182 314.619 289.748 314.294L295.698 310.859C296.25 310.534 297.098 310.505 297.578 310.774L303.586 314.237C304.066 314.52 304.01 315 303.444 315.325L297.494 318.76C296.942 319.085 296.094 319.114 295.614 318.845V318.859Z" fill="#24126A"/>
<path d="M304.899 324.216L298.891 320.753C298.411 320.47 298.467 319.989 299.033 319.664L304.984 316.229C305.535 315.904 306.383 315.876 306.864 316.145L312.871 319.608C313.351 319.89 313.295 320.371 312.729 320.696L306.779 324.131C306.227 324.456 305.379 324.484 304.899 324.216Z" fill="#24126A"/>
<path d="M314.168 329.573L308.161 326.096C307.68 325.813 307.737 325.333 308.302 325.007L314.253 321.573C314.804 321.248 315.652 321.219 316.133 321.488L322.14 324.951C322.621 325.234 322.564 325.714 321.999 326.039L316.048 329.474C315.497 329.799 314.649 329.827 314.168 329.559V329.573Z" fill="#24126A"/>
<path d="M323.457 334.93L317.45 331.453C316.969 331.171 317.026 330.69 317.591 330.365L323.542 326.93C324.093 326.605 324.942 326.577 325.422 326.845L331.429 330.308C331.91 330.591 331.853 331.072 331.288 331.397L325.337 334.831C324.786 335.157 323.938 335.185 323.457 334.916V334.93Z" fill="#24126A"/>
<path d="M235.032 273.444L229.024 269.981C228.544 269.698 228.6 269.217 229.166 268.892L235.116 265.457C235.668 265.132 236.516 265.104 236.996 265.373L243.004 268.836C243.484 269.118 243.428 269.599 242.862 269.924L236.912 273.359C236.36 273.684 235.512 273.712 235.032 273.444Z" fill="#24126A"/>
<path d="M225.801 268.116L219.794 264.652C219.313 264.37 219.37 263.889 219.935 263.564L225.886 260.129C226.437 259.804 227.285 259.776 227.766 260.045L233.773 263.508C234.254 263.79 234.197 264.271 233.632 264.596L227.681 268.031C227.13 268.356 226.282 268.384 225.801 268.116Z" fill="#24126A"/>
<path d="M216.575 262.786L210.567 259.323C210.087 259.041 210.143 258.56 210.709 258.235L216.659 254.8C217.211 254.475 218.059 254.447 218.539 254.715L224.547 258.178C225.027 258.461 224.971 258.942 224.405 259.267L218.454 262.702C217.903 263.027 217.055 263.055 216.575 262.786Z" fill="#24126A"/>
<path d="M207.328 257.443L201.321 253.98C200.841 253.697 200.897 253.217 201.463 252.892L207.413 249.457C207.965 249.132 208.813 249.104 209.293 249.372L215.3 252.835C215.781 253.118 215.725 253.598 215.159 253.924L209.208 257.358C208.657 257.683 207.809 257.712 207.328 257.443Z" fill="#24126A"/>
<path d="M216.825 251.973L210.817 248.51C210.337 248.227 210.393 247.747 210.959 247.422L212.923 246.291C213.475 245.966 214.323 245.938 214.803 246.206L220.811 249.669C221.291 249.952 221.235 250.432 220.669 250.758L218.704 251.888C218.153 252.213 217.305 252.242 216.825 251.973Z" fill="#24126A"/>
<path d="M228.883 258.928L222.876 255.465C222.395 255.182 222.452 254.701 223.017 254.376L224.982 253.246C225.533 252.92 226.381 252.892 226.862 253.161L232.869 256.638C233.35 256.921 233.293 257.401 232.728 257.726L230.763 258.857C230.212 259.182 229.364 259.21 228.883 258.942V258.928Z" fill="#24126A"/>
<path d="M238.071 264.243L232.063 260.78C231.583 260.497 231.639 260.016 232.205 259.691L234.169 258.561C234.721 258.235 235.569 258.207 236.049 258.476L242.057 261.939C242.537 262.221 242.481 262.702 241.915 263.027L239.951 264.158C239.399 264.483 238.551 264.511 238.071 264.243Z" fill="#24126A"/>
<path d="M247.274 269.542L241.266 266.065C240.786 265.783 240.842 265.302 241.408 264.977L243.373 263.846C243.924 263.521 244.772 263.493 245.252 263.761L251.26 267.224C251.74 267.507 251.684 267.988 251.118 268.313L249.154 269.444C248.602 269.769 247.754 269.797 247.274 269.528V269.542Z" fill="#24126A"/>
<path d="M256.477 274.857L250.47 271.394C249.989 271.112 250.046 270.631 250.611 270.306L252.576 269.175C253.127 268.85 253.975 268.822 254.456 269.09L260.463 272.553C260.944 272.836 260.887 273.317 260.322 273.642L258.357 274.773C257.806 275.098 256.957 275.126 256.477 274.857Z" fill="#24126A"/>
<path d="M307.809 304.499L301.802 301.036C301.321 300.753 301.378 300.273 301.943 299.948L303.908 298.817C304.459 298.492 305.307 298.463 305.788 298.732L311.795 302.209C312.276 302.492 312.219 302.972 311.654 303.298L309.689 304.428C309.138 304.753 308.29 304.782 307.809 304.513V304.499Z" fill="#24126A"/>
<path d="M317.016 309.813L311.009 306.35C310.528 306.067 310.585 305.586 311.15 305.261L313.115 304.13C313.666 303.805 314.514 303.777 314.995 304.046L321.002 307.509C321.483 307.791 321.426 308.272 320.861 308.597L318.896 309.728C318.345 310.053 317.497 310.081 317.016 309.813Z" fill="#24126A"/>
<path d="M326.219 315.113L320.212 311.636C319.731 311.353 319.788 310.873 320.353 310.548L322.318 309.417C322.869 309.092 323.717 309.064 324.198 309.332L330.205 312.795C330.686 313.078 330.629 313.558 330.064 313.884L328.099 315.014C327.548 315.339 326.7 315.368 326.219 315.099V315.113Z" fill="#24126A"/>
<path d="M335.407 320.428L329.399 316.965C328.919 316.683 328.975 316.202 329.541 315.877L331.505 314.746C332.057 314.421 332.905 314.393 333.385 314.661L339.393 318.138C339.873 318.421 339.817 318.902 339.251 319.227L337.287 320.358C336.735 320.683 335.887 320.711 335.407 320.442V320.428Z" fill="#24126A"/>
<path d="M244.321 278.802L238.313 275.339C237.833 275.056 237.889 274.575 238.455 274.25L244.405 270.815C244.957 270.49 245.805 270.462 246.285 270.731L252.293 274.208C252.773 274.49 252.717 274.971 252.151 275.296L246.201 278.731C245.649 279.056 244.801 279.084 244.321 278.816V278.802Z" fill="#24126A"/>
<path d="M253.606 284.159L247.599 280.695C247.118 280.413 247.174 279.932 247.74 279.607L253.691 276.172C254.242 275.847 255.09 275.819 255.571 276.088L261.578 279.551C262.058 279.833 262.002 280.314 261.436 280.639L255.486 284.074C254.934 284.399 254.086 284.427 253.606 284.159Z" fill="#24126A"/>
<path d="M262.879 289.529L256.872 286.066C256.391 285.783 256.448 285.303 257.013 284.978L262.964 281.543C263.515 281.218 264.363 281.19 264.844 281.458L270.851 284.921C271.332 285.204 271.275 285.684 270.71 286.01L264.759 289.444C264.208 289.769 263.36 289.798 262.879 289.529Z" fill="#24126A"/>
<path d="M272.164 294.887L266.157 291.423C265.677 291.141 265.733 290.66 266.298 290.335L272.249 286.9C272.8 286.575 273.649 286.547 274.129 286.816L280.136 290.293C280.617 290.575 280.56 291.056 279.995 291.381L274.044 294.816C273.493 295.141 272.645 295.169 272.164 294.901V294.887Z" fill="#24126A"/>
<path d="M281.453 300.243L275.446 296.78C274.966 296.498 275.022 296.017 275.588 295.692L281.538 292.257C282.09 291.932 282.938 291.904 283.418 292.172L289.426 295.635C289.906 295.918 289.85 296.399 289.284 296.724L283.333 300.159C282.782 300.484 281.934 300.512 281.453 300.243Z" fill="#24126A"/>
<path d="M290.719 305.601L284.712 302.138C284.231 301.855 284.288 301.375 284.853 301.049L290.804 297.615C291.355 297.29 292.203 297.261 292.684 297.53L298.691 300.993C299.172 301.276 299.115 301.756 298.55 302.081L292.599 305.516C292.048 305.841 291.2 305.869 290.719 305.601Z" fill="#24126A"/>
<path d="M300.004 310.958L293.997 307.495C293.516 307.212 293.573 306.731 294.138 306.406L300.089 302.972C300.64 302.647 301.488 302.618 301.969 302.887L307.976 306.364C308.457 306.647 308.4 307.127 307.835 307.452L301.884 310.887C301.333 311.212 300.485 311.241 300.004 310.972V310.958Z" fill="#24126A"/>
<path d="M309.293 316.315L303.286 312.852C302.805 312.57 302.862 312.089 303.427 311.764L309.378 308.329C309.929 308.004 310.777 307.976 311.258 308.244L317.265 311.707C317.746 311.99 317.689 312.471 317.124 312.796L311.173 316.23C310.622 316.556 309.774 316.584 309.293 316.315Z" fill="#24126A"/>
<path d="M318.567 321.672L312.559 318.209C312.079 317.926 312.135 317.446 312.701 317.121L318.652 313.686C319.203 313.361 320.051 313.333 320.531 313.601L326.539 317.064C327.019 317.347 326.963 317.827 326.397 318.153L320.447 321.587C319.895 321.912 319.047 321.941 318.567 321.672Z" fill="#24126A"/>
<path d="M191.256 279.465L173.559 269.246C173.079 268.963 173.135 268.482 173.701 268.157L179.652 264.723C180.203 264.398 181.051 264.369 181.531 264.638L199.228 274.857C199.709 275.14 199.652 275.621 199.087 275.946L193.136 279.38C192.585 279.706 191.737 279.734 191.256 279.465Z" fill="#24126A"/>
<path d="M305.28 345.306L287.583 335.086C287.102 334.803 287.159 334.323 287.724 333.998L293.675 330.563C294.226 330.238 295.074 330.21 295.555 330.478L313.252 340.698C313.732 340.98 313.676 341.461 313.11 341.786L307.16 345.221C306.608 345.546 305.76 345.574 305.28 345.306Z" fill="#24126A"/>
<path d="M268.164 335.709L262.157 332.246C261.677 331.963 261.733 331.482 262.298 331.157L269.394 327.058C269.945 326.733 270.793 326.705 271.274 326.973L277.281 330.436C277.762 330.719 277.705 331.2 277.14 331.525L270.044 335.624C269.493 335.949 268.645 335.977 268.164 335.709Z" fill="#24126A"/>
<path d="M200.753 296.794L191.141 291.239C190.661 290.956 190.717 290.476 191.283 290.151L198.379 286.052C198.93 285.727 199.778 285.698 200.258 285.967L209.87 291.522C210.351 291.805 210.294 292.285 209.729 292.61L202.633 296.709C202.082 297.034 201.234 297.063 200.753 296.794Z" fill="#24126A"/>
<path d="M259.214 330.548L249.602 324.993C249.122 324.71 249.178 324.23 249.744 323.905L256.839 319.806C257.391 319.481 258.239 319.452 258.719 319.721L268.331 325.276C268.812 325.558 268.755 326.039 268.19 326.364L261.094 330.463C260.543 330.788 259.695 330.817 259.214 330.548Z" fill="#24126A"/>
<path d="M214.152 304.526L204.54 298.971C204.059 298.688 204.116 298.208 204.681 297.883L211.777 293.784C212.328 293.459 213.176 293.43 213.657 293.699L223.269 299.254C223.749 299.537 223.693 300.017 223.127 300.342L216.032 304.441C215.48 304.766 214.632 304.795 214.152 304.526Z" fill="#24126A"/>
<path d="M213.719 293.756L255.515 317.884C256.038 318.181 256.038 318.676 255.515 318.972L248.278 323.142C247.755 323.439 246.921 323.439 246.398 323.142L204.602 299.014L213.719 293.756Z" fill="#24126A"/>
<path d="M294.097 345.419L300.797 349.277C301.193 349.504 301.136 349.899 300.684 350.168L297.787 351.85C297.334 352.119 296.642 352.147 296.246 351.921L289.546 348.062C289.15 347.836 289.207 347.44 289.659 347.171L292.557 345.489C293.009 345.221 293.702 345.192 294.097 345.419Z" fill="#24126A"/>
<path d="M284.746 340.02L291.446 343.879C291.841 344.105 291.785 344.5 291.333 344.769L288.435 346.451C287.983 346.72 287.29 346.748 286.894 346.522L280.194 342.663C279.799 342.437 279.855 342.041 280.307 341.772L283.205 340.09C283.657 339.822 284.35 339.794 284.746 340.02Z" fill="#24126A"/>
<path d="M275.453 334.662L282.153 338.521C282.548 338.747 282.492 339.143 282.04 339.411L279.142 341.093C278.69 341.362 277.997 341.39 277.601 341.164L270.901 337.305C270.506 337.079 270.562 336.683 271.014 336.415L273.912 334.732C274.364 334.464 275.057 334.436 275.453 334.662Z" fill="#24126A"/>
<path d="M289.875 337.065L296.575 340.923C296.97 341.15 296.914 341.545 296.462 341.814L293.564 343.496C293.112 343.765 292.419 343.793 292.023 343.567L285.323 339.708C284.927 339.482 284.984 339.086 285.436 338.817L288.334 337.135C288.786 336.867 289.479 336.838 289.875 337.065Z" fill="#24126A"/>
</g>
<path d="M384.565 192.65C384.113 192.65 383.632 192.508 383.166 192.254C381.752 191.434 380.862 189.582 381.201 188.112C381.371 187.406 381.781 186.883 382.374 186.614C383.024 186.331 383.844 186.416 384.608 186.854C386.021 187.674 386.912 189.54 386.572 190.996C386.403 191.703 385.993 192.226 385.399 192.494C385.145 192.607 384.862 192.664 384.579 192.664L384.565 192.65ZM383.208 187.095C383.01 187.095 382.812 187.137 382.629 187.208C382.219 187.377 381.936 187.759 381.823 188.254C381.54 189.455 382.289 190.996 383.477 191.688C384.056 192.028 384.65 192.098 385.131 191.886C385.54 191.717 385.823 191.335 385.936 190.84C386.219 189.639 385.47 188.084 384.282 187.406C383.915 187.194 383.547 187.095 383.208 187.095Z" fill="#42E8E0"/>
<path d="M392.21 197.059C391.757 197.059 391.277 196.918 390.81 196.664C389.397 195.844 388.506 193.992 388.846 192.522C389.015 191.815 389.425 191.292 390.019 191.024C390.669 190.741 391.489 190.826 392.252 191.264C393.666 192.084 394.556 193.95 394.217 195.406C394.047 196.112 393.637 196.635 393.044 196.904C392.789 197.017 392.507 197.073 392.224 197.073L392.21 197.059ZM390.853 191.504C390.655 191.504 390.457 191.547 390.273 191.617C389.863 191.787 389.581 192.169 389.468 192.663C389.185 193.865 389.934 195.406 391.121 196.098C391.701 196.437 392.294 196.508 392.775 196.296C393.185 196.126 393.468 195.745 393.581 195.25C393.863 194.049 393.114 192.494 391.927 191.815C391.559 191.603 391.192 191.504 390.853 191.504Z" fill="#42E8E0"/>
<path d="M401.555 199.746C401.244 201.088 399.929 201.555 398.629 200.806C397.329 200.057 396.509 198.36 396.82 197.018C397.131 195.675 398.445 195.208 399.746 195.957C401.06 196.707 401.866 198.403 401.555 199.746Z" fill="#42E8E0"/>
<path d="M254.826 115.304L250.727 112.943L251.052 111.049L255.137 113.41L254.826 115.304Z" fill="#42E8E0"/>
<path d="M260.775 118.738L256.676 116.377L257.001 114.483L261.086 116.844L260.775 118.738Z" fill="#42E8E0"/>
<path d="M248.933 111.912L239.957 106.725L240.282 104.831L249.258 110.018L248.933 111.912Z" fill="#42E8E0"/>
<path d="M250.066 147.616L243.211 143.658L243.479 142.075L250.335 146.033L250.066 147.616Z" fill="#42E8E0"/>
<path d="M255.919 150.994L252.484 149.015L252.753 147.432L256.188 149.411L255.919 150.994Z" fill="#42E8E0"/>
<path d="M251.466 152.493L248.555 150.811L248.809 149.228L251.735 150.91L251.466 152.493Z" fill="#42E8E0"/>
<path d="M256.358 155.32L252.938 153.341L253.192 151.758L256.627 153.737L256.358 155.32Z" fill="#42E8E0"/>
<path d="M261.39 162.302L247.934 154.527L248.188 152.944L261.658 160.718L261.39 162.302Z" fill="#42E8E0"/>
<path d="M249.714 193.385L236.258 185.61L236.526 184.027L249.983 191.801L249.714 193.385Z" fill="#42E8E0"/>
<path d="M254.896 196.367L251.461 194.388L251.73 192.805L255.15 194.784L254.896 196.367Z" fill="#42E8E0"/>
<path d="M250.224 159.927L247.312 158.231L247.567 156.648L250.493 158.344L250.224 159.927Z" fill="#42E8E0"/>
<path d="M255.112 162.741L251.691 160.762L251.946 159.179L255.381 161.158L255.112 162.741Z" fill="#42E8E0"/>
<path d="M254.086 166.217L246.68 161.948L246.948 160.365L254.355 164.634L254.086 166.217Z" fill="#42E8E0"/>
<path d="M259.03 169.087L255.609 167.108L255.878 165.525L259.299 167.504L259.03 169.087Z" fill="#42E8E0"/>
<path d="M264.017 171.956L260.582 169.977L260.851 168.394L264.271 170.373L264.017 171.956Z" fill="#42E8E0"/>
<path d="M272.048 176.592L265.574 172.86L265.829 171.263L272.317 175.009L272.048 176.592Z" fill="#42E8E0"/>
<path d="M266.917 181.78L263.496 179.801L263.765 178.218L267.185 180.197L266.917 181.78Z" fill="#42E8E0"/>
<path d="M274.957 186.417L268.469 182.671L268.737 181.088L275.225 184.834L274.957 186.417Z" fill="#42E8E0"/>
<path d="M248.864 171.348L245.43 169.369L245.698 167.786L249.119 169.765L248.864 171.348Z" fill="#42E8E0"/>
<path d="M253.842 174.231L250.422 172.253L250.676 170.669L254.111 172.648L253.842 174.231Z" fill="#42E8E0"/>
<path d="M261.868 178.867L255.395 175.122L255.663 173.539L262.137 177.284L261.868 178.867Z" fill="#42E8E0"/>
<path d="M272.397 180.875L268.977 178.896L269.245 177.313L272.666 179.292L272.397 180.875Z" fill="#42E8E0"/>
<path d="M277.388 183.745L273.953 181.766L274.222 180.183L277.642 182.161L277.388 183.745Z" fill="#42E8E0"/>
<path d="M285.423 188.395L278.949 184.65L279.204 183.066L285.692 186.798L285.423 188.395Z" fill="#42E8E0"/>
<path d="M260.259 199.462L256.824 197.483L257.093 195.9L260.513 197.879L260.259 199.462Z" fill="#42E8E0"/>
<path d="M268.286 204.098L261.812 200.353L262.067 198.77L268.555 202.515L268.286 204.098Z" fill="#42E8E0"/>
<path d="M247.622 178.783L244.188 176.804L244.456 175.221L247.877 177.2L247.622 178.783Z" fill="#42E8E0"/>
<path d="M255.65 183.419L249.176 179.673L249.43 178.09L255.918 181.836L255.65 183.419Z" fill="#42E8E0"/>
<path d="M263.993 205.682L260.559 203.717L260.827 202.12L264.248 204.098L263.993 205.682Z" fill="#42E8E0"/>
<path d="M272.021 210.332L265.547 206.587L265.801 205.003L272.289 208.749L272.021 210.332Z" fill="#42E8E0"/>
<path d="M271.62 168.211L268.199 166.232L268.468 164.649L271.888 166.628L271.62 168.211Z" fill="#42E8E0"/>
<path d="M266.456 165.214L263.035 163.235L263.29 161.652L266.724 163.631L266.456 165.214Z" fill="#42E8E0"/>
<path d="M279.668 172.847L273.18 169.101L273.448 167.518L279.936 171.264L279.668 172.847Z" fill="#42E8E0"/>
<path d="M249.146 167.447L246.051 165.666L246.319 164.083L249.415 165.864L249.146 167.447Z" fill="#42E8E0"/>
<path d="M258.31 172.733L250.805 168.408L251.073 166.811L258.579 171.15L258.31 172.733Z" fill="#42E8E0"/>
<path d="M267.481 178.034L259.961 173.694L260.23 172.111L267.749 176.451L267.481 178.034Z" fill="#42E8E0"/>
<path d="M284.431 175.589L281.336 173.808L281.605 172.225L284.686 174.006L284.431 175.589Z" fill="#42E8E0"/>
<path d="M293.586 180.889L286.066 176.55L286.335 174.967L293.855 179.306L293.586 180.889Z" fill="#42E8E0"/>
<path d="M302.752 186.175L295.246 181.836L295.515 180.253L303.02 184.592L302.752 186.175Z" fill="#42E8E0"/>
<path d="M252.384 177.469L244.879 173.13L245.147 171.547L252.653 175.886L252.384 177.469Z" fill="#42E8E0"/>
<path d="M256.357 179.744L254.039 178.415L254.308 176.832L256.612 178.161L256.357 179.744Z" fill="#42E8E0"/>
<path d="M260.316 182.048L258.012 180.706L258.28 179.123L260.584 180.451L260.316 182.048Z" fill="#42E8E0"/>
<path d="M267.652 186.274L261.984 182.995L262.253 181.412L267.921 184.691L267.652 186.274Z" fill="#42E8E0"/>
<path d="M275.874 178.811L273.57 177.482L273.839 175.885L276.143 177.228L275.874 178.811Z" fill="#42E8E0"/>
<path d="M283.219 183.037L277.551 179.772L277.819 178.189L283.487 181.454L283.219 183.037Z" fill="#42E8E0"/>
<path d="M284.758 183.928L279.09 180.663L279.358 179.08L285.026 182.345L284.758 183.928Z" fill="#42E8E0"/>
<path d="M254.547 204.311L247.141 200.042L247.409 198.459L254.802 202.728L254.547 204.311Z" fill="#42E8E0"/>
<path d="M259.491 207.166L256.07 205.187L256.339 203.604L259.759 205.583L259.491 207.166Z" fill="#42E8E0"/>
<path d="M264.464 210.049L261.043 208.07L261.312 206.487L264.732 208.466L264.464 210.049Z" fill="#42E8E0"/>
<path d="M272.511 214.686L266.023 210.94L266.292 209.357L272.78 213.103L272.511 214.686Z" fill="#42E8E0"/>
<path d="M277.661 217.654L274.227 215.675L274.495 214.092L277.916 216.071L277.661 217.654Z" fill="#42E8E0"/>
<path d="M285.687 222.29L279.199 218.544L279.468 216.961L285.956 220.707L285.687 222.29Z" fill="#42E8E0"/>
<path d="M261.034 216.198L257.613 214.219L257.882 212.636L261.302 214.615L261.034 216.198Z" fill="#42E8E0"/>
<path d="M269.078 220.848L262.59 217.103L262.858 215.52L269.332 219.265L269.078 220.848Z" fill="#42E8E0"/>
<path d="M243.139 205.879L239.719 203.9L239.987 202.317L243.408 204.296L243.139 205.879Z" fill="#42E8E0"/>
<path d="M248.13 208.748L244.695 206.77L244.964 205.187L248.384 207.165L248.13 208.748Z" fill="#42E8E0"/>
<path d="M256.157 213.385L249.684 209.64L249.938 208.057L256.426 211.802L256.157 213.385Z" fill="#42E8E0"/>
<path d="M249.611 205.54L246.516 203.745L246.784 202.162L249.88 203.957L249.611 205.54Z" fill="#42E8E0"/>
<path d="M258.779 210.827L251.273 206.487L251.528 204.904L259.048 209.244L258.779 210.827Z" fill="#42E8E0"/>
<path d="M267.935 216.113L260.43 211.774L260.698 210.19L268.204 214.53L267.935 216.113Z" fill="#42E8E0"/>
<path d="M240.611 208.48L233.105 204.155L233.374 202.572L240.88 206.897L240.611 208.48Z" fill="#42E8E0"/>
<path d="M244.584 210.771L242.266 209.442L242.534 207.859L244.838 209.188L244.584 210.771Z" fill="#42E8E0"/>
<path d="M248.538 213.06L246.234 211.732L246.503 210.148L248.807 211.477L248.538 213.06Z" fill="#42E8E0"/>
<path d="M255.879 217.3L250.211 214.021L250.48 212.438L256.148 215.717L255.879 217.3Z" fill="#42E8E0"/>
<path d="M257.432 218.191L251.75 214.912L252.019 213.329L257.687 216.608L257.432 218.191Z" fill="#42E8E0"/>
<path d="M243.995 194.148L241.691 192.819L241.946 191.236L244.264 192.565L243.995 194.148Z" fill="#42E8E0"/>
<path d="M251.338 198.388L245.656 195.108L245.925 193.525L251.607 196.805L251.338 198.388Z" fill="#42E8E0"/>
<path d="M258.832 202.714L253.164 199.435L253.418 197.852L259.101 201.131L258.832 202.714Z" fill="#42E8E0"/>
<path d="M287.724 227.535L284.289 225.556L284.558 223.973L287.992 225.952L287.724 227.535Z" fill="#42E8E0"/>
<path d="M295.747 232.171L289.273 228.439L289.528 226.856L296.016 230.588L295.747 232.171Z" fill="#42E8E0"/>
<path d="M275.077 220.227L269.395 216.962L269.663 215.378L275.345 218.644L275.077 220.227Z" fill="#42E8E0"/>
<path d="M282.563 224.566L276.895 221.287L277.149 219.704L282.831 222.983L282.563 224.566Z" fill="#42E8E0"/>
<path d="M239.988 178.444L237.684 177.115L237.952 175.532L240.256 176.861L239.988 178.444Z" fill="#42E8E0"/>
<path d="M247.327 182.684L241.645 179.405L241.913 177.822L247.595 181.101L247.327 182.684Z" fill="#42E8E0"/>
<path d="M254.817 187.009L249.148 183.73L249.417 182.147L255.085 185.426L254.817 187.009Z" fill="#42E8E0"/>
<path d="M368.063 244.736C367.54 244.736 367.003 244.581 366.48 244.27L320.598 217.781C318.732 216.707 317.517 213.965 317.898 211.689L320.838 194.19C321.036 193.003 321.658 192.084 322.52 191.674C323.326 191.293 324.273 191.377 325.178 191.9L371.059 218.389C372.925 219.463 374.141 222.205 373.759 224.481L370.819 241.98C370.621 243.167 369.999 244.086 369.137 244.496C368.798 244.651 368.444 244.736 368.077 244.736H368.063ZM323.58 192.084C323.298 192.084 323.043 192.141 322.789 192.254C322.11 192.579 321.63 193.314 321.46 194.289L318.52 211.788C318.181 213.823 319.255 216.269 320.909 217.216L366.791 243.704C367.511 244.114 368.232 244.185 368.84 243.902C369.519 243.577 369.999 242.842 370.169 241.853L373.109 224.354C373.448 222.318 372.374 219.873 370.72 218.926L324.838 192.437C324.414 192.197 323.976 192.07 323.566 192.07L323.58 192.084Z" fill="#42E8E0"/>
<path d="M363.013 274.815C362.49 274.815 361.953 274.66 361.43 274.363L315.563 247.874C313.697 246.8 312.481 244.058 312.863 241.782L315.803 224.283C316.001 223.096 316.609 222.177 317.485 221.767C318.291 221.386 319.238 221.471 320.143 221.994L366.024 248.482C367.89 249.556 369.105 252.299 368.724 254.574L365.784 272.073C365.586 273.261 364.964 274.179 364.102 274.589C363.763 274.745 363.409 274.83 363.042 274.83L363.013 274.815ZM361.755 273.798C362.476 274.208 363.197 274.278 363.805 273.996C364.483 273.67 364.964 272.935 365.134 271.946L368.074 254.447C368.413 252.412 367.339 249.966 365.685 249.019L319.803 222.531C319.082 222.121 318.347 222.05 317.74 222.333C317.061 222.658 316.581 223.393 316.425 224.368L313.485 241.867C313.146 243.903 314.22 246.348 315.874 247.295L361.741 273.784L361.755 273.798Z" fill="#42E8E0"/>
<path style="mix-blend-mode:lighten" opacity="0.5" d="M324.725 215.901C325.531 216.368 326.266 216.198 326.534 215.463L331.877 200.848C332.485 199.18 334.987 200.692 335.51 203.039L338.803 217.753C339.044 218.827 339.793 219.901 340.641 220.382L341.432 220.834C342.196 221.272 342.888 221.145 343.185 220.509L344.274 218.205C344.952 216.778 347.199 218.12 347.807 220.325C348.09 221.343 348.797 222.318 349.588 222.771L350.281 223.167C351.115 223.647 351.85 223.449 352.104 222.672L353.094 219.619C353.659 217.894 356.161 219.336 356.726 221.696L360.02 235.308C360.274 236.383 361.023 237.429 361.871 237.895L324.711 215.873L324.725 215.901Z" fill="url(#paint7_linear_5418_621)"/>
<path d="M356.065 267.889C355.146 267.38 354.341 266.25 354.058 265.091L350.765 251.479C350.411 250.037 349.238 248.92 348.418 248.878C348.093 248.864 347.867 249.033 347.74 249.415L346.75 252.468C346.609 252.906 346.34 253.203 345.959 253.359C345.521 253.528 344.998 253.458 344.46 253.147L343.768 252.751C342.906 252.256 342.142 251.21 341.831 250.108C341.436 248.708 340.347 247.705 339.57 247.634C339.259 247.606 339.033 247.733 338.891 248.044L337.803 250.348C337.633 250.701 337.365 250.942 337.026 251.055C336.602 251.182 336.107 251.111 335.598 250.814L334.806 250.362C333.874 249.825 333.082 248.68 332.828 247.521L329.534 232.807C329.209 231.351 328.036 230.206 327.202 230.149C326.877 230.149 326.651 230.291 326.509 230.644L321.152 245.259C320.997 245.669 320.728 245.952 320.361 246.093C319.937 246.249 319.414 246.164 318.891 245.867L319.216 245.316C319.569 245.514 319.894 245.584 320.149 245.486C320.332 245.415 320.474 245.274 320.559 245.033L325.916 230.418C326.142 229.796 326.637 229.443 327.244 229.499C328.333 229.57 329.76 230.856 330.17 232.651L333.464 247.365C333.69 248.355 334.368 249.344 335.146 249.797L335.937 250.249C336.276 250.447 336.602 250.503 336.842 250.433C337.011 250.376 337.153 250.249 337.238 250.065L338.326 247.761C338.58 247.224 339.061 246.927 339.641 246.998C340.8 247.097 342.043 248.383 342.467 249.938C342.722 250.871 343.386 251.776 344.107 252.2L344.8 252.595C345.153 252.807 345.492 252.864 345.747 252.765C345.931 252.694 346.072 252.525 346.157 252.284L347.146 249.231C347.344 248.609 347.81 248.256 348.404 248.256H348.461C349.535 248.298 350.977 249.542 351.401 251.337L354.694 264.949C354.934 265.924 355.627 266.914 356.39 267.338L356.079 267.903L356.065 267.889Z" fill="#42E8E0"/>
<path d="M337.663 177.172C336.998 177.172 336.306 176.974 335.655 176.607L299.781 155.899C297.562 154.627 296.332 151.532 297.025 149.03C297.378 147.758 298.156 146.825 299.202 146.387C300.234 145.963 301.393 146.076 302.481 146.712L338.355 167.419C340.574 168.706 341.804 171.787 341.112 174.289C340.758 175.561 339.981 176.494 338.935 176.932C338.525 177.102 338.101 177.186 337.663 177.186V177.172ZM300.488 146.782C300.135 146.782 299.781 146.853 299.456 146.98C298.594 147.334 297.944 148.125 297.661 149.185C297.039 151.433 298.142 154.189 300.121 155.334L335.995 176.042C336.913 176.565 337.875 176.678 338.709 176.324C339.571 175.971 340.221 175.179 340.504 174.119C341.126 171.872 340.023 169.116 338.044 167.971L302.17 147.263C301.619 146.938 301.039 146.782 300.488 146.782Z" fill="#42E8E0"/>
</g>
<defs>
<filter id="filter0_d_5418_621" x="0.5" y="0" width="501.797" height="510" filterUnits="userSpaceOnUse" color-interpolation-filters="sRGB">
<feFlood flood-opacity="0" result="BackgroundImageFix"/>
<feColorMatrix in="SourceAlpha" type="matrix" values="0 0 0 0 0 0 0 0 0 0 0 0 0 0 0 0 0 0 127 0" result="hardAlpha"/>
<feOffset dy="10"/>
<feGaussianBlur stdDeviation="40"/>
<feComposite in2="hardAlpha" operator="out"/>
<feColorMatrix type="matrix" values="0 0 0 0 0.0666667 0 0 0 0 0.956863 0 0 0 0 0.819608 0 0 0 0.4 0"/>
<feBlend mode="normal" in2="BackgroundImageFix" result="effect1_dropShadow_5418_621"/>
<feBlend mode="normal" in="SourceGraphic" in2="effect1_dropShadow_5418_621" result="shape"/>
</filter>
<linearGradient id="paint0_linear_5418_621" x1="382.017" y1="335.514" x2="91.3288" y2="335.514" gradientUnits="userSpaceOnUse">
<stop stop-color="#42E8E0"/>
<stop offset="0.15" stop-color="#42E3DF"/>
<stop offset="0.33" stop-color="#44D4DE"/>
<stop offset="0.52" stop-color="#48BDDD"/>
<stop offset="0.72" stop-color="#4D9BDA"/>
<stop offset="0.93" stop-color="#5471D8"/>
<stop offset="1" stop-color="#5761D7"/>
</linearGradient>
<linearGradient id="paint1_linear_5418_621" x1="422.274" y1="200.947" x2="201.318" y2="200.947" gradientUnits="userSpaceOnUse">
<stop stop-color="#C0BFF6"/>
<stop offset="0.29" stop-color="#C4C3F6"/>
<stop offset="0.64" stop-color="#D2D2F9"/>
<stop offset="1" stop-color="#E9E9FD"/>
</linearGradient>
<linearGradient id="paint2_linear_5418_621" x1="422.276" y1="257.613" x2="384.338" y2="257.613" gradientUnits="userSpaceOnUse">
<stop stop-color="#5761D7"/>
<stop offset="0.18" stop-color="#5B65D8"/>
<stop offset="0.39" stop-color="#6A72DE"/>
<stop offset="0.61" stop-color="#8188E8"/>
<stop offset="0.85" stop-color="#A2A6F5"/>
<stop offset="1" stop-color="#BCBEFF"/>
</linearGradient>
<linearGradient id="paint3_linear_5418_621" x1="392.672" y1="319.439" x2="80.5898" y2="319.439" gradientUnits="userSpaceOnUse">
<stop stop-color="#5761D7"/>
<stop offset="0.18" stop-color="#5B65D8"/>
<stop offset="0.39" stop-color="#6A72DE"/>
<stop offset="0.61" stop-color="#8188E8"/>
<stop offset="0.85" stop-color="#A2A6F5"/>
<stop offset="1" stop-color="#BCBEFF"/>
</linearGradient>
<linearGradient id="paint4_linear_5418_621" x1="531.311" y1="310.901" x2="71.4633" y2="310.901" gradientUnits="userSpaceOnUse">
<stop stop-color="#C0BFF6"/>
<stop offset="0.29" stop-color="#C4C3F6"/>
<stop offset="0.64" stop-color="#D2D2F9"/>
<stop offset="1" stop-color="#E9E9FD"/>
</linearGradient>
<linearGradient id="paint5_linear_5418_621" x1="512.658" y1="250.756" x2="200.59" y2="250.756" gradientUnits="userSpaceOnUse">
<stop stop-color="#5761D7"/>
<stop offset="0.18" stop-color="#5B65D8"/>
<stop offset="0.39" stop-color="#6A72DE"/>
<stop offset="0.61" stop-color="#8188E8"/>
<stop offset="0.85" stop-color="#A2A6F5"/>
<stop offset="1" stop-color="#BCBEFF"/>
</linearGradient>
<linearGradient id="paint6_linear_5418_621" x1="407.8" y1="242.218" x2="95.5624" y2="242.218" gradientUnits="userSpaceOnUse">
<stop stop-color="#C0BFF6"/>
<stop offset="0.29" stop-color="#C4C3F6"/>
<stop offset="0.64" stop-color="#D2D2F9"/>
<stop offset="1" stop-color="#E9E9FD"/>
</linearGradient>
<linearGradient id="paint7_linear_5418_621" x1="328.245" y1="210.799" x2="394.155" y2="238.998" gradientUnits="userSpaceOnUse">
<stop stop-color="#42E8E0"/>
<stop offset="0.11" stop-color="#36B5BF"/>
<stop offset="0.22" stop-color="#2C87A0"/>
<stop offset="0.34" stop-color="#235F86"/>
<stop offset="0.46" stop-color="#1B3E71"/>
<stop offset="0.58" stop-color="#162560"/>
<stop offset="0.71" stop-color="#121355"/>
<stop offset="0.85" stop-color="#0F084E"/>
<stop offset="1" stop-color="#0F054C"/>
</linearGradient>
</defs>
</svg>
