<svg width="343" height="350" viewBox="0 0 343 350" fill="none" xmlns="http://www.w3.org/2000/svg">
<path d="M192.988 350C195.642 350 198.297 349.32 200.668 347.95L300.487 290.313C301.441 289.765 302.008 288.773 302.008 287.677C302.008 286.572 301.441 285.589 300.487 285.041L120.358 181.047L120.009 181.255L12.8592 243.115C11.905 243.663 11.3382 244.655 11.3382 245.751C11.3382 246.847 11.905 247.839 12.8592 248.387L185.307 347.95C187.679 349.32 190.333 350 192.988 350ZM120.368 182.682L299.788 286.27C300.298 286.562 300.6 287.092 300.6 287.677C300.6 288.263 300.298 288.792 299.788 289.085L199.969 346.722C195.671 349.206 190.324 349.206 186.016 346.722L13.5677 247.158C13.0576 246.866 12.7553 246.337 12.7553 245.751C12.7553 245.165 13.0576 244.636 13.5677 244.343L120.368 182.682Z" fill="url(#paint0_linear_5418_623)"/>
<path d="M121.361 144.686L145.291 2.70167L143.369 1.89599L146.266 0.242216C146.832 -0.111155 147.623 -0.0970198 148.5 0.411834L339.772 110.847C341.341 111.752 342.528 114.084 342.26 115.71L318.132 258.825C318.004 259.574 317.637 260.068 317.128 260.28L314.301 261.92L313.82 259.277L313.976 259.319L123.834 149.548C122.265 148.644 121.078 146.311 121.347 144.686H121.361Z" fill="url(#paint1_linear_5418_623)"/>
<path d="M338.686 114.706L341.824 113.321C342.177 114.126 342.347 114.975 342.234 115.681L318.106 258.796C317.978 259.545 317.611 260.04 317.102 260.252L314.275 261.892L313.795 259.249L313.95 259.291L304.324 253.736L338.672 114.692L338.686 114.706Z" fill="url(#paint2_linear_5418_623)"/>
<path d="M120.842 151.273L312.114 261.708C313.584 262.556 314.856 262.061 315.111 260.535L339.239 117.42C339.521 115.794 338.32 113.462 336.751 112.557L145.479 2.12206C144.009 1.27397 142.736 1.76869 142.482 3.29525L118.354 146.41C118.071 148.036 119.273 150.368 120.842 151.273Z" fill="#24126A"/>
<g opacity="0.51">
<path d="M144.834 4.77979L337.011 115.682L312.741 259.164L120.691 148.333L144.834 4.77979Z" fill="#453C9E"/>
</g>
<path d="M0.603979 219.021L11.0355 224.477L115.704 164.051C117.456 163.033 120.51 163.16 122.531 164.333L303.061 268.563C304.785 267.602 312.658 263.814 312.658 263.814L308.842 270.019C308.842 270.019 308.842 270.019 308.828 270.019C308.672 270.458 308.333 270.882 307.753 271.207L197.516 334.856C195.763 335.873 192.71 335.746 190.689 334.573L5.96107 227.898C5.12712 227.417 4.61827 226.838 4.40624 226.244H4.39211L0.589844 219.021H0.603979Z" fill="url(#paint3_linear_5418_623)"/>
<path d="M2.21984 220.745L191.556 330.05C193.633 331.251 196.757 331.378 198.552 330.347L311.532 265.114C313.327 264.083 313.101 262.273 311.023 261.072L121.701 151.767C119.624 150.566 116.5 150.439 114.705 151.471L1.71098 216.703C-0.0841365 217.735 0.14202 219.544 2.21984 220.745Z" fill="url(#paint4_linear_5418_623)"/>
<path d="M2.21948 219.898L191.555 329.202C193.633 330.404 196.757 330.531 198.552 329.499L311.532 264.267C312.168 263.899 312.535 263.433 312.677 262.938C312.874 263.744 312.521 264.535 311.532 265.115L198.552 330.347C196.757 331.379 193.619 331.252 191.555 330.05L2.21948 220.746C0.876677 219.968 0.325419 218.936 0.579846 218.032C0.749464 218.696 1.28659 219.36 2.21948 219.898Z" fill="white"/>
<g opacity="0.15">
<mask id="mask0_5418_623" style="mask-type:luminance" maskUnits="userSpaceOnUse" x="120" y="4" width="218" height="256">
<path d="M337.011 115.681L144.834 4.77881L120.691 148.332L312.741 259.163L337.011 115.681Z" fill="white"/>
</mask>
<g mask="url(#mask0_5418_623)">
<path d="M120.604 150.337L131.035 155.793L235.704 95.3671C237.456 94.3494 240.51 94.4766 242.531 95.6498L423.061 199.88C424.785 198.919 432.658 195.131 432.658 195.131L428.842 201.336C428.842 201.336 428.842 201.336 428.828 201.336C428.672 201.774 428.333 202.198 427.753 202.523L317.516 266.172C315.763 267.19 312.71 267.063 310.689 265.889L125.961 159.214C125.127 158.733 124.618 158.154 124.406 157.56H124.392L120.59 150.337H120.604Z" fill="url(#paint5_linear_5418_623)"/>
<path d="M122.21 152.062L311.545 261.366C313.623 262.568 316.747 262.695 318.542 261.663L431.522 196.431C433.317 195.399 433.091 193.59 431.013 192.388L241.691 83.0838C239.613 81.8823 236.49 81.7551 234.694 82.7869L121.715 148.019C119.92 149.051 120.146 150.86 122.224 152.062H122.21Z" fill="url(#paint6_linear_5418_623)"/>
<path d="M431.008 192.389L241.686 83.0842C240.358 82.321 238.577 81.9959 237.008 82.1372C238.167 82.222 239.34 82.5471 240.287 83.0842L429.623 192.389C431.701 193.59 431.927 195.399 430.132 196.431L317.152 261.664C316.516 262.031 315.696 262.243 314.834 262.328C316.205 262.441 317.576 262.229 318.552 261.664L431.531 196.431C433.326 195.399 433.1 193.59 431.022 192.389H431.008Z" fill="white"/>
<g opacity="0.5">
<path d="M221.382 133.235L215.318 129.729C214.838 129.446 214.004 129.475 213.481 129.786L206.738 133.729C206.215 134.04 206.173 134.521 206.668 134.804L212.732 138.309C213.212 138.592 214.046 138.563 214.569 138.252L221.311 134.309C221.834 133.998 221.877 133.517 221.382 133.235Z" fill="#24126A"/>
<path d="M230.753 138.648L224.689 135.143C224.209 134.86 223.375 134.888 222.852 135.199L216.11 139.143C215.587 139.454 215.544 139.934 216.039 140.217L222.103 143.723C222.583 144.005 223.417 143.977 223.94 143.666L230.683 139.722C231.206 139.411 231.248 138.931 230.753 138.648Z" fill="#24126A"/>
<path d="M240.128 144.062L234.064 140.557C233.584 140.274 232.75 140.302 232.227 140.613L225.485 144.557C224.962 144.868 224.919 145.349 225.414 145.631L231.478 149.137C231.958 149.419 232.792 149.391 233.315 149.08L240.058 145.137C240.581 144.826 240.623 144.345 240.128 144.062Z" fill="#24126A"/>
<path d="M232.988 151.27L226.924 147.765C226.443 147.482 225.609 147.51 225.086 147.821L219.418 151.129C218.895 151.44 218.853 151.92 219.347 152.203L225.411 155.709C225.892 155.991 226.726 155.963 227.249 155.652L232.917 152.345C233.44 152.034 233.482 151.553 232.988 151.27Z" fill="#24126A"/>
<path d="M242.363 156.67L236.299 153.165C235.818 152.882 234.984 152.91 234.461 153.221L228.793 156.529C228.27 156.84 228.228 157.32 228.722 157.603L234.786 161.108C235.267 161.391 236.101 161.363 236.624 161.052L242.292 157.744C242.815 157.433 242.857 156.953 242.363 156.67Z" fill="#24126A"/>
<path d="M251.734 162.084L245.67 158.579C245.189 158.296 244.355 158.324 243.832 158.635L238.164 161.943C237.641 162.254 237.599 162.734 238.094 163.017L244.157 166.523C244.638 166.805 245.472 166.777 245.995 166.466L251.663 163.158C252.186 162.848 252.228 162.367 251.734 162.084Z" fill="#24126A"/>
<path d="M261.105 167.498L255.041 163.992C254.56 163.71 253.726 163.738 253.203 164.049L247.535 167.356C247.012 167.667 246.97 168.148 247.465 168.431L253.529 171.936C254.009 172.219 254.843 172.191 255.366 171.88L261.034 168.572C261.557 168.261 261.599 167.78 261.105 167.498Z" fill="#24126A"/>
<path d="M270.472 172.911L264.408 169.406C263.928 169.123 263.094 169.152 262.571 169.462L256.903 172.77C256.38 173.081 256.337 173.562 256.832 173.844L262.896 177.35C263.376 177.632 264.21 177.604 264.733 177.293L270.401 173.986C270.924 173.675 270.967 173.194 270.472 172.911Z" fill="#24126A"/>
<path d="M279.843 178.324L273.779 174.819C273.299 174.536 272.465 174.565 271.942 174.876L266.274 178.183C265.751 178.494 265.708 178.975 266.203 179.257L272.267 182.763C272.747 183.045 273.581 183.017 274.104 182.706L279.772 179.399C280.295 179.088 280.338 178.607 279.843 178.324Z" fill="#24126A"/>
<path d="M289.214 183.738L283.15 180.233C282.67 179.95 281.836 179.978 281.313 180.289L275.645 183.597C275.122 183.908 275.079 184.388 275.574 184.671L281.638 188.176C282.118 188.459 282.952 188.431 283.475 188.12L289.143 184.812C289.666 184.501 289.709 184.021 289.214 183.738Z" fill="#24126A"/>
<path d="M298.605 189.138L292.541 185.632C292.06 185.35 291.226 185.378 290.703 185.689L285.035 188.997C284.512 189.308 284.47 189.788 284.965 190.071L291.028 193.576C291.509 193.859 292.343 193.831 292.866 193.52L298.534 190.212C299.057 189.901 299.099 189.421 298.605 189.138Z" fill="#24126A"/>
<path d="M307.976 194.551L301.912 191.046C301.431 190.763 300.597 190.792 300.075 191.103L294.406 194.41C293.883 194.721 293.841 195.202 294.336 195.484L300.4 198.99C300.88 199.273 301.714 199.244 302.237 198.933L307.905 195.626C308.428 195.315 308.471 194.834 307.976 194.551Z" fill="#24126A"/>
<path d="M317.347 199.965L311.283 196.46C310.803 196.177 309.969 196.205 309.446 196.516L303.778 199.824C303.255 200.135 303.212 200.615 303.707 200.898L309.771 204.403C310.251 204.686 311.085 204.658 311.608 204.347L317.276 201.039C317.799 200.728 317.842 200.248 317.347 199.965Z" fill="#24126A"/>
<path d="M229.085 158.989L223.021 155.483C222.541 155.2 221.707 155.229 221.184 155.54L215.516 158.847C214.993 159.158 214.95 159.639 215.445 159.921L221.509 163.427C221.99 163.71 222.824 163.681 223.347 163.37L229.015 160.063C229.538 159.752 229.58 159.271 229.085 158.989Z" fill="#24126A"/>
<path d="M219.574 153.503L213.51 149.998C213.029 149.715 212.195 149.743 211.672 150.054L206.004 153.362C205.481 153.673 205.439 154.153 205.933 154.436L211.997 157.942C212.478 158.224 213.312 158.196 213.835 157.885L219.503 154.577C220.026 154.266 220.068 153.786 219.574 153.503Z" fill="#24126A"/>
<path d="M210.049 147.992L196.975 140.444C196.494 140.161 195.66 140.189 195.137 140.5L189.469 143.808C188.946 144.119 188.904 144.599 189.398 144.882L202.473 152.43C202.954 152.713 203.788 152.684 204.31 152.373L209.979 149.066C210.502 148.755 210.544 148.274 210.049 147.992Z" fill="#24126A"/>
<path d="M198.998 151.596L188.396 145.476C187.916 145.193 187.082 145.221 186.559 145.532L180.891 148.84C180.368 149.151 180.325 149.631 180.82 149.914L191.421 156.034C191.902 156.317 192.736 156.289 193.259 155.978L198.927 152.67C199.45 152.359 199.492 151.879 198.998 151.596Z" fill="#24126A"/>
<path d="M238.456 164.401L232.392 160.896C231.912 160.613 231.078 160.641 230.555 160.952L224.887 164.26C224.364 164.571 224.322 165.051 224.816 165.334L230.88 168.839C231.361 169.122 232.195 169.094 232.718 168.783L238.386 165.475C238.909 165.164 238.951 164.684 238.456 164.401Z" fill="#24126A"/>
<path d="M247.824 169.816L241.76 166.31C241.279 166.028 240.445 166.056 239.922 166.367L234.254 169.674C233.731 169.985 233.689 170.466 234.183 170.749L240.247 174.254C240.728 174.537 241.562 174.508 242.085 174.197L247.753 170.89C248.276 170.579 248.318 170.098 247.824 169.816Z" fill="#24126A"/>
<path d="M257.206 175.229L251.142 171.723C250.662 171.441 249.828 171.469 249.305 171.78L243.637 175.087C243.114 175.398 243.072 175.879 243.566 176.162L249.63 179.667C250.111 179.95 250.945 179.922 251.468 179.611L257.136 176.303C257.659 175.992 257.701 175.511 257.206 175.229Z" fill="#24126A"/>
<path d="M266.577 180.628L260.514 177.123C260.033 176.84 259.199 176.868 258.676 177.179L253.008 180.487C252.485 180.798 252.443 181.278 252.937 181.561L259.001 185.067C259.482 185.349 260.316 185.321 260.839 185.01L266.507 181.702C267.03 181.391 267.072 180.911 266.577 180.628Z" fill="#24126A"/>
<path d="M275.945 186.042L269.881 182.537C269.4 182.254 268.566 182.282 268.043 182.593L262.375 185.901C261.852 186.212 261.81 186.692 262.305 186.975L268.368 190.481C268.849 190.763 269.683 190.735 270.206 190.424L275.874 187.116C276.397 186.806 276.439 186.325 275.945 186.042Z" fill="#24126A"/>
<path d="M285.316 191.456L279.252 187.95C278.771 187.668 277.937 187.696 277.414 188.007L271.746 191.314C271.223 191.625 271.181 192.106 271.676 192.389L277.739 195.894C278.22 196.177 279.054 196.149 279.577 195.838L285.245 192.53C285.768 192.219 285.81 191.739 285.316 191.456Z" fill="#24126A"/>
<path d="M294.691 196.869L288.627 193.364C288.146 193.081 287.312 193.11 286.789 193.42L281.121 196.728C280.598 197.039 280.556 197.52 281.051 197.802L287.114 201.308C287.595 201.59 288.429 201.562 288.952 201.251L294.62 197.944C295.143 197.633 295.185 197.152 294.691 196.869Z" fill="#24126A"/>
<path d="M304.062 202.283L297.998 198.778C297.517 198.495 296.683 198.524 296.16 198.835L290.492 202.142C289.969 202.453 289.927 202.934 290.422 203.216L296.486 206.722C296.966 207.004 297.8 206.976 298.323 206.665L303.991 203.358C304.514 203.047 304.557 202.566 304.062 202.283Z" fill="#24126A"/>
<path d="M313.429 207.683L307.365 204.177C306.885 203.895 306.051 203.923 305.528 204.234L299.86 207.541C299.337 207.852 299.294 208.333 299.789 208.616L305.853 212.121C306.333 212.404 307.167 212.376 307.69 212.065L313.358 208.757C313.881 208.446 313.924 207.966 313.429 207.683Z" fill="#24126A"/>
<path d="M330.09 217.308L316.846 209.661C316.365 209.379 315.531 209.407 315.008 209.718L309.34 213.025C308.817 213.336 308.775 213.817 309.269 214.1L322.514 221.747C322.994 222.029 323.828 222.001 324.351 221.69L330.019 218.382C330.542 218.072 330.585 217.591 330.09 217.308Z" fill="#24126A"/>
<path d="M312.921 227.345L301.74 220.885C301.26 220.603 300.426 220.631 299.903 220.942L294.235 224.25C293.712 224.56 293.669 225.041 294.164 225.324L305.345 231.783C305.825 232.066 306.659 232.038 307.182 231.727L312.85 228.419C313.373 228.108 313.416 227.628 312.921 227.345Z" fill="#24126A"/>
<path d="M237.163 173.632L231.1 170.127C230.619 169.844 229.785 169.872 229.262 170.183L223.594 173.491C223.071 173.802 223.029 174.282 223.523 174.565L229.587 178.07C230.068 178.353 230.902 178.325 231.425 178.014L237.093 174.706C237.616 174.395 237.658 173.915 237.163 173.632Z" fill="#24126A"/>
<path d="M227.55 168.077L221.486 164.572C221.006 164.289 220.172 164.318 219.649 164.628L213.981 167.936C213.458 168.247 213.415 168.728 213.91 169.01L219.974 172.516C220.454 172.798 221.288 172.77 221.811 172.459L227.479 169.152C228.002 168.841 228.045 168.36 227.55 168.077Z" fill="#24126A"/>
<path d="M217.952 162.536L211.889 159.03C211.408 158.748 210.574 158.776 210.051 159.087L204.383 162.395C203.86 162.706 203.818 163.186 204.312 163.469L210.376 166.974C210.857 167.257 211.691 167.229 212.214 166.918L217.882 163.61C218.405 163.299 218.447 162.819 217.952 162.536Z" fill="#24126A"/>
<path d="M208.339 156.995L202.275 153.489C201.795 153.207 200.961 153.235 200.438 153.546L194.77 156.854C194.247 157.164 194.204 157.645 194.699 157.928L200.763 161.433C201.243 161.716 202.077 161.688 202.6 161.377L208.268 158.069C208.791 157.758 208.834 157.278 208.339 156.995Z" fill="#24126A"/>
<path d="M246.534 179.046L240.471 175.54C239.99 175.258 239.156 175.286 238.633 175.597L232.965 178.904C232.442 179.215 232.4 179.696 232.894 179.979L238.958 183.484C239.439 183.767 240.273 183.738 240.796 183.427L246.464 180.12C246.987 179.809 247.029 179.328 246.534 179.046Z" fill="#24126A"/>
<path d="M255.902 184.445L249.838 180.94C249.357 180.657 248.523 180.685 248 180.996L242.332 184.304C241.809 184.615 241.767 185.095 242.262 185.378L248.325 188.883C248.806 189.166 249.64 189.138 250.163 188.827L255.831 185.519C256.354 185.208 256.396 184.728 255.902 184.445Z" fill="#24126A"/>
<path d="M265.273 189.859L259.209 186.354C258.728 186.071 257.894 186.099 257.371 186.41L251.703 189.718C251.18 190.029 251.138 190.509 251.633 190.792L257.696 194.297C258.177 194.58 259.011 194.552 259.534 194.241L265.202 190.933C265.725 190.622 265.767 190.142 265.273 189.859Z" fill="#24126A"/>
<path d="M274.648 195.273L268.584 191.767C268.103 191.485 267.269 191.513 266.746 191.824L261.078 195.131C260.555 195.442 260.513 195.923 261.008 196.206L267.071 199.711C267.552 199.994 268.386 199.965 268.909 199.654L274.577 196.347C275.1 196.036 275.142 195.555 274.648 195.273Z" fill="#24126A"/>
<path d="M284.019 200.686L277.955 197.18C277.474 196.898 276.64 196.926 276.117 197.237L270.449 200.544C269.926 200.855 269.884 201.336 270.379 201.619L276.443 205.124C276.923 205.407 277.757 205.379 278.28 205.068L283.948 201.76C284.471 201.449 284.514 200.968 284.019 200.686Z" fill="#24126A"/>
<path d="M293.386 206.099L287.322 202.594C286.842 202.311 286.008 202.34 285.485 202.65L279.817 205.958C279.294 206.269 279.251 206.75 279.746 207.032L285.81 210.538C286.29 210.82 287.124 210.792 287.647 210.481L293.315 207.174C293.838 206.863 293.881 206.382 293.386 206.099Z" fill="#24126A"/>
<path d="M302.761 211.499L296.697 207.994C296.217 207.711 295.383 207.739 294.86 208.05L289.192 211.358C288.669 211.669 288.626 212.149 289.121 212.432L295.185 215.938C295.665 216.22 296.499 216.192 297.022 215.881L302.69 212.573C303.213 212.263 303.256 211.782 302.761 211.499Z" fill="#24126A"/>
<path d="M312.128 216.913L306.064 213.407C305.584 213.125 304.75 213.153 304.227 213.464L298.559 216.771C298.036 217.082 297.993 217.563 298.488 217.846L304.552 221.351C305.033 221.634 305.866 221.606 306.389 221.295L312.058 217.987C312.581 217.676 312.623 217.196 312.128 216.913Z" fill="#24126A"/>
<path d="M321.499 222.326L315.435 218.821C314.955 218.538 314.121 218.567 313.598 218.878L307.93 222.185C307.407 222.496 307.364 222.977 307.859 223.259L313.923 226.765C314.404 227.047 315.238 227.019 315.761 226.708L321.429 223.401C321.952 223.09 321.994 222.609 321.499 222.326Z" fill="#24126A"/>
<path d="M214.515 170.537L208.451 167.032C207.97 166.749 207.137 166.777 206.614 167.088L200.945 170.396C200.423 170.707 200.38 171.188 200.875 171.47L206.939 174.976C207.419 175.258 208.253 175.23 208.776 174.919L214.444 171.612C214.967 171.301 215.01 170.82 214.515 170.537Z" fill="#24126A"/>
<path d="M205.187 165.151L199.123 161.646C198.642 161.363 197.808 161.391 197.285 161.702L191.617 165.01C191.094 165.321 191.052 165.801 191.547 166.084L197.611 169.589C198.091 169.872 198.925 169.844 199.448 169.533L205.116 166.225C205.639 165.914 205.682 165.434 205.187 165.151Z" fill="#24126A"/>
<path d="M195.855 159.766L189.791 156.26C189.31 155.978 188.476 156.006 187.953 156.317L182.285 159.625C181.762 159.935 181.72 160.416 182.215 160.699L188.278 164.204C188.759 164.487 189.593 164.459 190.116 164.148L195.784 160.84C196.307 160.529 196.349 160.049 195.855 159.766Z" fill="#24126A"/>
<path d="M186.527 154.38L180.463 150.874C179.982 150.592 179.148 150.62 178.625 150.931L172.957 154.238C172.434 154.549 172.392 155.03 172.887 155.313L178.95 158.818C179.431 159.101 180.265 159.072 180.788 158.761L186.456 155.454C186.979 155.143 187.021 154.662 186.527 154.38Z" fill="#24126A"/>
<path d="M177.51 159.653L171.446 156.147C170.965 155.864 170.131 155.893 169.608 156.204L167.742 157.292C167.219 157.603 167.177 158.084 167.672 158.366L173.736 161.872C174.216 162.154 175.05 162.126 175.573 161.815L177.439 160.727C177.962 160.416 178.004 159.935 177.51 159.653Z" fill="#24126A"/>
<path d="M189.677 166.678L183.614 163.173C183.133 162.89 182.299 162.918 181.776 163.229L179.91 164.317C179.387 164.628 179.345 165.109 179.84 165.392L185.904 168.897C186.384 169.18 187.218 169.152 187.741 168.841L189.607 167.752C190.13 167.441 190.172 166.961 189.677 166.678Z" fill="#24126A"/>
<path d="M198.967 172.035L192.903 168.53C192.422 168.247 191.588 168.276 191.065 168.587L189.199 169.675C188.676 169.986 188.634 170.466 189.129 170.749L195.193 174.255C195.673 174.537 196.507 174.509 197.03 174.198L198.896 173.11C199.419 172.799 199.461 172.318 198.967 172.035Z" fill="#24126A"/>
<path d="M208.252 177.406L202.188 173.901C201.707 173.618 200.873 173.646 200.35 173.957L198.485 175.045C197.962 175.356 197.919 175.837 198.414 176.12L204.478 179.625C204.958 179.908 205.792 179.88 206.315 179.569L208.181 178.48C208.704 178.169 208.746 177.689 208.252 177.406Z" fill="#24126A"/>
<path d="M217.541 182.763L211.477 179.257C210.996 178.975 210.162 179.003 209.639 179.314L207.774 180.402C207.251 180.713 207.208 181.194 207.703 181.477L213.767 184.982C214.247 185.265 215.081 185.237 215.604 184.926L217.47 183.837C217.993 183.526 218.036 183.046 217.541 182.763Z" fill="#24126A"/>
<path d="M269.388 212.701L263.325 209.195C262.844 208.913 262.01 208.941 261.487 209.252L259.621 210.34C259.098 210.651 259.056 211.132 259.551 211.415L265.614 214.92C266.095 215.203 266.929 215.175 267.452 214.864L269.318 213.775C269.841 213.464 269.883 212.984 269.388 212.701Z" fill="#24126A"/>
<path d="M278.674 218.057L272.61 214.552C272.129 214.269 271.295 214.298 270.772 214.608L268.906 215.697C268.383 216.008 268.341 216.488 268.836 216.771L274.9 220.277C275.38 220.559 276.214 220.531 276.737 220.22L278.603 219.132C279.126 218.821 279.168 218.34 278.674 218.057Z" fill="#24126A"/>
<path d="M287.959 223.415L281.895 219.909C281.414 219.627 280.58 219.655 280.057 219.966L278.192 221.054C277.669 221.365 277.626 221.846 278.121 222.129L284.185 225.634C284.665 225.917 285.499 225.888 286.022 225.577L287.888 224.489C288.411 224.178 288.453 223.697 287.959 223.415Z" fill="#24126A"/>
<path d="M297.248 228.786L291.184 225.28C290.703 224.998 289.869 225.026 289.346 225.337L287.481 226.425C286.958 226.736 286.915 227.217 287.41 227.5L293.474 231.005C293.954 231.288 294.788 231.259 295.311 230.949L297.177 229.86C297.7 229.549 297.743 229.069 297.248 228.786Z" fill="#24126A"/>
<path d="M223.886 175.936L217.822 172.43C217.342 172.148 216.508 172.176 215.985 172.487L210.317 175.794C209.794 176.105 209.751 176.586 210.246 176.869L216.31 180.374C216.79 180.657 217.624 180.629 218.147 180.318L223.815 177.01C224.338 176.699 224.381 176.218 223.886 175.936Z" fill="#24126A"/>
<path d="M233.257 181.349L227.193 177.844C226.713 177.561 225.879 177.589 225.356 177.9L219.688 181.208C219.165 181.519 219.122 182 219.617 182.282L225.681 185.788C226.161 186.07 226.995 186.042 227.518 185.731L233.186 182.424C233.709 182.113 233.752 181.632 233.257 181.349Z" fill="#24126A"/>
<path d="M242.624 186.763L236.56 183.258C236.08 182.975 235.246 183.004 234.723 183.315L229.055 186.622C228.532 186.933 228.489 187.414 228.984 187.696L235.048 191.202C235.529 191.484 236.363 191.456 236.886 191.145L242.554 187.838C243.077 187.527 243.119 187.046 242.624 186.763Z" fill="#24126A"/>
<path d="M251.999 192.177L245.935 188.672C245.455 188.389 244.621 188.417 244.098 188.728L238.43 192.036C237.907 192.347 237.864 192.827 238.359 193.11L244.423 196.615C244.904 196.898 245.738 196.87 246.261 196.559L251.929 193.251C252.452 192.94 252.494 192.46 251.999 192.177Z" fill="#24126A"/>
<path d="M261.37 197.59L255.307 194.084C254.826 193.801 253.992 193.83 253.469 194.141L247.801 197.448C247.278 197.759 247.236 198.24 247.73 198.522L253.794 202.028C254.275 202.311 255.109 202.282 255.632 201.971L261.3 198.664C261.823 198.353 261.865 197.872 261.37 197.59Z" fill="#24126A"/>
<path d="M270.741 202.99L264.678 199.485C264.197 199.202 263.363 199.231 262.84 199.542L257.172 202.849C256.649 203.16 256.607 203.641 257.101 203.923L263.165 207.429C263.646 207.711 264.48 207.683 265.003 207.372L270.671 204.065C271.194 203.754 271.236 203.273 270.741 202.99Z" fill="#24126A"/>
<path d="M280.113 208.404L274.049 204.898C273.568 204.615 272.734 204.644 272.211 204.955L266.543 208.262C266.02 208.573 265.978 209.054 266.472 209.336L272.536 212.842C273.017 213.125 273.851 213.096 274.374 212.785L280.042 209.478C280.565 209.167 280.607 208.686 280.113 208.404Z" fill="#24126A"/>
<path d="M289.488 213.817L283.424 210.311C282.943 210.029 282.109 210.057 281.586 210.368L275.918 213.675C275.395 213.986 275.353 214.467 275.847 214.75L281.911 218.255C282.392 218.538 283.226 218.509 283.749 218.198L289.417 214.891C289.94 214.58 289.982 214.099 289.488 213.817Z" fill="#24126A"/>
<path d="M298.859 219.231L292.795 215.725C292.314 215.443 291.48 215.471 290.957 215.782L285.289 219.089C284.766 219.4 284.724 219.881 285.219 220.164L291.282 223.669C291.763 223.952 292.597 223.923 293.12 223.613L298.788 220.305C299.311 219.994 299.353 219.513 298.859 219.231Z" fill="#24126A"/>
<path d="M223.435 145.758L205.568 135.44C205.088 135.157 204.254 135.185 203.731 135.496L198.063 138.804C197.54 139.115 197.497 139.595 197.992 139.878L215.858 150.196C216.339 150.479 217.173 150.451 217.696 150.14L223.364 146.832C223.887 146.521 223.929 146.041 223.435 145.758Z" fill="#24126A"/>
<path d="M338.579 212.22L320.713 201.902C320.232 201.619 319.398 201.648 318.875 201.959L313.207 205.266C312.684 205.577 312.642 206.058 313.137 206.34L331.003 216.659C331.484 216.941 332.317 216.913 332.84 216.602L338.509 213.295C339.032 212.984 339.074 212.503 338.579 212.22Z" fill="#24126A"/>
<path d="M321.187 190.876L315.123 187.371C314.642 187.088 313.808 187.116 313.285 187.427L306.543 191.371C306.02 191.682 305.978 192.162 306.472 192.445L312.536 195.951C313.017 196.233 313.851 196.205 314.374 195.894L321.116 191.95C321.639 191.639 321.682 191.159 321.187 190.876Z" fill="#24126A"/>
<path d="M253.13 151.568L243.42 145.971C242.939 145.688 242.105 145.716 241.582 146.027L234.84 149.971C234.317 150.282 234.275 150.763 234.769 151.045L244.48 156.643C244.961 156.925 245.795 156.897 246.318 156.586L253.06 152.643C253.583 152.332 253.625 151.851 253.13 151.568Z" fill="#24126A"/>
<path d="M312.166 185.661L302.455 180.063C301.974 179.78 301.14 179.809 300.617 180.12L293.875 184.063C293.352 184.374 293.31 184.855 293.805 185.138L303.515 190.735C303.996 191.018 304.83 190.989 305.353 190.678L312.095 186.735C312.618 186.424 312.66 185.943 312.166 185.661Z" fill="#24126A"/>
<path d="M266.662 159.385L256.951 153.787C256.471 153.505 255.637 153.533 255.114 153.844L248.371 157.787C247.848 158.098 247.806 158.579 248.301 158.862L258.011 164.459C258.492 164.742 259.326 164.713 259.849 164.403L266.591 160.459C267.114 160.148 267.156 159.667 266.662 159.385Z" fill="#24126A"/>
<path d="M248.355 158.875L290.548 183.244C291.071 183.54 291.891 183.555 292.385 183.272L299.269 179.258C299.764 178.975 299.736 178.494 299.213 178.183L257.02 153.815L248.355 158.875Z" fill="#24126A"/>
<path d="M329.005 200.417L335.762 204.319C336.158 204.545 336.836 204.531 337.274 204.276L340.031 202.665C340.469 202.41 340.497 202.015 340.087 201.788L333.331 197.887C332.935 197.661 332.256 197.675 331.818 197.93L329.062 199.541C328.624 199.795 328.595 200.191 329.005 200.417Z" fill="#24126A"/>
<path d="M319.634 195.004L326.391 198.905C326.787 199.131 327.465 199.117 327.903 198.863L330.659 197.251C331.098 196.997 331.126 196.601 330.716 196.375L323.96 192.474C323.564 192.247 322.885 192.262 322.447 192.516L319.691 194.127C319.253 194.382 319.224 194.778 319.634 195.004Z" fill="#24126A"/>
<path d="M324.13 203.259L330.887 207.16C331.283 207.386 331.961 207.372 332.399 207.118L335.156 205.507C335.594 205.252 335.622 204.856 335.212 204.63L328.456 200.729C328.06 200.503 327.381 200.517 326.943 200.771L324.187 202.383C323.749 202.637 323.72 203.033 324.13 203.259Z" fill="#24126A"/>
</g>
</g>
</g>
<g opacity="0.8">
<path d="M89.305 208.632L83.2977 205.155C82.8171 204.872 82.8737 204.391 83.4391 204.066L90.5348 199.967C91.086 199.642 91.9341 199.614 92.4147 199.882L98.422 203.345C98.9026 203.628 98.846 204.109 98.2806 204.434L91.185 208.533C90.6337 208.858 89.7856 208.886 89.305 208.618V208.632Z" fill="#24126A"/>
<path d="M98.5902 213.988L92.5829 210.525C92.1023 210.242 92.1588 209.762 92.7242 209.436L99.8199 205.337C100.371 205.012 101.219 204.984 101.7 205.253L107.707 208.716C108.188 208.998 108.131 209.479 107.566 209.804L100.47 213.903C99.9188 214.228 99.0708 214.256 98.5902 213.988Z" fill="#24126A"/>
<path d="M107.879 219.36L101.872 215.897C101.391 215.614 101.448 215.134 102.013 214.809L109.109 210.709C109.66 210.384 110.508 210.356 110.989 210.625L116.996 214.088C117.477 214.37 117.42 214.851 116.855 215.176L109.759 219.275C109.208 219.6 108.36 219.628 107.879 219.36Z" fill="#24126A"/>
<path d="M120.711 214.921L114.704 211.458C114.223 211.175 114.28 210.695 114.845 210.37L120.796 206.935C121.347 206.61 122.195 206.582 122.676 206.85L128.683 210.313C129.164 210.596 129.107 211.077 128.542 211.402L122.591 214.836C122.04 215.161 121.192 215.19 120.711 214.921Z" fill="#24126A"/>
<path d="M129.996 220.293L123.989 216.816C123.509 216.533 123.565 216.052 124.13 215.727L130.081 212.292C130.633 211.967 131.481 211.939 131.961 212.208L137.968 215.671C138.449 215.953 138.393 216.434 137.827 216.759L131.876 220.194C131.325 220.519 130.477 220.547 129.996 220.279V220.293Z" fill="#24126A"/>
<path d="M139.278 225.65L133.27 222.173C132.79 221.89 132.846 221.409 133.412 221.084L139.362 217.649C139.914 217.324 140.762 217.296 141.242 217.565L147.25 221.028C147.73 221.31 147.674 221.791 147.108 222.116L141.158 225.551C140.606 225.876 139.758 225.904 139.278 225.636V225.65Z" fill="#24126A"/>
<path d="M148.559 231.008L142.552 227.545C142.071 227.262 142.128 226.781 142.693 226.456L148.644 223.021C149.195 222.696 150.043 222.668 150.524 222.937L156.531 226.4C157.012 226.682 156.955 227.163 156.39 227.488L150.439 230.923C149.888 231.248 149.04 231.276 148.559 231.008Z" fill="#24126A"/>
<path d="M157.844 236.364L151.837 232.887C151.356 232.604 151.413 232.124 151.978 231.798L157.929 228.364C158.48 228.039 159.328 228.01 159.809 228.279L165.816 231.742C166.297 232.025 166.24 232.505 165.675 232.83L159.724 236.265C159.173 236.59 158.325 236.618 157.844 236.35V236.364Z" fill="#24126A"/>
<path d="M167.118 241.72L161.11 238.243C160.63 237.961 160.686 237.48 161.252 237.155L167.202 233.72C167.754 233.395 168.602 233.367 169.082 233.635L175.09 237.098C175.57 237.381 175.514 237.862 174.948 238.187L168.997 241.622C168.446 241.947 167.598 241.975 167.118 241.706V241.72Z" fill="#24126A"/>
<path d="M176.403 247.078L170.395 243.615C169.915 243.333 169.971 242.852 170.537 242.527L176.487 239.092C177.039 238.767 177.887 238.739 178.367 239.007L184.375 242.47C184.855 242.753 184.799 243.234 184.233 243.559L178.283 246.994C177.731 247.319 176.883 247.347 176.403 247.078Z" fill="#24126A"/>
<path d="M185.692 252.435L179.684 248.958C179.204 248.675 179.26 248.195 179.826 247.87L185.777 244.435C186.328 244.11 187.176 244.082 187.656 244.35L193.664 247.813C194.144 248.096 194.088 248.577 193.522 248.902L187.572 252.336C187.02 252.661 186.172 252.69 185.692 252.421V252.435Z" fill="#24126A"/>
<path d="M194.961 257.792L188.954 254.329C188.473 254.046 188.53 253.565 189.095 253.24L195.046 249.806C195.597 249.481 196.445 249.452 196.926 249.721L202.933 253.184C203.414 253.467 203.357 253.947 202.792 254.272L196.841 257.707C196.29 258.032 195.442 258.06 194.961 257.792Z" fill="#24126A"/>
<path d="M204.246 263.164L198.239 259.701C197.759 259.418 197.815 258.938 198.38 258.612L204.331 255.178C204.883 254.853 205.731 254.824 206.211 255.093L212.218 258.556C212.699 258.839 212.643 259.319 212.077 259.644L206.126 263.079C205.575 263.404 204.727 263.432 204.246 263.164Z" fill="#24126A"/>
<path d="M134.383 212.392L128.376 208.929C127.895 208.646 127.952 208.166 128.517 207.84L134.468 204.406C135.019 204.081 135.867 204.052 136.348 204.321L142.355 207.784C142.836 208.067 142.779 208.547 142.214 208.872L136.263 212.307C135.712 212.632 134.864 212.66 134.383 212.392Z" fill="#24126A"/>
<path d="M124.969 206.949L118.962 203.486C118.481 203.204 118.538 202.723 119.103 202.398L125.054 198.963C125.605 198.638 126.453 198.61 126.934 198.879L132.941 202.342C133.422 202.624 133.365 203.105 132.8 203.43L126.849 206.865C126.298 207.19 125.45 207.218 124.969 206.949Z" fill="#24126A"/>
<path d="M115.526 201.508L102.579 194.03C102.098 193.748 102.155 193.267 102.72 192.942L108.671 189.507C109.222 189.182 110.07 189.154 110.551 189.422L123.499 196.9C123.979 197.182 123.923 197.663 123.357 197.988L117.406 201.423C116.855 201.748 116.007 201.776 115.526 201.508Z" fill="#24126A"/>
<path d="M122.124 194.878L111.622 188.815C111.141 188.532 111.198 188.051 111.763 187.726L117.714 184.291C118.265 183.966 119.113 183.938 119.594 184.207L130.096 190.27C130.577 190.553 130.52 191.034 129.955 191.359L124.004 194.794C123.453 195.119 122.605 195.147 122.124 194.878Z" fill="#24126A"/>
<path d="M143.672 217.749L137.665 214.286C137.184 214.003 137.241 213.523 137.806 213.197L143.757 209.763C144.308 209.438 145.156 209.409 145.637 209.678L151.644 213.141C152.125 213.424 152.068 213.904 151.503 214.229L145.552 217.664C145.001 217.989 144.153 218.017 143.672 217.749Z" fill="#24126A"/>
<path d="M152.957 223.105L146.95 219.642C146.469 219.36 146.526 218.879 147.091 218.554L153.042 215.119C153.593 214.794 154.442 214.766 154.922 215.034L160.929 218.497C161.41 218.78 161.353 219.261 160.788 219.586L154.837 223.02C154.286 223.346 153.438 223.374 152.957 223.105Z" fill="#24126A"/>
<path d="M162.231 228.462L156.224 224.999C155.743 224.716 155.799 224.235 156.365 223.91L162.316 220.476C162.867 220.15 163.715 220.122 164.196 220.391L170.203 223.854C170.683 224.136 170.627 224.617 170.061 224.942L164.111 228.377C163.559 228.702 162.711 228.73 162.231 228.462Z" fill="#24126A"/>
<path d="M171.512 233.82L165.505 230.357C165.024 230.074 165.081 229.593 165.646 229.268L171.597 225.833C172.148 225.508 172.996 225.48 173.477 225.749L179.484 229.212C179.965 229.494 179.908 229.975 179.343 230.3L173.392 233.735C172.841 234.06 171.993 234.088 171.512 233.82Z" fill="#24126A"/>
<path d="M180.797 239.191L174.79 235.728C174.309 235.445 174.366 234.964 174.931 234.639L180.882 231.205C181.433 230.879 182.281 230.851 182.762 231.12L188.769 234.583C189.25 234.865 189.193 235.346 188.628 235.671L182.677 239.106C182.126 239.431 181.278 239.459 180.797 239.191Z" fill="#24126A"/>
<path d="M190.071 244.548L184.063 241.07C183.583 240.788 183.639 240.307 184.205 239.982L190.155 236.547C190.707 236.222 191.555 236.194 192.035 236.463L198.043 239.926C198.523 240.208 198.467 240.689 197.901 241.014L191.951 244.449C191.399 244.774 190.551 244.802 190.071 244.533V244.548Z" fill="#24126A"/>
<path d="M199.356 249.905L193.349 246.427C192.868 246.145 192.924 245.664 193.49 245.339L199.441 241.904C199.992 241.579 200.84 241.551 201.321 241.819L207.328 245.282C207.808 245.565 207.752 246.046 207.187 246.371L201.236 249.806C200.684 250.131 199.836 250.159 199.356 249.89V249.905Z" fill="#24126A"/>
<path d="M208.641 255.263L202.634 251.799C202.153 251.517 202.21 251.036 202.775 250.711L208.726 247.276C209.277 246.951 210.125 246.923 210.606 247.192L216.613 250.655C217.094 250.937 217.037 251.418 216.472 251.743L210.521 255.178C209.97 255.503 209.122 255.531 208.641 255.263Z" fill="#24126A"/>
<path d="M217.914 260.62L211.907 257.143C211.427 256.86 211.483 256.379 212.048 256.054L217.999 252.62C218.55 252.294 219.399 252.266 219.879 252.535L225.886 255.998C226.367 256.28 226.31 256.761 225.745 257.086L219.794 260.521C219.243 260.846 218.395 260.874 217.914 260.606V260.62Z" fill="#24126A"/>
<path d="M234.427 270.146L221.309 262.57C220.829 262.287 220.885 261.807 221.451 261.482L227.402 258.047C227.953 257.722 228.801 257.693 229.281 257.962L242.399 265.538C242.879 265.821 242.823 266.302 242.257 266.627L236.306 270.061C235.755 270.387 234.907 270.415 234.427 270.146Z" fill="#24126A"/>
<path d="M252.49 259.714L241.423 253.325C240.942 253.043 240.999 252.562 241.564 252.237L247.515 248.802C248.066 248.477 248.914 248.449 249.395 248.717L260.462 255.106C260.943 255.389 260.886 255.87 260.321 256.195L254.37 259.629C253.819 259.955 252.971 259.983 252.49 259.714Z" fill="#24126A"/>
<path d="M159.926 216.702L153.919 213.239C153.438 212.957 153.495 212.476 154.06 212.151L160.011 208.716C160.562 208.391 161.41 208.363 161.891 208.631L167.898 212.094C168.379 212.377 168.322 212.858 167.757 213.183L161.806 216.618C161.255 216.943 160.407 216.971 159.926 216.702Z" fill="#24126A"/>
<path d="M150.41 211.204L144.403 207.741C143.923 207.458 143.979 206.978 144.545 206.652L150.495 203.218C151.047 202.893 151.895 202.864 152.375 203.133L158.383 206.61C158.863 206.893 158.807 207.373 158.241 207.698L152.29 211.133C151.739 211.458 150.891 211.487 150.41 211.218V211.204Z" fill="#24126A"/>
<path d="M140.895 205.72L134.888 202.257C134.407 201.974 134.464 201.494 135.029 201.169L140.98 197.734C141.531 197.409 142.379 197.38 142.86 197.649L148.867 201.112C149.347 201.395 149.291 201.875 148.726 202.2L142.775 205.635C142.224 205.96 141.375 205.989 140.895 205.72Z" fill="#24126A"/>
<path d="M131.383 200.221L125.376 196.757C124.895 196.475 124.952 195.994 125.517 195.669L131.468 192.234C132.019 191.909 132.867 191.881 133.348 192.15L139.355 195.613C139.836 195.895 139.779 196.376 139.214 196.701L133.263 200.136C132.712 200.461 131.864 200.489 131.383 200.221Z" fill="#24126A"/>
<path d="M169.207 222.059L163.2 218.596C162.719 218.314 162.776 217.833 163.341 217.508L169.292 214.073C169.843 213.748 170.692 213.72 171.172 213.988L177.179 217.451C177.66 217.734 177.603 218.215 177.038 218.54L171.087 221.975C170.536 222.3 169.688 222.328 169.207 222.059Z" fill="#24126A"/>
<path d="M178.481 227.417L172.474 223.954C171.993 223.671 172.049 223.19 172.615 222.865L178.566 219.431C179.117 219.106 179.965 219.077 180.446 219.346L186.453 222.809C186.933 223.092 186.877 223.572 186.311 223.897L180.361 227.332C179.809 227.657 178.961 227.685 178.481 227.417Z" fill="#24126A"/>
<path d="M187.766 232.774L181.759 229.311C181.278 229.028 181.335 228.547 181.9 228.222L187.851 224.788C188.402 224.462 189.25 224.434 189.731 224.703L195.738 228.166C196.219 228.448 196.162 228.929 195.597 229.254L189.646 232.689C189.095 233.014 188.247 233.042 187.766 232.774Z" fill="#24126A"/>
<path d="M197.055 238.131L191.048 234.668C190.567 234.385 190.624 233.904 191.189 233.579L197.14 230.144C197.691 229.819 198.539 229.791 199.02 230.06L205.027 233.523C205.508 233.805 205.451 234.286 204.886 234.611L198.935 238.046C198.384 238.371 197.536 238.399 197.055 238.131Z" fill="#24126A"/>
<path d="M206.325 243.502L200.317 240.025C199.837 239.742 199.893 239.262 200.459 238.937L206.409 235.502C206.961 235.177 207.809 235.149 208.289 235.417L214.297 238.88C214.777 239.163 214.721 239.643 214.155 239.969L208.204 243.403C207.653 243.728 206.805 243.757 206.325 243.488V243.502Z" fill="#24126A"/>
<path d="M215.614 248.859L209.606 245.382C209.126 245.099 209.182 244.619 209.748 244.294L215.698 240.859C216.25 240.534 217.098 240.505 217.578 240.774L223.586 244.237C224.066 244.52 224.01 245 223.444 245.325L217.494 248.76C216.942 249.085 216.094 249.114 215.614 248.845V248.859Z" fill="#24126A"/>
<path d="M224.899 254.216L218.891 250.753C218.411 250.47 218.467 249.989 219.033 249.664L224.984 246.229C225.535 245.904 226.383 245.876 226.864 246.145L232.871 249.608C233.351 249.89 233.295 250.371 232.729 250.696L226.779 254.131C226.227 254.456 225.379 254.484 224.899 254.216Z" fill="#24126A"/>
<path d="M234.168 259.573L228.161 256.096C227.68 255.813 227.737 255.333 228.302 255.007L234.253 251.573C234.804 251.248 235.652 251.219 236.133 251.488L242.14 254.951C242.621 255.234 242.564 255.714 241.999 256.039L236.048 259.474C235.497 259.799 234.649 259.827 234.168 259.559V259.573Z" fill="#24126A"/>
<path d="M243.457 264.93L237.45 261.453C236.969 261.171 237.026 260.69 237.591 260.365L243.542 256.93C244.093 256.605 244.942 256.577 245.422 256.845L251.429 260.308C251.91 260.591 251.853 261.072 251.288 261.397L245.337 264.831C244.786 265.157 243.938 265.185 243.457 264.916V264.93Z" fill="#24126A"/>
<path d="M155.032 203.444L149.024 199.981C148.544 199.698 148.6 199.217 149.166 198.892L155.116 195.457C155.668 195.132 156.516 195.104 156.996 195.373L163.004 198.836C163.484 199.118 163.428 199.599 162.862 199.924L156.912 203.359C156.36 203.684 155.512 203.712 155.032 203.444Z" fill="#24126A"/>
<path d="M145.801 198.116L139.794 194.652C139.313 194.37 139.37 193.889 139.935 193.564L145.886 190.129C146.437 189.804 147.285 189.776 147.766 190.045L153.773 193.508C154.254 193.79 154.197 194.271 153.632 194.596L147.681 198.031C147.13 198.356 146.282 198.384 145.801 198.116Z" fill="#24126A"/>
<path d="M136.575 192.786L130.567 189.323C130.087 189.041 130.143 188.56 130.709 188.235L136.659 184.8C137.211 184.475 138.059 184.447 138.539 184.715L144.547 188.178C145.027 188.461 144.971 188.942 144.405 189.267L138.454 192.702C137.903 193.027 137.055 193.055 136.575 192.786Z" fill="#24126A"/>
<path d="M127.328 187.443L121.321 183.98C120.841 183.697 120.897 183.217 121.463 182.892L127.413 179.457C127.965 179.132 128.813 179.104 129.293 179.372L135.3 182.835C135.781 183.118 135.725 183.598 135.159 183.924L129.208 187.358C128.657 187.683 127.809 187.712 127.328 187.443Z" fill="#24126A"/>
<path d="M136.825 181.973L130.817 178.51C130.337 178.227 130.393 177.747 130.959 177.422L132.923 176.291C133.475 175.966 134.323 175.938 134.803 176.206L140.811 179.669C141.291 179.952 141.235 180.432 140.669 180.758L138.704 181.888C138.153 182.213 137.305 182.242 136.825 181.973Z" fill="#24126A"/>
<path d="M148.883 188.928L142.876 185.465C142.395 185.182 142.452 184.701 143.017 184.376L144.982 183.246C145.533 182.92 146.381 182.892 146.862 183.161L152.869 186.638C153.35 186.921 153.293 187.401 152.728 187.726L150.763 188.857C150.212 189.182 149.364 189.21 148.883 188.942V188.928Z" fill="#24126A"/>
<path d="M158.071 194.243L152.063 190.78C151.583 190.497 151.639 190.016 152.205 189.691L154.169 188.561C154.721 188.235 155.569 188.207 156.049 188.476L162.057 191.939C162.537 192.221 162.481 192.702 161.915 193.027L159.951 194.158C159.399 194.483 158.551 194.511 158.071 194.243Z" fill="#24126A"/>
<path d="M167.274 199.542L161.266 196.065C160.786 195.783 160.842 195.302 161.408 194.977L163.373 193.846C163.924 193.521 164.772 193.493 165.252 193.761L171.26 197.224C171.74 197.507 171.684 197.988 171.118 198.313L169.154 199.444C168.602 199.769 167.754 199.797 167.274 199.528V199.542Z" fill="#24126A"/>
<path d="M176.477 204.857L170.47 201.394C169.989 201.112 170.046 200.631 170.611 200.306L172.576 199.175C173.127 198.85 173.975 198.822 174.456 199.09L180.463 202.553C180.944 202.836 180.887 203.317 180.322 203.642L178.357 204.773C177.806 205.098 176.957 205.126 176.477 204.857Z" fill="#24126A"/>
<path d="M227.809 234.499L221.802 231.036C221.321 230.753 221.378 230.273 221.943 229.948L223.908 228.817C224.459 228.492 225.307 228.463 225.788 228.732L231.795 232.209C232.276 232.492 232.219 232.972 231.654 233.298L229.689 234.428C229.138 234.753 228.29 234.782 227.809 234.513V234.499Z" fill="#24126A"/>
<path d="M237.016 239.813L231.009 236.35C230.528 236.067 230.585 235.586 231.15 235.261L233.115 234.13C233.666 233.805 234.514 233.777 234.995 234.046L241.002 237.509C241.483 237.791 241.426 238.272 240.861 238.597L238.896 239.728C238.345 240.053 237.497 240.081 237.016 239.813Z" fill="#24126A"/>
<path d="M246.219 245.113L240.212 241.636C239.731 241.353 239.788 240.873 240.353 240.548L242.318 239.417C242.869 239.092 243.717 239.064 244.198 239.332L250.205 242.795C250.686 243.078 250.629 243.558 250.064 243.884L248.099 245.014C247.548 245.339 246.7 245.368 246.219 245.099V245.113Z" fill="#24126A"/>
<path d="M255.407 250.428L249.399 246.965C248.919 246.683 248.975 246.202 249.541 245.877L251.505 244.746C252.057 244.421 252.905 244.393 253.385 244.661L259.393 248.138C259.873 248.421 259.817 248.902 259.251 249.227L257.287 250.358C256.735 250.683 255.887 250.711 255.407 250.442V250.428Z" fill="#24126A"/>
<path d="M164.321 208.802L158.313 205.339C157.833 205.056 157.889 204.575 158.455 204.25L164.405 200.815C164.957 200.49 165.805 200.462 166.285 200.731L172.293 204.208C172.773 204.49 172.717 204.971 172.151 205.296L166.201 208.731C165.649 209.056 164.801 209.084 164.321 208.816V208.802Z" fill="#24126A"/>
<path d="M173.606 214.159L167.599 210.695C167.118 210.413 167.174 209.932 167.74 209.607L173.691 206.172C174.242 205.847 175.09 205.819 175.571 206.088L181.578 209.551C182.058 209.833 182.002 210.314 181.436 210.639L175.486 214.074C174.934 214.399 174.086 214.427 173.606 214.159Z" fill="#24126A"/>
<path d="M182.879 219.529L176.872 216.066C176.391 215.783 176.448 215.303 177.013 214.978L182.964 211.543C183.515 211.218 184.363 211.19 184.844 211.458L190.851 214.921C191.332 215.204 191.275 215.684 190.71 216.01L184.759 219.444C184.208 219.769 183.36 219.798 182.879 219.529Z" fill="#24126A"/>
<path d="M192.164 224.887L186.157 221.423C185.677 221.141 185.733 220.66 186.298 220.335L192.249 216.9C192.8 216.575 193.649 216.547 194.129 216.816L200.136 220.293C200.617 220.575 200.56 221.056 199.995 221.381L194.044 224.816C193.493 225.141 192.645 225.169 192.164 224.901V224.887Z" fill="#24126A"/>
<path d="M201.453 230.243L195.446 226.78C194.966 226.498 195.022 226.017 195.588 225.692L201.538 222.257C202.09 221.932 202.938 221.904 203.418 222.172L209.426 225.635C209.906 225.918 209.85 226.399 209.284 226.724L203.333 230.159C202.782 230.484 201.934 230.512 201.453 230.243Z" fill="#24126A"/>
<path d="M210.719 235.601L204.712 232.138C204.231 231.855 204.288 231.375 204.853 231.049L210.804 227.615C211.355 227.29 212.203 227.261 212.684 227.53L218.691 230.993C219.172 231.276 219.115 231.756 218.55 232.081L212.599 235.516C212.048 235.841 211.2 235.869 210.719 235.601Z" fill="#24126A"/>
<path d="M220.004 240.958L213.997 237.495C213.516 237.212 213.573 236.731 214.138 236.406L220.089 232.972C220.64 232.647 221.488 232.618 221.969 232.887L227.976 236.364C228.457 236.647 228.4 237.127 227.835 237.452L221.884 240.887C221.333 241.212 220.485 241.241 220.004 240.972V240.958Z" fill="#24126A"/>
<path d="M229.293 246.315L223.286 242.852C222.805 242.57 222.862 242.089 223.427 241.764L229.378 238.329C229.929 238.004 230.777 237.976 231.258 238.244L237.265 241.707C237.746 241.99 237.689 242.471 237.124 242.796L231.173 246.23C230.622 246.556 229.774 246.584 229.293 246.315Z" fill="#24126A"/>
<path d="M238.567 251.672L232.559 248.209C232.079 247.926 232.135 247.446 232.701 247.121L238.652 243.686C239.203 243.361 240.051 243.333 240.531 243.601L246.539 247.064C247.019 247.347 246.963 247.827 246.397 248.153L240.447 251.587C239.895 251.912 239.047 251.941 238.567 251.672Z" fill="#24126A"/>
<path d="M111.256 209.465L93.5594 199.246C93.0789 198.963 93.1354 198.482 93.7008 198.157L99.6516 194.723C100.203 194.398 101.051 194.369 101.531 194.638L119.228 204.857C119.709 205.14 119.652 205.621 119.087 205.946L113.136 209.38C112.585 209.706 111.737 209.734 111.256 209.465Z" fill="#24126A"/>
<path d="M225.28 275.306L207.583 265.086C207.102 264.803 207.159 264.323 207.724 263.998L213.675 260.563C214.226 260.238 215.074 260.21 215.555 260.478L233.252 270.698C233.732 270.98 233.676 271.461 233.11 271.786L227.16 275.221C226.608 275.546 225.76 275.574 225.28 275.306Z" fill="#24126A"/>
<path d="M188.164 265.709L182.157 262.246C181.677 261.963 181.733 261.482 182.298 261.157L189.394 257.058C189.945 256.733 190.793 256.705 191.274 256.973L197.281 260.436C197.762 260.719 197.705 261.2 197.14 261.525L190.044 265.624C189.493 265.949 188.645 265.977 188.164 265.709Z" fill="#24126A"/>
<path d="M120.753 226.794L111.141 221.239C110.661 220.956 110.717 220.476 111.283 220.151L118.379 216.052C118.93 215.727 119.778 215.698 120.258 215.967L129.87 221.522C130.351 221.805 130.294 222.285 129.729 222.61L122.633 226.709C122.082 227.034 121.234 227.063 120.753 226.794Z" fill="#24126A"/>
<path d="M179.214 260.548L169.602 254.993C169.122 254.71 169.178 254.23 169.744 253.905L176.839 249.806C177.391 249.481 178.239 249.452 178.719 249.721L188.331 255.276C188.812 255.558 188.755 256.039 188.19 256.364L181.094 260.463C180.543 260.788 179.695 260.817 179.214 260.548Z" fill="#24126A"/>
<path d="M134.152 234.526L124.54 228.971C124.059 228.688 124.116 228.208 124.681 227.883L131.777 223.784C132.328 223.459 133.176 223.43 133.657 223.699L143.269 229.254C143.749 229.537 143.693 230.017 143.127 230.342L136.032 234.441C135.48 234.766 134.632 234.795 134.152 234.526Z" fill="#24126A"/>
<path d="M133.719 223.756L175.515 247.884C176.038 248.181 176.038 248.676 175.515 248.972L168.278 253.142C167.755 253.439 166.921 253.439 166.398 253.142L124.602 229.014L133.719 223.756Z" fill="#24126A"/>
<path d="M214.097 275.419L220.797 279.277C221.193 279.504 221.136 279.899 220.684 280.168L217.787 281.85C217.334 282.119 216.642 282.147 216.246 281.921L209.546 278.062C209.15 277.836 209.207 277.44 209.659 277.171L212.557 275.489C213.009 275.221 213.702 275.192 214.097 275.419Z" fill="#24126A"/>
<path d="M204.746 270.02L211.446 273.879C211.841 274.105 211.785 274.5 211.333 274.769L208.435 276.451C207.983 276.72 207.29 276.748 206.894 276.522L200.194 272.663C199.799 272.437 199.855 272.041 200.307 271.772L203.205 270.09C203.657 269.822 204.35 269.794 204.746 270.02Z" fill="#24126A"/>
<path d="M195.453 264.662L202.153 268.521C202.548 268.747 202.492 269.143 202.04 269.411L199.142 271.093C198.69 271.362 197.997 271.39 197.601 271.164L190.901 267.305C190.506 267.079 190.562 266.683 191.014 266.415L193.912 264.732C194.364 264.464 195.057 264.436 195.453 264.662Z" fill="#24126A"/>
<path d="M209.875 267.065L216.575 270.923C216.97 271.15 216.914 271.545 216.462 271.814L213.564 273.496C213.112 273.765 212.419 273.793 212.023 273.567L205.323 269.708C204.927 269.482 204.984 269.086 205.436 268.817L208.334 267.135C208.786 266.867 209.479 266.838 209.875 267.065Z" fill="#24126A"/>
</g>
<path d="M304.565 122.65C304.113 122.65 303.632 122.508 303.166 122.254C301.752 121.434 300.862 119.582 301.201 118.112C301.371 117.406 301.781 116.883 302.374 116.614C303.024 116.331 303.844 116.416 304.608 116.854C306.021 117.674 306.912 119.54 306.572 120.996C306.403 121.703 305.993 122.226 305.399 122.494C305.145 122.607 304.862 122.664 304.579 122.664L304.565 122.65ZM303.208 117.095C303.01 117.095 302.812 117.137 302.629 117.208C302.219 117.377 301.936 117.759 301.823 118.254C301.54 119.455 302.289 120.996 303.477 121.688C304.056 122.028 304.65 122.098 305.131 121.886C305.54 121.717 305.823 121.335 305.936 120.84C306.219 119.639 305.47 118.084 304.282 117.406C303.915 117.194 303.547 117.095 303.208 117.095Z" fill="#42E8E0"/>
<path d="M312.21 127.059C311.757 127.059 311.277 126.918 310.81 126.664C309.397 125.844 308.506 123.992 308.846 122.522C309.015 121.815 309.425 121.292 310.019 121.024C310.669 120.741 311.489 120.826 312.252 121.264C313.666 122.084 314.556 123.95 314.217 125.406C314.047 126.112 313.637 126.635 313.044 126.904C312.789 127.017 312.507 127.073 312.224 127.073L312.21 127.059ZM310.853 121.504C310.655 121.504 310.457 121.547 310.273 121.617C309.863 121.787 309.581 122.169 309.468 122.663C309.185 123.865 309.934 125.406 311.121 126.098C311.701 126.437 312.294 126.508 312.775 126.296C313.185 126.126 313.468 125.745 313.581 125.25C313.863 124.049 313.114 122.494 311.927 121.815C311.559 121.603 311.192 121.504 310.853 121.504Z" fill="#42E8E0"/>
<path d="M321.555 129.746C321.244 131.088 319.929 131.555 318.629 130.806C317.329 130.057 316.509 128.36 316.82 127.018C317.131 125.675 318.445 125.208 319.746 125.957C321.06 126.707 321.866 128.403 321.555 129.746Z" fill="#42E8E0"/>
<path d="M174.826 45.3039L170.727 42.9434L171.052 41.0493L175.137 43.4098L174.826 45.3039Z" fill="#42E8E0"/>
<path d="M180.775 48.738L176.676 46.3775L177.001 44.4834L181.086 46.8439L180.775 48.738Z" fill="#42E8E0"/>
<path d="M168.933 41.9121L159.957 36.7246L160.282 34.8306L169.258 40.018L168.933 41.9121Z" fill="#42E8E0"/>
<path d="M170.066 77.616L163.211 73.6583L163.479 72.0752L170.335 76.0329L170.066 77.616Z" fill="#42E8E0"/>
<path d="M175.919 80.9941L172.484 79.0152L172.753 77.4321L176.188 79.411L175.919 80.9941Z" fill="#42E8E0"/>
<path d="M171.466 82.4927L168.555 80.8106L168.809 79.2275L171.735 80.9096L171.466 82.4927Z" fill="#42E8E0"/>
<path d="M176.358 85.3198L172.938 83.3409L173.192 81.7578L176.627 83.7367L176.358 85.3198Z" fill="#42E8E0"/>
<path d="M181.39 92.3016L167.934 84.5274L168.188 82.9443L181.658 90.7185L181.39 92.3016Z" fill="#42E8E0"/>
<path d="M169.714 123.385L156.258 115.61L156.526 114.027L169.983 121.801L169.714 123.385Z" fill="#42E8E0"/>
<path d="M174.896 126.367L171.461 124.388L171.73 122.805L175.15 124.784L174.896 126.367Z" fill="#42E8E0"/>
<path d="M170.224 89.9272L167.312 88.231L167.567 86.6479L170.493 88.3441L170.224 89.9272Z" fill="#42E8E0"/>
<path d="M175.112 92.7407L171.691 90.7618L171.946 89.1787L175.381 91.1576L175.112 92.7407Z" fill="#42E8E0"/>
<path d="M174.086 96.2171L166.68 91.9483L166.948 90.3652L174.355 94.6339L174.086 96.2171Z" fill="#42E8E0"/>
<path d="M179.03 99.0869L175.609 97.108L175.878 95.5249L179.299 97.5038L179.03 99.0869Z" fill="#42E8E0"/>
<path d="M184.017 101.956L180.582 99.9771L180.851 98.394L184.271 100.373L184.017 101.956Z" fill="#42E8E0"/>
<path d="M192.048 106.592L185.574 102.86L185.829 101.263L192.317 105.009L192.048 106.592Z" fill="#42E8E0"/>
<path d="M186.917 111.78L183.496 109.801L183.765 108.218L187.185 110.197L186.917 111.78Z" fill="#42E8E0"/>
<path d="M194.957 116.417L188.469 112.671L188.737 111.088L195.225 114.834L194.957 116.417Z" fill="#42E8E0"/>
<path d="M168.864 101.348L165.43 99.3692L165.698 97.7861L169.119 99.765L168.864 101.348Z" fill="#42E8E0"/>
<path d="M173.842 104.231L170.422 102.253L170.676 100.669L174.111 102.648L173.842 104.231Z" fill="#42E8E0"/>
<path d="M181.868 108.867L175.395 105.122L175.663 103.539L182.137 107.284L181.868 108.867Z" fill="#42E8E0"/>
<path d="M192.397 110.875L188.977 108.896L189.245 107.313L192.666 109.292L192.397 110.875Z" fill="#42E8E0"/>
<path d="M197.388 113.745L193.953 111.766L194.222 110.183L197.642 112.161L197.388 113.745Z" fill="#42E8E0"/>
<path d="M205.423 118.395L198.949 114.65L199.204 113.066L205.692 116.798L205.423 118.395Z" fill="#42E8E0"/>
<path d="M180.259 129.462L176.824 127.483L177.093 125.9L180.513 127.879L180.259 129.462Z" fill="#42E8E0"/>
<path d="M188.286 134.098L181.812 130.353L182.067 128.77L188.555 132.515L188.286 134.098Z" fill="#42E8E0"/>
<path d="M167.622 108.783L164.188 106.804L164.456 105.221L167.877 107.2L167.622 108.783Z" fill="#42E8E0"/>
<path d="M175.65 113.419L169.176 109.673L169.43 108.09L175.918 111.836L175.65 113.419Z" fill="#42E8E0"/>
<path d="M183.993 135.682L180.559 133.717L180.827 132.12L184.248 134.098L183.993 135.682Z" fill="#42E8E0"/>
<path d="M192.021 140.332L185.547 136.587L185.801 135.003L192.289 138.749L192.021 140.332Z" fill="#42E8E0"/>
<path d="M191.62 98.2109L188.199 96.232L188.468 94.6489L191.888 96.6278L191.62 98.2109Z" fill="#42E8E0"/>
<path d="M186.456 95.2138L183.035 93.235L183.29 91.6519L186.724 93.6307L186.456 95.2138Z" fill="#42E8E0"/>
<path d="M199.668 102.847L193.18 99.1012L193.448 97.5181L199.936 101.264L199.668 102.847Z" fill="#42E8E0"/>
<path d="M169.146 97.4471L166.051 95.6661L166.319 94.083L169.415 95.864L169.146 97.4471Z" fill="#42E8E0"/>
<path d="M178.31 102.733L170.805 98.4078L171.073 96.8105L178.579 101.15L178.31 102.733Z" fill="#42E8E0"/>
<path d="M187.481 108.034L179.961 103.694L180.23 102.111L187.749 106.451L187.481 108.034Z" fill="#42E8E0"/>
<path d="M204.431 105.589L201.336 103.808L201.605 102.225L204.686 104.006L204.431 105.589Z" fill="#42E8E0"/>
<path d="M213.586 110.889L206.066 106.55L206.335 104.967L213.855 109.306L213.586 110.889Z" fill="#42E8E0"/>
<path d="M222.752 116.175L215.246 111.836L215.515 110.253L223.02 114.592L222.752 116.175Z" fill="#42E8E0"/>
<path d="M172.384 107.469L164.879 103.13L165.147 101.547L172.653 105.886L172.384 107.469Z" fill="#42E8E0"/>
<path d="M176.357 109.744L174.039 108.415L174.308 106.832L176.612 108.161L176.357 109.744Z" fill="#42E8E0"/>
<path d="M180.316 112.048L178.012 110.706L178.28 109.123L180.584 110.451L180.316 112.048Z" fill="#42E8E0"/>
<path d="M187.652 116.274L181.984 112.995L182.253 111.412L187.921 114.691L187.652 116.274Z" fill="#42E8E0"/>
<path d="M195.874 108.811L193.57 107.482L193.839 105.885L196.143 107.228L195.874 108.811Z" fill="#42E8E0"/>
<path d="M203.219 113.037L197.551 109.772L197.819 108.189L203.487 111.454L203.219 113.037Z" fill="#42E8E0"/>
<path d="M204.758 113.928L199.09 110.663L199.358 109.08L205.026 112.345L204.758 113.928Z" fill="#42E8E0"/>
<path d="M174.547 134.311L167.141 130.042L167.409 128.459L174.802 132.728L174.547 134.311Z" fill="#42E8E0"/>
<path d="M179.491 137.166L176.07 135.187L176.339 133.604L179.759 135.583L179.491 137.166Z" fill="#42E8E0"/>
<path d="M184.464 140.049L181.043 138.07L181.312 136.487L184.732 138.466L184.464 140.049Z" fill="#42E8E0"/>
<path d="M192.511 144.686L186.023 140.94L186.292 139.357L192.78 143.103L192.511 144.686Z" fill="#42E8E0"/>
<path d="M197.661 147.654L194.227 145.675L194.495 144.092L197.916 146.071L197.661 147.654Z" fill="#42E8E0"/>
<path d="M205.687 152.29L199.199 148.544L199.468 146.961L205.956 150.707L205.687 152.29Z" fill="#42E8E0"/>
<path d="M181.034 146.198L177.613 144.219L177.882 142.636L181.302 144.615L181.034 146.198Z" fill="#42E8E0"/>
<path d="M189.078 150.848L182.59 147.103L182.858 145.52L189.332 149.265L189.078 150.848Z" fill="#42E8E0"/>
<path d="M163.139 135.879L159.719 133.9L159.987 132.317L163.408 134.296L163.139 135.879Z" fill="#42E8E0"/>
<path d="M168.13 138.748L164.695 136.77L164.964 135.187L168.384 137.165L168.13 138.748Z" fill="#42E8E0"/>
<path d="M176.157 143.385L169.684 139.64L169.938 138.057L176.426 141.802L176.157 143.385Z" fill="#42E8E0"/>
<path d="M169.611 135.54L166.516 133.745L166.784 132.162L169.88 133.957L169.611 135.54Z" fill="#42E8E0"/>
<path d="M178.779 140.827L171.273 136.487L171.528 134.904L179.048 139.244L178.779 140.827Z" fill="#42E8E0"/>
<path d="M187.935 146.113L180.43 141.774L180.698 140.19L188.204 144.53L187.935 146.113Z" fill="#42E8E0"/>
<path d="M160.611 138.48L153.105 134.155L153.374 132.572L160.88 136.897L160.611 138.48Z" fill="#42E8E0"/>
<path d="M164.584 140.771L162.266 139.442L162.534 137.859L164.838 139.188L164.584 140.771Z" fill="#42E8E0"/>
<path d="M168.538 143.06L166.234 141.732L166.503 140.148L168.807 141.477L168.538 143.06Z" fill="#42E8E0"/>
<path d="M175.879 147.3L170.211 144.021L170.48 142.438L176.148 145.717L175.879 147.3Z" fill="#42E8E0"/>
<path d="M177.432 148.191L171.75 144.912L172.019 143.329L177.687 146.608L177.432 148.191Z" fill="#42E8E0"/>
<path d="M163.995 124.148L161.691 122.819L161.946 121.236L164.264 122.565L163.995 124.148Z" fill="#42E8E0"/>
<path d="M171.338 128.388L165.656 125.108L165.925 123.525L171.607 126.805L171.338 128.388Z" fill="#42E8E0"/>
<path d="M178.832 132.714L173.164 129.435L173.418 127.852L179.101 131.131L178.832 132.714Z" fill="#42E8E0"/>
<path d="M207.724 157.535L204.289 155.556L204.558 153.973L207.992 155.952L207.724 157.535Z" fill="#42E8E0"/>
<path d="M215.747 162.171L209.273 158.439L209.528 156.856L216.016 160.588L215.747 162.171Z" fill="#42E8E0"/>
<path d="M195.077 150.227L189.395 146.962L189.663 145.378L195.345 148.644L195.077 150.227Z" fill="#42E8E0"/>
<path d="M202.563 154.566L196.895 151.287L197.149 149.704L202.831 152.983L202.563 154.566Z" fill="#42E8E0"/>
<path d="M159.988 108.444L157.684 107.115L157.952 105.532L160.256 106.861L159.988 108.444Z" fill="#42E8E0"/>
<path d="M167.327 112.684L161.645 109.405L161.913 107.822L167.595 111.101L167.327 112.684Z" fill="#42E8E0"/>
<path d="M174.817 117.009L169.148 113.73L169.417 112.147L175.085 115.426L174.817 117.009Z" fill="#42E8E0"/>
<path d="M288.063 174.736C287.54 174.736 287.003 174.581 286.48 174.27L240.598 147.781C238.732 146.707 237.517 143.965 237.898 141.689L240.838 124.19C241.036 123.003 241.658 122.084 242.52 121.674C243.326 121.293 244.273 121.377 245.178 121.9L291.059 148.389C292.925 149.463 294.141 152.205 293.759 154.481L290.819 171.98C290.621 173.167 289.999 174.086 289.137 174.496C288.798 174.651 288.444 174.736 288.077 174.736H288.063ZM243.58 122.084C243.298 122.084 243.043 122.141 242.789 122.254C242.11 122.579 241.63 123.314 241.46 124.289L238.52 141.788C238.181 143.823 239.255 146.269 240.909 147.216L286.791 173.704C287.511 174.114 288.232 174.185 288.84 173.902C289.519 173.577 289.999 172.842 290.169 171.853L293.109 154.354C293.448 152.318 292.374 149.873 290.72 148.926L244.838 122.437C244.414 122.197 243.976 122.07 243.566 122.07L243.58 122.084Z" fill="#42E8E0"/>
<path d="M283.013 204.815C282.49 204.815 281.953 204.66 281.43 204.363L235.563 177.874C233.697 176.8 232.481 174.058 232.863 171.782L235.803 154.283C236.001 153.096 236.609 152.177 237.485 151.767C238.291 151.386 239.238 151.471 240.143 151.994L286.024 178.482C287.89 179.556 289.105 182.299 288.724 184.574L285.784 202.073C285.586 203.261 284.964 204.179 284.102 204.589C283.763 204.745 283.409 204.83 283.042 204.83L283.013 204.815ZM281.755 203.798C282.476 204.208 283.197 204.278 283.805 203.996C284.483 203.67 284.964 202.935 285.134 201.946L288.074 184.447C288.413 182.412 287.339 179.966 285.685 179.019L239.803 152.531C239.082 152.121 238.347 152.05 237.74 152.333C237.061 152.658 236.581 153.393 236.425 154.368L233.485 171.867C233.146 173.903 234.22 176.348 235.874 177.295L281.741 203.784L281.755 203.798Z" fill="#42E8E0"/>
<path style="mix-blend-mode:lighten" opacity="0.5" d="M244.725 145.901C245.531 146.368 246.266 146.198 246.534 145.463L251.877 130.848C252.485 129.18 254.987 130.692 255.51 133.039L258.803 147.753C259.044 148.827 259.793 149.901 260.641 150.382L261.432 150.834C262.196 151.272 262.888 151.145 263.185 150.509L264.274 148.205C264.952 146.778 267.199 148.12 267.807 150.325C268.09 151.343 268.797 152.318 269.588 152.771L270.281 153.167C271.115 153.647 271.85 153.449 272.104 152.672L273.094 149.619C273.659 147.894 276.161 149.336 276.726 151.696L280.02 165.308C280.274 166.383 281.023 167.429 281.871 167.895L244.711 145.873L244.725 145.901Z" fill="url(#paint7_linear_5418_623)"/>
<path d="M276.065 197.889C275.146 197.38 274.341 196.25 274.058 195.091L270.765 181.479C270.411 180.037 269.238 178.92 268.418 178.878C268.093 178.864 267.867 179.033 267.74 179.415L266.75 182.468C266.609 182.906 266.34 183.203 265.959 183.359C265.521 183.528 264.998 183.458 264.46 183.147L263.768 182.751C262.906 182.256 262.142 181.21 261.831 180.108C261.436 178.708 260.347 177.705 259.57 177.634C259.259 177.606 259.033 177.733 258.891 178.044L257.803 180.348C257.633 180.701 257.365 180.942 257.026 181.055C256.602 181.182 256.107 181.111 255.598 180.814L254.806 180.362C253.874 179.825 253.082 178.68 252.828 177.521L249.534 162.807C249.209 161.351 248.036 160.206 247.202 160.149C246.877 160.149 246.651 160.291 246.509 160.644L241.152 175.259C240.997 175.669 240.728 175.952 240.361 176.093C239.937 176.249 239.414 176.164 238.891 175.867L239.216 175.316C239.569 175.514 239.894 175.584 240.149 175.486C240.332 175.415 240.474 175.274 240.559 175.033L245.916 160.418C246.142 159.796 246.637 159.443 247.244 159.499C248.333 159.57 249.76 160.856 250.17 162.651L253.464 177.365C253.69 178.355 254.368 179.344 255.146 179.797L255.937 180.249C256.276 180.447 256.602 180.503 256.842 180.433C257.011 180.376 257.153 180.249 257.238 180.065L258.326 177.761C258.58 177.224 259.061 176.927 259.641 176.998C260.8 177.097 262.043 178.383 262.467 179.938C262.722 180.871 263.386 181.776 264.107 182.2L264.8 182.595C265.153 182.807 265.492 182.864 265.747 182.765C265.931 182.694 266.072 182.525 266.157 182.284L267.146 179.231C267.344 178.609 267.81 178.256 268.404 178.256H268.461C269.535 178.298 270.977 179.542 271.401 181.337L274.694 194.949C274.934 195.924 275.627 196.914 276.39 197.338L276.079 197.903L276.065 197.889Z" fill="#42E8E0"/>
<path d="M257.663 107.172C256.998 107.172 256.306 106.974 255.655 106.607L219.781 85.8995C217.562 84.6273 216.332 81.5318 217.025 79.0299C217.378 77.7578 218.156 76.8249 219.202 76.3867C220.234 75.9627 221.393 76.0758 222.481 76.7118L258.355 97.4193C260.574 98.7056 261.804 101.787 261.112 104.289C260.758 105.561 259.981 106.494 258.935 106.932C258.525 107.102 258.101 107.186 257.663 107.186V107.172ZM220.488 76.7825C220.135 76.7825 219.781 76.8532 219.456 76.9804C218.594 77.3338 217.944 78.1253 217.661 79.1854C217.039 81.4328 218.142 84.1891 220.121 85.3341L255.995 106.042C256.913 106.565 257.875 106.678 258.709 106.324C259.571 105.971 260.221 105.179 260.504 104.119C261.126 101.872 260.023 99.1155 258.044 97.9706L222.17 77.2631C221.619 76.938 221.039 76.7825 220.488 76.7825Z" fill="#42E8E0"/>
<defs>
<linearGradient id="paint0_linear_5418_623" x1="302.017" y1="265.514" x2="11.3288" y2="265.514" gradientUnits="userSpaceOnUse">
<stop stop-color="#42E8E0"/>
<stop offset="0.15" stop-color="#42E3DF"/>
<stop offset="0.33" stop-color="#44D4DE"/>
<stop offset="0.52" stop-color="#48BDDD"/>
<stop offset="0.72" stop-color="#4D9BDA"/>
<stop offset="0.93" stop-color="#5471D8"/>
<stop offset="1" stop-color="#5761D7"/>
</linearGradient>
<linearGradient id="paint1_linear_5418_623" x1="342.274" y1="130.947" x2="121.318" y2="130.947" gradientUnits="userSpaceOnUse">
<stop stop-color="#C0BFF6"/>
<stop offset="0.29" stop-color="#C4C3F6"/>
<stop offset="0.64" stop-color="#D2D2F9"/>
<stop offset="1" stop-color="#E9E9FD"/>
</linearGradient>
<linearGradient id="paint2_linear_5418_623" x1="342.276" y1="187.613" x2="304.338" y2="187.613" gradientUnits="userSpaceOnUse">
<stop stop-color="#5761D7"/>
<stop offset="0.18" stop-color="#5B65D8"/>
<stop offset="0.39" stop-color="#6A72DE"/>
<stop offset="0.61" stop-color="#8188E8"/>
<stop offset="0.85" stop-color="#A2A6F5"/>
<stop offset="1" stop-color="#BCBEFF"/>
</linearGradient>
<linearGradient id="paint3_linear_5418_623" x1="312.672" y1="249.439" x2="0.589844" y2="249.439" gradientUnits="userSpaceOnUse">
<stop stop-color="#5761D7"/>
<stop offset="0.18" stop-color="#5B65D8"/>
<stop offset="0.39" stop-color="#6A72DE"/>
<stop offset="0.61" stop-color="#8188E8"/>
<stop offset="0.85" stop-color="#A2A6F5"/>
<stop offset="1" stop-color="#BCBEFF"/>
</linearGradient>
<linearGradient id="paint4_linear_5418_623" x1="451.311" y1="240.901" x2="-8.53674" y2="240.901" gradientUnits="userSpaceOnUse">
<stop stop-color="#C0BFF6"/>
<stop offset="0.29" stop-color="#C4C3F6"/>
<stop offset="0.64" stop-color="#D2D2F9"/>
<stop offset="1" stop-color="#E9E9FD"/>
</linearGradient>
<linearGradient id="paint5_linear_5418_623" x1="432.658" y1="180.756" x2="120.59" y2="180.756" gradientUnits="userSpaceOnUse">
<stop stop-color="#5761D7"/>
<stop offset="0.18" stop-color="#5B65D8"/>
<stop offset="0.39" stop-color="#6A72DE"/>
<stop offset="0.61" stop-color="#8188E8"/>
<stop offset="0.85" stop-color="#A2A6F5"/>
<stop offset="1" stop-color="#BCBEFF"/>
</linearGradient>
<linearGradient id="paint6_linear_5418_623" x1="327.8" y1="172.218" x2="15.5624" y2="172.218" gradientUnits="userSpaceOnUse">
<stop stop-color="#C0BFF6"/>
<stop offset="0.29" stop-color="#C4C3F6"/>
<stop offset="0.64" stop-color="#D2D2F9"/>
<stop offset="1" stop-color="#E9E9FD"/>
</linearGradient>
<linearGradient id="paint7_linear_5418_623" x1="248.245" y1="140.799" x2="314.155" y2="168.998" gradientUnits="userSpaceOnUse">
<stop stop-color="#42E8E0"/>
<stop offset="0.11" stop-color="#36B5BF"/>
<stop offset="0.22" stop-color="#2C87A0"/>
<stop offset="0.34" stop-color="#235F86"/>
<stop offset="0.46" stop-color="#1B3E71"/>
<stop offset="0.58" stop-color="#162560"/>
<stop offset="0.71" stop-color="#121355"/>
<stop offset="0.85" stop-color="#0F084E"/>
<stop offset="1" stop-color="#0F054C"/>
</linearGradient>
</defs>
</svg>
