<svg width="338" height="350" viewBox="0 0 338 350" fill="none" xmlns="http://www.w3.org/2000/svg">
<path d="M146.72 350C144.113 350 141.506 349.332 139.178 347.987L41.1692 291.395C40.2323 290.857 39.6758 289.883 39.6758 288.807C39.6758 287.722 40.2323 286.757 41.1692 286.219L218.033 184.11L218.376 184.314L323.583 245.052C324.52 245.59 325.076 246.564 325.076 247.64C325.076 248.716 324.52 249.69 323.583 250.228L154.261 347.987C151.933 349.332 149.326 350 146.72 350ZM218.023 185.715L41.8556 287.425C41.3547 287.712 41.0579 288.232 41.0579 288.807C41.0579 289.382 41.3547 289.901 41.8556 290.189L139.865 346.781C144.085 349.221 149.335 349.221 153.565 346.781L322.887 249.023C323.388 248.735 323.685 248.216 323.685 247.64C323.685 247.065 323.388 246.546 322.887 246.258L218.023 185.715Z" fill="url(#paint0_linear_5418_1020)"/>
<path d="M218.244 142.61L194.655 2.6644L196.547 1.86668L193.7 0.234122V0.252674C193.152 -0.118362 192.373 -0.090534 191.511 0.401088L2.98749 109.244C1.43842 110.135 0.26966 112.426 0.538661 114.031L24.3128 255.089C24.4333 255.822 24.8044 256.314 25.3053 256.527L28.0973 258.141L28.5797 255.534L28.422 255.581L215.804 147.396C217.353 146.506 218.522 144.214 218.253 142.61H218.244Z" fill="url(#paint1_linear_5418_1020)"/>
<path d="M4.03492 113.066L0.936767 111.693C0.593559 112.491 0.417324 113.326 0.53791 114.031L24.312 255.089C24.4326 255.822 24.8036 256.314 25.3045 256.527L28.0966 258.141L28.5789 255.535L28.4212 255.581L37.9012 250.108L4.0442 113.066H4.03492Z" fill="url(#paint2_linear_5418_1020)"/>
<path d="M218.76 149.094L30.2366 257.938C28.7803 258.782 27.5373 258.29 27.2776 256.788L3.5035 115.729C3.2345 114.124 4.40327 111.833 5.95234 110.943L194.476 2.09015C195.932 1.24605 197.175 1.73767 197.435 3.24036L221.209 144.299C221.478 145.904 220.309 148.195 218.76 149.085V149.094Z" fill="#24126A"/>
<g opacity="0.51">
<path d="M191.996 11.0957L10.2812 116.015L32.8124 248.865L214.416 144.019L191.996 11.0957Z" fill="#453C9E"/>
</g>
<path d="M337.259 215.881L326.972 221.251L223.805 161.691C222.08 160.698 219.066 160.819 217.071 161.969L39.1411 264.7C37.4343 263.744 29.6797 260.015 29.6797 260.015L33.4457 269.829C33.4457 269.829 33.455 269.82 33.4643 269.82C33.6219 270.256 33.9559 270.664 34.5124 270.989L143.17 333.721C144.896 334.714 147.91 334.593 149.904 333.443L331.981 228.32C332.797 227.846 333.298 227.271 333.511 226.696H333.53L337.268 215.89L337.259 215.881Z" fill="url(#paint3_linear_5418_1020)"/>
<path d="M335.663 217.568L149.06 325.308C147.019 326.486 143.931 326.616 142.159 325.595L30.8018 261.304C29.0301 260.284 29.2528 258.503 31.2935 257.316L217.896 149.576C219.937 148.398 223.026 148.268 224.798 149.289L336.155 213.58C337.927 214.6 337.704 216.381 335.663 217.568Z" fill="url(#paint4_linear_5418_1020)"/>
<path d="M92.7773 302.007V299.957C92.7773 299.762 92.8979 299.67 93.0371 299.762L100.254 303.927C100.402 304.011 100.513 304.233 100.513 304.428V306.478C100.513 306.673 100.393 306.766 100.254 306.673L93.0371 302.508C92.8887 302.424 92.7773 302.202 92.7773 302.007Z" fill="#2842A2"/>
<path d="M103.57 308.24V306.19C103.57 305.996 103.691 305.903 103.83 305.996L111.047 310.161C111.195 310.244 111.306 310.467 111.306 310.661V312.711C111.306 312.906 111.186 312.999 111.047 312.906L103.83 308.741C103.682 308.658 103.57 308.435 103.57 308.24Z" fill="#2842A2"/>
<path d="M59.8366 255.285L214.911 165.754C215.94 165.16 217.221 165.16 218.25 165.754L273.47 197.7C274.258 198.155 274.258 199.305 273.47 199.759L118.469 289.244C117.44 289.837 116.169 289.837 115.13 289.244L59.8366 257.335C59.0388 256.88 59.0388 255.73 59.8366 255.275V255.285Z" fill="#ADB1F2"/>
<path d="M59.8366 257.343L60.3931 257.668L214.911 168.461C215.941 167.868 217.221 167.868 218.25 168.461L272.913 200.092L273.47 199.768C274.267 199.313 274.267 198.163 273.47 197.708L218.25 165.762C217.221 165.169 215.941 165.159 214.911 165.762L59.8366 255.293C59.0388 255.748 59.0388 256.898 59.8366 257.352V257.343Z" fill="#9198DB"/>
<path d="M222.41 173.851L87.7056 251.62L81.7227 248.16L216.418 170.391L222.41 173.851Z" fill="#24126A"/>
<path d="M237.095 182.32L110.749 255.265L104.766 251.815L231.103 178.869L237.095 182.32Z" fill="#24126A"/>
<path d="M246.66 187.848L97.9024 273.733L91.9102 270.273L240.668 184.388L246.66 187.848Z" fill="#24126A"/>
<path d="M256.222 193.367L107.465 279.253L101.473 275.793L250.23 189.907L256.222 193.367Z" fill="#24126A"/>
<path d="M265.781 198.886L117.023 284.772L111.031 281.312L259.789 195.426L265.781 198.886Z" fill="#24126A"/>
<path d="M79.5728 256.313L73.5806 259.773L67.5977 256.313L73.5806 252.853L79.5728 256.313Z" fill="#24126A"/>
<path d="M100.694 261.072L88.2642 268.251L82.2812 264.791L94.7109 257.612L100.694 261.072Z" fill="#24126A"/>
<path d="M220.875 276.953L262.691 252.817C264.324 251.871 264.324 250.341 262.691 249.404L234.103 232.893C232.47 231.947 229.817 231.947 228.185 232.893L186.369 257.029C184.736 257.975 184.736 259.505 186.369 260.442L214.957 276.953C216.59 277.899 219.243 277.899 220.875 276.953Z" fill="url(#paint5_linear_5418_1020)"/>
<path d="M186.37 258.419L228.186 234.284C229.819 233.337 232.471 233.337 234.104 234.284L262.692 250.795C263.193 251.082 263.527 251.435 263.722 251.806C264.158 250.98 263.824 250.053 262.692 249.394L234.104 232.883C232.471 231.937 229.819 231.937 228.186 232.883L186.37 257.019C185.239 257.668 184.914 258.605 185.341 259.431C185.535 259.059 185.86 258.716 186.37 258.419Z" fill="#9198DB"/>
<g opacity="0.11">
<mask id="mask0_5418_1020" style="mask-type:luminance" maskUnits="userSpaceOnUse" x="10" y="11" width="205" height="238">
<path d="M191.996 11.0957L10.2812 116.015L32.8124 248.865L214.416 144.019L191.996 11.0957Z" fill="white"/>
</mask>
<g mask="url(#mask0_5418_1020)">
<path d="M218.093 149.362L31.4898 257.102C29.4491 258.28 26.3603 258.41 24.5886 257.389L-86.7685 193.089C-88.5402 192.069 -88.3176 190.288 -86.2769 189.1L100.326 81.3608C102.367 80.1828 105.456 80.0529 107.227 81.0733L218.585 145.364C220.356 146.385 220.134 148.166 218.093 149.353V149.362Z" fill="url(#paint6_linear_5418_1020)"/>
<path d="M30.9338 168.675L72.7495 144.539C74.3821 143.593 74.3821 142.062 72.7495 141.125L44.1613 124.614C42.5287 123.668 39.8758 123.668 38.2432 124.614L-3.57246 148.75C-5.20501 149.696 -5.20501 151.227 -3.57246 152.164L25.0158 168.675C26.6484 169.621 29.3013 169.621 30.9338 168.675Z" fill="url(#paint7_linear_5418_1020)"/>
<path d="M-3.58286 150.151L38.2328 126.015C39.8654 125.069 42.5183 125.069 44.1509 126.015L72.7391 142.526C73.24 142.814 73.574 143.166 73.7688 143.537C74.2047 142.712 73.8708 141.784 72.7391 141.125L44.1509 124.614C42.5183 123.668 39.8654 123.668 38.2328 124.614L-3.58286 148.75C-4.71452 149.4 -5.03918 150.336 -4.61248 151.162C-4.41769 150.791 -4.09303 150.448 -3.58286 150.151Z" fill="#9198DB"/>
<path d="M-21.9603 206.399L133.114 116.869C134.144 116.275 135.424 116.275 136.453 116.869L191.673 148.815C192.461 149.269 192.461 150.419 191.673 150.874L36.6726 240.358C35.643 240.952 34.3722 240.952 33.3333 240.358L-21.9603 208.449C-22.758 207.995 -22.758 206.845 -21.9603 206.39V206.399Z" fill="#ADB1F2"/>
<path d="M-21.9603 208.468L-21.4037 208.793L133.114 119.586C134.144 118.993 135.424 118.993 136.453 119.586L191.116 151.217L191.673 150.893C192.47 150.438 192.47 149.288 191.673 148.833L136.453 116.887C135.424 116.294 134.144 116.284 133.114 116.887L-21.9603 206.418C-22.758 206.873 -22.758 208.023 -21.9603 208.477V208.468Z" fill="#9198DB"/>
<path d="M177.223 146.644L42.1289 224.636L47.4811 227.734L182.566 149.733L177.223 146.644Z" fill="#24126A"/>
<path d="M162.98 138.425L34.5742 212.558L39.9264 215.647L168.333 141.514L162.98 138.425Z" fill="#24126A"/>
<path d="M24.9937 218.097L13 225.016L18.3522 228.105L30.3366 221.186L24.9937 218.097Z" fill="#24126A"/>
<path d="M35.5827 228.421L27.2344 233.235L32.5866 236.324L40.9349 231.51L35.5827 228.421Z" fill="#24126A"/>
<path d="M154.06 133.277L4.07812 219.868L9.43031 222.957L159.412 136.366L154.06 133.277Z" fill="#24126A"/>
<path d="M145.146 128.13L-4.83594 214.72L0.516247 217.809L150.498 131.219L145.146 128.13Z" fill="#24126A"/>
<path d="M136.224 122.981L-13.7578 209.572L-8.40563 212.661L141.576 126.07L136.224 122.981Z" fill="#24126A"/>
</g>
</g>
<path opacity="0.3" d="M175.292 293.26L304.441 218.691C304.413 218.357 304.236 217.995 303.977 217.754L174.355 292.592L175.292 293.25V293.26Z" fill="white"/>
<path opacity="0.3" d="M169.818 45.9922L41.3281 120.171L42.265 120.83L170.606 46.7343C170.43 46.3447 170.115 46.0386 169.818 45.9829V45.9922Z" fill="white"/>
<path d="M303.763 217.587L217.47 167.766C217.47 167.766 217.396 167.738 217.359 167.729V167.71L208.482 158.277L170.654 46.8827C170.487 46.391 170.079 45.9922 169.736 45.9922L167.927 45.9644C167.853 45.9644 167.788 45.9829 167.733 46.02L40.9219 119.272L81.1978 232.419L88.7113 241.602L106.846 252.566L162.724 284.364L177.426 294.79L304.237 221.538C304.357 221.464 304.431 221.316 304.431 221.093V218.774C304.431 218.338 304.125 217.809 303.745 217.587H303.763Z" fill="url(#paint8_linear_5418_1020)"/>
<path d="M176.943 290.848L90.6496 241.027C90.6496 241.027 90.5754 240.999 90.5383 240.99V240.971L81.6613 231.538L43.8342 120.143C43.6673 119.652 43.2591 119.253 42.9159 119.253L41.1164 119.225C40.7732 119.225 40.634 119.615 40.801 120.097L78.6281 231.491C78.795 231.983 79.2032 232.382 79.5464 232.382L79.9824 232.855C79.9638 233.207 80.14 233.671 80.4462 234.005L88.6182 242.91C88.9243 243.244 89.2768 243.355 89.4994 243.225L89.9632 243.735C89.9632 244.171 90.2693 244.7 90.6496 244.923L176.943 294.743C177.324 294.966 177.63 294.781 177.63 294.345V292.026C177.63 291.59 177.324 291.061 176.943 290.838V290.848Z" fill="url(#paint9_linear_5418_1020)"/>
<path d="M90.6485 241.027L217.366 167.728L208.489 158.267L81.6602 231.537L90.6485 241.027Z" fill="#5351AF"/>
<path opacity="0.48" d="M83.1377 231.648L76.7188 129.929L203.539 56.6587L209.958 158.387L83.1377 231.648Z" fill="url(#paint10_linear_5418_1020)"/>
<path opacity="0.48" d="M84.2539 231.881L95.1902 140.708L222.01 67.4473L211.083 158.62L84.2539 231.881Z" fill="url(#paint11_linear_5418_1020)"/>
<path opacity="0.48" d="M85.4219 232.41L113.24 155.577L240.069 82.3164L212.242 159.149L85.4219 232.41Z" fill="url(#paint12_linear_5418_1020)"/>
<path opacity="0.48" d="M86.5898 233.217L130.149 173.916L256.969 100.646L213.41 159.956L86.5898 233.217Z" fill="url(#paint13_linear_5418_1020)"/>
<path opacity="0.48" d="M87.6992 234.265L145.191 194.954L272.011 121.693L214.519 161.004L87.6992 234.265Z" fill="url(#paint14_linear_5418_1020)"/>
<path opacity="0.48" d="M215.552 162.256L284.574 144.566L157.754 217.837L88.7227 235.517L215.552 162.256Z" fill="url(#paint15_linear_5418_1020)"/>
<path opacity="0.48" d="M216.429 163.647L294.133 168.332L167.304 241.593L89.6094 236.908L216.429 163.647Z" fill="url(#paint16_linear_5418_1020)"/>
<path opacity="0.48" d="M217.14 165.132L300.28 191.986L173.46 265.246L90.3203 238.393L217.14 165.132Z" fill="url(#paint17_linear_5418_1020)"/>
<path opacity="0.48" d="M217.652 166.644L302.777 214.544L175.957 287.814L90.832 239.905L217.652 166.644Z" fill="url(#paint18_linear_5418_1020)"/>
<path opacity="0.48" d="M208.937 158.462L82.1169 231.723L58.6211 123.677L185.441 50.4165L208.937 158.462Z" fill="url(#paint19_linear_5418_1020)"/>
<defs>
<linearGradient id="paint0_linear_5418_1020" x1="39.6665" y1="267.046" x2="325.086" y2="267.046" gradientUnits="userSpaceOnUse">
<stop stop-color="#42E8E0"/>
<stop offset="0.15" stop-color="#42E3DF"/>
<stop offset="0.33" stop-color="#44D4DE"/>
<stop offset="0.52" stop-color="#48BDDD"/>
<stop offset="0.72" stop-color="#4D9BDA"/>
<stop offset="0.93" stop-color="#5471D8"/>
<stop offset="1" stop-color="#5761D7"/>
</linearGradient>
<linearGradient id="paint1_linear_5418_1020" x1="0.501557" y1="129.067" x2="218.281" y2="129.067" gradientUnits="userSpaceOnUse">
<stop stop-color="#C0BFF6"/>
<stop offset="0.29" stop-color="#C4C3F6"/>
<stop offset="0.64" stop-color="#D2D2F9"/>
<stop offset="1" stop-color="#E9E9FD"/>
</linearGradient>
<linearGradient id="paint2_linear_5418_1020" x1="0.500806" y1="184.917" x2="37.9012" y2="184.917" gradientUnits="userSpaceOnUse">
<stop stop-color="#5761D7"/>
<stop offset="0.18" stop-color="#5B65D8"/>
<stop offset="0.39" stop-color="#6A72DE"/>
<stop offset="0.61" stop-color="#8188E8"/>
<stop offset="0.85" stop-color="#A2A6F5"/>
<stop offset="1" stop-color="#BCBEFF"/>
</linearGradient>
<linearGradient id="paint3_linear_5418_1020" x1="29.6797" y1="247.706" x2="337.259" y2="247.706" gradientUnits="userSpaceOnUse">
<stop stop-color="#5761D7"/>
<stop offset="0.18" stop-color="#5B65D8"/>
<stop offset="0.39" stop-color="#6A72DE"/>
<stop offset="0.61" stop-color="#8188E8"/>
<stop offset="0.85" stop-color="#A2A6F5"/>
<stop offset="1" stop-color="#BCBEFF"/>
</linearGradient>
<linearGradient id="paint4_linear_5418_1020" x1="133.022" y1="237.447" x2="440.768" y2="237.447" gradientUnits="userSpaceOnUse">
<stop stop-color="#C0BFF6"/>
<stop offset="0.29" stop-color="#C4C3F6"/>
<stop offset="0.64" stop-color="#D2D2F9"/>
<stop offset="1" stop-color="#E9E9FD"/>
</linearGradient>
<linearGradient id="paint5_linear_5418_1020" x1="185.145" y1="254.914" x2="263.915" y2="254.914" gradientUnits="userSpaceOnUse">
<stop stop-color="#C0BFF6"/>
<stop offset="0.29" stop-color="#C4C3F6"/>
<stop offset="0.64" stop-color="#D2D2F9"/>
<stop offset="1" stop-color="#E9E9FD"/>
</linearGradient>
<linearGradient id="paint6_linear_5418_1020" x1="15.4518" y1="169.231" x2="323.198" y2="169.231" gradientUnits="userSpaceOnUse">
<stop stop-color="#C0BFF6"/>
<stop offset="0.29" stop-color="#C4C3F6"/>
<stop offset="0.64" stop-color="#D2D2F9"/>
<stop offset="1" stop-color="#E9E9FD"/>
</linearGradient>
<linearGradient id="paint7_linear_5418_1020" x1="-4.80615" y1="146.645" x2="73.9647" y2="146.645" gradientUnits="userSpaceOnUse">
<stop stop-color="#C0BFF6"/>
<stop offset="0.29" stop-color="#C4C3F6"/>
<stop offset="0.64" stop-color="#D2D2F9"/>
<stop offset="1" stop-color="#E9E9FD"/>
</linearGradient>
<linearGradient id="paint8_linear_5418_1020" x1="85.038" y1="80.8231" x2="233.777" y2="280.292" gradientUnits="userSpaceOnUse">
<stop stop-color="#BCBEFF"/>
<stop offset="0.48" stop-color="#5761D7"/>
<stop offset="0.58" stop-color="#5B65D8"/>
<stop offset="0.68" stop-color="#6A72DE"/>
<stop offset="0.8" stop-color="#8188E8"/>
<stop offset="0.92" stop-color="#A2A6F5"/>
<stop offset="1" stop-color="#BCBEFF"/>
</linearGradient>
<linearGradient id="paint9_linear_5418_1020" x1="-716" y1="-306.382" x2="-638.891" y2="-159.232" gradientUnits="userSpaceOnUse">
<stop stop-color="#5761D7"/>
<stop offset="1" stop-color="#5761D7"/>
</linearGradient>
<linearGradient id="paint10_linear_5418_1020" x1="76.7188" y1="144.158" x2="209.958" y2="144.158" gradientUnits="userSpaceOnUse">
<stop stop-color="#42E8E0"/>
<stop offset="0.15" stop-color="#42E3DF"/>
<stop offset="0.33" stop-color="#44D4DE"/>
<stop offset="0.52" stop-color="#48BDDD"/>
<stop offset="0.72" stop-color="#4D9BDA"/>
<stop offset="0.93" stop-color="#5471D8"/>
<stop offset="1" stop-color="#5761D7"/>
</linearGradient>
<linearGradient id="paint11_linear_5418_1020" x1="84.2539" y1="149.659" x2="222.01" y2="149.659" gradientUnits="userSpaceOnUse">
<stop stop-color="#42E8E0"/>
<stop offset="0.15" stop-color="#42E3DF"/>
<stop offset="0.33" stop-color="#44D4DE"/>
<stop offset="0.52" stop-color="#48BDDD"/>
<stop offset="0.72" stop-color="#4D9BDA"/>
<stop offset="0.93" stop-color="#5471D8"/>
<stop offset="1" stop-color="#5761D7"/>
</linearGradient>
<linearGradient id="paint12_linear_5418_1020" x1="85.4219" y1="157.358" x2="240.069" y2="157.358" gradientUnits="userSpaceOnUse">
<stop stop-color="#42E8E0"/>
<stop offset="0.15" stop-color="#42E3DF"/>
<stop offset="0.33" stop-color="#44D4DE"/>
<stop offset="0.52" stop-color="#48BDDD"/>
<stop offset="0.72" stop-color="#4D9BDA"/>
<stop offset="0.93" stop-color="#5471D8"/>
<stop offset="1" stop-color="#5761D7"/>
</linearGradient>
<linearGradient id="paint13_linear_5418_1020" x1="86.5898" y1="166.931" x2="256.969" y2="166.931" gradientUnits="userSpaceOnUse">
<stop stop-color="#42E8E0"/>
<stop offset="0.15" stop-color="#42E3DF"/>
<stop offset="0.33" stop-color="#44D4DE"/>
<stop offset="0.52" stop-color="#48BDDD"/>
<stop offset="0.72" stop-color="#4D9BDA"/>
<stop offset="0.93" stop-color="#5471D8"/>
<stop offset="1" stop-color="#5761D7"/>
</linearGradient>
<linearGradient id="paint14_linear_5418_1020" x1="87.6992" y1="177.979" x2="272.011" y2="177.979" gradientUnits="userSpaceOnUse">
<stop stop-color="#42E8E0"/>
<stop offset="0.15" stop-color="#42E3DF"/>
<stop offset="0.33" stop-color="#44D4DE"/>
<stop offset="0.52" stop-color="#48BDDD"/>
<stop offset="0.72" stop-color="#4D9BDA"/>
<stop offset="0.93" stop-color="#5471D8"/>
<stop offset="1" stop-color="#5761D7"/>
</linearGradient>
<linearGradient id="paint15_linear_5418_1020" x1="88.7227" y1="190.046" x2="284.574" y2="190.046" gradientUnits="userSpaceOnUse">
<stop stop-color="#42E8E0"/>
<stop offset="0.15" stop-color="#42E3DF"/>
<stop offset="0.33" stop-color="#44D4DE"/>
<stop offset="0.52" stop-color="#48BDDD"/>
<stop offset="0.72" stop-color="#4D9BDA"/>
<stop offset="0.93" stop-color="#5471D8"/>
<stop offset="1" stop-color="#5761D7"/>
</linearGradient>
<linearGradient id="paint16_linear_5418_1020" x1="89.6094" y1="202.615" x2="294.133" y2="202.615" gradientUnits="userSpaceOnUse">
<stop stop-color="#42E8E0"/>
<stop offset="0.15" stop-color="#42E3DF"/>
<stop offset="0.33" stop-color="#44D4DE"/>
<stop offset="0.52" stop-color="#48BDDD"/>
<stop offset="0.72" stop-color="#4D9BDA"/>
<stop offset="0.93" stop-color="#5471D8"/>
<stop offset="1" stop-color="#5761D7"/>
</linearGradient>
<linearGradient id="paint17_linear_5418_1020" x1="90.3203" y1="215.185" x2="300.28" y2="215.185" gradientUnits="userSpaceOnUse">
<stop stop-color="#42E8E0"/>
<stop offset="0.15" stop-color="#42E3DF"/>
<stop offset="0.33" stop-color="#44D4DE"/>
<stop offset="0.52" stop-color="#48BDDD"/>
<stop offset="0.72" stop-color="#4D9BDA"/>
<stop offset="0.93" stop-color="#5471D8"/>
<stop offset="1" stop-color="#5761D7"/>
</linearGradient>
<linearGradient id="paint18_linear_5418_1020" x1="90.832" y1="227.224" x2="302.777" y2="227.224" gradientUnits="userSpaceOnUse">
<stop stop-color="#42E8E0"/>
<stop offset="0.15" stop-color="#42E3DF"/>
<stop offset="0.33" stop-color="#44D4DE"/>
<stop offset="0.52" stop-color="#48BDDD"/>
<stop offset="0.72" stop-color="#4D9BDA"/>
<stop offset="0.93" stop-color="#5471D8"/>
<stop offset="1" stop-color="#5761D7"/>
</linearGradient>
<linearGradient id="paint19_linear_5418_1020" x1="58.6211" y1="141.07" x2="208.937" y2="141.07" gradientUnits="userSpaceOnUse">
<stop stop-color="#42E8E0"/>
<stop offset="0.15" stop-color="#42E3DF"/>
<stop offset="0.33" stop-color="#44D4DE"/>
<stop offset="0.52" stop-color="#48BDDD"/>
<stop offset="0.72" stop-color="#4D9BDA"/>
<stop offset="0.93" stop-color="#5471D8"/>
<stop offset="1" stop-color="#5761D7"/>
</linearGradient>
</defs>
</svg>
