<svg width="818" height="440" viewBox="0 0 818 440" fill="none" xmlns="http://www.w3.org/2000/svg">
<mask id="mask0_4956_8122" style="mask-type:alpha" maskUnits="userSpaceOnUse" x="0" y="0" width="818" height="440">
<rect width="817.09" height="440" fill="url(#paint0_radial_4956_8122)"/>
</mask>
<g mask="url(#mask0_4956_8122)">
<path d="M2 172.528C2 157.813 12.6732 145.27 27.1988 142.915L401.228 82.2736C404.389 81.7612 407.611 81.7581 410.773 82.2644L789.744 142.955C804.296 145.286 815 157.841 815 172.578V264.416C815 279.156 804.292 291.712 789.737 294.04L413.237 354.243C410.099 354.744 406.901 354.744 403.763 354.243L27.2631 294.04C12.708 291.712 2 279.156 2 264.416V172.528Z" fill="url(#paint1_radial_4956_8122)"/>
<path d="M26.0291 143.421L409 80.9975L791.971 143.421C805.276 145.59 815.047 157.083 815.047 170.563V266.218C815.047 279.698 805.276 291.191 791.971 293.36L409 355.784L26.029 293.36C12.7244 291.191 2.95312 279.698 2.95312 266.218V170.563C2.95312 157.083 12.7244 145.59 26.0291 143.421Z" stroke="url(#paint2_linear_4956_8122)" stroke-width="5"/>
<path d="M2.95312 170.563C2.95312 157.093 12.7094 145.608 25.9983 143.426L409 90.976L791.971 143.421C791.981 143.423 791.991 143.425 792.002 143.426C805.291 145.608 815.047 157.093 815.047 170.563V266.218C815.047 279.688 805.291 291.173 792.002 293.355C791.992 293.356 791.981 293.358 791.971 293.36L409 345.805L25.9983 293.355C12.7093 291.173 2.95312 279.688 2.95312 266.218V170.563Z" stroke="url(#paint3_linear_4956_8122)" stroke-width="5"/>
<path d="M2.95312 170.563C2.95312 157.104 12.6942 145.626 25.9674 143.432L409 100.956L792.033 143.432C805.306 145.626 815.047 157.104 815.047 170.563V266.218C815.047 279.677 805.306 291.156 792.033 293.35L409 335.825L25.9673 293.35C12.6942 291.156 2.95312 279.677 2.95312 266.218V170.563Z" stroke="url(#paint4_linear_4956_8122)" stroke-width="5"/>
<path d="M2.95312 170.563C2.95312 157.114 12.679 145.644 25.9362 143.437L409 110.938L792.064 143.437C805.321 145.644 815.047 157.114 815.047 170.563V266.218C815.047 279.667 805.321 291.138 792.064 293.344L409 325.843L25.936 293.344C12.6789 291.138 2.95312 279.667 2.95312 266.218V170.563Z" stroke="url(#paint5_linear_4956_8122)" stroke-width="5"/>
<path d="M2.95312 170.563C2.95312 157.125 12.6636 145.662 25.9048 143.442L409 120.922L792.095 143.442C805.336 145.662 815.047 157.125 815.047 170.563V266.218C815.047 279.656 805.336 291.12 792.095 293.339L409 315.86L25.9047 293.339C12.6636 291.12 2.95312 279.656 2.95312 266.218V170.563Z" stroke="url(#paint6_linear_4956_8122)" stroke-width="5"/>
<circle cx="409" cy="218.391" r="160" fill="url(#paint7_radial_4956_8122)" stroke="url(#paint8_linear_4956_8122)" stroke-width="40"/>
<rect x="348" y="145.5" width="122" height="33" rx="16.5" fill="#2F2F2F"/>
<path d="M372.051 168.59V166.538H375.345C375.945 166.538 376.401 166.376 376.713 166.052C377.025 165.716 377.181 165.26 377.181 164.684C377.181 164.108 377.025 163.664 376.713 163.352C376.401 163.028 375.945 162.866 375.345 162.866H372.051V161.3H375.165C376.041 161.3 376.821 161.408 377.505 161.624C378.201 161.828 378.741 162.176 379.125 162.668C379.521 163.16 379.719 163.82 379.719 164.648V164.9C379.719 165.68 379.545 166.346 379.197 166.898C378.861 167.438 378.351 167.858 377.667 168.158C376.995 168.446 376.161 168.59 375.165 168.59H372.051ZM369.909 168.59V155.27H372.411V168.59H369.909ZM372.051 162.452V160.886H374.859C375.471 160.886 375.921 160.724 376.209 160.4C376.497 160.076 376.641 159.644 376.641 159.104C376.641 158.564 376.497 158.132 376.209 157.808C375.921 157.484 375.471 157.322 374.859 157.322H372.051V155.27H374.625C376.113 155.27 377.241 155.582 378.009 156.206C378.789 156.83 379.179 157.724 379.179 158.888V159.14C379.179 159.956 378.981 160.61 378.585 161.102C378.201 161.582 377.667 161.93 376.983 162.146C376.299 162.35 375.513 162.452 374.625 162.452H372.051ZM386.407 168.842C385.567 168.842 384.829 168.698 384.193 168.41C383.569 168.122 383.047 167.738 382.627 167.258C382.219 166.766 381.907 166.22 381.691 165.62C381.487 165.02 381.385 164.408 381.385 163.784V163.442C381.385 162.794 381.487 162.17 381.691 161.57C381.907 160.958 382.219 160.418 382.627 159.95C383.047 159.47 383.563 159.092 384.175 158.816C384.787 158.528 385.495 158.384 386.299 158.384C387.355 158.384 388.237 158.618 388.945 159.086C389.665 159.542 390.205 160.148 390.565 160.904C390.925 161.648 391.105 162.452 391.105 163.316V164.216H382.447V162.686H389.539L388.765 163.442C388.765 162.818 388.675 162.284 388.495 161.84C388.315 161.396 388.039 161.054 387.667 160.814C387.307 160.574 386.851 160.454 386.299 160.454C385.747 160.454 385.279 160.58 384.895 160.832C384.511 161.084 384.217 161.45 384.013 161.93C383.821 162.398 383.725 162.962 383.725 163.622C383.725 164.234 383.821 164.78 384.013 165.26C384.205 165.728 384.499 166.1 384.895 166.376C385.291 166.64 385.795 166.772 386.407 166.772C387.019 166.772 387.517 166.652 387.901 166.412C388.285 166.16 388.531 165.854 388.639 165.494H390.943C390.799 166.166 390.523 166.754 390.115 167.258C389.707 167.762 389.185 168.152 388.549 168.428C387.925 168.704 387.211 168.842 386.407 168.842ZM393.321 168.5V155.36H395.823V168.5H393.321ZM392.097 157.232V155.36H395.823V157.232H392.097ZM402.928 168.626C402.028 168.626 401.284 168.512 400.696 168.284C400.12 168.044 399.688 167.648 399.4 167.096C399.112 166.532 398.968 165.776 398.968 164.828L398.986 155.972H401.326L401.308 164.99C401.308 165.47 401.434 165.842 401.686 166.106C401.95 166.358 402.322 166.484 402.802 166.484H404.332V168.626H402.928ZM397.42 160.562V158.726H404.332V160.562H397.42ZM410.317 168.5V158.726H412.297V162.866H412.243C412.243 161.462 412.543 160.4 413.143 159.68C413.743 158.96 414.625 158.6 415.789 158.6H416.149V160.778H415.465C414.625 160.778 413.971 161.006 413.503 161.462C413.047 161.906 412.819 162.554 412.819 163.406V168.5H410.317ZM423.692 168.5V165.602H423.278V162.38C423.278 161.816 423.14 161.396 422.864 161.12C422.588 160.844 422.162 160.706 421.586 160.706C421.286 160.706 420.926 160.712 420.506 160.724C420.086 160.736 419.66 160.754 419.228 160.778C418.808 160.79 418.43 160.808 418.094 160.832V158.708C418.37 158.684 418.682 158.66 419.03 158.636C419.378 158.612 419.732 158.6 420.092 158.6C420.464 158.588 420.812 158.582 421.136 158.582C422.144 158.582 422.978 158.714 423.638 158.978C424.31 159.242 424.814 159.656 425.15 160.22C425.498 160.784 425.672 161.522 425.672 162.434V168.5H423.692ZM420.542 168.752C419.834 168.752 419.21 168.626 418.67 168.374C418.142 168.122 417.728 167.762 417.428 167.294C417.14 166.826 416.996 166.262 416.996 165.602C416.996 164.882 417.17 164.294 417.518 163.838C417.878 163.382 418.376 163.04 419.012 162.812C419.66 162.584 420.416 162.47 421.28 162.47H423.548V163.964H421.244C420.668 163.964 420.224 164.108 419.912 164.396C419.612 164.672 419.462 165.032 419.462 165.476C419.462 165.92 419.612 166.28 419.912 166.556C420.224 166.832 420.668 166.97 421.244 166.97C421.592 166.97 421.91 166.91 422.198 166.79C422.498 166.658 422.744 166.442 422.936 166.142C423.14 165.83 423.254 165.41 423.278 164.882L423.89 165.584C423.83 166.268 423.662 166.844 423.386 167.312C423.122 167.78 422.75 168.14 422.27 168.392C421.802 168.632 421.226 168.752 420.542 168.752ZM428.352 168.5V158.726H430.332V162.92H430.152C430.152 161.924 430.284 161.096 430.548 160.436C430.812 159.764 431.202 159.26 431.718 158.924C432.246 158.588 432.9 158.42 433.68 158.42H433.788C434.952 158.42 435.834 158.798 436.434 159.554C437.034 160.298 437.334 161.414 437.334 162.902V168.5H434.832V162.686C434.832 162.086 434.658 161.6 434.31 161.228C433.974 160.856 433.506 160.67 432.906 160.67C432.294 160.67 431.796 160.862 431.412 161.246C431.04 161.618 430.854 162.122 430.854 162.758V168.5H428.352ZM446.864 168.5L443.588 163.928H442.13L446.288 158.726H448.898L445.064 163.532L445.118 162.272L449.69 168.5H446.864ZM440.024 168.5V155.36H442.526V168.5H440.024Z" fill="white"/>
<rect x="289" y="183.5" width="240" height="69" rx="34.5" fill="#2F2F2F"/>
<path d="M346.407 232.74V227.06H352.847C353.94 227.06 354.754 226.78 355.287 226.22C355.82 225.66 356.087 224.847 356.087 223.78C356.087 222.713 355.82 221.913 355.287 221.38C354.754 220.82 353.94 220.54 352.847 220.54H346.407V216.14H352.607C354.66 216.14 356.5 216.393 358.127 216.9C359.754 217.38 361.034 218.18 361.967 219.3C362.9 220.42 363.367 221.913 363.367 223.78V224.34C363.367 226.1 362.954 227.607 362.127 228.86C361.3 230.113 360.087 231.073 358.487 231.74C356.887 232.407 354.927 232.74 352.607 232.74H346.407ZM340.007 232.74V203.06H347.207V232.74H340.007ZM346.407 219.42V215.02H351.767C352.86 215.02 353.647 214.753 354.127 214.22C354.634 213.66 354.887 212.887 354.887 211.9C354.887 210.887 354.634 210.113 354.127 209.58C353.647 209.02 352.86 208.74 351.767 208.74H346.407V203.06H351.447C354.86 203.06 357.5 203.78 359.367 205.22C361.234 206.633 362.167 208.66 362.167 211.3V211.9C362.167 213.74 361.687 215.22 360.727 216.34C359.794 217.433 358.514 218.22 356.887 218.7C355.287 219.18 353.474 219.42 351.447 219.42H346.407ZM367.858 232.5V203.3H375.298V232.5H367.858ZM374.498 232.5V226.02H386.338V232.5H374.498ZM387.836 232.5L397.196 203.3H409.116L418.796 232.5H411.116L403.596 208.5L405.716 209.3H400.436L402.596 208.5L395.276 232.5H387.836ZM395.476 225.74L397.716 219.66H408.796L411.036 225.74H395.476ZM434.389 233.3C431.749 233.3 429.482 232.847 427.589 231.94C425.696 231.007 424.136 229.793 422.909 228.3C421.682 226.78 420.776 225.14 420.189 223.38C419.602 221.62 419.309 219.913 419.309 218.26V217.38C419.309 215.54 419.602 213.74 420.189 211.98C420.802 210.193 421.722 208.58 422.949 207.14C424.202 205.7 425.762 204.553 427.629 203.7C429.496 202.847 431.682 202.42 434.189 202.42C436.856 202.42 439.216 202.927 441.269 203.94C443.349 204.927 445.016 206.327 446.269 208.14C447.522 209.927 448.256 212.007 448.469 214.38H441.029C440.842 213.367 440.442 212.487 439.829 211.74C439.216 210.993 438.429 210.42 437.469 210.02C436.509 209.593 435.416 209.38 434.189 209.38C433.042 209.38 432.002 209.58 431.069 209.98C430.162 210.38 429.389 210.953 428.749 211.7C428.136 212.42 427.656 213.3 427.309 214.34C426.989 215.38 426.829 216.553 426.829 217.86C426.829 219.167 426.989 220.34 427.309 221.38C427.656 222.42 428.149 223.313 428.789 224.06C429.456 224.807 430.256 225.38 431.189 225.78C432.122 226.153 433.189 226.34 434.389 226.34C436.256 226.34 437.829 225.887 439.109 224.98C440.416 224.073 441.202 222.86 441.469 221.34H448.909C448.669 223.527 447.936 225.527 446.709 227.34C445.482 229.153 443.829 230.607 441.749 231.7C439.669 232.767 437.216 233.3 434.389 233.3ZM472.259 232.5L462.779 218.86H458.819L470.619 203.3H479.179L468.619 217.22V214.38L481.219 232.5H472.259ZM452.819 232.5V203.3H460.259V232.5H452.819Z" fill="white"/>
<rect x="345" y="257.5" width="128" height="33" rx="16.5" fill="#2F2F2F"/>
<path d="M366.657 280.5V267.36H369.213V280.5H366.657ZM368.853 280.5V278.25H374.523V280.5H368.853ZM380.677 280.842C379.837 280.842 379.099 280.698 378.463 280.41C377.839 280.122 377.317 279.738 376.897 279.258C376.489 278.766 376.177 278.22 375.961 277.62C375.757 277.02 375.655 276.408 375.655 275.784V275.442C375.655 274.794 375.757 274.17 375.961 273.57C376.177 272.958 376.489 272.418 376.897 271.95C377.317 271.47 377.833 271.092 378.445 270.816C379.057 270.528 379.765 270.384 380.569 270.384C381.625 270.384 382.507 270.618 383.215 271.086C383.935 271.542 384.475 272.148 384.835 272.904C385.195 273.648 385.375 274.452 385.375 275.316V276.216H376.717V274.686H383.809L383.035 275.442C383.035 274.818 382.945 274.284 382.765 273.84C382.585 273.396 382.309 273.054 381.937 272.814C381.577 272.574 381.121 272.454 380.569 272.454C380.017 272.454 379.549 272.58 379.165 272.832C378.781 273.084 378.487 273.45 378.283 273.93C378.091 274.398 377.995 274.962 377.995 275.622C377.995 276.234 378.091 276.78 378.283 277.26C378.475 277.728 378.769 278.1 379.165 278.376C379.561 278.64 380.065 278.772 380.677 278.772C381.289 278.772 381.787 278.652 382.171 278.412C382.555 278.16 382.801 277.854 382.909 277.494H385.213C385.069 278.166 384.793 278.754 384.385 279.258C383.977 279.762 383.455 280.152 382.819 280.428C382.195 280.704 381.481 280.842 380.677 280.842ZM389.339 280.5L386.279 270.726H388.853L391.787 280.5H389.339ZM390.077 280.5V278.448H392.723V280.5H390.077ZM391.067 280.5L393.587 270.726H395.999L393.353 280.5H391.067ZM402.052 280.842C401.212 280.842 400.474 280.698 399.838 280.41C399.214 280.122 398.692 279.738 398.272 279.258C397.864 278.766 397.552 278.22 397.336 277.62C397.132 277.02 397.03 276.408 397.03 275.784V275.442C397.03 274.794 397.132 274.17 397.336 273.57C397.552 272.958 397.864 272.418 398.272 271.95C398.692 271.47 399.208 271.092 399.82 270.816C400.432 270.528 401.14 270.384 401.944 270.384C403 270.384 403.882 270.618 404.59 271.086C405.31 271.542 405.85 272.148 406.21 272.904C406.57 273.648 406.75 274.452 406.75 275.316V276.216H398.092V274.686H405.184L404.41 275.442C404.41 274.818 404.32 274.284 404.14 273.84C403.96 273.396 403.684 273.054 403.312 272.814C402.952 272.574 402.496 272.454 401.944 272.454C401.392 272.454 400.924 272.58 400.54 272.832C400.156 273.084 399.862 273.45 399.658 273.93C399.466 274.398 399.37 274.962 399.37 275.622C399.37 276.234 399.466 276.78 399.658 277.26C399.85 277.728 400.144 278.1 400.54 278.376C400.936 278.64 401.44 278.772 402.052 278.772C402.664 278.772 403.162 278.652 403.546 278.412C403.93 278.16 404.176 277.854 404.284 277.494H406.588C406.444 278.166 406.168 278.754 405.76 279.258C405.352 279.762 404.83 280.152 404.194 280.428C403.57 280.704 402.856 280.842 402.052 280.842ZM408.966 280.5V267.36H411.468V280.5H408.966ZM407.742 269.232V267.36H411.468V269.232H407.742ZM413.928 280.5V277.62H416.736V280.5H413.928ZM413.928 274.29V271.41H416.736V274.29H413.928ZM427.417 266.982C428.389 266.982 429.211 267.15 429.883 267.486C430.567 267.81 431.119 268.26 431.539 268.836C431.959 269.412 432.265 270.084 432.457 270.852C432.649 271.608 432.745 272.412 432.745 273.264V274.056C432.745 276.204 432.199 277.836 431.107 278.952C430.027 280.056 428.437 280.608 426.337 280.608C425.881 280.608 425.455 280.596 425.059 280.572C424.663 280.548 424.267 280.512 423.871 280.464V278.322C424.267 278.37 424.669 278.406 425.077 278.43C425.497 278.454 425.947 278.466 426.427 278.466C427.435 278.466 428.227 278.292 428.803 277.944C429.379 277.596 429.787 277.086 430.027 276.414C430.279 275.742 430.405 274.908 430.405 273.912V272.742L430.981 271.914C430.969 272.838 430.783 273.606 430.423 274.218C430.075 274.818 429.589 275.274 428.965 275.586C428.341 275.886 427.627 276.036 426.823 276.036C425.887 276.036 425.089 275.85 424.429 275.478C423.769 275.106 423.259 274.59 422.899 273.93C422.551 273.27 422.377 272.502 422.377 271.626C422.377 270.714 422.581 269.91 422.989 269.214C423.397 268.506 423.973 267.96 424.717 267.576C425.473 267.18 426.373 266.982 427.417 266.982ZM427.471 269.124C426.907 269.124 426.427 269.232 426.031 269.448C425.635 269.652 425.335 269.94 425.131 270.312C424.927 270.684 424.825 271.11 424.825 271.59C424.825 272.082 424.921 272.514 425.113 272.886C425.317 273.258 425.611 273.546 425.995 273.75C426.379 273.954 426.841 274.056 427.381 274.056C427.897 274.056 428.365 273.966 428.785 273.786C429.217 273.594 429.553 273.318 429.793 272.958C430.045 272.586 430.171 272.13 430.171 271.59C430.171 271.122 430.069 270.702 429.865 270.33C429.673 269.958 429.373 269.664 428.965 269.448C428.569 269.232 428.071 269.124 427.471 269.124ZM434.198 281.58L437.906 266.46H440.408L436.7 281.58H434.198ZM446.56 266.982C447.532 266.982 448.354 267.15 449.026 267.486C449.71 267.81 450.262 268.26 450.682 268.836C451.102 269.412 451.408 270.084 451.6 270.852C451.792 271.608 451.888 272.412 451.888 273.264V274.056C451.888 276.204 451.342 277.836 450.25 278.952C449.17 280.056 447.58 280.608 445.48 280.608C445.024 280.608 444.598 280.596 444.202 280.572C443.806 280.548 443.41 280.512 443.014 280.464V278.322C443.41 278.37 443.812 278.406 444.22 278.43C444.64 278.454 445.09 278.466 445.57 278.466C446.578 278.466 447.37 278.292 447.946 277.944C448.522 277.596 448.93 277.086 449.17 276.414C449.422 275.742 449.548 274.908 449.548 273.912V272.742L450.124 271.914C450.112 272.838 449.926 273.606 449.566 274.218C449.218 274.818 448.732 275.274 448.108 275.586C447.484 275.886 446.77 276.036 445.966 276.036C445.03 276.036 444.232 275.85 443.572 275.478C442.912 275.106 442.402 274.59 442.042 273.93C441.694 273.27 441.52 272.502 441.52 271.626C441.52 270.714 441.724 269.91 442.132 269.214C442.54 268.506 443.116 267.96 443.86 267.576C444.616 267.18 445.516 266.982 446.56 266.982ZM446.614 269.124C446.05 269.124 445.57 269.232 445.174 269.448C444.778 269.652 444.478 269.94 444.274 270.312C444.07 270.684 443.968 271.11 443.968 271.59C443.968 272.082 444.064 272.514 444.256 272.886C444.46 273.258 444.754 273.546 445.138 273.75C445.522 273.954 445.984 274.056 446.524 274.056C447.04 274.056 447.508 273.966 447.928 273.786C448.36 273.594 448.696 273.318 448.936 272.958C449.188 272.586 449.314 272.13 449.314 271.59C449.314 271.122 449.212 270.702 449.008 270.33C448.816 269.958 448.516 269.664 448.108 269.448C447.712 269.232 447.214 269.124 446.614 269.124Z" fill="white"/>
<circle opacity="0.2" cx="409" cy="220" r="217.5" stroke="#646464" stroke-width="5"/>
<circle opacity="0.4" cx="409" cy="219" r="207.5" stroke="#646464" stroke-width="5"/>
<circle opacity="0.6" cx="409" cy="218.781" r="197.5" stroke="#646464" stroke-width="5"/>
<circle opacity="0.8" cx="409" cy="218.781" r="187.5" stroke="#646464" stroke-width="5"/>
<circle opacity="0.6" cx="409" cy="218.781" r="177.5" stroke="#646464" stroke-width="5"/>
<circle opacity="0.7" cx="409" cy="218.781" r="167.5" stroke="#646464" stroke-width="5"/>
<circle opacity="0.8" cx="409" cy="218.781" r="157.5" stroke="#646464" stroke-width="5"/>
<circle opacity="0.9" cx="409" cy="218.781" r="147.5" stroke="#646464" stroke-width="5"/>
</g>
<defs>
<radialGradient id="paint0_radial_4956_8122" cx="0" cy="0" r="1" gradientUnits="userSpaceOnUse" gradientTransform="translate(408.545 220) scale(408.455 758.51)">
<stop offset="0.550856"/>
<stop offset="1" stop-opacity="0"/>
</radialGradient>
<radialGradient id="paint1_radial_4956_8122" cx="0" cy="0" r="1" gradientUnits="userSpaceOnUse" gradientTransform="translate(408.5 218) scale(406.5 1208.35)">
<stop offset="0.430604" stop-color="#2B2B2B"/>
<stop offset="1" stop-color="#646464"/>
</radialGradient>
<linearGradient id="paint2_linear_4956_8122" x1="5.00001" y1="218.391" x2="748.847" y2="-8.41095" gradientUnits="userSpaceOnUse">
<stop stop-color="#2B2B2B"/>
<stop offset="0.348958" stop-color="#646464"/>
<stop offset="0.625" stop-color="#646464"/>
<stop offset="1" stop-color="#2B2B2B"/>
</linearGradient>
<linearGradient id="paint3_linear_4956_8122" x1="5.00001" y1="218.391" x2="738.875" y2="-22.5826" gradientUnits="userSpaceOnUse">
<stop stop-color="#2B2B2B"/>
<stop offset="0.348958" stop-color="#646464"/>
<stop offset="0.625" stop-color="#646464"/>
<stop offset="1" stop-color="#2B2B2B"/>
</linearGradient>
<linearGradient id="paint4_linear_4956_8122" x1="5.00001" y1="218.391" x2="726.681" y2="-38.326" gradientUnits="userSpaceOnUse">
<stop stop-color="#2B2B2B"/>
<stop offset="0.348958" stop-color="#646464"/>
<stop offset="0.625" stop-color="#646464"/>
<stop offset="1" stop-color="#2B2B2B"/>
</linearGradient>
<linearGradient id="paint5_linear_4956_8122" x1="5.00001" y1="218.391" x2="711.594" y2="-55.8095" gradientUnits="userSpaceOnUse">
<stop stop-color="#2B2B2B"/>
<stop offset="0.348958" stop-color="#646464"/>
<stop offset="0.625" stop-color="#646464"/>
<stop offset="1" stop-color="#2B2B2B"/>
</linearGradient>
<linearGradient id="paint6_linear_4956_8122" x1="5.00001" y1="218.391" x2="692.693" y2="-75.1613" gradientUnits="userSpaceOnUse">
<stop stop-color="#2B2B2B"/>
<stop offset="0.348958" stop-color="#646464"/>
<stop offset="0.625" stop-color="#646464"/>
<stop offset="1" stop-color="#2B2B2B"/>
</linearGradient>
<radialGradient id="paint7_radial_4956_8122" cx="0" cy="0" r="1" gradientUnits="userSpaceOnUse" gradientTransform="translate(409 218.391) rotate(90) scale(140)">
<stop stop-color="#646464"/>
<stop offset="1" stop-color="#2E2E2E"/>
</radialGradient>
<linearGradient id="paint8_linear_4956_8122" x1="409" y1="356.833" x2="382.774" y2="80.7264" gradientUnits="userSpaceOnUse">
<stop stop-color="#2E2E2E"/>
<stop offset="0.348958" stop-color="#646464"/>
<stop offset="0.625" stop-color="#646464"/>
<stop offset="1" stop-color="#2E2E2E"/>
</linearGradient>
</defs>
</svg>
