<svg width="818" height="440" viewBox="0 0 818 440" fill="none" xmlns="http://www.w3.org/2000/svg">
<mask id="mask0_4956_14501" style="mask-type:alpha" maskUnits="userSpaceOnUse" x="0" y="0" width="818" height="440">
<rect width="817.09" height="440" fill="url(#paint0_radial_4956_14501)"/>
</mask>
<g mask="url(#mask0_4956_14501)">
<path d="M2 172.528C2 157.813 12.6732 145.27 27.1988 142.915L401.228 82.2736C404.389 81.7612 407.611 81.7581 410.773 82.2644L789.744 142.955C804.296 145.286 815 157.841 815 172.578V264.416C815 279.156 804.292 291.712 789.737 294.04L413.237 354.243C410.099 354.744 406.901 354.744 403.763 354.243L27.2631 294.04C12.708 291.712 2 279.156 2 264.416V172.528Z" fill="url(#paint1_radial_4956_14501)" fill-opacity="0.7"/>
<path d="M26.0291 143.421L409 80.9975L791.971 143.421C805.276 145.59 815.047 157.083 815.047 170.563V266.218C815.047 279.698 805.276 291.191 791.971 293.36L409 355.784L26.029 293.36C12.7244 291.191 2.95312 279.698 2.95312 266.218V170.563C2.95312 157.083 12.7244 145.59 26.0291 143.421Z" stroke="url(#paint2_linear_4956_14501)" stroke-width="5"/>
<path d="M2.95312 170.563C2.95312 157.093 12.7094 145.608 25.9983 143.426L409 90.976L791.971 143.421C791.981 143.423 791.991 143.425 792.002 143.426C805.291 145.608 815.047 157.093 815.047 170.563V266.218C815.047 279.688 805.291 291.173 792.002 293.355C791.992 293.356 791.981 293.358 791.971 293.36L409 345.805L25.9983 293.355C12.7093 291.173 2.95312 279.688 2.95312 266.218V170.563Z" stroke="url(#paint3_linear_4956_14501)" stroke-width="5"/>
<path d="M2.95312 170.563C2.95312 157.104 12.6942 145.626 25.9674 143.432L409 100.956L792.033 143.432C805.306 145.626 815.047 157.104 815.047 170.563V266.218C815.047 279.677 805.306 291.156 792.033 293.35L409 335.825L25.9673 293.35C12.6942 291.156 2.95312 279.677 2.95312 266.218V170.563Z" stroke="url(#paint4_linear_4956_14501)" stroke-width="5"/>
<path d="M2.95312 170.563C2.95312 157.114 12.679 145.644 25.9362 143.437L409 110.938L792.064 143.437C805.321 145.644 815.047 157.114 815.047 170.563V266.218C815.047 279.667 805.321 291.138 792.064 293.344L409 325.843L25.936 293.344C12.6789 291.138 2.95312 279.667 2.95312 266.218V170.563Z" stroke="url(#paint5_linear_4956_14501)" stroke-width="5"/>
<path d="M2.95312 170.563C2.95312 157.125 12.6636 145.662 25.9048 143.442L409 120.922L792.095 143.442C805.336 145.662 815.047 157.125 815.047 170.563V266.218C815.047 279.656 805.336 291.12 792.095 293.339L409 315.86L25.9047 293.339C12.6636 291.12 2.95312 279.656 2.95312 266.218V170.563Z" stroke="url(#paint6_linear_4956_14501)" stroke-width="5"/>
<circle cx="409" cy="218.391" r="160" fill="url(#paint7_radial_4956_14501)" stroke="url(#paint8_linear_4956_14501)" stroke-width="40"/>
<rect x="348" y="145.5" width="122" height="33" rx="16.5" fill="#0B72D5"/>
<path d="M372.051 168.59V166.538H375.345C375.945 166.538 376.401 166.376 376.713 166.052C377.025 165.716 377.181 165.26 377.181 164.684C377.181 164.108 377.025 163.664 376.713 163.352C376.401 163.028 375.945 162.866 375.345 162.866H372.051V161.3H375.165C376.041 161.3 376.821 161.408 377.505 161.624C378.201 161.828 378.741 162.176 379.125 162.668C379.521 163.16 379.719 163.82 379.719 164.648V164.9C379.719 165.68 379.545 166.346 379.197 166.898C378.861 167.438 378.351 167.858 377.667 168.158C376.995 168.446 376.161 168.59 375.165 168.59H372.051ZM369.909 168.59V155.27H372.411V168.59H369.909ZM372.051 162.452V160.886H374.859C375.471 160.886 375.921 160.724 376.209 160.4C376.497 160.076 376.641 159.644 376.641 159.104C376.641 158.564 376.497 158.132 376.209 157.808C375.921 157.484 375.471 157.322 374.859 157.322H372.051V155.27H374.625C376.113 155.27 377.241 155.582 378.009 156.206C378.789 156.83 379.179 157.724 379.179 158.888V159.14C379.179 159.956 378.981 160.61 378.585 161.102C378.201 161.582 377.667 161.93 376.983 162.146C376.299 162.35 375.513 162.452 374.625 162.452H372.051ZM386.407 168.842C385.567 168.842 384.829 168.698 384.193 168.41C383.569 168.122 383.047 167.738 382.627 167.258C382.219 166.766 381.907 166.22 381.691 165.62C381.487 165.02 381.385 164.408 381.385 163.784V163.442C381.385 162.794 381.487 162.17 381.691 161.57C381.907 160.958 382.219 160.418 382.627 159.95C383.047 159.47 383.563 159.092 384.175 158.816C384.787 158.528 385.495 158.384 386.299 158.384C387.355 158.384 388.237 158.618 388.945 159.086C389.665 159.542 390.205 160.148 390.565 160.904C390.925 161.648 391.105 162.452 391.105 163.316V164.216H382.447V162.686H389.539L388.765 163.442C388.765 162.818 388.675 162.284 388.495 161.84C388.315 161.396 388.039 161.054 387.667 160.814C387.307 160.574 386.851 160.454 386.299 160.454C385.747 160.454 385.279 160.58 384.895 160.832C384.511 161.084 384.217 161.45 384.013 161.93C383.821 162.398 383.725 162.962 383.725 163.622C383.725 164.234 383.821 164.78 384.013 165.26C384.205 165.728 384.499 166.1 384.895 166.376C385.291 166.64 385.795 166.772 386.407 166.772C387.019 166.772 387.517 166.652 387.901 166.412C388.285 166.16 388.531 165.854 388.639 165.494H390.943C390.799 166.166 390.523 166.754 390.115 167.258C389.707 167.762 389.185 168.152 388.549 168.428C387.925 168.704 387.211 168.842 386.407 168.842ZM393.321 168.5V155.36H395.823V168.5H393.321ZM392.097 157.232V155.36H395.823V157.232H392.097ZM402.928 168.626C402.028 168.626 401.284 168.512 400.696 168.284C400.12 168.044 399.688 167.648 399.4 167.096C399.112 166.532 398.968 165.776 398.968 164.828L398.986 155.972H401.326L401.308 164.99C401.308 165.47 401.434 165.842 401.686 166.106C401.95 166.358 402.322 166.484 402.802 166.484H404.332V168.626H402.928ZM397.42 160.562V158.726H404.332V160.562H397.42ZM410.317 168.5V158.726H412.297V162.866H412.243C412.243 161.462 412.543 160.4 413.143 159.68C413.743 158.96 414.625 158.6 415.789 158.6H416.149V160.778H415.465C414.625 160.778 413.971 161.006 413.503 161.462C413.047 161.906 412.819 162.554 412.819 163.406V168.5H410.317ZM423.692 168.5V165.602H423.278V162.38C423.278 161.816 423.14 161.396 422.864 161.12C422.588 160.844 422.162 160.706 421.586 160.706C421.286 160.706 420.926 160.712 420.506 160.724C420.086 160.736 419.66 160.754 419.228 160.778C418.808 160.79 418.43 160.808 418.094 160.832V158.708C418.37 158.684 418.682 158.66 419.03 158.636C419.378 158.612 419.732 158.6 420.092 158.6C420.464 158.588 420.812 158.582 421.136 158.582C422.144 158.582 422.978 158.714 423.638 158.978C424.31 159.242 424.814 159.656 425.15 160.22C425.498 160.784 425.672 161.522 425.672 162.434V168.5H423.692ZM420.542 168.752C419.834 168.752 419.21 168.626 418.67 168.374C418.142 168.122 417.728 167.762 417.428 167.294C417.14 166.826 416.996 166.262 416.996 165.602C416.996 164.882 417.17 164.294 417.518 163.838C417.878 163.382 418.376 163.04 419.012 162.812C419.66 162.584 420.416 162.47 421.28 162.47H423.548V163.964H421.244C420.668 163.964 420.224 164.108 419.912 164.396C419.612 164.672 419.462 165.032 419.462 165.476C419.462 165.92 419.612 166.28 419.912 166.556C420.224 166.832 420.668 166.97 421.244 166.97C421.592 166.97 421.91 166.91 422.198 166.79C422.498 166.658 422.744 166.442 422.936 166.142C423.14 165.83 423.254 165.41 423.278 164.882L423.89 165.584C423.83 166.268 423.662 166.844 423.386 167.312C423.122 167.78 422.75 168.14 422.27 168.392C421.802 168.632 421.226 168.752 420.542 168.752ZM428.352 168.5V158.726H430.332V162.92H430.152C430.152 161.924 430.284 161.096 430.548 160.436C430.812 159.764 431.202 159.26 431.718 158.924C432.246 158.588 432.9 158.42 433.68 158.42H433.788C434.952 158.42 435.834 158.798 436.434 159.554C437.034 160.298 437.334 161.414 437.334 162.902V168.5H434.832V162.686C434.832 162.086 434.658 161.6 434.31 161.228C433.974 160.856 433.506 160.67 432.906 160.67C432.294 160.67 431.796 160.862 431.412 161.246C431.04 161.618 430.854 162.122 430.854 162.758V168.5H428.352ZM446.864 168.5L443.588 163.928H442.13L446.288 158.726H448.898L445.064 163.532L445.118 162.272L449.69 168.5H446.864ZM440.024 168.5V155.36H442.526V168.5H440.024Z" fill="white"/>
<rect x="289" y="183.5" width="240" height="69" rx="34.5" fill="#0B72D5"/>
<path d="M366.505 232.74V227.06H372.945C374.038 227.06 374.851 226.78 375.385 226.22C375.918 225.66 376.185 224.847 376.185 223.78C376.185 222.713 375.918 221.913 375.385 221.38C374.851 220.82 374.038 220.54 372.945 220.54H366.505V216.14H372.705C374.758 216.14 376.598 216.393 378.225 216.9C379.851 217.38 381.131 218.18 382.065 219.3C382.998 220.42 383.465 221.913 383.465 223.78V224.34C383.465 226.1 383.051 227.607 382.225 228.86C381.398 230.113 380.185 231.073 378.585 231.74C376.985 232.407 375.025 232.74 372.705 232.74H366.505ZM360.105 232.74V203.06H367.305V232.74H360.105ZM366.505 219.42V215.02H371.865C372.958 215.02 373.745 214.753 374.225 214.22C374.731 213.66 374.985 212.887 374.985 211.9C374.985 210.887 374.731 210.113 374.225 209.58C373.745 209.02 372.958 208.74 371.865 208.74H366.505V203.06H371.545C374.958 203.06 377.598 203.78 379.465 205.22C381.331 206.633 382.265 208.66 382.265 211.3V211.9C382.265 213.74 381.785 215.22 380.825 216.34C379.891 217.433 378.611 218.22 376.985 218.7C375.385 219.18 373.571 219.42 371.545 219.42H366.505ZM387.956 232.5V203.3H395.396V232.5H387.956ZM394.596 232.5V226.02H406.436V232.5H394.596ZM421.764 233.3C418.964 233.3 416.591 232.78 414.644 231.74C412.724 230.7 411.258 229.233 410.244 227.34C409.231 225.42 408.724 223.153 408.724 220.54V203.3H416.164V220.7C416.164 221.847 416.378 222.847 416.804 223.7C417.258 224.553 417.898 225.207 418.724 225.66C419.551 226.113 420.564 226.34 421.764 226.34C422.964 226.34 423.978 226.113 424.804 225.66C425.631 225.207 426.258 224.567 426.684 223.74C427.111 222.887 427.324 221.873 427.324 220.7V203.3H434.764V220.54C434.764 223.153 434.258 225.42 433.244 227.34C432.258 229.233 430.791 230.7 428.844 231.74C426.924 232.78 424.564 233.3 421.764 233.3ZM440.144 232.5V203.3H447.344V232.5H440.144ZM446.544 232.5V226.42H458.864V232.5H446.544ZM446.544 220.7V214.62H458.024V220.7H446.544ZM446.544 209.38V203.3H458.624V209.38H446.544Z" fill="white"/>
<rect x="345" y="257.5" width="128" height="33" rx="16.5" fill="#0B72D5"/>
<path d="M367.026 280.5V267.36H369.582V280.5H367.026ZM369.222 280.5V278.25H374.892V280.5H369.222ZM381.046 280.842C380.206 280.842 379.468 280.698 378.832 280.41C378.208 280.122 377.686 279.738 377.266 279.258C376.858 278.766 376.546 278.22 376.33 277.62C376.126 277.02 376.024 276.408 376.024 275.784V275.442C376.024 274.794 376.126 274.17 376.33 273.57C376.546 272.958 376.858 272.418 377.266 271.95C377.686 271.47 378.202 271.092 378.814 270.816C379.426 270.528 380.134 270.384 380.938 270.384C381.994 270.384 382.876 270.618 383.584 271.086C384.304 271.542 384.844 272.148 385.204 272.904C385.564 273.648 385.744 274.452 385.744 275.316V276.216H377.086V274.686H384.178L383.404 275.442C383.404 274.818 383.314 274.284 383.134 273.84C382.954 273.396 382.678 273.054 382.306 272.814C381.946 272.574 381.49 272.454 380.938 272.454C380.386 272.454 379.918 272.58 379.534 272.832C379.15 273.084 378.856 273.45 378.652 273.93C378.46 274.398 378.364 274.962 378.364 275.622C378.364 276.234 378.46 276.78 378.652 277.26C378.844 277.728 379.138 278.1 379.534 278.376C379.93 278.64 380.434 278.772 381.046 278.772C381.658 278.772 382.156 278.652 382.54 278.412C382.924 278.16 383.17 277.854 383.278 277.494H385.582C385.438 278.166 385.162 278.754 384.754 279.258C384.346 279.762 383.824 280.152 383.188 280.428C382.564 280.704 381.85 280.842 381.046 280.842ZM389.708 280.5L386.648 270.726H389.222L392.156 280.5H389.708ZM390.446 280.5V278.448H393.092V280.5H390.446ZM391.436 280.5L393.956 270.726H396.368L393.722 280.5H391.436ZM402.421 280.842C401.581 280.842 400.843 280.698 400.207 280.41C399.583 280.122 399.061 279.738 398.641 279.258C398.233 278.766 397.921 278.22 397.705 277.62C397.501 277.02 397.399 276.408 397.399 275.784V275.442C397.399 274.794 397.501 274.17 397.705 273.57C397.921 272.958 398.233 272.418 398.641 271.95C399.061 271.47 399.577 271.092 400.189 270.816C400.801 270.528 401.509 270.384 402.313 270.384C403.369 270.384 404.251 270.618 404.959 271.086C405.679 271.542 406.219 272.148 406.579 272.904C406.939 273.648 407.119 274.452 407.119 275.316V276.216H398.461V274.686H405.553L404.779 275.442C404.779 274.818 404.689 274.284 404.509 273.84C404.329 273.396 404.053 273.054 403.681 272.814C403.321 272.574 402.865 272.454 402.313 272.454C401.761 272.454 401.293 272.58 400.909 272.832C400.525 273.084 400.231 273.45 400.027 273.93C399.835 274.398 399.739 274.962 399.739 275.622C399.739 276.234 399.835 276.78 400.027 277.26C400.219 277.728 400.513 278.1 400.909 278.376C401.305 278.64 401.809 278.772 402.421 278.772C403.033 278.772 403.531 278.652 403.915 278.412C404.299 278.16 404.545 277.854 404.653 277.494H406.957C406.813 278.166 406.537 278.754 406.129 279.258C405.721 279.762 405.199 280.152 404.563 280.428C403.939 280.704 403.225 280.842 402.421 280.842ZM409.335 280.5V267.36H411.837V280.5H409.335ZM408.111 269.232V267.36H411.837V269.232H408.111ZM414.297 280.5V277.62H417.105V280.5H414.297ZM414.297 274.29V271.41H417.105V274.29H414.297ZM427.804 280.842C426.772 280.842 425.884 280.638 425.14 280.23C424.408 279.822 423.844 279.282 423.448 278.61C423.064 277.926 422.872 277.182 422.872 276.378H425.338C425.338 276.834 425.44 277.236 425.644 277.584C425.86 277.932 426.154 278.208 426.526 278.412C426.898 278.604 427.33 278.7 427.822 278.7C428.338 278.7 428.782 278.592 429.154 278.376C429.526 278.16 429.808 277.866 430 277.494C430.204 277.122 430.306 276.696 430.306 276.216C430.306 275.748 430.204 275.328 430 274.956C429.808 274.572 429.526 274.272 429.154 274.056C428.794 273.828 428.356 273.714 427.84 273.714C427.408 273.714 427 273.798 426.616 273.966C426.232 274.134 425.932 274.356 425.716 274.632H423.358L424.024 267.36H431.638V269.538H425.14L426.04 268.836L425.608 273.372L424.996 273.192C425.344 272.796 425.77 272.466 426.274 272.202C426.778 271.938 427.414 271.806 428.182 271.806C429.154 271.806 429.982 272.004 430.666 272.4C431.35 272.796 431.872 273.324 432.232 273.984C432.592 274.632 432.772 275.34 432.772 276.108V276.342C432.772 277.122 432.58 277.854 432.196 278.538C431.812 279.222 431.248 279.78 430.504 280.212C429.772 280.632 428.872 280.842 427.804 280.842ZM433.829 281.58L437.537 266.46H440.039L436.331 281.58H433.829ZM446.191 266.982C447.163 266.982 447.985 267.15 448.657 267.486C449.341 267.81 449.893 268.26 450.313 268.836C450.733 269.412 451.039 270.084 451.231 270.852C451.423 271.608 451.519 272.412 451.519 273.264V274.056C451.519 276.204 450.973 277.836 449.881 278.952C448.801 280.056 447.211 280.608 445.111 280.608C444.655 280.608 444.229 280.596 443.833 280.572C443.437 280.548 443.041 280.512 442.645 280.464V278.322C443.041 278.37 443.443 278.406 443.851 278.43C444.271 278.454 444.721 278.466 445.201 278.466C446.209 278.466 447.001 278.292 447.577 277.944C448.153 277.596 448.561 277.086 448.801 276.414C449.053 275.742 449.179 274.908 449.179 273.912V272.742L449.755 271.914C449.743 272.838 449.557 273.606 449.197 274.218C448.849 274.818 448.363 275.274 447.739 275.586C447.115 275.886 446.401 276.036 445.597 276.036C444.661 276.036 443.863 275.85 443.203 275.478C442.543 275.106 442.033 274.59 441.673 273.93C441.325 273.27 441.151 272.502 441.151 271.626C441.151 270.714 441.355 269.91 441.763 269.214C442.171 268.506 442.747 267.96 443.491 267.576C444.247 267.18 445.147 266.982 446.191 266.982ZM446.245 269.124C445.681 269.124 445.201 269.232 444.805 269.448C444.409 269.652 444.109 269.94 443.905 270.312C443.701 270.684 443.599 271.11 443.599 271.59C443.599 272.082 443.695 272.514 443.887 272.886C444.091 273.258 444.385 273.546 444.769 273.75C445.153 273.954 445.615 274.056 446.155 274.056C446.671 274.056 447.139 273.966 447.559 273.786C447.991 273.594 448.327 273.318 448.567 272.958C448.819 272.586 448.945 272.13 448.945 271.59C448.945 271.122 448.843 270.702 448.639 270.33C448.447 269.958 448.147 269.664 447.739 269.448C447.343 269.232 446.845 269.124 446.245 269.124Z" fill="white"/>
<circle opacity="0.2" cx="409" cy="220" r="217.5" stroke="#88BFFF" stroke-width="5"/>
<circle opacity="0.4" cx="409" cy="219" r="207.5" stroke="#88BFFF" stroke-width="5"/>
<circle opacity="0.6" cx="409" cy="218.781" r="197.5" stroke="#88BFFF" stroke-width="5"/>
<circle opacity="0.8" cx="409" cy="218.781" r="187.5" stroke="#88BFFF" stroke-width="5"/>
<circle opacity="0.6" cx="409" cy="218.781" r="177.5" stroke="#88BFFF" stroke-width="5"/>
<circle opacity="0.7" cx="409" cy="218.781" r="167.5" stroke="#88BFFF" stroke-width="5"/>
<circle opacity="0.8" cx="409" cy="218.781" r="157.5" stroke="#88BFFF" stroke-width="5"/>
<circle opacity="0.9" cx="409" cy="218.781" r="147.5" stroke="#88BFFF" stroke-width="5"/>
</g>
<defs>
<radialGradient id="paint0_radial_4956_14501" cx="0" cy="0" r="1" gradientUnits="userSpaceOnUse" gradientTransform="translate(408.545 220) scale(408.455 758.51)">
<stop offset="0.550856"/>
<stop offset="1" stop-opacity="0"/>
</radialGradient>
<radialGradient id="paint1_radial_4956_14501" cx="0" cy="0" r="1" gradientUnits="userSpaceOnUse" gradientTransform="translate(408.5 218) scale(406.5 1208.35)">
<stop offset="0.430504" stop-color="#0073DD"/>
<stop offset="1" stop-color="#88BFFF"/>
</radialGradient>
<linearGradient id="paint2_linear_4956_14501" x1="5.00001" y1="218.391" x2="759.993" y2="9.11804" gradientUnits="userSpaceOnUse">
<stop stop-color="#0073DD"/>
<stop offset="0.348958" stop-color="#88BFFF"/>
<stop offset="0.625" stop-color="#88BFFF"/>
<stop offset="1" stop-color="#0073DD"/>
</linearGradient>
<linearGradient id="paint3_linear_4956_14501" x1="5.00001" y1="218.391" x2="751.484" y2="-4.4398" gradientUnits="userSpaceOnUse">
<stop stop-color="#0073DD"/>
<stop offset="0.348958" stop-color="#88BFFF"/>
<stop offset="0.625" stop-color="#88BFFF"/>
<stop offset="1" stop-color="#0073DD"/>
</linearGradient>
<linearGradient id="paint4_linear_4956_14501" x1="5.00001" y1="218.391" x2="741.029" y2="-19.6281" gradientUnits="userSpaceOnUse">
<stop stop-color="#0073DD"/>
<stop offset="0.348958" stop-color="#88BFFF"/>
<stop offset="0.625" stop-color="#88BFFF"/>
<stop offset="1" stop-color="#0073DD"/>
</linearGradient>
<linearGradient id="paint5_linear_4956_14501" x1="5.00001" y1="218.391" x2="728.017" y2="-36.676" gradientUnits="userSpaceOnUse">
<stop stop-color="#0073DD"/>
<stop offset="0.348958" stop-color="#88BFFF"/>
<stop offset="0.625" stop-color="#88BFFF"/>
<stop offset="1" stop-color="#0073DD"/>
</linearGradient>
<linearGradient id="paint6_linear_4956_14501" x1="5.00001" y1="218.391" x2="711.594" y2="-55.8095" gradientUnits="userSpaceOnUse">
<stop stop-color="#0073DD"/>
<stop offset="0.348958" stop-color="#88BFFF"/>
<stop offset="0.625" stop-color="#88BFFF"/>
<stop offset="1" stop-color="#0073DD"/>
</linearGradient>
<radialGradient id="paint7_radial_4956_14501" cx="0" cy="0" r="1" gradientUnits="userSpaceOnUse" gradientTransform="translate(409 218.391) rotate(90) scale(140)">
<stop stop-color="#88BFFF"/>
<stop offset="1" stop-color="#0073DD"/>
</radialGradient>
<linearGradient id="paint8_linear_4956_14501" x1="409" y1="356.833" x2="382.774" y2="80.7264" gradientUnits="userSpaceOnUse">
<stop stop-color="#0073DD"/>
<stop offset="0.348958" stop-color="#88BFFF"/>
<stop offset="0.625" stop-color="#88BFFF"/>
<stop offset="1" stop-color="#0073DD"/>
</linearGradient>
</defs>
</svg>
