<svg width="818" height="440" viewBox="0 0 818 440" fill="none" xmlns="http://www.w3.org/2000/svg">
<mask id="mask0_4956_14576" style="mask-type:alpha" maskUnits="userSpaceOnUse" x="0" y="0" width="818" height="440">
<rect width="817.09" height="440" fill="url(#paint0_radial_4956_14576)"/>
</mask>
<g mask="url(#mask0_4956_14576)">
<path d="M2 172.528C2 157.813 12.6732 145.27 27.1988 142.915L401.228 82.2736C404.389 81.7612 407.611 81.7581 410.773 82.2644L789.744 142.955C804.296 145.286 815 157.841 815 172.578V264.416C815 279.156 804.292 291.712 789.737 294.04L413.237 354.243C410.099 354.744 406.901 354.744 403.763 354.243L27.2631 294.04C12.708 291.712 2 279.156 2 264.416V172.528Z" fill="url(#paint1_radial_4956_14576)" fill-opacity="0.7"/>
<path d="M26.0291 143.421L409 80.9975L791.971 143.421C805.276 145.59 815.047 157.083 815.047 170.563V266.218C815.047 279.698 805.276 291.191 791.971 293.36L409 355.784L26.029 293.36C12.7244 291.191 2.95312 279.698 2.95312 266.218V170.563C2.95312 157.083 12.7244 145.59 26.0291 143.421Z" stroke="url(#paint2_linear_4956_14576)" stroke-width="5"/>
<path d="M2.95312 170.563C2.95312 157.093 12.7094 145.608 25.9983 143.426L409 90.976L791.971 143.421C791.981 143.423 791.991 143.425 792.002 143.426C805.291 145.608 815.047 157.093 815.047 170.563V266.218C815.047 279.688 805.291 291.173 792.002 293.355C791.992 293.356 791.981 293.358 791.971 293.36L409 345.805L25.9983 293.355C12.7093 291.173 2.95312 279.688 2.95312 266.218V170.563Z" stroke="url(#paint3_linear_4956_14576)" stroke-width="5"/>
<path d="M2.95312 170.563C2.95312 157.104 12.6942 145.626 25.9674 143.432L409 100.956L792.033 143.432C805.306 145.626 815.047 157.104 815.047 170.563V266.218C815.047 279.677 805.306 291.156 792.033 293.35L409 335.825L25.9673 293.35C12.6942 291.156 2.95312 279.677 2.95312 266.218V170.563Z" stroke="url(#paint4_linear_4956_14576)" stroke-width="5"/>
<path d="M2.95312 170.563C2.95312 157.114 12.679 145.644 25.9362 143.437L409 110.938L792.064 143.437C805.321 145.644 815.047 157.114 815.047 170.563V266.218C815.047 279.667 805.321 291.138 792.064 293.344L409 325.843L25.936 293.344C12.6789 291.138 2.95312 279.667 2.95312 266.218V170.563Z" stroke="url(#paint5_linear_4956_14576)" stroke-width="5"/>
<path d="M2.95312 170.563C2.95312 157.125 12.6636 145.662 25.9048 143.442L409 120.922L792.095 143.442C805.336 145.662 815.047 157.125 815.047 170.563V266.218C815.047 279.656 805.336 291.12 792.095 293.339L409 315.86L25.9047 293.339C12.6636 291.12 2.95312 279.656 2.95312 266.218V170.563Z" stroke="url(#paint6_linear_4956_14576)" stroke-width="5"/>
<circle cx="409" cy="218.391" r="160" fill="url(#paint7_radial_4956_14576)" stroke="url(#paint8_linear_4956_14576)" stroke-width="40"/>
<rect x="348" y="145.5" width="122" height="33" rx="16.5" fill="#4E4135"/>
<path d="M372.051 168.59V166.538H375.345C375.945 166.538 376.401 166.376 376.713 166.052C377.025 165.716 377.181 165.26 377.181 164.684C377.181 164.108 377.025 163.664 376.713 163.352C376.401 163.028 375.945 162.866 375.345 162.866H372.051V161.3H375.165C376.041 161.3 376.821 161.408 377.505 161.624C378.201 161.828 378.741 162.176 379.125 162.668C379.521 163.16 379.719 163.82 379.719 164.648V164.9C379.719 165.68 379.545 166.346 379.197 166.898C378.861 167.438 378.351 167.858 377.667 168.158C376.995 168.446 376.161 168.59 375.165 168.59H372.051ZM369.909 168.59V155.27H372.411V168.59H369.909ZM372.051 162.452V160.886H374.859C375.471 160.886 375.921 160.724 376.209 160.4C376.497 160.076 376.641 159.644 376.641 159.104C376.641 158.564 376.497 158.132 376.209 157.808C375.921 157.484 375.471 157.322 374.859 157.322H372.051V155.27H374.625C376.113 155.27 377.241 155.582 378.009 156.206C378.789 156.83 379.179 157.724 379.179 158.888V159.14C379.179 159.956 378.981 160.61 378.585 161.102C378.201 161.582 377.667 161.93 376.983 162.146C376.299 162.35 375.513 162.452 374.625 162.452H372.051ZM386.407 168.842C385.567 168.842 384.829 168.698 384.193 168.41C383.569 168.122 383.047 167.738 382.627 167.258C382.219 166.766 381.907 166.22 381.691 165.62C381.487 165.02 381.385 164.408 381.385 163.784V163.442C381.385 162.794 381.487 162.17 381.691 161.57C381.907 160.958 382.219 160.418 382.627 159.95C383.047 159.47 383.563 159.092 384.175 158.816C384.787 158.528 385.495 158.384 386.299 158.384C387.355 158.384 388.237 158.618 388.945 159.086C389.665 159.542 390.205 160.148 390.565 160.904C390.925 161.648 391.105 162.452 391.105 163.316V164.216H382.447V162.686H389.539L388.765 163.442C388.765 162.818 388.675 162.284 388.495 161.84C388.315 161.396 388.039 161.054 387.667 160.814C387.307 160.574 386.851 160.454 386.299 160.454C385.747 160.454 385.279 160.58 384.895 160.832C384.511 161.084 384.217 161.45 384.013 161.93C383.821 162.398 383.725 162.962 383.725 163.622C383.725 164.234 383.821 164.78 384.013 165.26C384.205 165.728 384.499 166.1 384.895 166.376C385.291 166.64 385.795 166.772 386.407 166.772C387.019 166.772 387.517 166.652 387.901 166.412C388.285 166.16 388.531 165.854 388.639 165.494H390.943C390.799 166.166 390.523 166.754 390.115 167.258C389.707 167.762 389.185 168.152 388.549 168.428C387.925 168.704 387.211 168.842 386.407 168.842ZM393.321 168.5V155.36H395.823V168.5H393.321ZM392.097 157.232V155.36H395.823V157.232H392.097ZM402.928 168.626C402.028 168.626 401.284 168.512 400.696 168.284C400.12 168.044 399.688 167.648 399.4 167.096C399.112 166.532 398.968 165.776 398.968 164.828L398.986 155.972H401.326L401.308 164.99C401.308 165.47 401.434 165.842 401.686 166.106C401.95 166.358 402.322 166.484 402.802 166.484H404.332V168.626H402.928ZM397.42 160.562V158.726H404.332V160.562H397.42ZM410.317 168.5V158.726H412.297V162.866H412.243C412.243 161.462 412.543 160.4 413.143 159.68C413.743 158.96 414.625 158.6 415.789 158.6H416.149V160.778H415.465C414.625 160.778 413.971 161.006 413.503 161.462C413.047 161.906 412.819 162.554 412.819 163.406V168.5H410.317ZM423.692 168.5V165.602H423.278V162.38C423.278 161.816 423.14 161.396 422.864 161.12C422.588 160.844 422.162 160.706 421.586 160.706C421.286 160.706 420.926 160.712 420.506 160.724C420.086 160.736 419.66 160.754 419.228 160.778C418.808 160.79 418.43 160.808 418.094 160.832V158.708C418.37 158.684 418.682 158.66 419.03 158.636C419.378 158.612 419.732 158.6 420.092 158.6C420.464 158.588 420.812 158.582 421.136 158.582C422.144 158.582 422.978 158.714 423.638 158.978C424.31 159.242 424.814 159.656 425.15 160.22C425.498 160.784 425.672 161.522 425.672 162.434V168.5H423.692ZM420.542 168.752C419.834 168.752 419.21 168.626 418.67 168.374C418.142 168.122 417.728 167.762 417.428 167.294C417.14 166.826 416.996 166.262 416.996 165.602C416.996 164.882 417.17 164.294 417.518 163.838C417.878 163.382 418.376 163.04 419.012 162.812C419.66 162.584 420.416 162.47 421.28 162.47H423.548V163.964H421.244C420.668 163.964 420.224 164.108 419.912 164.396C419.612 164.672 419.462 165.032 419.462 165.476C419.462 165.92 419.612 166.28 419.912 166.556C420.224 166.832 420.668 166.97 421.244 166.97C421.592 166.97 421.91 166.91 422.198 166.79C422.498 166.658 422.744 166.442 422.936 166.142C423.14 165.83 423.254 165.41 423.278 164.882L423.89 165.584C423.83 166.268 423.662 166.844 423.386 167.312C423.122 167.78 422.75 168.14 422.27 168.392C421.802 168.632 421.226 168.752 420.542 168.752ZM428.352 168.5V158.726H430.332V162.92H430.152C430.152 161.924 430.284 161.096 430.548 160.436C430.812 159.764 431.202 159.26 431.718 158.924C432.246 158.588 432.9 158.42 433.68 158.42H433.788C434.952 158.42 435.834 158.798 436.434 159.554C437.034 160.298 437.334 161.414 437.334 162.902V168.5H434.832V162.686C434.832 162.086 434.658 161.6 434.31 161.228C433.974 160.856 433.506 160.67 432.906 160.67C432.294 160.67 431.796 160.862 431.412 161.246C431.04 161.618 430.854 162.122 430.854 162.758V168.5H428.352ZM446.864 168.5L443.588 163.928H442.13L446.288 158.726H448.898L445.064 163.532L445.118 162.272L449.69 168.5H446.864ZM440.024 168.5V155.36H442.526V168.5H440.024Z" fill="white"/>
<rect x="289" y="183.5" width="240" height="69" rx="34.5" fill="#4E4135"/>
<path d="M333.477 232.74V227.06H339.917C341.011 227.06 341.824 226.78 342.357 226.22C342.891 225.66 343.157 224.847 343.157 223.78C343.157 222.713 342.891 221.913 342.357 221.38C341.824 220.82 341.011 220.54 339.917 220.54H333.477V216.14H339.677C341.731 216.14 343.571 216.393 345.197 216.9C346.824 217.38 348.104 218.18 349.037 219.3C349.971 220.42 350.437 221.913 350.437 223.78V224.34C350.437 226.1 350.024 227.607 349.197 228.86C348.371 230.113 347.157 231.073 345.557 231.74C343.957 232.407 341.997 232.74 339.677 232.74H333.477ZM327.077 232.74V203.06H334.277V232.74H327.077ZM333.477 219.42V215.02H338.837C339.931 215.02 340.717 214.753 341.197 214.22C341.704 213.66 341.957 212.887 341.957 211.9C341.957 210.887 341.704 210.113 341.197 209.58C340.717 209.02 339.931 208.74 338.837 208.74H333.477V203.06H338.517C341.931 203.06 344.571 203.78 346.437 205.22C348.304 206.633 349.237 208.66 349.237 211.3V211.9C349.237 213.74 348.757 215.22 347.797 216.34C346.864 217.433 345.584 218.22 343.957 218.7C342.357 219.18 340.544 219.42 338.517 219.42H333.477ZM354.929 232.5V203.06H362.369V232.5H354.929ZM372.529 232.5L364.329 220.1H372.409L381.089 232.5H372.529ZM360.489 223.54V217.82H367.489C368.369 217.82 369.129 217.647 369.769 217.3C370.409 216.953 370.902 216.46 371.249 215.82C371.622 215.18 371.809 214.433 371.809 213.58C371.809 212.7 371.622 211.94 371.249 211.3C370.902 210.66 370.409 210.167 369.769 209.82C369.129 209.473 368.369 209.3 367.489 209.3H360.489V203.06H367.049C369.582 203.06 371.769 203.447 373.609 204.22C375.449 204.967 376.862 206.087 377.849 207.58C378.835 209.047 379.329 210.873 379.329 213.06V213.7C379.329 215.887 378.822 217.713 377.809 219.18C376.822 220.62 375.409 221.713 373.569 222.46C371.755 223.18 369.582 223.54 367.049 223.54H360.489ZM398.546 233.3C395.879 233.3 393.559 232.847 391.586 231.94C389.612 231.007 387.972 229.793 386.666 228.3C385.359 226.78 384.386 225.14 383.746 223.38C383.106 221.62 382.786 219.913 382.786 218.26V217.38C382.786 215.54 383.119 213.74 383.786 211.98C384.452 210.193 385.452 208.58 386.786 207.14C388.119 205.7 389.759 204.553 391.706 203.7C393.679 202.847 395.959 202.42 398.546 202.42C401.106 202.42 403.359 202.847 405.306 203.7C407.279 204.553 408.932 205.7 410.266 207.14C411.599 208.58 412.599 210.193 413.266 211.98C413.959 213.74 414.306 215.54 414.306 217.38V218.26C414.306 219.913 413.972 221.62 413.306 223.38C412.666 225.14 411.692 226.78 410.386 228.3C409.079 229.793 407.439 231.007 405.466 231.94C403.492 232.847 401.186 233.3 398.546 233.3ZM398.546 226.34C399.826 226.34 400.972 226.127 401.986 225.7C402.999 225.273 403.866 224.673 404.586 223.9C405.306 223.127 405.852 222.233 406.226 221.22C406.599 220.18 406.786 219.06 406.786 217.86C406.786 216.58 406.586 215.42 406.186 214.38C405.812 213.34 405.266 212.447 404.546 211.7C403.826 210.953 402.959 210.38 401.946 209.98C400.932 209.58 399.799 209.38 398.546 209.38C397.266 209.38 396.119 209.58 395.106 209.98C394.092 210.38 393.226 210.953 392.506 211.7C391.786 212.447 391.239 213.34 390.866 214.38C390.492 215.42 390.306 216.58 390.306 217.86C390.306 219.06 390.492 220.18 390.866 221.22C391.239 222.233 391.786 223.127 392.506 223.9C393.226 224.673 394.092 225.273 395.106 225.7C396.119 226.127 397.266 226.34 398.546 226.34ZM422.969 232.5L416.009 203.3H423.689L428.929 227.5L427.689 226.58H430.929L429.529 227.5L433.489 204.34H439.529L434.049 232.5H422.969ZM440.329 232.5L434.449 204.34H440.809L445.449 227.5L444.049 226.58H447.089L446.049 227.5L450.569 203.3H457.769L451.649 232.5H440.329ZM461.452 232.5V203.3H473.652L483.372 226.58H484.772L483.972 227.3V203.3H490.932V232.5H478.652L468.932 209.22H467.532L468.332 208.5V232.5H461.452Z" fill="white"/>
<rect x="345" y="257.5" width="128" height="33" rx="16.5" fill="#4E4135"/>
<path d="M366.842 280.5V267.36H369.398V280.5H366.842ZM369.038 280.5V278.25H374.708V280.5H369.038ZM380.861 280.842C380.021 280.842 379.283 280.698 378.647 280.41C378.023 280.122 377.501 279.738 377.081 279.258C376.673 278.766 376.361 278.22 376.145 277.62C375.941 277.02 375.839 276.408 375.839 275.784V275.442C375.839 274.794 375.941 274.17 376.145 273.57C376.361 272.958 376.673 272.418 377.081 271.95C377.501 271.47 378.017 271.092 378.629 270.816C379.241 270.528 379.949 270.384 380.753 270.384C381.809 270.384 382.691 270.618 383.399 271.086C384.119 271.542 384.659 272.148 385.019 272.904C385.379 273.648 385.559 274.452 385.559 275.316V276.216H376.901V274.686H383.993L383.219 275.442C383.219 274.818 383.129 274.284 382.949 273.84C382.769 273.396 382.493 273.054 382.121 272.814C381.761 272.574 381.305 272.454 380.753 272.454C380.201 272.454 379.733 272.58 379.349 272.832C378.965 273.084 378.671 273.45 378.467 273.93C378.275 274.398 378.179 274.962 378.179 275.622C378.179 276.234 378.275 276.78 378.467 277.26C378.659 277.728 378.953 278.1 379.349 278.376C379.745 278.64 380.249 278.772 380.861 278.772C381.473 278.772 381.971 278.652 382.355 278.412C382.739 278.16 382.985 277.854 383.093 277.494H385.397C385.253 278.166 384.977 278.754 384.569 279.258C384.161 279.762 383.639 280.152 383.003 280.428C382.379 280.704 381.665 280.842 380.861 280.842ZM389.524 280.5L386.464 270.726H389.038L391.972 280.5H389.524ZM390.262 280.5V278.448H392.908V280.5H390.262ZM391.252 280.5L393.772 270.726H396.184L393.538 280.5H391.252ZM402.236 280.842C401.396 280.842 400.658 280.698 400.022 280.41C399.398 280.122 398.876 279.738 398.456 279.258C398.048 278.766 397.736 278.22 397.52 277.62C397.316 277.02 397.214 276.408 397.214 275.784V275.442C397.214 274.794 397.316 274.17 397.52 273.57C397.736 272.958 398.048 272.418 398.456 271.95C398.876 271.47 399.392 271.092 400.004 270.816C400.616 270.528 401.324 270.384 402.128 270.384C403.184 270.384 404.066 270.618 404.774 271.086C405.494 271.542 406.034 272.148 406.394 272.904C406.754 273.648 406.934 274.452 406.934 275.316V276.216H398.276V274.686H405.368L404.594 275.442C404.594 274.818 404.504 274.284 404.324 273.84C404.144 273.396 403.868 273.054 403.496 272.814C403.136 272.574 402.68 272.454 402.128 272.454C401.576 272.454 401.108 272.58 400.724 272.832C400.34 273.084 400.046 273.45 399.842 273.93C399.65 274.398 399.554 274.962 399.554 275.622C399.554 276.234 399.65 276.78 399.842 277.26C400.034 277.728 400.328 278.1 400.724 278.376C401.12 278.64 401.624 278.772 402.236 278.772C402.848 278.772 403.346 278.652 403.73 278.412C404.114 278.16 404.36 277.854 404.468 277.494H406.772C406.628 278.166 406.352 278.754 405.944 279.258C405.536 279.762 405.014 280.152 404.378 280.428C403.754 280.704 403.04 280.842 402.236 280.842ZM409.151 280.5V267.36H411.653V280.5H409.151ZM407.927 269.232V267.36H411.653V269.232H407.927ZM414.113 280.5V277.62H416.921V280.5H414.113ZM414.113 274.29V271.41H416.921V274.29H414.113ZM427.71 280.86C426.702 280.86 425.814 280.698 425.046 280.374C424.278 280.05 423.678 279.588 423.246 278.988C422.814 278.388 422.598 277.674 422.598 276.846C422.598 276.294 422.694 275.808 422.886 275.388C423.078 274.956 423.342 274.59 423.678 274.29C424.014 273.978 424.41 273.744 424.866 273.588V273.372C424.518 273.216 424.2 273.012 423.912 272.76C423.636 272.508 423.414 272.202 423.246 271.842C423.09 271.482 423.012 271.068 423.012 270.6C423.012 269.808 423.216 269.148 423.624 268.62C424.044 268.08 424.608 267.678 425.316 267.414C426.036 267.138 426.834 267 427.71 267C428.598 267 429.396 267.138 430.104 267.414C430.824 267.678 431.388 268.08 431.796 268.62C432.216 269.148 432.426 269.808 432.426 270.6C432.426 271.068 432.342 271.482 432.174 271.842C432.018 272.202 431.802 272.508 431.526 272.76C431.25 273.012 430.932 273.216 430.572 273.372V273.588C431.028 273.744 431.424 273.978 431.76 274.29C432.108 274.602 432.372 274.974 432.552 275.406C432.744 275.826 432.84 276.306 432.84 276.846C432.84 277.674 432.624 278.388 432.192 278.988C431.772 279.588 431.178 280.05 430.41 280.374C429.642 280.698 428.742 280.86 427.71 280.86ZM427.71 278.754C428.262 278.754 428.736 278.67 429.132 278.502C429.528 278.334 429.834 278.088 430.05 277.764C430.266 277.44 430.374 277.05 430.374 276.594C430.374 276.138 430.266 275.754 430.05 275.442C429.846 275.118 429.54 274.872 429.132 274.704C428.736 274.536 428.262 274.452 427.71 274.452C427.17 274.452 426.702 274.536 426.306 274.704C425.91 274.872 425.604 275.118 425.388 275.442C425.172 275.754 425.064 276.138 425.064 276.594C425.064 277.05 425.172 277.44 425.388 277.764C425.604 278.088 425.91 278.334 426.306 278.502C426.702 278.67 427.17 278.754 427.71 278.754ZM427.71 272.544C428.406 272.544 428.952 272.4 429.348 272.112C429.756 271.812 429.96 271.38 429.96 270.816C429.96 270.228 429.756 269.796 429.348 269.52C428.94 269.244 428.394 269.106 427.71 269.106C427.026 269.106 426.48 269.25 426.072 269.538C425.676 269.814 425.478 270.24 425.478 270.816C425.478 271.38 425.682 271.812 426.09 272.112C426.498 272.4 427.038 272.544 427.71 272.544ZM434.014 281.58L437.722 266.46H440.224L436.516 281.58H434.014ZM446.375 266.982C447.347 266.982 448.169 267.15 448.841 267.486C449.525 267.81 450.077 268.26 450.497 268.836C450.917 269.412 451.223 270.084 451.415 270.852C451.607 271.608 451.703 272.412 451.703 273.264V274.056C451.703 276.204 451.157 277.836 450.065 278.952C448.985 280.056 447.395 280.608 445.295 280.608C444.839 280.608 444.413 280.596 444.017 280.572C443.621 280.548 443.225 280.512 442.829 280.464V278.322C443.225 278.37 443.627 278.406 444.035 278.43C444.455 278.454 444.905 278.466 445.385 278.466C446.393 278.466 447.185 278.292 447.761 277.944C448.337 277.596 448.745 277.086 448.985 276.414C449.237 275.742 449.363 274.908 449.363 273.912V272.742L449.939 271.914C449.927 272.838 449.741 273.606 449.381 274.218C449.033 274.818 448.547 275.274 447.923 275.586C447.299 275.886 446.585 276.036 445.781 276.036C444.845 276.036 444.047 275.85 443.387 275.478C442.727 275.106 442.217 274.59 441.857 273.93C441.509 273.27 441.335 272.502 441.335 271.626C441.335 270.714 441.539 269.91 441.947 269.214C442.355 268.506 442.931 267.96 443.675 267.576C444.431 267.18 445.331 266.982 446.375 266.982ZM446.429 269.124C445.865 269.124 445.385 269.232 444.989 269.448C444.593 269.652 444.293 269.94 444.089 270.312C443.885 270.684 443.783 271.11 443.783 271.59C443.783 272.082 443.879 272.514 444.071 272.886C444.275 273.258 444.569 273.546 444.953 273.75C445.337 273.954 445.799 274.056 446.339 274.056C446.855 274.056 447.323 273.966 447.743 273.786C448.175 273.594 448.511 273.318 448.751 272.958C449.003 272.586 449.129 272.13 449.129 271.59C449.129 271.122 449.027 270.702 448.823 270.33C448.631 269.958 448.331 269.664 447.923 269.448C447.527 269.232 447.029 269.124 446.429 269.124Z" fill="white"/>
<circle opacity="0.2" cx="409" cy="220" r="217.5" stroke="#8A6D44" stroke-width="5"/>
<circle opacity="0.4" cx="409" cy="219" r="207.5" stroke="#8A6D44" stroke-width="5"/>
<circle opacity="0.6" cx="409" cy="218.781" r="197.5" stroke="#8A6D44" stroke-width="5"/>
<circle opacity="0.8" cx="409" cy="218.781" r="187.5" stroke="#8A6D44" stroke-width="5"/>
<circle opacity="0.6" cx="409" cy="218.781" r="177.5" stroke="#8A6D44" stroke-width="5"/>
<circle opacity="0.7" cx="409" cy="218.781" r="167.5" stroke="#8A6D44" stroke-width="5"/>
<circle opacity="0.8" cx="409" cy="218.781" r="157.5" stroke="#8A6D44" stroke-width="5"/>
<circle opacity="0.9" cx="409" cy="218.781" r="147.5" stroke="#8A6D44" stroke-width="5"/>
</g>
<defs>
<radialGradient id="paint0_radial_4956_14576" cx="0" cy="0" r="1" gradientUnits="userSpaceOnUse" gradientTransform="translate(408.545 220) scale(408.455 758.51)">
<stop offset="0.550856"/>
<stop offset="1" stop-opacity="0"/>
</radialGradient>
<radialGradient id="paint1_radial_4956_14576" cx="0" cy="0" r="1" gradientUnits="userSpaceOnUse" gradientTransform="translate(408.5 218) scale(406.5 1208.35)">
<stop offset="0.430504" stop-color="#543C2B"/>
<stop offset="1" stop-color="#8A6D44"/>
</radialGradient>
<linearGradient id="paint2_linear_4956_14576" x1="5.00001" y1="218.391" x2="759.993" y2="9.11804" gradientUnits="userSpaceOnUse">
<stop stop-color="#543C2B"/>
<stop offset="0.348958" stop-color="#8A6D44"/>
<stop offset="0.625" stop-color="#8A6D44"/>
<stop offset="1" stop-color="#543C2B"/>
</linearGradient>
<linearGradient id="paint3_linear_4956_14576" x1="5.00001" y1="218.391" x2="751.484" y2="-4.4398" gradientUnits="userSpaceOnUse">
<stop stop-color="#543C2B"/>
<stop offset="0.348958" stop-color="#8A6D44"/>
<stop offset="0.625" stop-color="#8A6D44"/>
<stop offset="1" stop-color="#543C2B"/>
</linearGradient>
<linearGradient id="paint4_linear_4956_14576" x1="5.00001" y1="218.391" x2="741.029" y2="-19.6281" gradientUnits="userSpaceOnUse">
<stop stop-color="#543C2B"/>
<stop offset="0.348958" stop-color="#8A6D44"/>
<stop offset="0.625" stop-color="#8A6D44"/>
<stop offset="1" stop-color="#543C2B"/>
</linearGradient>
<linearGradient id="paint5_linear_4956_14576" x1="5.00001" y1="218.391" x2="728.017" y2="-36.676" gradientUnits="userSpaceOnUse">
<stop stop-color="#543C2B"/>
<stop offset="0.348958" stop-color="#8A6D44"/>
<stop offset="0.625" stop-color="#8A6D44"/>
<stop offset="1" stop-color="#543C2B"/>
</linearGradient>
<linearGradient id="paint6_linear_4956_14576" x1="5.00001" y1="218.391" x2="711.594" y2="-55.8095" gradientUnits="userSpaceOnUse">
<stop stop-color="#543C2B"/>
<stop offset="0.348958" stop-color="#8A6D44"/>
<stop offset="0.625" stop-color="#8A6D44"/>
<stop offset="1" stop-color="#543C2B"/>
</linearGradient>
<radialGradient id="paint7_radial_4956_14576" cx="0" cy="0" r="1" gradientUnits="userSpaceOnUse" gradientTransform="translate(409 218.391) rotate(90) scale(140)">
<stop stop-color="#8A6D44"/>
<stop offset="1" stop-color="#543C2B"/>
</radialGradient>
<linearGradient id="paint8_linear_4956_14576" x1="409" y1="356.833" x2="382.774" y2="80.7264" gradientUnits="userSpaceOnUse">
<stop stop-color="#543C2B"/>
<stop offset="0.348958" stop-color="#8A6D44"/>
<stop offset="0.625" stop-color="#8A6D44"/>
<stop offset="1" stop-color="#543C2B"/>
</linearGradient>
</defs>
</svg>
