<svg width="818" height="440" viewBox="0 0 818 440" fill="none" xmlns="http://www.w3.org/2000/svg">
<mask id="mask0_4956_8117" style="mask-type:alpha" maskUnits="userSpaceOnUse" x="0" y="0" width="818" height="440">
<rect width="817.09" height="440" fill="url(#paint0_radial_4956_8117)"/>
</mask>
<g mask="url(#mask0_4956_8117)">
<path d="M2 172.528C2 157.813 12.6732 145.27 27.1988 142.915L401.228 82.2736C404.389 81.7612 407.611 81.7581 410.773 82.2644L789.744 142.955C804.296 145.286 815 157.841 815 172.578V264.416C815 279.156 804.292 291.712 789.737 294.04L413.237 354.243C410.099 354.744 406.901 354.744 403.763 354.243L27.2631 294.04C12.708 291.712 2 279.156 2 264.416V172.528Z" fill="url(#paint1_radial_4956_8117)" fill-opacity="0.7"/>
<path d="M26.0291 143.421L409 80.9975L791.971 143.421C805.276 145.59 815.047 157.083 815.047 170.563V266.218C815.047 279.698 805.276 291.191 791.971 293.36L409 355.784L26.029 293.36C12.7244 291.191 2.95312 279.698 2.95312 266.218V170.563C2.95312 157.083 12.7244 145.59 26.0291 143.421Z" stroke="url(#paint2_linear_4956_8117)" stroke-width="5"/>
<path d="M2.95312 170.563C2.95312 157.093 12.7094 145.608 25.9983 143.426L409 90.976L791.971 143.421C791.981 143.423 791.991 143.425 792.002 143.426C805.291 145.608 815.047 157.093 815.047 170.563V266.218C815.047 279.688 805.291 291.173 792.002 293.355C791.992 293.356 791.981 293.358 791.971 293.36L409 345.805L25.9983 293.355C12.7093 291.173 2.95312 279.688 2.95312 266.218V170.563Z" stroke="url(#paint3_linear_4956_8117)" stroke-width="5"/>
<path d="M2.95312 170.563C2.95312 157.104 12.6942 145.626 25.9674 143.432L409 100.956L792.033 143.432C805.306 145.626 815.047 157.104 815.047 170.563V266.218C815.047 279.677 805.306 291.156 792.033 293.35L409 335.825L25.9673 293.35C12.6942 291.156 2.95312 279.677 2.95312 266.218V170.563Z" stroke="url(#paint4_linear_4956_8117)" stroke-width="5"/>
<path d="M2.95312 170.563C2.95312 157.114 12.679 145.644 25.9362 143.437L409 110.938L792.064 143.437C805.321 145.644 815.047 157.114 815.047 170.563V266.218C815.047 279.667 805.321 291.138 792.064 293.344L409 325.843L25.936 293.344C12.6789 291.138 2.95312 279.667 2.95312 266.218V170.563Z" stroke="url(#paint5_linear_4956_8117)" stroke-width="5"/>
<path d="M2.95312 170.563C2.95312 157.125 12.6636 145.662 25.9048 143.442L409 120.922L792.095 143.442C805.336 145.662 815.047 157.125 815.047 170.563V266.218C815.047 279.656 805.336 291.12 792.095 293.339L409 315.86L25.9047 293.339C12.6636 291.12 2.95312 279.656 2.95312 266.218V170.563Z" stroke="url(#paint6_linear_4956_8117)" stroke-width="5"/>
<circle cx="409" cy="218.391" r="160" fill="url(#paint7_radial_4956_8117)" stroke="url(#paint8_linear_4956_8117)" stroke-width="40"/>
<rect x="348" y="145.5" width="122" height="33" rx="16.5" fill="#27DB9A"/>
<path d="M372.051 168.59V166.538H375.345C375.945 166.538 376.401 166.376 376.713 166.052C377.025 165.716 377.181 165.26 377.181 164.684C377.181 164.108 377.025 163.664 376.713 163.352C376.401 163.028 375.945 162.866 375.345 162.866H372.051V161.3H375.165C376.041 161.3 376.821 161.408 377.505 161.624C378.201 161.828 378.741 162.176 379.125 162.668C379.521 163.16 379.719 163.82 379.719 164.648V164.9C379.719 165.68 379.545 166.346 379.197 166.898C378.861 167.438 378.351 167.858 377.667 168.158C376.995 168.446 376.161 168.59 375.165 168.59H372.051ZM369.909 168.59V155.27H372.411V168.59H369.909ZM372.051 162.452V160.886H374.859C375.471 160.886 375.921 160.724 376.209 160.4C376.497 160.076 376.641 159.644 376.641 159.104C376.641 158.564 376.497 158.132 376.209 157.808C375.921 157.484 375.471 157.322 374.859 157.322H372.051V155.27H374.625C376.113 155.27 377.241 155.582 378.009 156.206C378.789 156.83 379.179 157.724 379.179 158.888V159.14C379.179 159.956 378.981 160.61 378.585 161.102C378.201 161.582 377.667 161.93 376.983 162.146C376.299 162.35 375.513 162.452 374.625 162.452H372.051ZM386.407 168.842C385.567 168.842 384.829 168.698 384.193 168.41C383.569 168.122 383.047 167.738 382.627 167.258C382.219 166.766 381.907 166.22 381.691 165.62C381.487 165.02 381.385 164.408 381.385 163.784V163.442C381.385 162.794 381.487 162.17 381.691 161.57C381.907 160.958 382.219 160.418 382.627 159.95C383.047 159.47 383.563 159.092 384.175 158.816C384.787 158.528 385.495 158.384 386.299 158.384C387.355 158.384 388.237 158.618 388.945 159.086C389.665 159.542 390.205 160.148 390.565 160.904C390.925 161.648 391.105 162.452 391.105 163.316V164.216H382.447V162.686H389.539L388.765 163.442C388.765 162.818 388.675 162.284 388.495 161.84C388.315 161.396 388.039 161.054 387.667 160.814C387.307 160.574 386.851 160.454 386.299 160.454C385.747 160.454 385.279 160.58 384.895 160.832C384.511 161.084 384.217 161.45 384.013 161.93C383.821 162.398 383.725 162.962 383.725 163.622C383.725 164.234 383.821 164.78 384.013 165.26C384.205 165.728 384.499 166.1 384.895 166.376C385.291 166.64 385.795 166.772 386.407 166.772C387.019 166.772 387.517 166.652 387.901 166.412C388.285 166.16 388.531 165.854 388.639 165.494H390.943C390.799 166.166 390.523 166.754 390.115 167.258C389.707 167.762 389.185 168.152 388.549 168.428C387.925 168.704 387.211 168.842 386.407 168.842ZM393.321 168.5V155.36H395.823V168.5H393.321ZM392.097 157.232V155.36H395.823V157.232H392.097ZM402.928 168.626C402.028 168.626 401.284 168.512 400.696 168.284C400.12 168.044 399.688 167.648 399.4 167.096C399.112 166.532 398.968 165.776 398.968 164.828L398.986 155.972H401.326L401.308 164.99C401.308 165.47 401.434 165.842 401.686 166.106C401.95 166.358 402.322 166.484 402.802 166.484H404.332V168.626H402.928ZM397.42 160.562V158.726H404.332V160.562H397.42ZM410.317 168.5V158.726H412.297V162.866H412.243C412.243 161.462 412.543 160.4 413.143 159.68C413.743 158.96 414.625 158.6 415.789 158.6H416.149V160.778H415.465C414.625 160.778 413.971 161.006 413.503 161.462C413.047 161.906 412.819 162.554 412.819 163.406V168.5H410.317ZM423.692 168.5V165.602H423.278V162.38C423.278 161.816 423.14 161.396 422.864 161.12C422.588 160.844 422.162 160.706 421.586 160.706C421.286 160.706 420.926 160.712 420.506 160.724C420.086 160.736 419.66 160.754 419.228 160.778C418.808 160.79 418.43 160.808 418.094 160.832V158.708C418.37 158.684 418.682 158.66 419.03 158.636C419.378 158.612 419.732 158.6 420.092 158.6C420.464 158.588 420.812 158.582 421.136 158.582C422.144 158.582 422.978 158.714 423.638 158.978C424.31 159.242 424.814 159.656 425.15 160.22C425.498 160.784 425.672 161.522 425.672 162.434V168.5H423.692ZM420.542 168.752C419.834 168.752 419.21 168.626 418.67 168.374C418.142 168.122 417.728 167.762 417.428 167.294C417.14 166.826 416.996 166.262 416.996 165.602C416.996 164.882 417.17 164.294 417.518 163.838C417.878 163.382 418.376 163.04 419.012 162.812C419.66 162.584 420.416 162.47 421.28 162.47H423.548V163.964H421.244C420.668 163.964 420.224 164.108 419.912 164.396C419.612 164.672 419.462 165.032 419.462 165.476C419.462 165.92 419.612 166.28 419.912 166.556C420.224 166.832 420.668 166.97 421.244 166.97C421.592 166.97 421.91 166.91 422.198 166.79C422.498 166.658 422.744 166.442 422.936 166.142C423.14 165.83 423.254 165.41 423.278 164.882L423.89 165.584C423.83 166.268 423.662 166.844 423.386 167.312C423.122 167.78 422.75 168.14 422.27 168.392C421.802 168.632 421.226 168.752 420.542 168.752ZM428.352 168.5V158.726H430.332V162.92H430.152C430.152 161.924 430.284 161.096 430.548 160.436C430.812 159.764 431.202 159.26 431.718 158.924C432.246 158.588 432.9 158.42 433.68 158.42H433.788C434.952 158.42 435.834 158.798 436.434 159.554C437.034 160.298 437.334 161.414 437.334 162.902V168.5H434.832V162.686C434.832 162.086 434.658 161.6 434.31 161.228C433.974 160.856 433.506 160.67 432.906 160.67C432.294 160.67 431.796 160.862 431.412 161.246C431.04 161.618 430.854 162.122 430.854 162.758V168.5H428.352ZM446.864 168.5L443.588 163.928H442.13L446.288 158.726H448.898L445.064 163.532L445.118 162.272L449.69 168.5H446.864ZM440.024 168.5V155.36H442.526V168.5H440.024Z" fill="white"/>
<rect x="289" y="183.5" width="240" height="69" rx="34.5" fill="#27DB9A"/>
<path d="M353.248 233.3C350.501 233.3 348.141 232.847 346.168 231.94C344.195 231.007 342.581 229.793 341.328 228.3C340.075 226.807 339.155 225.18 338.568 223.42C337.981 221.66 337.688 219.94 337.688 218.26V217.38C337.688 215.567 337.995 213.78 338.608 212.02C339.221 210.233 340.141 208.62 341.368 207.18C342.621 205.74 344.181 204.593 346.048 203.74C347.915 202.86 350.101 202.42 352.608 202.42C355.301 202.42 357.675 202.913 359.728 203.9C361.808 204.887 363.475 206.26 364.728 208.02C365.981 209.753 366.715 211.767 366.928 214.06H359.488C359.328 213.18 358.941 212.393 358.328 211.7C357.715 210.98 356.915 210.42 355.928 210.02C354.968 209.593 353.861 209.38 352.608 209.38C351.408 209.38 350.341 209.593 349.408 210.02C348.501 210.42 347.728 211.007 347.088 211.78C346.475 212.527 346.008 213.42 345.688 214.46C345.368 215.5 345.208 216.633 345.208 217.86C345.208 219.087 345.381 220.233 345.728 221.3C346.075 222.34 346.581 223.26 347.248 224.06C347.915 224.833 348.755 225.433 349.768 225.86C350.781 226.287 351.941 226.5 353.248 226.5C354.901 226.5 356.328 226.153 357.528 225.46C358.728 224.767 359.568 223.847 360.048 222.7L359.488 227.1V220.74H366.288V226.74C365.061 228.847 363.315 230.473 361.048 231.62C358.808 232.74 356.208 233.3 353.248 233.3ZM352.448 222.18V216.98H368.688V222.18H352.448ZM372.448 232.5V203.06H379.888V232.5H372.448ZM390.048 232.5L381.848 220.1H389.928L398.608 232.5H390.048ZM378.008 223.54V217.82H385.008C385.888 217.82 386.648 217.647 387.288 217.3C387.928 216.953 388.422 216.46 388.768 215.82C389.142 215.18 389.328 214.433 389.328 213.58C389.328 212.7 389.142 211.94 388.768 211.3C388.422 210.66 387.928 210.167 387.288 209.82C386.648 209.473 385.888 209.3 385.008 209.3H378.008V203.06H384.568C387.102 203.06 389.288 203.447 391.128 204.22C392.968 204.967 394.382 206.087 395.368 207.58C396.355 209.047 396.848 210.873 396.848 213.06V213.7C396.848 215.887 396.342 217.713 395.328 219.18C394.342 220.62 392.928 221.713 391.088 222.46C389.275 223.18 387.102 223.54 384.568 223.54H378.008ZM402.058 232.5V203.3H409.258V232.5H402.058ZM408.458 232.5V226.42H420.778V232.5H408.458ZM408.458 220.7V214.62H419.938V220.7H408.458ZM408.458 209.38V203.3H420.538V209.38H408.458ZM425.73 232.5V203.3H432.93V232.5H425.73ZM432.13 232.5V226.42H444.45V232.5H432.13ZM432.13 220.7V214.62H443.61V220.7H432.13ZM432.13 209.38V203.3H444.21V209.38H432.13ZM449.401 232.5V203.3H461.601L471.321 226.58H472.721L471.921 227.3V203.3H478.881V232.5H466.601L456.881 209.22H455.481L456.281 208.5V232.5H449.401Z" fill="white"/>
<rect x="345" y="257.5" width="128" height="33" rx="16.5" fill="#27DB9A"/>
<path d="M366.798 280.5V267.36H369.354V280.5H366.798ZM368.994 280.5V278.25H374.664V280.5H368.994ZM380.817 280.842C379.977 280.842 379.239 280.698 378.603 280.41C377.979 280.122 377.457 279.738 377.037 279.258C376.629 278.766 376.317 278.22 376.101 277.62C375.897 277.02 375.795 276.408 375.795 275.784V275.442C375.795 274.794 375.897 274.17 376.101 273.57C376.317 272.958 376.629 272.418 377.037 271.95C377.457 271.47 377.973 271.092 378.585 270.816C379.197 270.528 379.905 270.384 380.709 270.384C381.765 270.384 382.647 270.618 383.355 271.086C384.075 271.542 384.615 272.148 384.975 272.904C385.335 273.648 385.515 274.452 385.515 275.316V276.216H376.857V274.686H383.949L383.175 275.442C383.175 274.818 383.085 274.284 382.905 273.84C382.725 273.396 382.449 273.054 382.077 272.814C381.717 272.574 381.261 272.454 380.709 272.454C380.157 272.454 379.689 272.58 379.305 272.832C378.921 273.084 378.627 273.45 378.423 273.93C378.231 274.398 378.135 274.962 378.135 275.622C378.135 276.234 378.231 276.78 378.423 277.26C378.615 277.728 378.909 278.1 379.305 278.376C379.701 278.64 380.205 278.772 380.817 278.772C381.429 278.772 381.927 278.652 382.311 278.412C382.695 278.16 382.941 277.854 383.049 277.494H385.353C385.209 278.166 384.933 278.754 384.525 279.258C384.117 279.762 383.595 280.152 382.959 280.428C382.335 280.704 381.621 280.842 380.817 280.842ZM389.48 280.5L386.42 270.726H388.994L391.928 280.5H389.48ZM390.218 280.5V278.448H392.864V280.5H390.218ZM391.208 280.5L393.728 270.726H396.14L393.494 280.5H391.208ZM402.192 280.842C401.352 280.842 400.614 280.698 399.978 280.41C399.354 280.122 398.832 279.738 398.412 279.258C398.004 278.766 397.692 278.22 397.476 277.62C397.272 277.02 397.17 276.408 397.17 275.784V275.442C397.17 274.794 397.272 274.17 397.476 273.57C397.692 272.958 398.004 272.418 398.412 271.95C398.832 271.47 399.348 271.092 399.96 270.816C400.572 270.528 401.28 270.384 402.084 270.384C403.14 270.384 404.022 270.618 404.73 271.086C405.45 271.542 405.99 272.148 406.35 272.904C406.71 273.648 406.89 274.452 406.89 275.316V276.216H398.232V274.686H405.324L404.55 275.442C404.55 274.818 404.46 274.284 404.28 273.84C404.1 273.396 403.824 273.054 403.452 272.814C403.092 272.574 402.636 272.454 402.084 272.454C401.532 272.454 401.064 272.58 400.68 272.832C400.296 273.084 400.002 273.45 399.798 273.93C399.606 274.398 399.51 274.962 399.51 275.622C399.51 276.234 399.606 276.78 399.798 277.26C399.99 277.728 400.284 278.1 400.68 278.376C401.076 278.64 401.58 278.772 402.192 278.772C402.804 278.772 403.302 278.652 403.686 278.412C404.07 278.16 404.316 277.854 404.424 277.494H406.728C406.584 278.166 406.308 278.754 405.9 279.258C405.492 279.762 404.97 280.152 404.334 280.428C403.71 280.704 402.996 280.842 402.192 280.842ZM409.107 280.5V267.36H411.609V280.5H409.107ZM407.883 269.232V267.36H411.609V269.232H407.883ZM414.069 280.5V277.62H416.877V280.5H414.069ZM414.069 274.29V271.41H416.877V274.29H414.069ZM422.446 277.782V275.01L427.594 267L429.52 268.314L424.984 275.406L425.2 275.766H433.264V277.782H422.446ZM429.322 280.5V271.086H431.68V280.5H429.322ZM434.058 281.58L437.766 266.46H440.268L436.56 281.58H434.058ZM446.419 266.982C447.391 266.982 448.213 267.15 448.885 267.486C449.569 267.81 450.121 268.26 450.541 268.836C450.961 269.412 451.267 270.084 451.459 270.852C451.651 271.608 451.747 272.412 451.747 273.264V274.056C451.747 276.204 451.201 277.836 450.109 278.952C449.029 280.056 447.439 280.608 445.339 280.608C444.883 280.608 444.457 280.596 444.061 280.572C443.665 280.548 443.269 280.512 442.873 280.464V278.322C443.269 278.37 443.671 278.406 444.079 278.43C444.499 278.454 444.949 278.466 445.429 278.466C446.437 278.466 447.229 278.292 447.805 277.944C448.381 277.596 448.789 277.086 449.029 276.414C449.281 275.742 449.407 274.908 449.407 273.912V272.742L449.983 271.914C449.971 272.838 449.785 273.606 449.425 274.218C449.077 274.818 448.591 275.274 447.967 275.586C447.343 275.886 446.629 276.036 445.825 276.036C444.889 276.036 444.091 275.85 443.431 275.478C442.771 275.106 442.261 274.59 441.901 273.93C441.553 273.27 441.379 272.502 441.379 271.626C441.379 270.714 441.583 269.91 441.991 269.214C442.399 268.506 442.975 267.96 443.719 267.576C444.475 267.18 445.375 266.982 446.419 266.982ZM446.473 269.124C445.909 269.124 445.429 269.232 445.033 269.448C444.637 269.652 444.337 269.94 444.133 270.312C443.929 270.684 443.827 271.11 443.827 271.59C443.827 272.082 443.923 272.514 444.115 272.886C444.319 273.258 444.613 273.546 444.997 273.75C445.381 273.954 445.843 274.056 446.383 274.056C446.899 274.056 447.367 273.966 447.787 273.786C448.219 273.594 448.555 273.318 448.795 272.958C449.047 272.586 449.173 272.13 449.173 271.59C449.173 271.122 449.071 270.702 448.867 270.33C448.675 269.958 448.375 269.664 447.967 269.448C447.571 269.232 447.073 269.124 446.473 269.124Z" fill="white"/>
<circle opacity="0.2" cx="409" cy="220" r="217.5" stroke="#BFFFF0" stroke-width="5"/>
<circle opacity="0.4" cx="409" cy="219" r="207.5" stroke="#BFFFF0" stroke-width="5"/>
<circle opacity="0.6" cx="409" cy="218.781" r="197.5" stroke="#BFFFF0" stroke-width="5"/>
<circle opacity="0.8" cx="409" cy="218.781" r="187.5" stroke="#BFFFF0" stroke-width="5"/>
<circle opacity="0.6" cx="409" cy="218.781" r="177.5" stroke="#BFFFF0" stroke-width="5"/>
<circle opacity="0.7" cx="409" cy="218.781" r="167.5" stroke="#BFFFF0" stroke-width="5"/>
<circle opacity="0.8" cx="409" cy="218.781" r="157.5" stroke="#BFFFF0" stroke-width="5"/>
<circle opacity="0.9" cx="409" cy="218.781" r="147.5" stroke="#BFFFF0" stroke-width="5"/>
</g>
<defs>
<radialGradient id="paint0_radial_4956_8117" cx="0" cy="0" r="1" gradientUnits="userSpaceOnUse" gradientTransform="translate(408.545 220) scale(408.455 758.51)">
<stop offset="0.550856"/>
<stop offset="1" stop-opacity="0"/>
</radialGradient>
<radialGradient id="paint1_radial_4956_8117" cx="0" cy="0" r="1" gradientUnits="userSpaceOnUse" gradientTransform="translate(408.5 218) scale(406.5 1208.35)">
<stop offset="0.430504" stop-color="#0CEC80"/>
<stop offset="1" stop-color="#BFFFF0"/>
</radialGradient>
<linearGradient id="paint2_linear_4956_8117" x1="5.00001" y1="218.391" x2="711.594" y2="-55.8095" gradientUnits="userSpaceOnUse">
<stop stop-color="#BFFFF0"/>
<stop offset="0.348958" stop-color="#BFFFF0"/>
<stop offset="0.625" stop-color="#BFFFF0"/>
<stop offset="1" stop-color="#BFFFF0"/>
</linearGradient>
<linearGradient id="paint3_linear_4956_8117" x1="5.00001" y1="218.391" x2="697.122" y2="-70.8537" gradientUnits="userSpaceOnUse">
<stop stop-color="#BFFFF0"/>
<stop offset="0.348958" stop-color="#BFFFF0"/>
<stop offset="0.625" stop-color="#BFFFF0"/>
<stop offset="1" stop-color="#BFFFF0"/>
</linearGradient>
<linearGradient id="paint4_linear_4956_8117" x1="5.00001" y1="218.391" x2="679.706" y2="-87.0726" gradientUnits="userSpaceOnUse">
<stop stop-color="#BFFFF0"/>
<stop offset="0.348958" stop-color="#BFFFF0"/>
<stop offset="0.625" stop-color="#BFFFF0"/>
<stop offset="1" stop-color="#BFFFF0"/>
</linearGradient>
<linearGradient id="paint5_linear_4956_8117" x1="5.00001" y1="218.391" x2="658.574" y2="-104.405" gradientUnits="userSpaceOnUse">
<stop stop-color="#BFFFF0"/>
<stop offset="0.348958" stop-color="#BFFFF0"/>
<stop offset="0.625" stop-color="#BFFFF0"/>
<stop offset="1" stop-color="#BFFFF0"/>
</linearGradient>
<linearGradient id="paint6_linear_4956_8117" x1="5.00001" y1="218.391" x2="632.724" y2="-122.641" gradientUnits="userSpaceOnUse">
<stop stop-color="#BFFFF0"/>
<stop offset="0.348958" stop-color="#BFFFF0"/>
<stop offset="0.625" stop-color="#BFFFF0"/>
<stop offset="1" stop-color="#BFFFF0"/>
</linearGradient>
<radialGradient id="paint7_radial_4956_8117" cx="0" cy="0" r="1" gradientUnits="userSpaceOnUse" gradientTransform="translate(409 218.391) rotate(90) scale(140)">
<stop stop-color="#BFFFF0"/>
<stop offset="1" stop-color="#0CEC80"/>
</radialGradient>
<linearGradient id="paint8_linear_4956_8117" x1="409" y1="356.833" x2="382.774" y2="80.7264" gradientUnits="userSpaceOnUse">
<stop stop-color="#0CEC80"/>
<stop offset="0.348958" stop-color="#BFFFF0"/>
<stop offset="0.625" stop-color="#BFFFF0"/>
<stop offset="1" stop-color="#0CEC80"/>
</linearGradient>
</defs>
</svg>
