<svg width="818" height="440" viewBox="0 0 818 440" fill="none" xmlns="http://www.w3.org/2000/svg">
<mask id="mask0_4956_8116" style="mask-type:alpha" maskUnits="userSpaceOnUse" x="0" y="0" width="818" height="440">
<rect width="817.09" height="440" fill="url(#paint0_radial_4956_8116)"/>
</mask>
<g mask="url(#mask0_4956_8116)">
<path d="M2 172.528C2 157.813 12.6732 145.27 27.1988 142.915L401.228 82.2736C404.389 81.7612 407.611 81.7581 410.773 82.2644L789.744 142.955C804.296 145.286 815 157.841 815 172.578V264.416C815 279.156 804.292 291.712 789.737 294.04L413.237 354.243C410.099 354.744 406.901 354.744 403.763 354.243L27.2631 294.04C12.708 291.712 2 279.156 2 264.416V172.528Z" fill="url(#paint1_radial_4956_8116)" fill-opacity="0.7"/>
<path d="M26.0291 143.421L409 80.9975L791.971 143.421C805.276 145.59 815.047 157.083 815.047 170.563V266.218C815.047 279.698 805.276 291.191 791.971 293.36L409 355.784L26.029 293.36C12.7244 291.191 2.95312 279.698 2.95312 266.218V170.563C2.95312 157.083 12.7244 145.59 26.0291 143.421Z" stroke="url(#paint2_linear_4956_8116)" stroke-width="5"/>
<path d="M2.95312 170.563C2.95312 157.093 12.7094 145.608 25.9983 143.426L409 90.976L791.971 143.421C791.981 143.423 791.991 143.425 792.002 143.426C805.291 145.608 815.047 157.093 815.047 170.563V266.218C815.047 279.688 805.291 291.173 792.002 293.355C791.992 293.356 791.981 293.358 791.971 293.36L409 345.805L25.9983 293.355C12.7093 291.173 2.95312 279.688 2.95312 266.218V170.563Z" stroke="url(#paint3_linear_4956_8116)" stroke-width="5"/>
<path d="M2.95312 170.563C2.95312 157.104 12.6942 145.626 25.9674 143.432L409 100.956L792.033 143.432C805.306 145.626 815.047 157.104 815.047 170.563V266.218C815.047 279.677 805.306 291.156 792.033 293.35L409 335.825L25.9673 293.35C12.6942 291.156 2.95312 279.677 2.95312 266.218V170.563Z" stroke="url(#paint4_linear_4956_8116)" stroke-width="5"/>
<path d="M2.95312 170.563C2.95312 157.114 12.679 145.644 25.9362 143.437L409 110.938L792.064 143.437C805.321 145.644 815.047 157.114 815.047 170.563V266.218C815.047 279.667 805.321 291.138 792.064 293.344L409 325.843L25.936 293.344C12.6789 291.138 2.95312 279.667 2.95312 266.218V170.563Z" stroke="url(#paint5_linear_4956_8116)" stroke-width="5"/>
<path d="M2.95312 170.563C2.95312 157.125 12.6636 145.662 25.9048 143.442L409 120.922L792.095 143.442C805.336 145.662 815.047 157.125 815.047 170.563V266.218C815.047 279.656 805.336 291.12 792.095 293.339L409 315.86L25.9047 293.339C12.6636 291.12 2.95312 279.656 2.95312 266.218V170.563Z" stroke="url(#paint6_linear_4956_8116)" stroke-width="5"/>
<circle cx="409" cy="218.391" r="160" fill="url(#paint7_radial_4956_8116)" stroke="url(#paint8_linear_4956_8116)" stroke-width="40"/>
<rect x="348" y="145.5" width="122" height="33" rx="16.5" fill="#F27603"/>
<path d="M372.051 168.59V166.538H375.345C375.945 166.538 376.401 166.376 376.713 166.052C377.025 165.716 377.181 165.26 377.181 164.684C377.181 164.108 377.025 163.664 376.713 163.352C376.401 163.028 375.945 162.866 375.345 162.866H372.051V161.3H375.165C376.041 161.3 376.821 161.408 377.505 161.624C378.201 161.828 378.741 162.176 379.125 162.668C379.521 163.16 379.719 163.82 379.719 164.648V164.9C379.719 165.68 379.545 166.346 379.197 166.898C378.861 167.438 378.351 167.858 377.667 168.158C376.995 168.446 376.161 168.59 375.165 168.59H372.051ZM369.909 168.59V155.27H372.411V168.59H369.909ZM372.051 162.452V160.886H374.859C375.471 160.886 375.921 160.724 376.209 160.4C376.497 160.076 376.641 159.644 376.641 159.104C376.641 158.564 376.497 158.132 376.209 157.808C375.921 157.484 375.471 157.322 374.859 157.322H372.051V155.27H374.625C376.113 155.27 377.241 155.582 378.009 156.206C378.789 156.83 379.179 157.724 379.179 158.888V159.14C379.179 159.956 378.981 160.61 378.585 161.102C378.201 161.582 377.667 161.93 376.983 162.146C376.299 162.35 375.513 162.452 374.625 162.452H372.051ZM386.407 168.842C385.567 168.842 384.829 168.698 384.193 168.41C383.569 168.122 383.047 167.738 382.627 167.258C382.219 166.766 381.907 166.22 381.691 165.62C381.487 165.02 381.385 164.408 381.385 163.784V163.442C381.385 162.794 381.487 162.17 381.691 161.57C381.907 160.958 382.219 160.418 382.627 159.95C383.047 159.47 383.563 159.092 384.175 158.816C384.787 158.528 385.495 158.384 386.299 158.384C387.355 158.384 388.237 158.618 388.945 159.086C389.665 159.542 390.205 160.148 390.565 160.904C390.925 161.648 391.105 162.452 391.105 163.316V164.216H382.447V162.686H389.539L388.765 163.442C388.765 162.818 388.675 162.284 388.495 161.84C388.315 161.396 388.039 161.054 387.667 160.814C387.307 160.574 386.851 160.454 386.299 160.454C385.747 160.454 385.279 160.58 384.895 160.832C384.511 161.084 384.217 161.45 384.013 161.93C383.821 162.398 383.725 162.962 383.725 163.622C383.725 164.234 383.821 164.78 384.013 165.26C384.205 165.728 384.499 166.1 384.895 166.376C385.291 166.64 385.795 166.772 386.407 166.772C387.019 166.772 387.517 166.652 387.901 166.412C388.285 166.16 388.531 165.854 388.639 165.494H390.943C390.799 166.166 390.523 166.754 390.115 167.258C389.707 167.762 389.185 168.152 388.549 168.428C387.925 168.704 387.211 168.842 386.407 168.842ZM393.321 168.5V155.36H395.823V168.5H393.321ZM392.097 157.232V155.36H395.823V157.232H392.097ZM402.928 168.626C402.028 168.626 401.284 168.512 400.696 168.284C400.12 168.044 399.688 167.648 399.4 167.096C399.112 166.532 398.968 165.776 398.968 164.828L398.986 155.972H401.326L401.308 164.99C401.308 165.47 401.434 165.842 401.686 166.106C401.95 166.358 402.322 166.484 402.802 166.484H404.332V168.626H402.928ZM397.42 160.562V158.726H404.332V160.562H397.42ZM410.317 168.5V158.726H412.297V162.866H412.243C412.243 161.462 412.543 160.4 413.143 159.68C413.743 158.96 414.625 158.6 415.789 158.6H416.149V160.778H415.465C414.625 160.778 413.971 161.006 413.503 161.462C413.047 161.906 412.819 162.554 412.819 163.406V168.5H410.317ZM423.692 168.5V165.602H423.278V162.38C423.278 161.816 423.14 161.396 422.864 161.12C422.588 160.844 422.162 160.706 421.586 160.706C421.286 160.706 420.926 160.712 420.506 160.724C420.086 160.736 419.66 160.754 419.228 160.778C418.808 160.79 418.43 160.808 418.094 160.832V158.708C418.37 158.684 418.682 158.66 419.03 158.636C419.378 158.612 419.732 158.6 420.092 158.6C420.464 158.588 420.812 158.582 421.136 158.582C422.144 158.582 422.978 158.714 423.638 158.978C424.31 159.242 424.814 159.656 425.15 160.22C425.498 160.784 425.672 161.522 425.672 162.434V168.5H423.692ZM420.542 168.752C419.834 168.752 419.21 168.626 418.67 168.374C418.142 168.122 417.728 167.762 417.428 167.294C417.14 166.826 416.996 166.262 416.996 165.602C416.996 164.882 417.17 164.294 417.518 163.838C417.878 163.382 418.376 163.04 419.012 162.812C419.66 162.584 420.416 162.47 421.28 162.47H423.548V163.964H421.244C420.668 163.964 420.224 164.108 419.912 164.396C419.612 164.672 419.462 165.032 419.462 165.476C419.462 165.92 419.612 166.28 419.912 166.556C420.224 166.832 420.668 166.97 421.244 166.97C421.592 166.97 421.91 166.91 422.198 166.79C422.498 166.658 422.744 166.442 422.936 166.142C423.14 165.83 423.254 165.41 423.278 164.882L423.89 165.584C423.83 166.268 423.662 166.844 423.386 167.312C423.122 167.78 422.75 168.14 422.27 168.392C421.802 168.632 421.226 168.752 420.542 168.752ZM428.352 168.5V158.726H430.332V162.92H430.152C430.152 161.924 430.284 161.096 430.548 160.436C430.812 159.764 431.202 159.26 431.718 158.924C432.246 158.588 432.9 158.42 433.68 158.42H433.788C434.952 158.42 435.834 158.798 436.434 159.554C437.034 160.298 437.334 161.414 437.334 162.902V168.5H434.832V162.686C434.832 162.086 434.658 161.6 434.31 161.228C433.974 160.856 433.506 160.67 432.906 160.67C432.294 160.67 431.796 160.862 431.412 161.246C431.04 161.618 430.854 162.122 430.854 162.758V168.5H428.352ZM446.864 168.5L443.588 163.928H442.13L446.288 158.726H448.898L445.064 163.532L445.118 162.272L449.69 168.5H446.864ZM440.024 168.5V155.36H442.526V168.5H440.024Z" fill="white"/>
<rect x="289" y="183.5" width="240" height="69" rx="34.5" fill="#F27603"/>
<path d="M332.198 233.3C329.531 233.3 327.211 232.847 325.238 231.94C323.265 231.007 321.625 229.793 320.318 228.3C319.011 226.78 318.038 225.14 317.398 223.38C316.758 221.62 316.438 219.913 316.438 218.26V217.38C316.438 215.54 316.771 213.74 317.438 211.98C318.105 210.193 319.105 208.58 320.438 207.14C321.771 205.7 323.411 204.553 325.358 203.7C327.331 202.847 329.611 202.42 332.198 202.42C334.758 202.42 337.011 202.847 338.958 203.7C340.931 204.553 342.585 205.7 343.918 207.14C345.251 208.58 346.251 210.193 346.918 211.98C347.611 213.74 347.958 215.54 347.958 217.38V218.26C347.958 219.913 347.625 221.62 346.958 223.38C346.318 225.14 345.345 226.78 344.038 228.3C342.731 229.793 341.091 231.007 339.118 231.94C337.145 232.847 334.838 233.3 332.198 233.3ZM332.198 226.34C333.478 226.34 334.625 226.127 335.638 225.7C336.651 225.273 337.518 224.673 338.238 223.9C338.958 223.127 339.505 222.233 339.878 221.22C340.251 220.18 340.438 219.06 340.438 217.86C340.438 216.58 340.238 215.42 339.838 214.38C339.465 213.34 338.918 212.447 338.198 211.7C337.478 210.953 336.611 210.38 335.598 209.98C334.585 209.58 333.451 209.38 332.198 209.38C330.918 209.38 329.771 209.58 328.758 209.98C327.745 210.38 326.878 210.953 326.158 211.7C325.438 212.447 324.891 213.34 324.518 214.38C324.145 215.42 323.958 216.58 323.958 217.86C323.958 219.06 324.145 220.18 324.518 221.22C324.891 222.233 325.438 223.127 326.158 223.9C326.878 224.673 327.745 225.273 328.758 225.7C329.771 226.127 330.918 226.34 332.198 226.34ZM352.448 232.5V203.06H359.888V232.5H352.448ZM370.048 232.5L361.848 220.1H369.928L378.608 232.5H370.048ZM358.008 223.54V217.82H365.008C365.888 217.82 366.648 217.647 367.288 217.3C367.928 216.953 368.422 216.46 368.768 215.82C369.142 215.18 369.328 214.433 369.328 213.58C369.328 212.7 369.142 211.94 368.768 211.3C368.422 210.66 367.928 210.167 367.288 209.82C366.648 209.473 365.888 209.3 365.008 209.3H358.008V203.06H364.568C367.102 203.06 369.288 203.447 371.128 204.22C372.968 204.967 374.382 206.087 375.368 207.58C376.355 209.047 376.848 210.873 376.848 213.06V213.7C376.848 215.887 376.342 217.713 375.328 219.18C374.342 220.62 372.928 221.713 371.088 222.46C369.275 223.18 367.102 223.54 364.568 223.54H358.008ZM379.418 232.5L388.778 203.3H400.698L410.378 232.5H402.698L395.178 208.5L397.298 209.3H392.018L394.178 208.5L386.858 232.5H379.418ZM387.058 225.74L389.298 219.66H400.378L402.618 225.74H387.058ZM413.659 232.5V203.3H425.859L435.579 226.58H436.979L436.179 227.3V203.3H443.139V232.5H430.859L421.139 209.22H419.739L420.539 208.5V232.5H413.659ZM463.17 233.3C460.423 233.3 458.063 232.847 456.09 231.94C454.117 231.007 452.503 229.793 451.25 228.3C449.997 226.807 449.077 225.18 448.49 223.42C447.903 221.66 447.61 219.94 447.61 218.26V217.38C447.61 215.567 447.917 213.78 448.53 212.02C449.143 210.233 450.063 208.62 451.29 207.18C452.543 205.74 454.103 204.593 455.97 203.74C457.837 202.86 460.023 202.42 462.53 202.42C465.223 202.42 467.597 202.913 469.65 203.9C471.73 204.887 473.397 206.26 474.65 208.02C475.903 209.753 476.637 211.767 476.85 214.06H469.41C469.25 213.18 468.863 212.393 468.25 211.7C467.637 210.98 466.837 210.42 465.85 210.02C464.89 209.593 463.783 209.38 462.53 209.38C461.33 209.38 460.263 209.593 459.33 210.02C458.423 210.42 457.65 211.007 457.01 211.78C456.397 212.527 455.93 213.42 455.61 214.46C455.29 215.5 455.13 216.633 455.13 217.86C455.13 219.087 455.303 220.233 455.65 221.3C455.997 222.34 456.503 223.26 457.17 224.06C457.837 224.833 458.677 225.433 459.69 225.86C460.703 226.287 461.863 226.5 463.17 226.5C464.823 226.5 466.25 226.153 467.45 225.46C468.65 224.767 469.49 223.847 469.97 222.7L469.41 227.1V220.74H476.21V226.74C474.983 228.847 473.237 230.473 470.97 231.62C468.73 232.74 466.13 233.3 463.17 233.3ZM462.37 222.18V216.98H478.61V222.18H462.37ZM482.37 232.5V203.3H489.57V232.5H482.37ZM488.77 232.5V226.42H501.09V232.5H488.77ZM488.77 220.7V214.62H500.25V220.7H488.77ZM488.77 209.38V203.3H500.85V209.38H488.77Z" fill="white"/>
<rect x="345.5" y="257.5" width="127" height="33" rx="16.5" fill="#F27603"/>
<path d="M367.123 280.5V267.36H369.679V280.5H367.123ZM369.319 280.5V278.25H374.989V280.5H369.319ZM381.143 280.842C380.303 280.842 379.565 280.698 378.929 280.41C378.305 280.122 377.783 279.738 377.363 279.258C376.955 278.766 376.643 278.22 376.427 277.62C376.223 277.02 376.121 276.408 376.121 275.784V275.442C376.121 274.794 376.223 274.17 376.427 273.57C376.643 272.958 376.955 272.418 377.363 271.95C377.783 271.47 378.299 271.092 378.911 270.816C379.523 270.528 380.231 270.384 381.035 270.384C382.091 270.384 382.973 270.618 383.681 271.086C384.401 271.542 384.941 272.148 385.301 272.904C385.661 273.648 385.841 274.452 385.841 275.316V276.216H377.183V274.686H384.275L383.501 275.442C383.501 274.818 383.411 274.284 383.231 273.84C383.051 273.396 382.775 273.054 382.403 272.814C382.043 272.574 381.587 272.454 381.035 272.454C380.483 272.454 380.015 272.58 379.631 272.832C379.247 273.084 378.953 273.45 378.749 273.93C378.557 274.398 378.461 274.962 378.461 275.622C378.461 276.234 378.557 276.78 378.749 277.26C378.941 277.728 379.235 278.1 379.631 278.376C380.027 278.64 380.531 278.772 381.143 278.772C381.755 278.772 382.253 278.652 382.637 278.412C383.021 278.16 383.267 277.854 383.375 277.494H385.679C385.535 278.166 385.259 278.754 384.851 279.258C384.443 279.762 383.921 280.152 383.285 280.428C382.661 280.704 381.947 280.842 381.143 280.842ZM389.805 280.5L386.745 270.726H389.319L392.253 280.5H389.805ZM390.543 280.5V278.448H393.189V280.5H390.543ZM391.533 280.5L394.053 270.726H396.465L393.819 280.5H391.533ZM402.518 280.842C401.678 280.842 400.94 280.698 400.304 280.41C399.68 280.122 399.158 279.738 398.738 279.258C398.33 278.766 398.018 278.22 397.802 277.62C397.598 277.02 397.496 276.408 397.496 275.784V275.442C397.496 274.794 397.598 274.17 397.802 273.57C398.018 272.958 398.33 272.418 398.738 271.95C399.158 271.47 399.674 271.092 400.286 270.816C400.898 270.528 401.606 270.384 402.41 270.384C403.466 270.384 404.348 270.618 405.056 271.086C405.776 271.542 406.316 272.148 406.676 272.904C407.036 273.648 407.216 274.452 407.216 275.316V276.216H398.558V274.686H405.65L404.876 275.442C404.876 274.818 404.786 274.284 404.606 273.84C404.426 273.396 404.15 273.054 403.778 272.814C403.418 272.574 402.962 272.454 402.41 272.454C401.858 272.454 401.39 272.58 401.006 272.832C400.622 273.084 400.328 273.45 400.124 273.93C399.932 274.398 399.836 274.962 399.836 275.622C399.836 276.234 399.932 276.78 400.124 277.26C400.316 277.728 400.61 278.1 401.006 278.376C401.402 278.64 401.906 278.772 402.518 278.772C403.13 278.772 403.628 278.652 404.012 278.412C404.396 278.16 404.642 277.854 404.75 277.494H407.054C406.91 278.166 406.634 278.754 406.226 279.258C405.818 279.762 405.296 280.152 404.66 280.428C404.036 280.704 403.322 280.842 402.518 280.842ZM409.432 280.5V267.36H411.934V280.5H409.432ZM408.208 269.232V267.36H411.934V269.232H408.208ZM414.394 280.5V277.62H417.202V280.5H414.394ZM414.394 274.29V271.41H417.202V274.29H414.394ZM427.595 280.842C426.587 280.842 425.717 280.65 424.985 280.266C424.265 279.882 423.713 279.372 423.329 278.736C422.945 278.088 422.753 277.368 422.753 276.576H425.219C425.219 277.212 425.429 277.728 425.849 278.124C426.281 278.508 426.863 278.7 427.595 278.7C428.087 278.7 428.507 278.61 428.855 278.43C429.215 278.238 429.491 277.98 429.683 277.656C429.875 277.32 429.971 276.936 429.971 276.504C429.971 275.856 429.761 275.328 429.341 274.92C428.921 274.5 428.345 274.29 427.613 274.29C427.253 274.29 426.935 274.338 426.659 274.434C426.395 274.53 426.161 274.656 425.957 274.812L424.787 272.796L429.107 269.844L428.945 269.538H423.293V267.36H431.879V269.988L427.433 272.94L426.047 272.688C426.275 272.616 426.521 272.562 426.785 272.526C427.049 272.478 427.337 272.454 427.649 272.454C428.645 272.454 429.497 272.628 430.205 272.976C430.925 273.312 431.477 273.78 431.861 274.38C432.245 274.98 432.437 275.67 432.437 276.45V276.684C432.437 277.44 432.245 278.136 431.861 278.772C431.477 279.396 430.925 279.9 430.205 280.284C429.485 280.656 428.615 280.842 427.595 280.842ZM433.732 281.58L437.44 266.46H439.942L436.234 281.58H433.732ZM446.094 266.982C447.066 266.982 447.888 267.15 448.56 267.486C449.244 267.81 449.796 268.26 450.216 268.836C450.636 269.412 450.942 270.084 451.134 270.852C451.326 271.608 451.422 272.412 451.422 273.264V274.056C451.422 276.204 450.876 277.836 449.784 278.952C448.704 280.056 447.114 280.608 445.014 280.608C444.558 280.608 444.132 280.596 443.736 280.572C443.34 280.548 442.944 280.512 442.548 280.464V278.322C442.944 278.37 443.346 278.406 443.754 278.43C444.174 278.454 444.624 278.466 445.104 278.466C446.112 278.466 446.904 278.292 447.48 277.944C448.056 277.596 448.464 277.086 448.704 276.414C448.956 275.742 449.082 274.908 449.082 273.912V272.742L449.658 271.914C449.646 272.838 449.46 273.606 449.1 274.218C448.752 274.818 448.266 275.274 447.642 275.586C447.018 275.886 446.304 276.036 445.5 276.036C444.564 276.036 443.766 275.85 443.106 275.478C442.446 275.106 441.936 274.59 441.576 273.93C441.228 273.27 441.054 272.502 441.054 271.626C441.054 270.714 441.258 269.91 441.666 269.214C442.074 268.506 442.65 267.96 443.394 267.576C444.15 267.18 445.05 266.982 446.094 266.982ZM446.148 269.124C445.584 269.124 445.104 269.232 444.708 269.448C444.312 269.652 444.012 269.94 443.808 270.312C443.604 270.684 443.502 271.11 443.502 271.59C443.502 272.082 443.598 272.514 443.79 272.886C443.994 273.258 444.288 273.546 444.672 273.75C445.056 273.954 445.518 274.056 446.058 274.056C446.574 274.056 447.042 273.966 447.462 273.786C447.894 273.594 448.23 273.318 448.47 272.958C448.722 272.586 448.848 272.13 448.848 271.59C448.848 271.122 448.746 270.702 448.542 270.33C448.35 269.958 448.05 269.664 447.642 269.448C447.246 269.232 446.748 269.124 446.148 269.124Z" fill="white"/>
<circle opacity="0.2" cx="409" cy="220" r="217.5" stroke="#FFB349" stroke-width="5"/>
<circle opacity="0.4" cx="409" cy="219" r="207.5" stroke="#FFB349" stroke-width="5"/>
<circle opacity="0.6" cx="409" cy="218.781" r="197.5" stroke="#FFB349" stroke-width="5"/>
<circle opacity="0.8" cx="409" cy="218.781" r="187.5" stroke="#FFB349" stroke-width="5"/>
<circle opacity="0.6" cx="409" cy="218.781" r="177.5" stroke="#FFB349" stroke-width="5"/>
<circle opacity="0.7" cx="409" cy="218.781" r="167.5" stroke="#FFB349" stroke-width="5"/>
<circle opacity="0.8" cx="409" cy="218.781" r="157.5" stroke="#FFB349" stroke-width="5"/>
<circle opacity="0.9" cx="409" cy="218.781" r="147.5" stroke="#FFB349" stroke-width="5"/>
</g>
<defs>
<radialGradient id="paint0_radial_4956_8116" cx="0" cy="0" r="1" gradientUnits="userSpaceOnUse" gradientTransform="translate(408.545 220) scale(408.455 758.51)">
<stop offset="0.550856"/>
<stop offset="1" stop-opacity="0"/>
</radialGradient>
<radialGradient id="paint1_radial_4956_8116" cx="0" cy="0" r="1" gradientUnits="userSpaceOnUse" gradientTransform="translate(408.5 218) scale(406.5 1208.35)">
<stop offset="0.430504" stop-color="#F27603"/>
<stop offset="1" stop-color="#FFB349"/>
</radialGradient>
<linearGradient id="paint2_linear_4956_8116" x1="5.00001" y1="218.391" x2="759.993" y2="9.11804" gradientUnits="userSpaceOnUse">
<stop stop-color="#FF7F23"/>
<stop offset="0.348958" stop-color="#FFB349"/>
<stop offset="0.625" stop-color="#FFB349"/>
<stop offset="1" stop-color="#FF7F23"/>
</linearGradient>
<linearGradient id="paint3_linear_4956_8116" x1="5.00001" y1="218.391" x2="751.484" y2="-4.4398" gradientUnits="userSpaceOnUse">
<stop stop-color="#FF7F23"/>
<stop offset="0.348958" stop-color="#FFB349"/>
<stop offset="0.625" stop-color="#FFB349"/>
<stop offset="1" stop-color="#FF7F23"/>
</linearGradient>
<linearGradient id="paint4_linear_4956_8116" x1="5.00001" y1="218.391" x2="741.029" y2="-19.6281" gradientUnits="userSpaceOnUse">
<stop stop-color="#FF7F23"/>
<stop offset="0.348958" stop-color="#FFB349"/>
<stop offset="0.625" stop-color="#FFB349"/>
<stop offset="1" stop-color="#FF7F23"/>
</linearGradient>
<linearGradient id="paint5_linear_4956_8116" x1="5.00001" y1="218.391" x2="728.017" y2="-36.676" gradientUnits="userSpaceOnUse">
<stop stop-color="#FF7F23"/>
<stop offset="0.348958" stop-color="#FFB349"/>
<stop offset="0.625" stop-color="#FFB349"/>
<stop offset="1" stop-color="#FF7F23"/>
</linearGradient>
<linearGradient id="paint6_linear_4956_8116" x1="5.00001" y1="218.391" x2="711.594" y2="-55.8095" gradientUnits="userSpaceOnUse">
<stop stop-color="#FF7F23"/>
<stop offset="0.348958" stop-color="#FFB349"/>
<stop offset="0.625" stop-color="#FFB349"/>
<stop offset="1" stop-color="#FF7F23"/>
</linearGradient>
<radialGradient id="paint7_radial_4956_8116" cx="0" cy="0" r="1" gradientUnits="userSpaceOnUse" gradientTransform="translate(409 218.391) rotate(90) scale(140)">
<stop stop-color="#FFB349"/>
<stop offset="1" stop-color="#FF7F23"/>
</radialGradient>
<linearGradient id="paint8_linear_4956_8116" x1="409" y1="356.833" x2="382.774" y2="80.7264" gradientUnits="userSpaceOnUse">
<stop stop-color="#FF7F23"/>
<stop offset="0.348958" stop-color="#FFB349"/>
<stop offset="0.625" stop-color="#FFB349"/>
<stop offset="1" stop-color="#FF7F23"/>
</linearGradient>
</defs>
</svg>
