<svg width="818" height="440" viewBox="0 0 818 440" fill="none" xmlns="http://www.w3.org/2000/svg">
<mask id="mask0_4956_14526" style="mask-type:alpha" maskUnits="userSpaceOnUse" x="0" y="0" width="818" height="440">
<rect width="817.09" height="440" fill="url(#paint0_radial_4956_14526)"/>
</mask>
<g mask="url(#mask0_4956_14526)">
<path d="M2 172.528C2 157.813 12.6732 145.27 27.1988 142.915L401.228 82.2736C404.389 81.7612 407.611 81.7581 410.773 82.2644L789.744 142.955C804.296 145.286 815 157.841 815 172.578V264.416C815 279.156 804.292 291.712 789.737 294.04L413.237 354.243C410.099 354.744 406.901 354.744 403.763 354.243L27.2631 294.04C12.708 291.712 2 279.156 2 264.416V172.528Z" fill="url(#paint1_radial_4956_14526)" fill-opacity="0.7"/>
<path d="M26.0291 143.421L409 80.9975L791.971 143.421C805.276 145.59 815.047 157.083 815.047 170.563V266.218C815.047 279.698 805.276 291.191 791.971 293.36L409 355.784L26.029 293.36C12.7244 291.191 2.95312 279.698 2.95312 266.218V170.563C2.95312 157.083 12.7244 145.59 26.0291 143.421Z" stroke="url(#paint2_linear_4956_14526)" stroke-width="5"/>
<path d="M2.95312 170.563C2.95312 157.093 12.7094 145.608 25.9983 143.426L409 90.976L791.971 143.421C791.981 143.423 791.991 143.425 792.002 143.426C805.291 145.608 815.047 157.093 815.047 170.563V266.218C815.047 279.688 805.291 291.173 792.002 293.355C791.992 293.356 791.981 293.358 791.971 293.36L409 345.805L25.9983 293.355C12.7093 291.173 2.95312 279.688 2.95312 266.218V170.563Z" stroke="url(#paint3_linear_4956_14526)" stroke-width="5"/>
<path d="M2.95312 170.563C2.95312 157.104 12.6942 145.626 25.9674 143.432L409 100.956L792.033 143.432C805.306 145.626 815.047 157.104 815.047 170.563V266.218C815.047 279.677 805.306 291.156 792.033 293.35L409 335.825L25.9673 293.35C12.6942 291.156 2.95312 279.677 2.95312 266.218V170.563Z" stroke="url(#paint4_linear_4956_14526)" stroke-width="5"/>
<path d="M2.95312 170.563C2.95312 157.114 12.679 145.644 25.9362 143.437L409 110.938L792.064 143.437C805.321 145.644 815.047 157.114 815.047 170.563V266.218C815.047 279.667 805.321 291.138 792.064 293.344L409 325.843L25.936 293.344C12.6789 291.138 2.95312 279.667 2.95312 266.218V170.563Z" stroke="url(#paint5_linear_4956_14526)" stroke-width="5"/>
<path d="M2.95312 170.563C2.95312 157.125 12.6636 145.662 25.9048 143.442L409 120.922L792.095 143.442C805.336 145.662 815.047 157.125 815.047 170.563V266.218C815.047 279.656 805.336 291.12 792.095 293.339L409 315.86L25.9047 293.339C12.6636 291.12 2.95312 279.656 2.95312 266.218V170.563Z" stroke="url(#paint6_linear_4956_14526)" stroke-width="5"/>
<circle cx="409" cy="218.391" r="160" fill="url(#paint7_radial_4956_14526)" stroke="url(#paint8_linear_4956_14526)" stroke-width="40"/>
<rect x="348" y="145.5" width="122" height="33" rx="16.5" fill="#8105B0"/>
<path d="M372.051 168.59V166.538H375.345C375.945 166.538 376.401 166.376 376.713 166.052C377.025 165.716 377.181 165.26 377.181 164.684C377.181 164.108 377.025 163.664 376.713 163.352C376.401 163.028 375.945 162.866 375.345 162.866H372.051V161.3H375.165C376.041 161.3 376.821 161.408 377.505 161.624C378.201 161.828 378.741 162.176 379.125 162.668C379.521 163.16 379.719 163.82 379.719 164.648V164.9C379.719 165.68 379.545 166.346 379.197 166.898C378.861 167.438 378.351 167.858 377.667 168.158C376.995 168.446 376.161 168.59 375.165 168.59H372.051ZM369.909 168.59V155.27H372.411V168.59H369.909ZM372.051 162.452V160.886H374.859C375.471 160.886 375.921 160.724 376.209 160.4C376.497 160.076 376.641 159.644 376.641 159.104C376.641 158.564 376.497 158.132 376.209 157.808C375.921 157.484 375.471 157.322 374.859 157.322H372.051V155.27H374.625C376.113 155.27 377.241 155.582 378.009 156.206C378.789 156.83 379.179 157.724 379.179 158.888V159.14C379.179 159.956 378.981 160.61 378.585 161.102C378.201 161.582 377.667 161.93 376.983 162.146C376.299 162.35 375.513 162.452 374.625 162.452H372.051ZM386.407 168.842C385.567 168.842 384.829 168.698 384.193 168.41C383.569 168.122 383.047 167.738 382.627 167.258C382.219 166.766 381.907 166.22 381.691 165.62C381.487 165.02 381.385 164.408 381.385 163.784V163.442C381.385 162.794 381.487 162.17 381.691 161.57C381.907 160.958 382.219 160.418 382.627 159.95C383.047 159.47 383.563 159.092 384.175 158.816C384.787 158.528 385.495 158.384 386.299 158.384C387.355 158.384 388.237 158.618 388.945 159.086C389.665 159.542 390.205 160.148 390.565 160.904C390.925 161.648 391.105 162.452 391.105 163.316V164.216H382.447V162.686H389.539L388.765 163.442C388.765 162.818 388.675 162.284 388.495 161.84C388.315 161.396 388.039 161.054 387.667 160.814C387.307 160.574 386.851 160.454 386.299 160.454C385.747 160.454 385.279 160.58 384.895 160.832C384.511 161.084 384.217 161.45 384.013 161.93C383.821 162.398 383.725 162.962 383.725 163.622C383.725 164.234 383.821 164.78 384.013 165.26C384.205 165.728 384.499 166.1 384.895 166.376C385.291 166.64 385.795 166.772 386.407 166.772C387.019 166.772 387.517 166.652 387.901 166.412C388.285 166.16 388.531 165.854 388.639 165.494H390.943C390.799 166.166 390.523 166.754 390.115 167.258C389.707 167.762 389.185 168.152 388.549 168.428C387.925 168.704 387.211 168.842 386.407 168.842ZM393.321 168.5V155.36H395.823V168.5H393.321ZM392.097 157.232V155.36H395.823V157.232H392.097ZM402.928 168.626C402.028 168.626 401.284 168.512 400.696 168.284C400.12 168.044 399.688 167.648 399.4 167.096C399.112 166.532 398.968 165.776 398.968 164.828L398.986 155.972H401.326L401.308 164.99C401.308 165.47 401.434 165.842 401.686 166.106C401.95 166.358 402.322 166.484 402.802 166.484H404.332V168.626H402.928ZM397.42 160.562V158.726H404.332V160.562H397.42ZM410.317 168.5V158.726H412.297V162.866H412.243C412.243 161.462 412.543 160.4 413.143 159.68C413.743 158.96 414.625 158.6 415.789 158.6H416.149V160.778H415.465C414.625 160.778 413.971 161.006 413.503 161.462C413.047 161.906 412.819 162.554 412.819 163.406V168.5H410.317ZM423.692 168.5V165.602H423.278V162.38C423.278 161.816 423.14 161.396 422.864 161.12C422.588 160.844 422.162 160.706 421.586 160.706C421.286 160.706 420.926 160.712 420.506 160.724C420.086 160.736 419.66 160.754 419.228 160.778C418.808 160.79 418.43 160.808 418.094 160.832V158.708C418.37 158.684 418.682 158.66 419.03 158.636C419.378 158.612 419.732 158.6 420.092 158.6C420.464 158.588 420.812 158.582 421.136 158.582C422.144 158.582 422.978 158.714 423.638 158.978C424.31 159.242 424.814 159.656 425.15 160.22C425.498 160.784 425.672 161.522 425.672 162.434V168.5H423.692ZM420.542 168.752C419.834 168.752 419.21 168.626 418.67 168.374C418.142 168.122 417.728 167.762 417.428 167.294C417.14 166.826 416.996 166.262 416.996 165.602C416.996 164.882 417.17 164.294 417.518 163.838C417.878 163.382 418.376 163.04 419.012 162.812C419.66 162.584 420.416 162.47 421.28 162.47H423.548V163.964H421.244C420.668 163.964 420.224 164.108 419.912 164.396C419.612 164.672 419.462 165.032 419.462 165.476C419.462 165.92 419.612 166.28 419.912 166.556C420.224 166.832 420.668 166.97 421.244 166.97C421.592 166.97 421.91 166.91 422.198 166.79C422.498 166.658 422.744 166.442 422.936 166.142C423.14 165.83 423.254 165.41 423.278 164.882L423.89 165.584C423.83 166.268 423.662 166.844 423.386 167.312C423.122 167.78 422.75 168.14 422.27 168.392C421.802 168.632 421.226 168.752 420.542 168.752ZM428.352 168.5V158.726H430.332V162.92H430.152C430.152 161.924 430.284 161.096 430.548 160.436C430.812 159.764 431.202 159.26 431.718 158.924C432.246 158.588 432.9 158.42 433.68 158.42H433.788C434.952 158.42 435.834 158.798 436.434 159.554C437.034 160.298 437.334 161.414 437.334 162.902V168.5H434.832V162.686C434.832 162.086 434.658 161.6 434.31 161.228C433.974 160.856 433.506 160.67 432.906 160.67C432.294 160.67 431.796 160.862 431.412 161.246C431.04 161.618 430.854 162.122 430.854 162.758V168.5H428.352ZM446.864 168.5L443.588 163.928H442.13L446.288 158.726H448.898L445.064 163.532L445.118 162.272L449.69 168.5H446.864ZM440.024 168.5V155.36H442.526V168.5H440.024Z" fill="white"/>
<rect x="289" y="183.5" width="240" height="69" rx="34.5" fill="#8105B0"/>
<path d="M338.268 224.74V218.34H343.068C343.975 218.34 344.761 218.167 345.428 217.82C346.095 217.447 346.615 216.927 346.988 216.26C347.361 215.593 347.548 214.807 347.548 213.9C347.548 212.967 347.361 212.167 346.988 211.5C346.615 210.833 346.095 210.327 345.428 209.98C344.761 209.633 343.975 209.46 343.068 209.46H338.268V203.06H342.868C345.375 203.06 347.535 203.487 349.348 204.34C351.188 205.167 352.601 206.367 353.588 207.94C354.575 209.513 355.068 211.393 355.068 213.58V214.22C355.068 216.38 354.575 218.247 353.588 219.82C352.601 221.393 351.188 222.607 349.348 223.46C347.535 224.313 345.375 224.74 342.868 224.74H338.268ZM331.628 232.5V203.06H339.068V232.5H331.628ZM371.139 233.3C368.339 233.3 365.966 232.78 364.019 231.74C362.099 230.7 360.633 229.233 359.619 227.34C358.606 225.42 358.099 223.153 358.099 220.54V203.3H365.539V220.7C365.539 221.847 365.753 222.847 366.179 223.7C366.633 224.553 367.273 225.207 368.099 225.66C368.926 226.113 369.939 226.34 371.139 226.34C372.339 226.34 373.353 226.113 374.179 225.66C375.006 225.207 375.633 224.567 376.059 223.74C376.486 222.887 376.699 221.873 376.699 220.7V203.3H384.139V220.54C384.139 223.153 383.633 225.42 382.619 227.34C381.633 229.233 380.166 230.7 378.219 231.74C376.299 232.78 373.939 233.3 371.139 233.3ZM389.519 232.5V203.06H396.959V232.5H389.519ZM407.119 232.5L398.919 220.1H406.999L415.679 232.5H407.119ZM395.079 223.54V217.82H402.079C402.959 217.82 403.719 217.647 404.359 217.3C404.999 216.953 405.492 216.46 405.839 215.82C406.212 215.18 406.399 214.433 406.399 213.58C406.399 212.7 406.212 211.94 405.839 211.3C405.492 210.66 404.999 210.167 404.359 209.82C403.719 209.473 402.959 209.3 402.079 209.3H395.079V203.06H401.639C404.172 203.06 406.359 203.447 408.199 204.22C410.039 204.967 411.452 206.087 412.439 207.58C413.425 209.047 413.919 210.873 413.919 213.06V213.7C413.919 215.887 413.412 217.713 412.399 219.18C411.412 220.62 409.999 221.713 408.159 222.46C406.345 223.18 404.172 223.54 401.639 223.54H395.079ZM425.768 224.74V218.34H430.568C431.475 218.34 432.261 218.167 432.928 217.82C433.595 217.447 434.115 216.927 434.488 216.26C434.861 215.593 435.048 214.807 435.048 213.9C435.048 212.967 434.861 212.167 434.488 211.5C434.115 210.833 433.595 210.327 432.928 209.98C432.261 209.633 431.475 209.46 430.568 209.46H425.768V203.06H430.368C432.875 203.06 435.035 203.487 436.848 204.34C438.688 205.167 440.101 206.367 441.088 207.94C442.075 209.513 442.568 211.393 442.568 213.58V214.22C442.568 216.38 442.075 218.247 441.088 219.82C440.101 221.393 438.688 222.607 436.848 223.46C435.035 224.313 432.875 224.74 430.368 224.74H425.768ZM419.128 232.5V203.06H426.568V232.5H419.128ZM446.159 232.5V203.3H453.599V232.5H446.159ZM452.799 232.5V226.02H464.639V232.5H452.799ZM468.62 232.5V203.3H475.82V232.5H468.62ZM475.02 232.5V226.42H487.34V232.5H475.02ZM475.02 220.7V214.62H486.5V220.7H475.02ZM475.02 209.38V203.3H487.1V209.38H475.02Z" fill="white"/>
<rect x="345" y="257.5" width="128" height="33" rx="16.5" fill="#8105B0"/>
<path d="M366.657 280.5V267.36H369.213V280.5H366.657ZM368.853 280.5V278.25H374.523V280.5H368.853ZM380.677 280.842C379.837 280.842 379.099 280.698 378.463 280.41C377.839 280.122 377.317 279.738 376.897 279.258C376.489 278.766 376.177 278.22 375.961 277.62C375.757 277.02 375.655 276.408 375.655 275.784V275.442C375.655 274.794 375.757 274.17 375.961 273.57C376.177 272.958 376.489 272.418 376.897 271.95C377.317 271.47 377.833 271.092 378.445 270.816C379.057 270.528 379.765 270.384 380.569 270.384C381.625 270.384 382.507 270.618 383.215 271.086C383.935 271.542 384.475 272.148 384.835 272.904C385.195 273.648 385.375 274.452 385.375 275.316V276.216H376.717V274.686H383.809L383.035 275.442C383.035 274.818 382.945 274.284 382.765 273.84C382.585 273.396 382.309 273.054 381.937 272.814C381.577 272.574 381.121 272.454 380.569 272.454C380.017 272.454 379.549 272.58 379.165 272.832C378.781 273.084 378.487 273.45 378.283 273.93C378.091 274.398 377.995 274.962 377.995 275.622C377.995 276.234 378.091 276.78 378.283 277.26C378.475 277.728 378.769 278.1 379.165 278.376C379.561 278.64 380.065 278.772 380.677 278.772C381.289 278.772 381.787 278.652 382.171 278.412C382.555 278.16 382.801 277.854 382.909 277.494H385.213C385.069 278.166 384.793 278.754 384.385 279.258C383.977 279.762 383.455 280.152 382.819 280.428C382.195 280.704 381.481 280.842 380.677 280.842ZM389.339 280.5L386.279 270.726H388.853L391.787 280.5H389.339ZM390.077 280.5V278.448H392.723V280.5H390.077ZM391.067 280.5L393.587 270.726H395.999L393.353 280.5H391.067ZM402.052 280.842C401.212 280.842 400.474 280.698 399.838 280.41C399.214 280.122 398.692 279.738 398.272 279.258C397.864 278.766 397.552 278.22 397.336 277.62C397.132 277.02 397.03 276.408 397.03 275.784V275.442C397.03 274.794 397.132 274.17 397.336 273.57C397.552 272.958 397.864 272.418 398.272 271.95C398.692 271.47 399.208 271.092 399.82 270.816C400.432 270.528 401.14 270.384 401.944 270.384C403 270.384 403.882 270.618 404.59 271.086C405.31 271.542 405.85 272.148 406.21 272.904C406.57 273.648 406.75 274.452 406.75 275.316V276.216H398.092V274.686H405.184L404.41 275.442C404.41 274.818 404.32 274.284 404.14 273.84C403.96 273.396 403.684 273.054 403.312 272.814C402.952 272.574 402.496 272.454 401.944 272.454C401.392 272.454 400.924 272.58 400.54 272.832C400.156 273.084 399.862 273.45 399.658 273.93C399.466 274.398 399.37 274.962 399.37 275.622C399.37 276.234 399.466 276.78 399.658 277.26C399.85 277.728 400.144 278.1 400.54 278.376C400.936 278.64 401.44 278.772 402.052 278.772C402.664 278.772 403.162 278.652 403.546 278.412C403.93 278.16 404.176 277.854 404.284 277.494H406.588C406.444 278.166 406.168 278.754 405.76 279.258C405.352 279.762 404.83 280.152 404.194 280.428C403.57 280.704 402.856 280.842 402.052 280.842ZM408.966 280.5V267.36H411.468V280.5H408.966ZM407.742 269.232V267.36H411.468V269.232H407.742ZM413.928 280.5V277.62H416.736V280.5H413.928ZM413.928 274.29V271.41H416.736V274.29H413.928ZM428.029 280.878C427.057 280.878 426.229 280.716 425.545 280.392C424.873 280.056 424.327 279.6 423.907 279.024C423.487 278.448 423.181 277.782 422.989 277.026C422.797 276.258 422.701 275.448 422.701 274.596V273.804C422.701 271.656 423.241 270.03 424.321 268.926C425.413 267.81 427.009 267.252 429.109 267.252C429.565 267.252 429.991 267.264 430.387 267.288C430.783 267.312 431.179 267.348 431.575 267.396V269.538C431.179 269.49 430.771 269.454 430.351 269.43C429.943 269.406 429.499 269.394 429.019 269.394C428.011 269.394 427.219 269.568 426.643 269.916C426.067 270.264 425.653 270.774 425.401 271.446C425.161 272.118 425.041 272.952 425.041 273.948V275.118L424.465 275.946C424.477 275.022 424.657 274.26 425.005 273.66C425.365 273.048 425.857 272.592 426.481 272.292C427.105 271.98 427.819 271.824 428.623 271.824C429.559 271.824 430.357 272.01 431.017 272.382C431.677 272.754 432.181 273.27 432.529 273.93C432.889 274.59 433.069 275.358 433.069 276.234C433.069 277.146 432.865 277.956 432.457 278.664C432.049 279.36 431.467 279.906 430.711 280.302C429.967 280.686 429.073 280.878 428.029 280.878ZM427.975 278.736C428.539 278.736 429.019 278.634 429.415 278.43C429.811 278.214 430.111 277.92 430.315 277.548C430.519 277.176 430.621 276.75 430.621 276.27C430.621 275.778 430.519 275.346 430.315 274.974C430.123 274.602 429.835 274.314 429.451 274.11C429.067 273.906 428.605 273.804 428.065 273.804C427.549 273.804 427.075 273.9 426.643 274.092C426.223 274.272 425.887 274.548 425.635 274.92C425.395 275.28 425.275 275.73 425.275 276.27C425.275 276.738 425.371 277.158 425.563 277.53C425.767 277.902 426.067 278.196 426.463 278.412C426.871 278.628 427.375 278.736 427.975 278.736ZM434.198 281.58L437.906 266.46H440.408L436.7 281.58H434.198ZM446.56 266.982C447.532 266.982 448.354 267.15 449.026 267.486C449.71 267.81 450.262 268.26 450.682 268.836C451.102 269.412 451.408 270.084 451.6 270.852C451.792 271.608 451.888 272.412 451.888 273.264V274.056C451.888 276.204 451.342 277.836 450.25 278.952C449.17 280.056 447.58 280.608 445.48 280.608C445.024 280.608 444.598 280.596 444.202 280.572C443.806 280.548 443.41 280.512 443.014 280.464V278.322C443.41 278.37 443.812 278.406 444.22 278.43C444.64 278.454 445.09 278.466 445.57 278.466C446.578 278.466 447.37 278.292 447.946 277.944C448.522 277.596 448.93 277.086 449.17 276.414C449.422 275.742 449.548 274.908 449.548 273.912V272.742L450.124 271.914C450.112 272.838 449.926 273.606 449.566 274.218C449.218 274.818 448.732 275.274 448.108 275.586C447.484 275.886 446.77 276.036 445.966 276.036C445.03 276.036 444.232 275.85 443.572 275.478C442.912 275.106 442.402 274.59 442.042 273.93C441.694 273.27 441.52 272.502 441.52 271.626C441.52 270.714 441.724 269.91 442.132 269.214C442.54 268.506 443.116 267.96 443.86 267.576C444.616 267.18 445.516 266.982 446.56 266.982ZM446.614 269.124C446.05 269.124 445.57 269.232 445.174 269.448C444.778 269.652 444.478 269.94 444.274 270.312C444.07 270.684 443.968 271.11 443.968 271.59C443.968 272.082 444.064 272.514 444.256 272.886C444.46 273.258 444.754 273.546 445.138 273.75C445.522 273.954 445.984 274.056 446.524 274.056C447.04 274.056 447.508 273.966 447.928 273.786C448.36 273.594 448.696 273.318 448.936 272.958C449.188 272.586 449.314 272.13 449.314 271.59C449.314 271.122 449.212 270.702 449.008 270.33C448.816 269.958 448.516 269.664 448.108 269.448C447.712 269.232 447.214 269.124 446.614 269.124Z" fill="white"/>
<circle opacity="0.2" cx="409" cy="220" r="217.5" stroke="#E649FF" stroke-width="5"/>
<circle opacity="0.4" cx="409" cy="219" r="207.5" stroke="#E649FF" stroke-width="5"/>
<circle opacity="0.6" cx="409" cy="218.781" r="197.5" stroke="#E649FF" stroke-width="5"/>
<circle opacity="0.8" cx="409" cy="218.781" r="187.5" stroke="#E649FF" stroke-width="5"/>
<circle opacity="0.6" cx="409" cy="218.781" r="177.5" stroke="#E649FF" stroke-width="5"/>
<circle opacity="0.7" cx="409" cy="218.781" r="167.5" stroke="#E649FF" stroke-width="5"/>
<circle opacity="0.8" cx="409" cy="218.781" r="157.5" stroke="#E649FF" stroke-width="5"/>
<circle opacity="0.9" cx="409" cy="218.781" r="147.5" stroke="#E649FF" stroke-width="5"/>
</g>
<defs>
<radialGradient id="paint0_radial_4956_14526" cx="0" cy="0" r="1" gradientUnits="userSpaceOnUse" gradientTransform="translate(408.545 220) scale(408.455 758.51)">
<stop offset="0.550856"/>
<stop offset="1" stop-opacity="0"/>
</radialGradient>
<radialGradient id="paint1_radial_4956_14526" cx="0" cy="0" r="1" gradientUnits="userSpaceOnUse" gradientTransform="translate(408.5 218) scale(406.5 1208.35)">
<stop offset="0.430504" stop-color="#7D01B7"/>
<stop offset="1" stop-color="#E649FF"/>
</radialGradient>
<linearGradient id="paint2_linear_4956_14526" x1="5.00001" y1="218.391" x2="759.993" y2="9.11804" gradientUnits="userSpaceOnUse">
<stop stop-color="#7D01B7"/>
<stop offset="0.348958" stop-color="#E649FF"/>
<stop offset="0.625" stop-color="#E649FF"/>
<stop offset="1" stop-color="#7D01B7"/>
</linearGradient>
<linearGradient id="paint3_linear_4956_14526" x1="5.00001" y1="218.391" x2="751.484" y2="-4.4398" gradientUnits="userSpaceOnUse">
<stop stop-color="#7D01B7"/>
<stop offset="0.348958" stop-color="#E649FF"/>
<stop offset="0.625" stop-color="#E649FF"/>
<stop offset="1" stop-color="#7D01B7"/>
</linearGradient>
<linearGradient id="paint4_linear_4956_14526" x1="5.00001" y1="218.391" x2="741.029" y2="-19.6281" gradientUnits="userSpaceOnUse">
<stop stop-color="#7D01B7"/>
<stop offset="0.348958" stop-color="#E649FF"/>
<stop offset="0.625" stop-color="#E649FF"/>
<stop offset="1" stop-color="#7D01B7"/>
</linearGradient>
<linearGradient id="paint5_linear_4956_14526" x1="5.00001" y1="218.391" x2="728.017" y2="-36.676" gradientUnits="userSpaceOnUse">
<stop stop-color="#7D01B7"/>
<stop offset="0.348958" stop-color="#E649FF"/>
<stop offset="0.625" stop-color="#E649FF"/>
<stop offset="1" stop-color="#7D01B7"/>
</linearGradient>
<linearGradient id="paint6_linear_4956_14526" x1="5.00001" y1="218.391" x2="711.594" y2="-55.8095" gradientUnits="userSpaceOnUse">
<stop stop-color="#7D01B7"/>
<stop offset="0.348958" stop-color="#E649FF"/>
<stop offset="0.625" stop-color="#E649FF"/>
<stop offset="1" stop-color="#7D01B7"/>
</linearGradient>
<radialGradient id="paint7_radial_4956_14526" cx="0" cy="0" r="1" gradientUnits="userSpaceOnUse" gradientTransform="translate(409 218.391) rotate(90) scale(140)">
<stop stop-color="#E649FF"/>
<stop offset="1" stop-color="#7D01B7"/>
</radialGradient>
<linearGradient id="paint8_linear_4956_14526" x1="409" y1="356.833" x2="382.774" y2="80.7264" gradientUnits="userSpaceOnUse">
<stop stop-color="#7D01B7"/>
<stop offset="0.348958" stop-color="#E649FF"/>
<stop offset="0.625" stop-color="#E649FF"/>
<stop offset="1" stop-color="#7D01B7"/>
</linearGradient>
</defs>
</svg>
