<svg width="818" height="440" viewBox="0 0 818 440" fill="none" xmlns="http://www.w3.org/2000/svg">
<mask id="mask0_4956_14551" style="mask-type:alpha" maskUnits="userSpaceOnUse" x="0" y="0" width="818" height="440">
<rect width="817.09" height="440" fill="url(#paint0_radial_4956_14551)"/>
</mask>
<g mask="url(#mask0_4956_14551)">
<path d="M2 172.528C2 157.813 12.6732 145.27 27.1988 142.915L401.228 82.2736C404.389 81.7612 407.611 81.7581 410.773 82.2644L789.744 142.955C804.296 145.286 815 157.841 815 172.578V264.416C815 279.156 804.292 291.712 789.737 294.04L413.237 354.243C410.099 354.744 406.901 354.744 403.763 354.243L27.2631 294.04C12.708 291.712 2 279.156 2 264.416V172.528Z" fill="url(#paint1_radial_4956_14551)" fill-opacity="0.7"/>
<path d="M26.0291 143.421L409 80.9975L791.971 143.421C805.276 145.59 815.047 157.083 815.047 170.563V266.218C815.047 279.698 805.276 291.191 791.971 293.36L409 355.784L26.029 293.36C12.7244 291.191 2.95312 279.698 2.95312 266.218V170.563C2.95312 157.083 12.7244 145.59 26.0291 143.421Z" stroke="url(#paint2_linear_4956_14551)" stroke-width="5"/>
<path d="M2.95312 170.563C2.95312 157.093 12.7094 145.608 25.9983 143.426L409 90.976L791.971 143.421C791.981 143.423 791.991 143.425 792.002 143.426C805.291 145.608 815.047 157.093 815.047 170.563V266.218C815.047 279.688 805.291 291.173 792.002 293.355C791.992 293.356 791.981 293.358 791.971 293.36L409 345.805L25.9983 293.355C12.7093 291.173 2.95312 279.688 2.95312 266.218V170.563Z" stroke="url(#paint3_linear_4956_14551)" stroke-width="5"/>
<path d="M2.95312 170.563C2.95312 157.104 12.6942 145.626 25.9674 143.432L409 100.956L792.033 143.432C805.306 145.626 815.047 157.104 815.047 170.563V266.218C815.047 279.677 805.306 291.156 792.033 293.35L409 335.825L25.9673 293.35C12.6942 291.156 2.95312 279.677 2.95312 266.218V170.563Z" stroke="url(#paint4_linear_4956_14551)" stroke-width="5"/>
<path d="M2.95312 170.563C2.95312 157.114 12.679 145.644 25.9362 143.437L409 110.938L792.064 143.437C805.321 145.644 815.047 157.114 815.047 170.563V266.218C815.047 279.667 805.321 291.138 792.064 293.344L409 325.843L25.936 293.344C12.6789 291.138 2.95312 279.667 2.95312 266.218V170.563Z" stroke="url(#paint5_linear_4956_14551)" stroke-width="5"/>
<path d="M2.95312 170.563C2.95312 157.125 12.6636 145.662 25.9048 143.442L409 120.922L792.095 143.442C805.336 145.662 815.047 157.125 815.047 170.563V266.218C815.047 279.656 805.336 291.12 792.095 293.339L409 315.86L25.9047 293.339C12.6636 291.12 2.95312 279.656 2.95312 266.218V170.563Z" stroke="url(#paint6_linear_4956_14551)" stroke-width="5"/>
<circle cx="409" cy="218.391" r="160" fill="url(#paint7_radial_4956_14551)" stroke="url(#paint8_linear_4956_14551)" stroke-width="40"/>
<rect x="348" y="145.5" width="122" height="33" rx="16.5" fill="#BE0101"/>
<path d="M372.051 168.59V166.538H375.345C375.945 166.538 376.401 166.376 376.713 166.052C377.025 165.716 377.181 165.26 377.181 164.684C377.181 164.108 377.025 163.664 376.713 163.352C376.401 163.028 375.945 162.866 375.345 162.866H372.051V161.3H375.165C376.041 161.3 376.821 161.408 377.505 161.624C378.201 161.828 378.741 162.176 379.125 162.668C379.521 163.16 379.719 163.82 379.719 164.648V164.9C379.719 165.68 379.545 166.346 379.197 166.898C378.861 167.438 378.351 167.858 377.667 168.158C376.995 168.446 376.161 168.59 375.165 168.59H372.051ZM369.909 168.59V155.27H372.411V168.59H369.909ZM372.051 162.452V160.886H374.859C375.471 160.886 375.921 160.724 376.209 160.4C376.497 160.076 376.641 159.644 376.641 159.104C376.641 158.564 376.497 158.132 376.209 157.808C375.921 157.484 375.471 157.322 374.859 157.322H372.051V155.27H374.625C376.113 155.27 377.241 155.582 378.009 156.206C378.789 156.83 379.179 157.724 379.179 158.888V159.14C379.179 159.956 378.981 160.61 378.585 161.102C378.201 161.582 377.667 161.93 376.983 162.146C376.299 162.35 375.513 162.452 374.625 162.452H372.051ZM386.407 168.842C385.567 168.842 384.829 168.698 384.193 168.41C383.569 168.122 383.047 167.738 382.627 167.258C382.219 166.766 381.907 166.22 381.691 165.62C381.487 165.02 381.385 164.408 381.385 163.784V163.442C381.385 162.794 381.487 162.17 381.691 161.57C381.907 160.958 382.219 160.418 382.627 159.95C383.047 159.47 383.563 159.092 384.175 158.816C384.787 158.528 385.495 158.384 386.299 158.384C387.355 158.384 388.237 158.618 388.945 159.086C389.665 159.542 390.205 160.148 390.565 160.904C390.925 161.648 391.105 162.452 391.105 163.316V164.216H382.447V162.686H389.539L388.765 163.442C388.765 162.818 388.675 162.284 388.495 161.84C388.315 161.396 388.039 161.054 387.667 160.814C387.307 160.574 386.851 160.454 386.299 160.454C385.747 160.454 385.279 160.58 384.895 160.832C384.511 161.084 384.217 161.45 384.013 161.93C383.821 162.398 383.725 162.962 383.725 163.622C383.725 164.234 383.821 164.78 384.013 165.26C384.205 165.728 384.499 166.1 384.895 166.376C385.291 166.64 385.795 166.772 386.407 166.772C387.019 166.772 387.517 166.652 387.901 166.412C388.285 166.16 388.531 165.854 388.639 165.494H390.943C390.799 166.166 390.523 166.754 390.115 167.258C389.707 167.762 389.185 168.152 388.549 168.428C387.925 168.704 387.211 168.842 386.407 168.842ZM393.321 168.5V155.36H395.823V168.5H393.321ZM392.097 157.232V155.36H395.823V157.232H392.097ZM402.928 168.626C402.028 168.626 401.284 168.512 400.696 168.284C400.12 168.044 399.688 167.648 399.4 167.096C399.112 166.532 398.968 165.776 398.968 164.828L398.986 155.972H401.326L401.308 164.99C401.308 165.47 401.434 165.842 401.686 166.106C401.95 166.358 402.322 166.484 402.802 166.484H404.332V168.626H402.928ZM397.42 160.562V158.726H404.332V160.562H397.42ZM410.317 168.5V158.726H412.297V162.866H412.243C412.243 161.462 412.543 160.4 413.143 159.68C413.743 158.96 414.625 158.6 415.789 158.6H416.149V160.778H415.465C414.625 160.778 413.971 161.006 413.503 161.462C413.047 161.906 412.819 162.554 412.819 163.406V168.5H410.317ZM423.692 168.5V165.602H423.278V162.38C423.278 161.816 423.14 161.396 422.864 161.12C422.588 160.844 422.162 160.706 421.586 160.706C421.286 160.706 420.926 160.712 420.506 160.724C420.086 160.736 419.66 160.754 419.228 160.778C418.808 160.79 418.43 160.808 418.094 160.832V158.708C418.37 158.684 418.682 158.66 419.03 158.636C419.378 158.612 419.732 158.6 420.092 158.6C420.464 158.588 420.812 158.582 421.136 158.582C422.144 158.582 422.978 158.714 423.638 158.978C424.31 159.242 424.814 159.656 425.15 160.22C425.498 160.784 425.672 161.522 425.672 162.434V168.5H423.692ZM420.542 168.752C419.834 168.752 419.21 168.626 418.67 168.374C418.142 168.122 417.728 167.762 417.428 167.294C417.14 166.826 416.996 166.262 416.996 165.602C416.996 164.882 417.17 164.294 417.518 163.838C417.878 163.382 418.376 163.04 419.012 162.812C419.66 162.584 420.416 162.47 421.28 162.47H423.548V163.964H421.244C420.668 163.964 420.224 164.108 419.912 164.396C419.612 164.672 419.462 165.032 419.462 165.476C419.462 165.92 419.612 166.28 419.912 166.556C420.224 166.832 420.668 166.97 421.244 166.97C421.592 166.97 421.91 166.91 422.198 166.79C422.498 166.658 422.744 166.442 422.936 166.142C423.14 165.83 423.254 165.41 423.278 164.882L423.89 165.584C423.83 166.268 423.662 166.844 423.386 167.312C423.122 167.78 422.75 168.14 422.27 168.392C421.802 168.632 421.226 168.752 420.542 168.752ZM428.352 168.5V158.726H430.332V162.92H430.152C430.152 161.924 430.284 161.096 430.548 160.436C430.812 159.764 431.202 159.26 431.718 158.924C432.246 158.588 432.9 158.42 433.68 158.42H433.788C434.952 158.42 435.834 158.798 436.434 159.554C437.034 160.298 437.334 161.414 437.334 162.902V168.5H434.832V162.686C434.832 162.086 434.658 161.6 434.31 161.228C433.974 160.856 433.506 160.67 432.906 160.67C432.294 160.67 431.796 160.862 431.412 161.246C431.04 161.618 430.854 162.122 430.854 162.758V168.5H428.352ZM446.864 168.5L443.588 163.928H442.13L446.288 158.726H448.898L445.064 163.532L445.118 162.272L449.69 168.5H446.864ZM440.024 168.5V155.36H442.526V168.5H440.024Z" fill="white"/>
<rect x="289" y="183.5" width="240" height="69" rx="34.5" fill="#BE0101"/>
<path d="M369.753 232.5V203.06H377.193V232.5H369.753ZM387.353 232.5L379.153 220.1H387.233L395.913 232.5H387.353ZM375.313 223.54V217.82H382.313C383.193 217.82 383.953 217.647 384.593 217.3C385.233 216.953 385.726 216.46 386.073 215.82C386.446 215.18 386.633 214.433 386.633 213.58C386.633 212.7 386.446 211.94 386.073 211.3C385.726 210.66 385.233 210.167 384.593 209.82C383.953 209.473 383.193 209.3 382.313 209.3H375.313V203.06H381.873C384.406 203.06 386.593 203.447 388.433 204.22C390.273 204.967 391.686 206.087 392.673 207.58C393.66 209.047 394.153 210.873 394.153 213.06V213.7C394.153 215.887 393.646 217.713 392.633 219.18C391.646 220.62 390.233 221.713 388.393 222.46C386.58 223.18 384.406 223.54 381.873 223.54H375.313ZM399.362 232.5V203.3H406.562V232.5H399.362ZM405.762 232.5V226.42H418.082V232.5H405.762ZM405.762 220.7V214.62H417.242V220.7H405.762ZM405.762 209.38V203.3H417.842V209.38H405.762ZM429.674 232.66V225.7H434.474C435.728 225.7 436.848 225.527 437.834 225.18C438.848 224.807 439.701 224.287 440.394 223.62C441.088 222.927 441.621 222.1 441.994 221.14C442.368 220.153 442.554 219.047 442.554 217.82C442.554 216.54 442.368 215.42 441.994 214.46C441.621 213.473 441.088 212.66 440.394 212.02C439.701 211.353 438.848 210.86 437.834 210.54C436.848 210.193 435.728 210.02 434.474 210.02H429.674V203.06H434.154C436.794 203.06 439.101 203.433 441.074 204.18C443.074 204.927 444.741 205.967 446.074 207.3C447.408 208.607 448.408 210.127 449.074 211.86C449.741 213.593 450.074 215.433 450.074 217.38V218.26C450.074 220.047 449.741 221.807 449.074 223.54C448.408 225.247 447.408 226.793 446.074 228.18C444.741 229.54 443.074 230.633 441.074 231.46C439.101 232.26 436.794 232.66 434.154 232.66H429.674ZM423.034 232.66V203.06H430.474V232.66H423.034Z" fill="white"/>
<rect x="345.5" y="257.5" width="127" height="33" rx="16.5" fill="#BE0101"/>
<path d="M367.395 280.5V267.36H369.951V280.5H367.395ZM369.591 280.5V278.25H375.261V280.5H369.591ZM381.415 280.842C380.575 280.842 379.837 280.698 379.201 280.41C378.577 280.122 378.055 279.738 377.635 279.258C377.227 278.766 376.915 278.22 376.699 277.62C376.495 277.02 376.393 276.408 376.393 275.784V275.442C376.393 274.794 376.495 274.17 376.699 273.57C376.915 272.958 377.227 272.418 377.635 271.95C378.055 271.47 378.571 271.092 379.183 270.816C379.795 270.528 380.503 270.384 381.307 270.384C382.363 270.384 383.245 270.618 383.953 271.086C384.673 271.542 385.213 272.148 385.573 272.904C385.933 273.648 386.113 274.452 386.113 275.316V276.216H377.455V274.686H384.547L383.773 275.442C383.773 274.818 383.683 274.284 383.503 273.84C383.323 273.396 383.047 273.054 382.675 272.814C382.315 272.574 381.859 272.454 381.307 272.454C380.755 272.454 380.287 272.58 379.903 272.832C379.519 273.084 379.225 273.45 379.021 273.93C378.829 274.398 378.733 274.962 378.733 275.622C378.733 276.234 378.829 276.78 379.021 277.26C379.213 277.728 379.507 278.1 379.903 278.376C380.299 278.64 380.803 278.772 381.415 278.772C382.027 278.772 382.525 278.652 382.909 278.412C383.293 278.16 383.539 277.854 383.647 277.494H385.951C385.807 278.166 385.531 278.754 385.123 279.258C384.715 279.762 384.193 280.152 383.557 280.428C382.933 280.704 382.219 280.842 381.415 280.842ZM390.077 280.5L387.017 270.726H389.591L392.525 280.5H390.077ZM390.815 280.5V278.448H393.461V280.5H390.815ZM391.805 280.5L394.325 270.726H396.737L394.091 280.5H391.805ZM402.79 280.842C401.95 280.842 401.212 280.698 400.576 280.41C399.952 280.122 399.43 279.738 399.01 279.258C398.602 278.766 398.29 278.22 398.074 277.62C397.87 277.02 397.768 276.408 397.768 275.784V275.442C397.768 274.794 397.87 274.17 398.074 273.57C398.29 272.958 398.602 272.418 399.01 271.95C399.43 271.47 399.946 271.092 400.558 270.816C401.17 270.528 401.878 270.384 402.682 270.384C403.738 270.384 404.62 270.618 405.328 271.086C406.048 271.542 406.588 272.148 406.948 272.904C407.308 273.648 407.488 274.452 407.488 275.316V276.216H398.83V274.686H405.922L405.148 275.442C405.148 274.818 405.058 274.284 404.878 273.84C404.698 273.396 404.422 273.054 404.05 272.814C403.69 272.574 403.234 272.454 402.682 272.454C402.13 272.454 401.662 272.58 401.278 272.832C400.894 273.084 400.6 273.45 400.396 273.93C400.204 274.398 400.108 274.962 400.108 275.622C400.108 276.234 400.204 276.78 400.396 277.26C400.588 277.728 400.882 278.1 401.278 278.376C401.674 278.64 402.178 278.772 402.79 278.772C403.402 278.772 403.9 278.652 404.284 278.412C404.668 278.16 404.914 277.854 405.022 277.494H407.326C407.182 278.166 406.906 278.754 406.498 279.258C406.09 279.762 405.568 280.152 404.932 280.428C404.308 280.704 403.594 280.842 402.79 280.842ZM409.704 280.5V267.36H412.206V280.5H409.704ZM408.48 269.232V267.36H412.206V269.232H408.48ZM414.667 280.5V277.62H417.475V280.5H414.667ZM414.667 274.29V271.41H417.475V274.29H414.667ZM424.951 280.5L429.865 269.7L429.703 269.466H423.043V267.36H432.619V269.304L427.633 280.5H424.951ZM423.043 271.572V267.36H425.113V271.572H423.043ZM433.46 281.58L437.168 266.46H439.67L435.962 281.58H433.46ZM445.821 266.982C446.793 266.982 447.615 267.15 448.287 267.486C448.971 267.81 449.523 268.26 449.943 268.836C450.363 269.412 450.669 270.084 450.861 270.852C451.053 271.608 451.149 272.412 451.149 273.264V274.056C451.149 276.204 450.603 277.836 449.511 278.952C448.431 280.056 446.841 280.608 444.741 280.608C444.285 280.608 443.859 280.596 443.463 280.572C443.067 280.548 442.671 280.512 442.275 280.464V278.322C442.671 278.37 443.073 278.406 443.481 278.43C443.901 278.454 444.351 278.466 444.831 278.466C445.839 278.466 446.631 278.292 447.207 277.944C447.783 277.596 448.191 277.086 448.431 276.414C448.683 275.742 448.809 274.908 448.809 273.912V272.742L449.385 271.914C449.373 272.838 449.187 273.606 448.827 274.218C448.479 274.818 447.993 275.274 447.369 275.586C446.745 275.886 446.031 276.036 445.227 276.036C444.291 276.036 443.493 275.85 442.833 275.478C442.173 275.106 441.663 274.59 441.303 273.93C440.955 273.27 440.781 272.502 440.781 271.626C440.781 270.714 440.985 269.91 441.393 269.214C441.801 268.506 442.377 267.96 443.121 267.576C443.877 267.18 444.777 266.982 445.821 266.982ZM445.875 269.124C445.311 269.124 444.831 269.232 444.435 269.448C444.039 269.652 443.739 269.94 443.535 270.312C443.331 270.684 443.229 271.11 443.229 271.59C443.229 272.082 443.325 272.514 443.517 272.886C443.721 273.258 444.015 273.546 444.399 273.75C444.783 273.954 445.245 274.056 445.785 274.056C446.301 274.056 446.769 273.966 447.189 273.786C447.621 273.594 447.957 273.318 448.197 272.958C448.449 272.586 448.575 272.13 448.575 271.59C448.575 271.122 448.473 270.702 448.269 270.33C448.077 269.958 447.777 269.664 447.369 269.448C446.973 269.232 446.475 269.124 445.875 269.124Z" fill="white"/>
<circle opacity="0.2" cx="409" cy="220" r="217.5" stroke="#FF4747" stroke-width="5"/>
<circle opacity="0.4" cx="409" cy="219" r="207.5" stroke="#FF4747" stroke-width="5"/>
<circle opacity="0.6" cx="409" cy="218.781" r="197.5" stroke="#FF4747" stroke-width="5"/>
<circle opacity="0.8" cx="409" cy="218.781" r="187.5" stroke="#FF4747" stroke-width="5"/>
<circle opacity="0.6" cx="409" cy="218.781" r="177.5" stroke="#FF4747" stroke-width="5"/>
<circle opacity="0.7" cx="409" cy="218.781" r="167.5" stroke="#FF4747" stroke-width="5"/>
<circle opacity="0.8" cx="409" cy="218.781" r="157.5" stroke="#FF4747" stroke-width="5"/>
<circle opacity="0.9" cx="409" cy="218.781" r="147.5" stroke="#FF4747" stroke-width="5"/>
</g>
<defs>
<radialGradient id="paint0_radial_4956_14551" cx="0" cy="0" r="1" gradientUnits="userSpaceOnUse" gradientTransform="translate(408.545 220) scale(408.455 758.51)">
<stop offset="0.550856"/>
<stop offset="1" stop-opacity="0"/>
</radialGradient>
<radialGradient id="paint1_radial_4956_14551" cx="0" cy="0" r="1" gradientUnits="userSpaceOnUse" gradientTransform="translate(408.5 218) scale(406.5 1208.35)">
<stop offset="0.430504" stop-color="#CE0025"/>
<stop offset="1" stop-color="#FF4747"/>
</radialGradient>
<linearGradient id="paint2_linear_4956_14551" x1="5.00001" y1="218.391" x2="759.993" y2="9.11804" gradientUnits="userSpaceOnUse">
<stop stop-color="#CE0025"/>
<stop offset="0.348958" stop-color="#FF4747"/>
<stop offset="0.625" stop-color="#FF4747"/>
<stop offset="1" stop-color="#CE0025"/>
</linearGradient>
<linearGradient id="paint3_linear_4956_14551" x1="5.00001" y1="218.391" x2="751.484" y2="-4.4398" gradientUnits="userSpaceOnUse">
<stop stop-color="#CE0025"/>
<stop offset="0.348958" stop-color="#FF4747"/>
<stop offset="0.625" stop-color="#FF4747"/>
<stop offset="1" stop-color="#CE0025"/>
</linearGradient>
<linearGradient id="paint4_linear_4956_14551" x1="5.00001" y1="218.391" x2="741.029" y2="-19.6281" gradientUnits="userSpaceOnUse">
<stop stop-color="#CE0025"/>
<stop offset="0.348958" stop-color="#FF4747"/>
<stop offset="0.625" stop-color="#FF4747"/>
<stop offset="1" stop-color="#CE0025"/>
</linearGradient>
<linearGradient id="paint5_linear_4956_14551" x1="5.00001" y1="218.391" x2="728.017" y2="-36.676" gradientUnits="userSpaceOnUse">
<stop stop-color="#CE0025"/>
<stop offset="0.348958" stop-color="#FF4747"/>
<stop offset="0.625" stop-color="#FF4747"/>
<stop offset="1" stop-color="#CE0025"/>
</linearGradient>
<linearGradient id="paint6_linear_4956_14551" x1="5.00001" y1="218.391" x2="711.594" y2="-55.8095" gradientUnits="userSpaceOnUse">
<stop stop-color="#CE0025"/>
<stop offset="0.348958" stop-color="#FF4747"/>
<stop offset="0.625" stop-color="#FF4747"/>
<stop offset="1" stop-color="#CE0025"/>
</linearGradient>
<radialGradient id="paint7_radial_4956_14551" cx="0" cy="0" r="1" gradientUnits="userSpaceOnUse" gradientTransform="translate(409 218.391) rotate(90) scale(140)">
<stop stop-color="#FF4747"/>
<stop offset="1" stop-color="#CE0000"/>
</radialGradient>
<linearGradient id="paint8_linear_4956_14551" x1="409" y1="356.833" x2="382.774" y2="80.7264" gradientUnits="userSpaceOnUse">
<stop stop-color="#CE0000"/>
<stop offset="0.348958" stop-color="#FF4747"/>
<stop offset="0.625" stop-color="#FF4747"/>
<stop offset="1" stop-color="#CE0000"/>
</linearGradient>
</defs>
</svg>
