<svg width="818" height="440" viewBox="0 0 818 440" fill="none" xmlns="http://www.w3.org/2000/svg">
<mask id="mask0_4956_8114" style="mask-type:alpha" maskUnits="userSpaceOnUse" x="0" y="0" width="818" height="440">
<rect width="817.09" height="440" fill="url(#paint0_radial_4956_8114)"/>
</mask>
<g mask="url(#mask0_4956_8114)">
<path d="M2 172.528C2 157.813 12.6732 145.27 27.1988 142.915L401.228 82.2736C404.389 81.7612 407.611 81.7581 410.773 82.2644L789.744 142.955C804.296 145.286 815 157.841 815 172.578V264.416C815 279.156 804.292 291.712 789.737 294.04L413.237 354.243C410.099 354.744 406.901 354.744 403.763 354.243L27.2631 294.04C12.708 291.712 2 279.156 2 264.416V172.528Z" fill="url(#paint1_radial_4956_8114)" fill-opacity="0.7"/>
<path d="M26.0291 143.421L409 80.9975L791.971 143.421C805.276 145.59 815.047 157.083 815.047 170.563V266.218C815.047 279.698 805.276 291.191 791.971 293.36L409 355.784L26.029 293.36C12.7244 291.191 2.95312 279.698 2.95312 266.218V170.563C2.95312 157.083 12.7244 145.59 26.0291 143.421Z" stroke="url(#paint2_linear_4956_8114)" stroke-width="5"/>
<path d="M2.95312 170.563C2.95312 157.093 12.7094 145.608 25.9983 143.426L409 90.976L791.971 143.421C791.981 143.423 791.991 143.425 792.002 143.426C805.291 145.608 815.047 157.093 815.047 170.563V266.218C815.047 279.688 805.291 291.173 792.002 293.355C791.992 293.356 791.981 293.358 791.971 293.36L409 345.805L25.9983 293.355C12.7093 291.173 2.95312 279.688 2.95312 266.218V170.563Z" stroke="url(#paint3_linear_4956_8114)" stroke-width="5"/>
<path d="M2.95312 170.563C2.95312 157.104 12.6942 145.626 25.9674 143.432L409 100.956L792.033 143.432C805.306 145.626 815.047 157.104 815.047 170.563V266.218C815.047 279.677 805.306 291.156 792.033 293.35L409 335.825L25.9673 293.35C12.6942 291.156 2.95312 279.677 2.95312 266.218V170.563Z" stroke="url(#paint4_linear_4956_8114)" stroke-width="5"/>
<path d="M2.95312 170.563C2.95312 157.114 12.679 145.644 25.9362 143.437L409 110.938L792.064 143.437C805.321 145.644 815.047 157.114 815.047 170.563V266.218C815.047 279.667 805.321 291.138 792.064 293.344L409 325.843L25.936 293.344C12.6789 291.138 2.95312 279.667 2.95312 266.218V170.563Z" stroke="url(#paint5_linear_4956_8114)" stroke-width="5"/>
<path d="M2.95312 170.563C2.95312 157.125 12.6636 145.662 25.9048 143.442L409 120.922L792.095 143.442C805.336 145.662 815.047 157.125 815.047 170.563V266.218C815.047 279.656 805.336 291.12 792.095 293.339L409 315.86L25.9047 293.339C12.6636 291.12 2.95312 279.656 2.95312 266.218V170.563Z" stroke="url(#paint6_linear_4956_8114)" stroke-width="5"/>
<circle cx="409" cy="218.391" r="160" fill="url(#paint7_radial_4956_8114)" stroke="url(#paint8_linear_4956_8114)" stroke-width="40"/>
<rect x="348" y="145.5" width="122" height="33" rx="16.5" fill="#CECECE"/>
<path d="M372.051 168.59V166.538H375.345C375.945 166.538 376.401 166.376 376.713 166.052C377.025 165.716 377.181 165.26 377.181 164.684C377.181 164.108 377.025 163.664 376.713 163.352C376.401 163.028 375.945 162.866 375.345 162.866H372.051V161.3H375.165C376.041 161.3 376.821 161.408 377.505 161.624C378.201 161.828 378.741 162.176 379.125 162.668C379.521 163.16 379.719 163.82 379.719 164.648V164.9C379.719 165.68 379.545 166.346 379.197 166.898C378.861 167.438 378.351 167.858 377.667 168.158C376.995 168.446 376.161 168.59 375.165 168.59H372.051ZM369.909 168.59V155.27H372.411V168.59H369.909ZM372.051 162.452V160.886H374.859C375.471 160.886 375.921 160.724 376.209 160.4C376.497 160.076 376.641 159.644 376.641 159.104C376.641 158.564 376.497 158.132 376.209 157.808C375.921 157.484 375.471 157.322 374.859 157.322H372.051V155.27H374.625C376.113 155.27 377.241 155.582 378.009 156.206C378.789 156.83 379.179 157.724 379.179 158.888V159.14C379.179 159.956 378.981 160.61 378.585 161.102C378.201 161.582 377.667 161.93 376.983 162.146C376.299 162.35 375.513 162.452 374.625 162.452H372.051ZM386.407 168.842C385.567 168.842 384.829 168.698 384.193 168.41C383.569 168.122 383.047 167.738 382.627 167.258C382.219 166.766 381.907 166.22 381.691 165.62C381.487 165.02 381.385 164.408 381.385 163.784V163.442C381.385 162.794 381.487 162.17 381.691 161.57C381.907 160.958 382.219 160.418 382.627 159.95C383.047 159.47 383.563 159.092 384.175 158.816C384.787 158.528 385.495 158.384 386.299 158.384C387.355 158.384 388.237 158.618 388.945 159.086C389.665 159.542 390.205 160.148 390.565 160.904C390.925 161.648 391.105 162.452 391.105 163.316V164.216H382.447V162.686H389.539L388.765 163.442C388.765 162.818 388.675 162.284 388.495 161.84C388.315 161.396 388.039 161.054 387.667 160.814C387.307 160.574 386.851 160.454 386.299 160.454C385.747 160.454 385.279 160.58 384.895 160.832C384.511 161.084 384.217 161.45 384.013 161.93C383.821 162.398 383.725 162.962 383.725 163.622C383.725 164.234 383.821 164.78 384.013 165.26C384.205 165.728 384.499 166.1 384.895 166.376C385.291 166.64 385.795 166.772 386.407 166.772C387.019 166.772 387.517 166.652 387.901 166.412C388.285 166.16 388.531 165.854 388.639 165.494H390.943C390.799 166.166 390.523 166.754 390.115 167.258C389.707 167.762 389.185 168.152 388.549 168.428C387.925 168.704 387.211 168.842 386.407 168.842ZM393.321 168.5V155.36H395.823V168.5H393.321ZM392.097 157.232V155.36H395.823V157.232H392.097ZM402.928 168.626C402.028 168.626 401.284 168.512 400.696 168.284C400.12 168.044 399.688 167.648 399.4 167.096C399.112 166.532 398.968 165.776 398.968 164.828L398.986 155.972H401.326L401.308 164.99C401.308 165.47 401.434 165.842 401.686 166.106C401.95 166.358 402.322 166.484 402.802 166.484H404.332V168.626H402.928ZM397.42 160.562V158.726H404.332V160.562H397.42ZM410.317 168.5V158.726H412.297V162.866H412.243C412.243 161.462 412.543 160.4 413.143 159.68C413.743 158.96 414.625 158.6 415.789 158.6H416.149V160.778H415.465C414.625 160.778 413.971 161.006 413.503 161.462C413.047 161.906 412.819 162.554 412.819 163.406V168.5H410.317ZM423.692 168.5V165.602H423.278V162.38C423.278 161.816 423.14 161.396 422.864 161.12C422.588 160.844 422.162 160.706 421.586 160.706C421.286 160.706 420.926 160.712 420.506 160.724C420.086 160.736 419.66 160.754 419.228 160.778C418.808 160.79 418.43 160.808 418.094 160.832V158.708C418.37 158.684 418.682 158.66 419.03 158.636C419.378 158.612 419.732 158.6 420.092 158.6C420.464 158.588 420.812 158.582 421.136 158.582C422.144 158.582 422.978 158.714 423.638 158.978C424.31 159.242 424.814 159.656 425.15 160.22C425.498 160.784 425.672 161.522 425.672 162.434V168.5H423.692ZM420.542 168.752C419.834 168.752 419.21 168.626 418.67 168.374C418.142 168.122 417.728 167.762 417.428 167.294C417.14 166.826 416.996 166.262 416.996 165.602C416.996 164.882 417.17 164.294 417.518 163.838C417.878 163.382 418.376 163.04 419.012 162.812C419.66 162.584 420.416 162.47 421.28 162.47H423.548V163.964H421.244C420.668 163.964 420.224 164.108 419.912 164.396C419.612 164.672 419.462 165.032 419.462 165.476C419.462 165.92 419.612 166.28 419.912 166.556C420.224 166.832 420.668 166.97 421.244 166.97C421.592 166.97 421.91 166.91 422.198 166.79C422.498 166.658 422.744 166.442 422.936 166.142C423.14 165.83 423.254 165.41 423.278 164.882L423.89 165.584C423.83 166.268 423.662 166.844 423.386 167.312C423.122 167.78 422.75 168.14 422.27 168.392C421.802 168.632 421.226 168.752 420.542 168.752ZM428.352 168.5V158.726H430.332V162.92H430.152C430.152 161.924 430.284 161.096 430.548 160.436C430.812 159.764 431.202 159.26 431.718 158.924C432.246 158.588 432.9 158.42 433.68 158.42H433.788C434.952 158.42 435.834 158.798 436.434 159.554C437.034 160.298 437.334 161.414 437.334 162.902V168.5H434.832V162.686C434.832 162.086 434.658 161.6 434.31 161.228C433.974 160.856 433.506 160.67 432.906 160.67C432.294 160.67 431.796 160.862 431.412 161.246C431.04 161.618 430.854 162.122 430.854 162.758V168.5H428.352ZM446.864 168.5L443.588 163.928H442.13L446.288 158.726H448.898L445.064 163.532L445.118 162.272L449.69 168.5H446.864ZM440.024 168.5V155.36H442.526V168.5H440.024Z" fill="white"/>
<rect x="289" y="183.5" width="240" height="69" rx="34.5" fill="#CECECE"/>
<path d="M348.008 232.5L341.048 203.3H348.728L353.968 227.5L352.728 226.58H355.968L354.568 227.5L358.528 204.34H364.568L359.088 232.5H348.008ZM365.368 232.5L359.488 204.34H365.848L370.488 227.5L369.088 226.58H372.128L371.088 227.5L375.608 203.3H382.808L376.688 232.5H365.368ZM405.051 232.5V203.3H412.491V232.5H405.051ZM386.491 232.5V203.3H393.931V232.5H386.491ZM392.651 221.02V214.54H406.331V221.02H392.651ZM418.485 232.5V203.3H425.925V232.5H418.485ZM437.761 232.5V208.98H445.201V232.5H437.761ZM429.761 209.78V203.3H453.201V209.78H429.761ZM456.96 232.5V203.3H464.16V232.5H456.96ZM463.36 232.5V226.42H475.68V232.5H463.36ZM463.36 220.7V214.62H474.84V220.7H463.36ZM463.36 209.38V203.3H475.44V209.38H463.36Z" fill="white"/>
<rect x="347" y="257.5" width="124" height="33" rx="16.5" fill="#CECECE"/>
<path d="M368.933 280.5V267.36H371.489V280.5H368.933ZM371.129 280.5V278.25H376.799V280.5H371.129ZM382.953 280.842C382.113 280.842 381.375 280.698 380.739 280.41C380.115 280.122 379.593 279.738 379.173 279.258C378.765 278.766 378.453 278.22 378.237 277.62C378.033 277.02 377.931 276.408 377.931 275.784V275.442C377.931 274.794 378.033 274.17 378.237 273.57C378.453 272.958 378.765 272.418 379.173 271.95C379.593 271.47 380.109 271.092 380.721 270.816C381.333 270.528 382.041 270.384 382.845 270.384C383.901 270.384 384.783 270.618 385.491 271.086C386.211 271.542 386.751 272.148 387.111 272.904C387.471 273.648 387.651 274.452 387.651 275.316V276.216H378.993V274.686H386.085L385.311 275.442C385.311 274.818 385.221 274.284 385.041 273.84C384.861 273.396 384.585 273.054 384.213 272.814C383.853 272.574 383.397 272.454 382.845 272.454C382.293 272.454 381.825 272.58 381.441 272.832C381.057 273.084 380.763 273.45 380.559 273.93C380.367 274.398 380.271 274.962 380.271 275.622C380.271 276.234 380.367 276.78 380.559 277.26C380.751 277.728 381.045 278.1 381.441 278.376C381.837 278.64 382.341 278.772 382.953 278.772C383.565 278.772 384.063 278.652 384.447 278.412C384.831 278.16 385.077 277.854 385.185 277.494H387.489C387.345 278.166 387.069 278.754 386.661 279.258C386.253 279.762 385.731 280.152 385.095 280.428C384.471 280.704 383.757 280.842 382.953 280.842ZM391.615 280.5L388.555 270.726H391.129L394.063 280.5H391.615ZM392.353 280.5V278.448H394.999V280.5H392.353ZM393.343 280.5L395.863 270.726H398.275L395.629 280.5H393.343ZM404.328 280.842C403.488 280.842 402.75 280.698 402.114 280.41C401.49 280.122 400.968 279.738 400.548 279.258C400.14 278.766 399.828 278.22 399.612 277.62C399.408 277.02 399.306 276.408 399.306 275.784V275.442C399.306 274.794 399.408 274.17 399.612 273.57C399.828 272.958 400.14 272.418 400.548 271.95C400.968 271.47 401.484 271.092 402.096 270.816C402.708 270.528 403.416 270.384 404.22 270.384C405.276 270.384 406.158 270.618 406.866 271.086C407.586 271.542 408.126 272.148 408.486 272.904C408.846 273.648 409.026 274.452 409.026 275.316V276.216H400.368V274.686H407.46L406.686 275.442C406.686 274.818 406.596 274.284 406.416 273.84C406.236 273.396 405.96 273.054 405.588 272.814C405.228 272.574 404.772 272.454 404.22 272.454C403.668 272.454 403.2 272.58 402.816 272.832C402.432 273.084 402.138 273.45 401.934 273.93C401.742 274.398 401.646 274.962 401.646 275.622C401.646 276.234 401.742 276.78 401.934 277.26C402.126 277.728 402.42 278.1 402.816 278.376C403.212 278.64 403.716 278.772 404.328 278.772C404.94 278.772 405.438 278.652 405.822 278.412C406.206 278.16 406.452 277.854 406.56 277.494H408.864C408.72 278.166 408.444 278.754 408.036 279.258C407.628 279.762 407.106 280.152 406.47 280.428C405.846 280.704 405.132 280.842 404.328 280.842ZM411.242 280.5V267.36H413.744V280.5H411.242ZM410.018 269.232V267.36H413.744V269.232H410.018ZM416.205 280.5V277.62H419.013V280.5H416.205ZM416.205 274.29V271.41H419.013V274.29H416.205ZM427.227 280.5V268.944L428.019 269.556H424.545V267.36H429.765V280.5H427.227ZM431.922 281.58L435.63 266.46H438.132L434.424 281.58H431.922ZM444.283 266.982C445.255 266.982 446.077 267.15 446.749 267.486C447.433 267.81 447.985 268.26 448.405 268.836C448.825 269.412 449.131 270.084 449.323 270.852C449.515 271.608 449.611 272.412 449.611 273.264V274.056C449.611 276.204 449.065 277.836 447.973 278.952C446.893 280.056 445.303 280.608 443.203 280.608C442.747 280.608 442.321 280.596 441.925 280.572C441.529 280.548 441.133 280.512 440.737 280.464V278.322C441.133 278.37 441.535 278.406 441.943 278.43C442.363 278.454 442.813 278.466 443.293 278.466C444.301 278.466 445.093 278.292 445.669 277.944C446.245 277.596 446.653 277.086 446.893 276.414C447.145 275.742 447.271 274.908 447.271 273.912V272.742L447.847 271.914C447.835 272.838 447.649 273.606 447.289 274.218C446.941 274.818 446.455 275.274 445.831 275.586C445.207 275.886 444.493 276.036 443.689 276.036C442.753 276.036 441.955 275.85 441.295 275.478C440.635 275.106 440.125 274.59 439.765 273.93C439.417 273.27 439.243 272.502 439.243 271.626C439.243 270.714 439.447 269.91 439.855 269.214C440.263 268.506 440.839 267.96 441.583 267.576C442.339 267.18 443.239 266.982 444.283 266.982ZM444.337 269.124C443.773 269.124 443.293 269.232 442.897 269.448C442.501 269.652 442.201 269.94 441.997 270.312C441.793 270.684 441.691 271.11 441.691 271.59C441.691 272.082 441.787 272.514 441.979 272.886C442.183 273.258 442.477 273.546 442.861 273.75C443.245 273.954 443.707 274.056 444.247 274.056C444.763 274.056 445.231 273.966 445.651 273.786C446.083 273.594 446.419 273.318 446.659 272.958C446.911 272.586 447.037 272.13 447.037 271.59C447.037 271.122 446.935 270.702 446.731 270.33C446.539 269.958 446.239 269.664 445.831 269.448C445.435 269.232 444.937 269.124 444.337 269.124Z" fill="white"/>
<circle opacity="0.2" cx="409" cy="220" r="217.5" stroke="white" stroke-width="5"/>
<circle opacity="0.4" cx="409" cy="219" r="207.5" stroke="white" stroke-width="5"/>
<circle opacity="0.6" cx="409" cy="218.781" r="197.5" stroke="white" stroke-width="5"/>
<circle opacity="0.8" cx="409" cy="218.781" r="187.5" stroke="white" stroke-width="5"/>
<circle opacity="0.6" cx="409" cy="218.781" r="177.5" stroke="white" stroke-width="5"/>
<circle opacity="0.7" cx="409" cy="218.781" r="167.5" stroke="white" stroke-width="5"/>
<circle opacity="0.8" cx="409" cy="218.781" r="157.5" stroke="white" stroke-width="5"/>
<circle opacity="0.9" cx="409" cy="218.781" r="147.5" stroke="white" stroke-width="5"/>
</g>
<defs>
<radialGradient id="paint0_radial_4956_8114" cx="0" cy="0" r="1" gradientUnits="userSpaceOnUse" gradientTransform="translate(408.545 220) scale(408.455 758.51)">
<stop offset="0.550856"/>
<stop offset="1" stop-opacity="0"/>
</radialGradient>
<radialGradient id="paint1_radial_4956_8114" cx="0" cy="0" r="1" gradientUnits="userSpaceOnUse" gradientTransform="translate(408.5 218) scale(406.5 1208.35)">
<stop offset="0.430504" stop-color="#E9E7E6"/>
<stop offset="1" stop-color="white"/>
</radialGradient>
<linearGradient id="paint2_linear_4956_8114" x1="5.00001" y1="218.391" x2="711.594" y2="-55.8095" gradientUnits="userSpaceOnUse">
<stop stop-color="#E9E7E6"/>
<stop offset="0.348958" stop-color="white"/>
<stop offset="0.625" stop-color="white"/>
<stop offset="1" stop-color="#E9E7E6"/>
</linearGradient>
<linearGradient id="paint3_linear_4956_8114" x1="5.00001" y1="218.391" x2="697.122" y2="-70.8537" gradientUnits="userSpaceOnUse">
<stop stop-color="#E9E7E6"/>
<stop offset="0.348958" stop-color="white"/>
<stop offset="0.625" stop-color="white"/>
<stop offset="1" stop-color="#E9E7E6"/>
</linearGradient>
<linearGradient id="paint4_linear_4956_8114" x1="5.00001" y1="218.391" x2="679.706" y2="-87.0726" gradientUnits="userSpaceOnUse">
<stop stop-color="#E9E7E6"/>
<stop offset="0.348958" stop-color="white"/>
<stop offset="0.625" stop-color="white"/>
<stop offset="1" stop-color="#E9E7E6"/>
</linearGradient>
<linearGradient id="paint5_linear_4956_8114" x1="5.00001" y1="218.391" x2="658.574" y2="-104.405" gradientUnits="userSpaceOnUse">
<stop stop-color="#E9E7E6"/>
<stop offset="0.348958" stop-color="white"/>
<stop offset="0.625" stop-color="white"/>
<stop offset="1" stop-color="#E9E7E6"/>
</linearGradient>
<linearGradient id="paint6_linear_4956_8114" x1="5.00001" y1="218.391" x2="632.724" y2="-122.641" gradientUnits="userSpaceOnUse">
<stop stop-color="#E9E7E6"/>
<stop offset="0.348958" stop-color="white"/>
<stop offset="0.625" stop-color="white"/>
<stop offset="1" stop-color="#E9E7E6"/>
</linearGradient>
<radialGradient id="paint7_radial_4956_8114" cx="0" cy="0" r="1" gradientUnits="userSpaceOnUse" gradientTransform="translate(409 218.391) rotate(90) scale(140)">
<stop stop-color="white"/>
<stop offset="1" stop-color="#E9E7E6"/>
</radialGradient>
<linearGradient id="paint8_linear_4956_8114" x1="409" y1="356.833" x2="382.774" y2="80.7264" gradientUnits="userSpaceOnUse">
<stop stop-color="#E9E7E6"/>
<stop offset="0.348958" stop-color="white"/>
<stop offset="0.625" stop-color="white"/>
<stop offset="1" stop-color="#E9E7E6"/>
</linearGradient>
</defs>
</svg>
