<svg width="818" height="440" viewBox="0 0 818 440" fill="none" xmlns="http://www.w3.org/2000/svg">
<mask id="mask0_4956_8115" style="mask-type:alpha" maskUnits="userSpaceOnUse" x="0" y="0" width="818" height="440">
<rect width="817.09" height="440" fill="url(#paint0_radial_4956_8115)"/>
</mask>
<g mask="url(#mask0_4956_8115)">
<path d="M2 172.528C2 157.813 12.6732 145.27 27.1988 142.915L401.228 82.2736C404.389 81.7612 407.611 81.7581 410.773 82.2644L789.744 142.955C804.296 145.286 815 157.841 815 172.578V264.416C815 279.156 804.292 291.712 789.737 294.04L413.237 354.243C410.099 354.744 406.901 354.744 403.763 354.243L27.2631 294.04C12.708 291.712 2 279.156 2 264.416V172.528Z" fill="url(#paint1_radial_4956_8115)" fill-opacity="0.7"/>
<path d="M26.0291 143.421L409 80.9975L791.971 143.421C805.276 145.59 815.047 157.083 815.047 170.563V266.218C815.047 279.698 805.276 291.191 791.971 293.36L409 355.784L26.029 293.36C12.7244 291.191 2.95312 279.698 2.95312 266.218V170.563C2.95312 157.083 12.7244 145.59 26.0291 143.421Z" stroke="url(#paint2_linear_4956_8115)" stroke-width="5"/>
<path d="M2.95312 170.563C2.95312 157.093 12.7094 145.608 25.9983 143.426L409 90.976L791.971 143.421C791.981 143.423 791.991 143.425 792.002 143.426C805.291 145.608 815.047 157.093 815.047 170.563V266.218C815.047 279.688 805.291 291.173 792.002 293.355C791.992 293.356 791.981 293.358 791.971 293.36L409 345.805L25.9983 293.355C12.7093 291.173 2.95312 279.688 2.95312 266.218V170.563Z" stroke="url(#paint3_linear_4956_8115)" stroke-width="5"/>
<path d="M2.95312 170.563C2.95312 157.104 12.6942 145.626 25.9674 143.432L409 100.956L792.033 143.432C805.306 145.626 815.047 157.104 815.047 170.563V266.218C815.047 279.677 805.306 291.156 792.033 293.35L409 335.825L25.9673 293.35C12.6942 291.156 2.95312 279.677 2.95312 266.218V170.563Z" stroke="url(#paint4_linear_4956_8115)" stroke-width="5"/>
<path d="M2.95312 170.563C2.95312 157.114 12.679 145.644 25.9362 143.437L409 110.938L792.064 143.437C805.321 145.644 815.047 157.114 815.047 170.563V266.218C815.047 279.667 805.321 291.138 792.064 293.344L409 325.843L25.936 293.344C12.6789 291.138 2.95312 279.667 2.95312 266.218V170.563Z" stroke="url(#paint5_linear_4956_8115)" stroke-width="5"/>
<path d="M2.95312 170.563C2.95312 157.125 12.6636 145.662 25.9048 143.442L409 120.922L792.095 143.442C805.336 145.662 815.047 157.125 815.047 170.563V266.218C815.047 279.656 805.336 291.12 792.095 293.339L409 315.86L25.9047 293.339C12.6636 291.12 2.95312 279.656 2.95312 266.218V170.563Z" stroke="url(#paint6_linear_4956_8115)" stroke-width="5"/>
<circle cx="409" cy="218.391" r="160" fill="url(#paint7_radial_4956_8115)" stroke="url(#paint8_linear_4956_8115)" stroke-width="40"/>
<rect x="348" y="145.5" width="122" height="33" rx="16.5" fill="#FAC60E"/>
<path d="M372.051 168.59V166.538H375.345C375.945 166.538 376.401 166.376 376.713 166.052C377.025 165.716 377.181 165.26 377.181 164.684C377.181 164.108 377.025 163.664 376.713 163.352C376.401 163.028 375.945 162.866 375.345 162.866H372.051V161.3H375.165C376.041 161.3 376.821 161.408 377.505 161.624C378.201 161.828 378.741 162.176 379.125 162.668C379.521 163.16 379.719 163.82 379.719 164.648V164.9C379.719 165.68 379.545 166.346 379.197 166.898C378.861 167.438 378.351 167.858 377.667 168.158C376.995 168.446 376.161 168.59 375.165 168.59H372.051ZM369.909 168.59V155.27H372.411V168.59H369.909ZM372.051 162.452V160.886H374.859C375.471 160.886 375.921 160.724 376.209 160.4C376.497 160.076 376.641 159.644 376.641 159.104C376.641 158.564 376.497 158.132 376.209 157.808C375.921 157.484 375.471 157.322 374.859 157.322H372.051V155.27H374.625C376.113 155.27 377.241 155.582 378.009 156.206C378.789 156.83 379.179 157.724 379.179 158.888V159.14C379.179 159.956 378.981 160.61 378.585 161.102C378.201 161.582 377.667 161.93 376.983 162.146C376.299 162.35 375.513 162.452 374.625 162.452H372.051ZM386.407 168.842C385.567 168.842 384.829 168.698 384.193 168.41C383.569 168.122 383.047 167.738 382.627 167.258C382.219 166.766 381.907 166.22 381.691 165.62C381.487 165.02 381.385 164.408 381.385 163.784V163.442C381.385 162.794 381.487 162.17 381.691 161.57C381.907 160.958 382.219 160.418 382.627 159.95C383.047 159.47 383.563 159.092 384.175 158.816C384.787 158.528 385.495 158.384 386.299 158.384C387.355 158.384 388.237 158.618 388.945 159.086C389.665 159.542 390.205 160.148 390.565 160.904C390.925 161.648 391.105 162.452 391.105 163.316V164.216H382.447V162.686H389.539L388.765 163.442C388.765 162.818 388.675 162.284 388.495 161.84C388.315 161.396 388.039 161.054 387.667 160.814C387.307 160.574 386.851 160.454 386.299 160.454C385.747 160.454 385.279 160.58 384.895 160.832C384.511 161.084 384.217 161.45 384.013 161.93C383.821 162.398 383.725 162.962 383.725 163.622C383.725 164.234 383.821 164.78 384.013 165.26C384.205 165.728 384.499 166.1 384.895 166.376C385.291 166.64 385.795 166.772 386.407 166.772C387.019 166.772 387.517 166.652 387.901 166.412C388.285 166.16 388.531 165.854 388.639 165.494H390.943C390.799 166.166 390.523 166.754 390.115 167.258C389.707 167.762 389.185 168.152 388.549 168.428C387.925 168.704 387.211 168.842 386.407 168.842ZM393.321 168.5V155.36H395.823V168.5H393.321ZM392.097 157.232V155.36H395.823V157.232H392.097ZM402.928 168.626C402.028 168.626 401.284 168.512 400.696 168.284C400.12 168.044 399.688 167.648 399.4 167.096C399.112 166.532 398.968 165.776 398.968 164.828L398.986 155.972H401.326L401.308 164.99C401.308 165.47 401.434 165.842 401.686 166.106C401.95 166.358 402.322 166.484 402.802 166.484H404.332V168.626H402.928ZM397.42 160.562V158.726H404.332V160.562H397.42ZM410.317 168.5V158.726H412.297V162.866H412.243C412.243 161.462 412.543 160.4 413.143 159.68C413.743 158.96 414.625 158.6 415.789 158.6H416.149V160.778H415.465C414.625 160.778 413.971 161.006 413.503 161.462C413.047 161.906 412.819 162.554 412.819 163.406V168.5H410.317ZM423.692 168.5V165.602H423.278V162.38C423.278 161.816 423.14 161.396 422.864 161.12C422.588 160.844 422.162 160.706 421.586 160.706C421.286 160.706 420.926 160.712 420.506 160.724C420.086 160.736 419.66 160.754 419.228 160.778C418.808 160.79 418.43 160.808 418.094 160.832V158.708C418.37 158.684 418.682 158.66 419.03 158.636C419.378 158.612 419.732 158.6 420.092 158.6C420.464 158.588 420.812 158.582 421.136 158.582C422.144 158.582 422.978 158.714 423.638 158.978C424.31 159.242 424.814 159.656 425.15 160.22C425.498 160.784 425.672 161.522 425.672 162.434V168.5H423.692ZM420.542 168.752C419.834 168.752 419.21 168.626 418.67 168.374C418.142 168.122 417.728 167.762 417.428 167.294C417.14 166.826 416.996 166.262 416.996 165.602C416.996 164.882 417.17 164.294 417.518 163.838C417.878 163.382 418.376 163.04 419.012 162.812C419.66 162.584 420.416 162.47 421.28 162.47H423.548V163.964H421.244C420.668 163.964 420.224 164.108 419.912 164.396C419.612 164.672 419.462 165.032 419.462 165.476C419.462 165.92 419.612 166.28 419.912 166.556C420.224 166.832 420.668 166.97 421.244 166.97C421.592 166.97 421.91 166.91 422.198 166.79C422.498 166.658 422.744 166.442 422.936 166.142C423.14 165.83 423.254 165.41 423.278 164.882L423.89 165.584C423.83 166.268 423.662 166.844 423.386 167.312C423.122 167.78 422.75 168.14 422.27 168.392C421.802 168.632 421.226 168.752 420.542 168.752ZM428.352 168.5V158.726H430.332V162.92H430.152C430.152 161.924 430.284 161.096 430.548 160.436C430.812 159.764 431.202 159.26 431.718 158.924C432.246 158.588 432.9 158.42 433.68 158.42H433.788C434.952 158.42 435.834 158.798 436.434 159.554C437.034 160.298 437.334 161.414 437.334 162.902V168.5H434.832V162.686C434.832 162.086 434.658 161.6 434.31 161.228C433.974 160.856 433.506 160.67 432.906 160.67C432.294 160.67 431.796 160.862 431.412 161.246C431.04 161.618 430.854 162.122 430.854 162.758V168.5H428.352ZM446.864 168.5L443.588 163.928H442.13L446.288 158.726H448.898L445.064 163.532L445.118 162.272L449.69 168.5H446.864ZM440.024 168.5V155.36H442.526V168.5H440.024Z" fill="white"/>
<rect x="289" y="183.5" width="240" height="69" rx="34.5" fill="#FAC60E"/>
<path d="M331.678 221.54L323.398 203.3H330.998L336.558 216.3L335.518 215.94H338.398L337.278 216.3L342.198 203.3H349.398L341.838 221.54H331.678ZM333.118 232.5V220.58H340.398V232.5H333.118ZM352.526 232.5V203.3H359.726V232.5H352.526ZM358.926 232.5V226.42H371.246V232.5H358.926ZM358.926 220.7V214.62H370.406V220.7H358.926ZM358.926 209.38V203.3H371.006V209.38H358.926ZM376.198 232.5V203.3H383.638V232.5H376.198ZM382.838 232.5V226.02H394.678V232.5H382.838ZM398.659 232.5V203.3H406.099V232.5H398.659ZM405.299 232.5V226.02H417.139V232.5H405.299ZM434.815 233.3C432.148 233.3 429.828 232.847 427.855 231.94C425.882 231.007 424.242 229.793 422.935 228.3C421.628 226.78 420.655 225.14 420.015 223.38C419.375 221.62 419.055 219.913 419.055 218.26V217.38C419.055 215.54 419.388 213.74 420.055 211.98C420.722 210.193 421.722 208.58 423.055 207.14C424.388 205.7 426.028 204.553 427.975 203.7C429.948 202.847 432.228 202.42 434.815 202.42C437.375 202.42 439.628 202.847 441.575 203.7C443.548 204.553 445.202 205.7 446.535 207.14C447.868 208.58 448.868 210.193 449.535 211.98C450.228 213.74 450.575 215.54 450.575 217.38V218.26C450.575 219.913 450.242 221.62 449.575 223.38C448.935 225.14 447.962 226.78 446.655 228.3C445.348 229.793 443.708 231.007 441.735 231.94C439.762 232.847 437.455 233.3 434.815 233.3ZM434.815 226.34C436.095 226.34 437.242 226.127 438.255 225.7C439.268 225.273 440.135 224.673 440.855 223.9C441.575 223.127 442.122 222.233 442.495 221.22C442.868 220.18 443.055 219.06 443.055 217.86C443.055 216.58 442.855 215.42 442.455 214.38C442.082 213.34 441.535 212.447 440.815 211.7C440.095 210.953 439.228 210.38 438.215 209.98C437.202 209.58 436.068 209.38 434.815 209.38C433.535 209.38 432.388 209.58 431.375 209.98C430.362 210.38 429.495 210.953 428.775 211.7C428.055 212.447 427.508 213.34 427.135 214.38C426.762 215.42 426.575 216.58 426.575 217.86C426.575 219.06 426.762 220.18 427.135 221.22C427.508 222.233 428.055 223.127 428.775 223.9C429.495 224.673 430.362 225.273 431.375 225.7C432.388 226.127 433.535 226.34 434.815 226.34ZM459.239 232.5L452.279 203.3H459.959L465.199 227.5L463.959 226.58H467.199L465.799 227.5L469.759 204.34H475.799L470.319 232.5H459.239ZM476.599 232.5L470.719 204.34H477.079L481.719 227.5L480.319 226.58H483.359L482.319 227.5L486.839 203.3H494.039L487.919 232.5H476.599Z" fill="white"/>
<rect x="345" y="257.5" width="128" height="33" rx="16.5" fill="#FAC60E"/>
<path d="M367.114 280.5V267.36H369.67V280.5H367.114ZM369.31 280.5V278.25H374.98V280.5H369.31ZM381.134 280.842C380.294 280.842 379.556 280.698 378.92 280.41C378.296 280.122 377.774 279.738 377.354 279.258C376.946 278.766 376.634 278.22 376.418 277.62C376.214 277.02 376.112 276.408 376.112 275.784V275.442C376.112 274.794 376.214 274.17 376.418 273.57C376.634 272.958 376.946 272.418 377.354 271.95C377.774 271.47 378.29 271.092 378.902 270.816C379.514 270.528 380.222 270.384 381.026 270.384C382.082 270.384 382.964 270.618 383.672 271.086C384.392 271.542 384.932 272.148 385.292 272.904C385.652 273.648 385.832 274.452 385.832 275.316V276.216H377.174V274.686H384.266L383.492 275.442C383.492 274.818 383.402 274.284 383.222 273.84C383.042 273.396 382.766 273.054 382.394 272.814C382.034 272.574 381.578 272.454 381.026 272.454C380.474 272.454 380.006 272.58 379.622 272.832C379.238 273.084 378.944 273.45 378.74 273.93C378.548 274.398 378.452 274.962 378.452 275.622C378.452 276.234 378.548 276.78 378.74 277.26C378.932 277.728 379.226 278.1 379.622 278.376C380.018 278.64 380.522 278.772 381.134 278.772C381.746 278.772 382.244 278.652 382.628 278.412C383.012 278.16 383.258 277.854 383.366 277.494H385.67C385.526 278.166 385.25 278.754 384.842 279.258C384.434 279.762 383.912 280.152 383.276 280.428C382.652 280.704 381.938 280.842 381.134 280.842ZM389.796 280.5L386.736 270.726H389.31L392.244 280.5H389.796ZM390.534 280.5V278.448H393.18V280.5H390.534ZM391.524 280.5L394.044 270.726H396.456L393.81 280.5H391.524ZM402.509 280.842C401.669 280.842 400.931 280.698 400.295 280.41C399.671 280.122 399.149 279.738 398.729 279.258C398.321 278.766 398.009 278.22 397.793 277.62C397.589 277.02 397.487 276.408 397.487 275.784V275.442C397.487 274.794 397.589 274.17 397.793 273.57C398.009 272.958 398.321 272.418 398.729 271.95C399.149 271.47 399.665 271.092 400.277 270.816C400.889 270.528 401.597 270.384 402.401 270.384C403.457 270.384 404.339 270.618 405.047 271.086C405.767 271.542 406.307 272.148 406.667 272.904C407.027 273.648 407.207 274.452 407.207 275.316V276.216H398.549V274.686H405.641L404.867 275.442C404.867 274.818 404.777 274.284 404.597 273.84C404.417 273.396 404.141 273.054 403.769 272.814C403.409 272.574 402.953 272.454 402.401 272.454C401.849 272.454 401.381 272.58 400.997 272.832C400.613 273.084 400.319 273.45 400.115 273.93C399.923 274.398 399.827 274.962 399.827 275.622C399.827 276.234 399.923 276.78 400.115 277.26C400.307 277.728 400.601 278.1 400.997 278.376C401.393 278.64 401.897 278.772 402.509 278.772C403.121 278.772 403.619 278.652 404.003 278.412C404.387 278.16 404.633 277.854 404.741 277.494H407.045C406.901 278.166 406.625 278.754 406.217 279.258C405.809 279.762 405.287 280.152 404.651 280.428C404.027 280.704 403.313 280.842 402.509 280.842ZM409.423 280.5V267.36H411.925V280.5H409.423ZM408.199 269.232V267.36H411.925V269.232H408.199ZM414.385 280.5V277.62H417.193V280.5H414.385ZM414.385 274.29V271.41H417.193V274.29H414.385ZM423.248 280.5V277.98C423.248 277.428 423.332 276.948 423.5 276.54C423.68 276.132 423.968 275.772 424.364 275.46C424.772 275.136 425.306 274.83 425.966 274.542L428.198 273.552C428.75 273.3 429.17 272.994 429.458 272.634C429.758 272.262 429.908 271.788 429.908 271.212C429.908 270.576 429.716 270.072 429.332 269.7C428.96 269.316 428.426 269.124 427.73 269.124C427.034 269.124 426.494 269.316 426.11 269.7C425.738 270.084 425.552 270.618 425.552 271.302H423.086C423.086 270.486 423.26 269.754 423.608 269.106C423.956 268.446 424.472 267.93 425.156 267.558C425.84 267.174 426.698 266.982 427.73 266.982C428.762 266.982 429.62 267.168 430.304 267.54C430.988 267.912 431.504 268.41 431.852 269.034C432.2 269.646 432.374 270.33 432.374 271.086V271.32C432.374 272.304 432.098 273.126 431.546 273.786C430.994 274.434 430.184 274.998 429.116 275.478L426.884 276.468C426.464 276.648 426.17 276.84 426.002 277.044C425.834 277.236 425.75 277.5 425.75 277.836V278.988L425.138 278.322H432.428V280.5H423.248ZM433.741 281.58L437.449 266.46H439.951L436.243 281.58H433.741ZM446.103 266.982C447.075 266.982 447.897 267.15 448.569 267.486C449.253 267.81 449.805 268.26 450.225 268.836C450.645 269.412 450.951 270.084 451.143 270.852C451.335 271.608 451.431 272.412 451.431 273.264V274.056C451.431 276.204 450.885 277.836 449.793 278.952C448.713 280.056 447.123 280.608 445.023 280.608C444.567 280.608 444.141 280.596 443.745 280.572C443.349 280.548 442.953 280.512 442.557 280.464V278.322C442.953 278.37 443.355 278.406 443.763 278.43C444.183 278.454 444.633 278.466 445.113 278.466C446.121 278.466 446.913 278.292 447.489 277.944C448.065 277.596 448.473 277.086 448.713 276.414C448.965 275.742 449.091 274.908 449.091 273.912V272.742L449.667 271.914C449.655 272.838 449.469 273.606 449.109 274.218C448.761 274.818 448.275 275.274 447.651 275.586C447.027 275.886 446.313 276.036 445.509 276.036C444.573 276.036 443.775 275.85 443.115 275.478C442.455 275.106 441.945 274.59 441.585 273.93C441.237 273.27 441.063 272.502 441.063 271.626C441.063 270.714 441.267 269.91 441.675 269.214C442.083 268.506 442.659 267.96 443.403 267.576C444.159 267.18 445.059 266.982 446.103 266.982ZM446.157 269.124C445.593 269.124 445.113 269.232 444.717 269.448C444.321 269.652 444.021 269.94 443.817 270.312C443.613 270.684 443.511 271.11 443.511 271.59C443.511 272.082 443.607 272.514 443.799 272.886C444.003 273.258 444.297 273.546 444.681 273.75C445.065 273.954 445.527 274.056 446.067 274.056C446.583 274.056 447.051 273.966 447.471 273.786C447.903 273.594 448.239 273.318 448.479 272.958C448.731 272.586 448.857 272.13 448.857 271.59C448.857 271.122 448.755 270.702 448.551 270.33C448.359 269.958 448.059 269.664 447.651 269.448C447.255 269.232 446.757 269.124 446.157 269.124Z" fill="white"/>
<circle opacity="0.2" cx="409" cy="220" r="217.5" stroke="#FFE49F" stroke-width="5"/>
<circle opacity="0.4" cx="409" cy="219" r="207.5" stroke="#FFE49F" stroke-width="5"/>
<circle opacity="0.6" cx="409" cy="218.781" r="197.5" stroke="#FFE49F" stroke-width="5"/>
<circle opacity="0.8" cx="409" cy="218.781" r="187.5" stroke="#FFE49F" stroke-width="5"/>
<circle opacity="0.6" cx="409" cy="218.781" r="177.5" stroke="#FFE49F" stroke-width="5"/>
<circle opacity="0.7" cx="409" cy="218.781" r="167.5" stroke="#FFE49F" stroke-width="5"/>
<circle opacity="0.8" cx="409" cy="218.781" r="157.5" stroke="#FFE49F" stroke-width="5"/>
<circle opacity="0.9" cx="409" cy="218.781" r="147.5" stroke="#FFE49F" stroke-width="5"/>
</g>
<defs>
<radialGradient id="paint0_radial_4956_8115" cx="0" cy="0" r="1" gradientUnits="userSpaceOnUse" gradientTransform="translate(408.545 220) scale(408.455 758.51)">
<stop offset="0.550856"/>
<stop offset="1" stop-opacity="0"/>
</radialGradient>
<radialGradient id="paint1_radial_4956_8115" cx="0" cy="0" r="1" gradientUnits="userSpaceOnUse" gradientTransform="translate(408.5 218) scale(406.5 1208.35)">
<stop offset="0.430504" stop-color="#FFCF53"/>
<stop offset="1" stop-color="#FFE49F"/>
</radialGradient>
<linearGradient id="paint2_linear_4956_8115" x1="5.00001" y1="218.391" x2="759.993" y2="9.11804" gradientUnits="userSpaceOnUse">
<stop stop-color="#FFCF53"/>
<stop offset="0.348958" stop-color="#FFE49F"/>
<stop offset="0.625" stop-color="#FFE49F"/>
<stop offset="1" stop-color="#FFCF53"/>
</linearGradient>
<linearGradient id="paint3_linear_4956_8115" x1="5.00001" y1="218.391" x2="751.484" y2="-4.4398" gradientUnits="userSpaceOnUse">
<stop stop-color="#FFCF53"/>
<stop offset="0.348958" stop-color="#FFE49F"/>
<stop offset="0.625" stop-color="#FFE49F"/>
<stop offset="1" stop-color="#FFCF53"/>
</linearGradient>
<linearGradient id="paint4_linear_4956_8115" x1="5.00001" y1="218.391" x2="741.029" y2="-19.6281" gradientUnits="userSpaceOnUse">
<stop stop-color="#FFCF53"/>
<stop offset="0.348958" stop-color="#FFE49F"/>
<stop offset="0.625" stop-color="#FFE49F"/>
<stop offset="1" stop-color="#FFCF53"/>
</linearGradient>
<linearGradient id="paint5_linear_4956_8115" x1="5.00001" y1="218.391" x2="728.017" y2="-36.676" gradientUnits="userSpaceOnUse">
<stop stop-color="#FFCF53"/>
<stop offset="0.348958" stop-color="#FFE49F"/>
<stop offset="0.625" stop-color="#FFE49F"/>
<stop offset="1" stop-color="#FFCF53"/>
</linearGradient>
<linearGradient id="paint6_linear_4956_8115" x1="5.00001" y1="218.391" x2="711.594" y2="-55.8095" gradientUnits="userSpaceOnUse">
<stop stop-color="#FFCF53"/>
<stop offset="0.348958" stop-color="#FFE49F"/>
<stop offset="0.625" stop-color="#FFE49F"/>
<stop offset="1" stop-color="#FFCF53"/>
</linearGradient>
<radialGradient id="paint7_radial_4956_8115" cx="0" cy="0" r="1" gradientUnits="userSpaceOnUse" gradientTransform="translate(409 218.391) rotate(90) scale(140)">
<stop stop-color="#FFE49F"/>
<stop offset="1" stop-color="#FFCF53"/>
</radialGradient>
<linearGradient id="paint8_linear_4956_8115" x1="409" y1="356.833" x2="382.774" y2="80.7264" gradientUnits="userSpaceOnUse">
<stop stop-color="#FFCF53"/>
<stop offset="0.348958" stop-color="#FFE49F"/>
<stop offset="0.625" stop-color="#FFE49F"/>
<stop offset="1" stop-color="#FFCF53"/>
</linearGradient>
</defs>
</svg>
